  0
SECTION
  2
HEADER
  9
$ACADVER
  1
AC1014
  9
$HANDSEED
  5
FFFF
  9
$INSUNITS
 70
     4
  9
$MEASUREMENT
 70
     1
  0
ENDSEC
  0
SECTION
  2
TABLES
  0
TABLE
  2
VPORT
  5
8
330
0
100
AcDbSymbolTable
 70
     4
  0
VPORT
  5
2E
330
8
100
AcDbSymbolTableRecord
100
AcDbViewportTableRecord
  2
*ACTIVE
 70
     0
 10
0.0
 20
0.0
 11
1.0
 21
1.0
 12
210.0
 22
148.5
 13
0.0
 23
0.0
 14
10.0
 24
10.0
 15
10.0
 25
10.0
 16
0.0
 26
0.0
 36
1.0
 17
0.0
 27
0.0
 37
0.0
 40
341.0
 41
1.24
 42
50.0
 43
0.0
 44
0.0
 50
0.0
 51
0.0
 71
     0
 72
   100
 73
     1
 74
     3
 75
     0
 76
     0
 77
     0
 78
     0
  0
ENDTAB
  0
TABLE
  2
LTYPE
  5
5
330
0
100
AcDbSymbolTable
 70
     1
  0
LTYPE
  5
14
330
5
100
AcDbSymbolTableRecord
100
AcDbLinetypeTableRecord
  2
BYBLOCK
 70
     0
  3

 72
    65
 73
     0
 40
0.0
  0
LTYPE
  5
15
330
5
100
AcDbSymbolTableRecord
100
AcDbLinetypeTableRecord
  2
BYLAYER
 70
     0
  3

 72
    65
 73
     0
 40
0.0
  0
LTYPE
  5
16
330
5
100
AcDbSymbolTableRecord
100
AcDbLinetypeTableRecord
  2
CONTINUOUS
 70
     0
  3
Solid line
 72
    65
 73
     0
 40
0.0
  0
ENDTAB
  0
TABLE
  2
LAYER
  5
2
100
AcDbSymbolTable
 70
7
  0
LAYER
  5
50
100
AcDbSymbolTableRecord
100
AcDbLayerTableRecord
  2
0
 70
0
  6
CONTINUOUS
  0
LAYER
  5
51
100
AcDbSymbolTableRecord
100
AcDbLayerTableRecord
  2
Circle_BG
 70
0
  6
CONTINUOUS
  0
LAYER
  5
52
100
AcDbSymbolTableRecord
100
AcDbLayerTableRecord
  2
Circle_Margin
 70
0
  6
CONTINUOUS
  0
LAYER
  5
53
100
AcDbSymbolTableRecord
100
AcDbLayerTableRecord
  2
xmas_text
 70
0
  6
CONTINUOUS
  0
LAYER
  5
54
100
AcDbSymbolTableRecord
100
AcDbLayerTableRecord
  2
solstice_text
 70
0
  6
CONTINUOUS
  0
LAYER
  5
55
100
AcDbSymbolTableRecord
100
AcDbLayerTableRecord
  2
Export_xmas
 70
0
  6
CONTINUOUS
  0
LAYER
  5
56
100
AcDbSymbolTableRecord
100
AcDbLayerTableRecord
  2
Export_Solstice
 70
0
  6
CONTINUOUS
  0
ENDTAB
  0
TABLE
  2
STYLE
  5
3
330
0
100
AcDbSymbolTable
 70
     1
  0
STYLE
  5
11
330
3
100
AcDbSymbolTableRecord
100
AcDbTextStyleTableRecord
  2
STANDARD
 70
     0
 40
0.0
 41
1.0
 50
0.0
 71
     0
 42
2.5
  3
txt
  4

  0
ENDTAB
  0
TABLE
  2
VIEW
  5
6
330
0
100
AcDbSymbolTable
 70
     0
  0
ENDTAB
  0
TABLE
  2
UCS
  5
7
330
0
100
AcDbSymbolTable
 70
     0
  0
ENDTAB
  0
TABLE
  2
APPID
  5
9
330
0
100
AcDbSymbolTable
 70
     2
  0
APPID
  5
12
330
9
100
AcDbSymbolTableRecord
100
AcDbRegAppTableRecord
  2
ACAD
 70
     0
  0
ENDTAB
  0
TABLE
  2
DIMSTYLE
  5
A
330
0
100
AcDbSymbolTable
 70
     1
  0
DIMSTYLE
105
27
330
A
100
AcDbSymbolTableRecord
100
AcDbDimStyleTableRecord
  2
ISO-25
 70
     0
  3

  4

  5

  6

  7

 40
1.0
 41
2.5
 42
0.625
 43
3.75
 44
1.25
 45
0.0
 46
0.0
 47
0.0
 48
0.0
140
2.5
141
2.5
142
0.0
143
0.03937007874016
144
1.0
145
0.0
146
1.0
147
0.625
 71
     0
 72
     0
 73
     0
 74
     0
 75
     0
 76
     0
 77
     1
 78
     8
170
     0
171
     3
172
     1
173
     0
174
     0
175
     0
176
     0
177
     0
178
     0
270
     2
271
     2
272
     2
273
     2
274
     3
340
11
275
     0
280
     0
281
     0
282
     0
283
     0
284
     8
285
     0
286
     0
287
     3
288
     0
  0
ENDTAB
  0
TABLE
  2
BLOCK_RECORD
  5
1
330
0
100
AcDbSymbolTable
 70
     1
  0
BLOCK_RECORD
  5
1F
330
1
100
AcDbSymbolTableRecord
100
AcDbBlockTableRecord
  2
*MODEL_SPACE
  0
BLOCK_RECORD
  5
1B
330
1
100
AcDbSymbolTableRecord
100
AcDbBlockTableRecord
  2
*PAPER_SPACE
  0
ENDTAB
  0
ENDSEC
  0
SECTION
  2
BLOCKS
  0
BLOCK
  5
20
330
1F
100
AcDbEntity
  8
0
100
AcDbBlockBegin
  2
*MODEL_SPACE
 70
     0
 10
0.0
 20
0.0
 30
0.0
  3
*MODEL_SPACE
  1

  0
ENDBLK
  5
21
330
1F
100
AcDbEntity
  8
0
100
AcDbBlockEnd
  0
BLOCK
  5
1C
330
1B
100
AcDbEntity
 67
     1
  8
0
100
AcDbBlockBegin
  2
*PAPER_SPACE
  1

  0
ENDBLK
  5
1D
330
1B
100
AcDbEntity
 67
     1
  8
0
100
AcDbBlockEnd
  0
ENDSEC
  0
SECTION
  2
ENTITIES
  0
LINE
  5
100
100
AcDbEntity
  8
Export_xmas
 62
7
100
AcDbLine
 10
24.941113
 20
49.737545
 30
0.0
 11
24.420215
 21
49.622823
 31
0.0
  0
LINE
  5
101
100
AcDbEntity
  8
Export_xmas
 62
7
100
AcDbLine
 10
24.420215
 20
49.622823
 30
0.0
 11
23.927222
 21
49.330334
 31
0.0
  0
LINE
  5
102
100
AcDbEntity
  8
Export_xmas
 62
7
100
AcDbLine
 10
23.927222
 20
49.330334
 30
0.0
 11
23.532414
 21
48.872481
 31
0.0
  0
LINE
  5
103
100
AcDbEntity
  8
Export_xmas
 62
7
100
AcDbLine
 10
23.532414
 20
48.872481
 30
0.0
 11
23.399605
 21
48.390340
 31
0.0
  0
LINE
  5
104
100
AcDbEntity
  8
Export_xmas
 62
7
100
AcDbLine
 10
23.399605
 20
48.390340
 30
0.0
 11
23.535514
 21
48.052376
 31
0.0
  0
LINE
  5
105
100
AcDbEntity
  8
Export_xmas
 62
7
100
AcDbLine
 10
23.535514
 20
48.052376
 30
0.0
 11
23.937557
 21
47.952124
 31
0.0
  0
LINE
  5
106
100
AcDbEntity
  8
Export_xmas
 62
7
100
AcDbLine
 10
23.937557
 20
47.952124
 30
0.0
 11
23.932357
 21
47.961944
 31
0.0
  0
LINE
  5
107
100
AcDbEntity
  8
Export_xmas
 62
7
100
AcDbLine
 10
23.932357
 20
47.961944
 30
0.0
 11
23.922017
 21
47.991400
 31
0.0
  0
LINE
  5
108
100
AcDbEntity
  8
Export_xmas
 62
7
100
AcDbLine
 10
23.922017
 20
47.991400
 30
0.0
 11
23.874477
 21
48.119041
 31
0.0
  0
LINE
  5
109
100
AcDbEntity
  8
Export_xmas
 62
7
100
AcDbLine
 10
23.874477
 20
48.119041
 30
0.0
 11
23.861037
 21
48.291640
 31
0.0
  0
LINE
  5
10a
100
AcDbEntity
  8
Export_xmas
 62
7
100
AcDbLine
 10
23.861037
 20
48.291640
 30
0.0
 11
24.048106
 21
48.992373
 31
0.0
  0
LINE
  5
10b
100
AcDbEntity
  8
Export_xmas
 62
7
100
AcDbLine
 10
24.048106
 20
48.992373
 30
0.0
 11
24.622270
 21
49.419735
 31
0.0
  0
LINE
  5
10c
100
AcDbEntity
  8
Export_xmas
 62
7
100
AcDbLine
 10
24.622270
 20
49.419735
 30
0.0
 11
23.441463
 21
46.000305
 31
0.0
  0
LINE
  5
10d
100
AcDbEntity
  8
Export_xmas
 62
7
100
AcDbLine
 10
23.441463
 20
46.000305
 30
0.0
 11
23.836788
 21
46.008575
 31
0.0
  0
LINE
  5
10e
100
AcDbEntity
  8
Export_xmas
 62
7
100
AcDbLine
 10
23.836788
 20
46.008575
 30
0.0
 11
24.612968
 21
48.253399
 31
0.0
  0
LINE
  5
10f
100
AcDbEntity
  8
Export_xmas
 62
7
100
AcDbLine
 10
24.612968
 20
48.253399
 30
0.0
 11
24.562328
 21
46.024595
 31
0.0
  0
LINE
  5
110
100
AcDbEntity
  8
Export_xmas
 62
7
100
AcDbLine
 10
24.562328
 20
46.024595
 30
0.0
 11
25.238773
 21
46.039064
 31
0.0
  0
LINE
  5
111
100
AcDbEntity
  8
Export_xmas
 62
7
100
AcDbLine
 10
25.238773
 20
46.039064
 30
0.0
 11
26.118822
 21
48.276137
 31
0.0
  0
LINE
  5
112
100
AcDbEntity
  8
Export_xmas
 62
7
100
AcDbLine
 10
26.118822
 20
48.276137
 30
0.0
 11
25.851138
 21
46.052500
 31
0.0
  0
LINE
  5
113
100
AcDbEntity
  8
Export_xmas
 62
7
100
AcDbLine
 10
25.851138
 20
46.052500
 30
0.0
 11
26.562206
 21
46.068003
 31
0.0
  0
LINE
  5
114
100
AcDbEntity
  8
Export_xmas
 62
7
100
AcDbLine
 10
26.562206
 20
46.068003
 30
0.0
 11
27.001456
 21
49.713258
 31
0.0
  0
LINE
  5
115
100
AcDbEntity
  8
Export_xmas
 62
7
100
AcDbLine
 10
27.001456
 20
49.713258
 30
0.0
 11
26.290388
 21
49.697755
 31
0.0
  0
LINE
  5
116
100
AcDbEntity
  8
Export_xmas
 62
7
100
AcDbLine
 10
26.290388
 20
49.697755
 30
0.0
 11
25.260993
 21
47.072076
 31
0.0
  0
LINE
  5
117
100
AcDbEntity
  8
Export_xmas
 62
7
100
AcDbLine
 10
25.260993
 20
47.072076
 30
0.0
 11
25.317833
 21
49.676568
 31
0.0
  0
LINE
  5
118
100
AcDbEntity
  8
Export_xmas
 62
7
100
AcDbLine
 10
25.317833
 20
49.676568
 30
0.0
 11
25.129214
 21
49.722043
 31
0.0
  0
LINE
  5
119
100
AcDbEntity
  8
Export_xmas
 62
7
100
AcDbLine
 10
25.129214
 20
49.722043
 30
0.0
 11
24.941112
 21
49.737546
 31
0.0
  0
LINE
  5
11a
100
AcDbEntity
  8
Export_xmas
 62
7
100
AcDbLine
 10
24.941112
 20
49.737546
 30
0.0
 11
24.941113
 21
49.737545
 31
0.0
  0
LINE
  5
11b
100
AcDbEntity
  8
Export_xmas
 62
7
100
AcDbLine
 10
28.425655
 20
48.328845
 30
0.0
 11
28.141951
 21
48.249263
 31
0.0
  0
LINE
  5
11c
100
AcDbEntity
  8
Export_xmas
 62
7
100
AcDbLine
 10
28.141951
 20
48.249263
 30
0.0
 11
27.654643
 21
47.863240
 31
0.0
  0
LINE
  5
11d
100
AcDbEntity
  8
Export_xmas
 62
7
100
AcDbLine
 10
27.654643
 20
47.863240
 30
0.0
 11
27.348201
 21
47.334590
 31
0.0
  0
LINE
  5
11e
100
AcDbEntity
  8
Export_xmas
 62
7
100
AcDbLine
 10
27.348201
 20
47.334590
 30
0.0
 11
27.184387
 21
46.753231
 31
0.0
  0
LINE
  5
11f
100
AcDbEntity
  8
Export_xmas
 62
7
100
AcDbLine
 10
27.184387
 20
46.753231
 30
0.0
 11
27.301176
 21
46.146032
 31
0.0
  0
LINE
  5
120
100
AcDbEntity
  8
Export_xmas
 62
7
100
AcDbLine
 10
27.301176
 20
46.146032
 30
0.0
 11
27.849463
 21
45.876798
 31
0.0
  0
LINE
  5
121
100
AcDbEntity
  8
Export_xmas
 62
7
100
AcDbLine
 10
27.849463
 20
45.876798
 30
0.0
 11
28.607556
 21
46.004439
 31
0.0
  0
LINE
  5
122
100
AcDbEntity
  8
Export_xmas
 62
7
100
AcDbLine
 10
28.607556
 20
46.004439
 30
0.0
 11
29.312423
 21
46.611637
 31
0.0
  0
LINE
  5
123
100
AcDbEntity
  8
Export_xmas
 62
7
100
AcDbLine
 10
29.312423
 20
46.611637
 30
0.0
 11
29.145508
 21
46.632824
 31
0.0
  0
LINE
  5
124
100
AcDbEntity
  8
Export_xmas
 62
7
100
AcDbLine
 10
29.145508
 20
46.632824
 30
0.0
 11
28.649931
 21
46.297444
 31
0.0
  0
LINE
  5
125
100
AcDbEntity
  8
Export_xmas
 62
7
100
AcDbLine
 10
28.649931
 20
46.297444
 30
0.0
 11
28.215332
 21
46.248351
 31
0.0
  0
LINE
  5
126
100
AcDbEntity
  8
Export_xmas
 62
7
100
AcDbLine
 10
28.215332
 20
46.248351
 30
0.0
 11
27.948165
 21
46.377025
 31
0.0
  0
LINE
  5
127
100
AcDbEntity
  8
Export_xmas
 62
7
100
AcDbLine
 10
27.948165
 20
46.377025
 30
0.0
 11
27.915095
 21
46.704654
 31
0.0
  0
LINE
  5
128
100
AcDbEntity
  8
Export_xmas
 62
7
100
AcDbLine
 10
27.915095
 20
46.704654
 30
0.0
 11
27.923895
 21
46.773384
 31
0.0
  0
LINE
  5
129
100
AcDbEntity
  8
Export_xmas
 62
7
100
AcDbLine
 10
27.923895
 20
46.773384
 30
0.0
 11
27.949735
 21
46.899474
 31
0.0
  0
LINE
  5
12a
100
AcDbEntity
  8
Export_xmas
 62
7
100
AcDbLine
 10
27.949735
 20
46.899474
 30
0.0
 11
28.390388
 21
46.937932
 31
0.0
  0
LINE
  5
12b
100
AcDbEntity
  8
Export_xmas
 62
7
100
AcDbLine
 10
28.390388
 20
46.937932
 30
0.0
 11
28.784826
 21
47.121683
 31
0.0
  0
LINE
  5
12c
100
AcDbEntity
  8
Export_xmas
 62
7
100
AcDbLine
 10
28.784826
 20
47.121683
 30
0.0
 11
29.076713
 21
47.419439
 31
0.0
  0
LINE
  5
12d
100
AcDbEntity
  8
Export_xmas
 62
7
100
AcDbLine
 10
29.076713
 20
47.419439
 30
0.0
 11
29.208573
 21
47.789859
 31
0.0
  0
LINE
  5
12e
100
AcDbEntity
  8
Export_xmas
 62
7
100
AcDbLine
 10
29.208573
 20
47.789859
 30
0.0
 11
29.116073
 21
48.159863
 31
0.0
  0
LINE
  5
12f
100
AcDbEntity
  8
Export_xmas
 62
7
100
AcDbLine
 10
29.116073
 20
48.159863
 30
0.0
 11
28.729534
 21
48.328845
 31
0.0
  0
LINE
  5
130
100
AcDbEntity
  8
Export_xmas
 62
7
100
AcDbLine
 10
28.729534
 20
48.328845
 30
0.0
 11
28.425676
 21
48.328845
 31
0.0
  0
LINE
  5
131
100
AcDbEntity
  8
Export_xmas
 62
7
100
AcDbLine
 10
28.425676
 20
48.328845
 30
0.0
 11
28.425655
 21
48.328845
 31
0.0
  0
LINE
  5
132
100
AcDbEntity
  8
Export_xmas
 62
7
100
AcDbLine
 10
21.003886
 20
48.091134
 30
0.0
 11
20.313489
 21
47.920085
 31
0.0
  0
LINE
  5
133
100
AcDbEntity
  8
Export_xmas
 62
7
100
AcDbLine
 10
20.313489
 20
47.920085
 30
0.0
 11
20.323819
 21
47.652918
 31
0.0
  0
LINE
  5
134
100
AcDbEntity
  8
Export_xmas
 62
7
100
AcDbLine
 10
20.323819
 20
47.652918
 30
0.0
 11
20.315519
 21
47.686507
 31
0.0
  0
LINE
  5
135
100
AcDbEntity
  8
Export_xmas
 62
7
100
AcDbLine
 10
20.315519
 20
47.686507
 30
0.0
 11
20.170825
 21
47.838953
 31
0.0
  0
LINE
  5
136
100
AcDbEntity
  8
Export_xmas
 62
7
100
AcDbLine
 10
20.170825
 20
47.838953
 30
0.0
 11
19.866451
 21
47.834823
 31
0.0
  0
LINE
  5
137
100
AcDbEntity
  8
Export_xmas
 62
7
100
AcDbLine
 10
19.866451
 20
47.834823
 30
0.0
 11
19.391544
 21
47.554220
 31
0.0
  0
LINE
  5
138
100
AcDbEntity
  8
Export_xmas
 62
7
100
AcDbLine
 10
19.391544
 20
47.554220
 30
0.0
 11
19.086137
 21
47.020402
 31
0.0
  0
LINE
  5
139
100
AcDbEntity
  8
Export_xmas
 62
7
100
AcDbLine
 10
19.086137
 20
47.020402
 30
0.0
 11
18.992607
 21
46.432841
 31
0.0
  0
LINE
  5
13a
100
AcDbEntity
  8
Export_xmas
 62
7
100
AcDbLine
 10
18.992607
 20
46.432841
 30
0.0
 11
19.050487
 21
45.851481
 31
0.0
  0
LINE
  5
13b
100
AcDbEntity
  8
Export_xmas
 62
7
100
AcDbLine
 10
19.050487
 20
45.851481
 30
0.0
 11
19.359512
 21
45.322831
 31
0.0
  0
LINE
  5
13c
100
AcDbEntity
  8
Export_xmas
 62
7
100
AcDbLine
 10
19.359512
 20
45.322831
 30
0.0
 11
19.879377
 21
45.238082
 31
0.0
  0
LINE
  5
13d
100
AcDbEntity
  8
Export_xmas
 62
7
100
AcDbLine
 10
19.879377
 20
45.238082
 30
0.0
 11
20.235427
 21
45.443238
 31
0.0
  0
LINE
  5
13e
100
AcDbEntity
  8
Export_xmas
 62
7
100
AcDbLine
 10
20.235427
 20
45.443238
 30
0.0
 11
20.483991
 21
45.856133
 31
0.0
  0
LINE
  5
13f
100
AcDbEntity
  8
Export_xmas
 62
7
100
AcDbLine
 10
20.483991
 20
45.856133
 30
0.0
 11
20.704133
 21
45.564678
 31
0.0
  0
LINE
  5
140
100
AcDbEntity
  8
Export_xmas
 62
7
100
AcDbLine
 10
20.704133
 20
45.564678
 30
0.0
 11
21.063284
 21
45.531605
 31
0.0
  0
LINE
  5
141
100
AcDbEntity
  8
Export_xmas
 62
7
100
AcDbLine
 10
21.063284
 20
45.531605
 30
0.0
 11
21.574364
 21
45.892306
 31
0.0
  0
LINE
  5
142
100
AcDbEntity
  8
Export_xmas
 62
7
100
AcDbLine
 10
21.574364
 20
45.892306
 30
0.0
 11
21.806908
 21
46.657117
 31
0.0
  0
LINE
  5
143
100
AcDbEntity
  8
Export_xmas
 62
7
100
AcDbLine
 10
21.806908
 20
46.657117
 30
0.0
 11
21.605886
 21
46.606991
 31
0.0
  0
LINE
  5
144
100
AcDbEntity
  8
Export_xmas
 62
7
100
AcDbLine
 10
21.605886
 20
46.606991
 30
0.0
 11
21.525786
 21
46.231304
 31
0.0
  0
LINE
  5
145
100
AcDbEntity
  8
Export_xmas
 62
7
100
AcDbLine
 10
21.525786
 20
46.231304
 30
0.0
 11
21.328899
 21
46.060255
 31
0.0
  0
LINE
  5
146
100
AcDbEntity
  8
Export_xmas
 62
7
100
AcDbLine
 10
21.328899
 20
46.060255
 30
0.0
 11
21.168702
 21
46.071624
 31
0.0
  0
LINE
  5
147
100
AcDbEntity
  8
Export_xmas
 62
7
100
AcDbLine
 10
21.168702
 20
46.071624
 30
0.0
 11
21.081372
 21
46.217868
 31
0.0
  0
LINE
  5
148
100
AcDbEntity
  8
Export_xmas
 62
7
100
AcDbLine
 10
21.081372
 20
46.217868
 30
0.0
 11
21.068452
 21
46.290732
 31
0.0
  0
LINE
  5
149
100
AcDbEntity
  8
Export_xmas
 62
7
100
AcDbLine
 10
21.068452
 20
46.290732
 30
0.0
 11
21.062752
 21
46.375998
 31
0.0
  0
LINE
  5
14a
100
AcDbEntity
  8
Export_xmas
 62
7
100
AcDbLine
 10
21.062752
 20
46.375998
 30
0.0
 11
21.003886
 21
48.091134
 31
0.0
  0
LINE
  5
14b
100
AcDbEntity
  8
Export_xmas
 62
7
100
AcDbLine
 10
30.006437
 20
48.070463
 30
0.0
 11
28.953788
 21
45.776546
 31
0.0
  0
LINE
  5
14c
100
AcDbEntity
  8
Export_xmas
 62
7
100
AcDbLine
 10
28.953788
 20
45.776546
 30
0.0
 11
29.647803
 21
45.620483
 31
0.0
  0
LINE
  5
14d
100
AcDbEntity
  8
Export_xmas
 62
7
100
AcDbLine
 10
29.647803
 20
45.620483
 30
0.0
 11
30.445170
 21
47.364562
 31
0.0
  0
LINE
  5
14e
100
AcDbEntity
  8
Export_xmas
 62
7
100
AcDbLine
 10
30.445170
 20
47.364562
 30
0.0
 11
30.676164
 21
47.469466
 31
0.0
  0
LINE
  5
14f
100
AcDbEntity
  8
Export_xmas
 62
7
100
AcDbLine
 10
30.676164
 20
47.469466
 30
0.0
 11
30.837911
 21
47.468436
 31
0.0
  0
LINE
  5
150
100
AcDbEntity
  8
Export_xmas
 62
7
100
AcDbLine
 10
30.837911
 20
47.468436
 30
0.0
 11
30.885451
 21
47.432263
 31
0.0
  0
LINE
  5
151
100
AcDbEntity
  8
Export_xmas
 62
7
100
AcDbLine
 10
30.885451
 20
47.432263
 30
0.0
 11
30.897851
 21
47.328393
 31
0.0
  0
LINE
  5
152
100
AcDbEntity
  8
Export_xmas
 62
7
100
AcDbLine
 10
30.897851
 20
47.328393
 30
0.0
 11
30.924721
 21
47.155277
 31
0.0
  0
LINE
  5
153
100
AcDbEntity
  8
Export_xmas
 62
7
100
AcDbLine
 10
30.924721
 20
47.155277
 30
0.0
 11
31.046161
 21
47.087581
 31
0.0
  0
LINE
  5
154
100
AcDbEntity
  8
Export_xmas
 62
7
100
AcDbLine
 10
31.046161
 20
47.087581
 30
0.0
 11
31.319529
 21
47.132539
 31
0.0
  0
LINE
  5
155
100
AcDbEntity
  8
Export_xmas
 62
7
100
AcDbLine
 10
31.319529
 20
47.132539
 30
0.0
 11
31.471975
 21
47.361466
 31
0.0
  0
LINE
  5
156
100
AcDbEntity
  8
Export_xmas
 62
7
100
AcDbLine
 10
31.471975
 20
47.361466
 30
0.0
 11
31.437865
 21
47.637418
 31
0.0
  0
LINE
  5
157
100
AcDbEntity
  8
Export_xmas
 62
7
100
AcDbLine
 10
31.437865
 20
47.637418
 30
0.0
 11
31.220824
 21
47.797615
 31
0.0
  0
LINE
  5
158
100
AcDbEntity
  8
Export_xmas
 62
7
100
AcDbLine
 10
31.220824
 20
47.797615
 30
0.0
 11
30.956241
 21
47.791415
 31
0.0
  0
LINE
  5
159
100
AcDbEntity
  8
Export_xmas
 62
7
100
AcDbLine
 10
30.956241
 20
47.791415
 30
0.0
 11
30.570735
 21
47.629667
 31
0.0
  0
LINE
  5
15a
100
AcDbEntity
  8
Export_xmas
 62
7
100
AcDbLine
 10
30.570735
 20
47.629667
 30
0.0
 11
30.700443
 21
47.914404
 31
0.0
  0
LINE
  5
15b
100
AcDbEntity
  8
Export_xmas
 62
7
100
AcDbLine
 10
30.700443
 20
47.914404
 30
0.0
 11
30.006437
 21
48.070463
 31
0.0
  0
LINE
  5
15c
100
AcDbEntity
  8
Export_xmas
 62
7
100
AcDbLine
 10
28.735714
 20
48.064263
 30
0.0
 11
28.822534
 21
48.003285
 31
0.0
  0
LINE
  5
15d
100
AcDbEntity
  8
Export_xmas
 62
7
100
AcDbLine
 10
28.822534
 20
48.003285
 30
0.0
 11
28.832334
 21
47.847738
 31
0.0
  0
LINE
  5
15e
100
AcDbEntity
  8
Export_xmas
 62
7
100
AcDbLine
 10
28.832334
 20
47.847738
 30
0.0
 11
28.547080
 21
47.326323
 31
0.0
  0
LINE
  5
15f
100
AcDbEntity
  8
Export_xmas
 62
7
100
AcDbLine
 10
28.547080
 20
47.326323
 30
0.0
 11
28.018947
 21
47.129953
 31
0.0
  0
LINE
  5
160
100
AcDbEntity
  8
Export_xmas
 62
7
100
AcDbLine
 10
28.018947
 20
47.129953
 30
0.0
 11
28.359494
 21
47.808464
 31
0.0
  0
LINE
  5
161
100
AcDbEntity
  8
Export_xmas
 62
7
100
AcDbLine
 10
28.359494
 20
47.808464
 30
0.0
 11
28.735699
 21
48.064263
 31
0.0
  0
LINE
  5
162
100
AcDbEntity
  8
Export_xmas
 62
7
100
AcDbLine
 10
28.735699
 20
48.064263
 30
0.0
 11
28.735714
 21
48.064263
 31
0.0
  0
LINE
  5
163
100
AcDbEntity
  8
Export_xmas
 62
7
100
AcDbLine
 10
20.173962
 20
47.580054
 30
0.0
 11
20.246822
 21
47.552665
 31
0.0
  0
LINE
  5
164
100
AcDbEntity
  8
Export_xmas
 62
7
100
AcDbLine
 10
20.246822
 20
47.552665
 30
0.0
 11
20.330542
 21
47.441044
 31
0.0
  0
LINE
  5
165
100
AcDbEntity
  8
Export_xmas
 62
7
100
AcDbLine
 10
20.330542
 20
47.441044
 30
0.0
 11
20.368782
 21
46.300545
 31
0.0
  0
LINE
  5
166
100
AcDbEntity
  8
Export_xmas
 62
7
100
AcDbLine
 10
20.368782
 20
46.300545
 30
0.0
 11
20.285582
 21
45.959481
 31
0.0
  0
LINE
  5
167
100
AcDbEntity
  8
Export_xmas
 62
7
100
AcDbLine
 10
20.285582
 20
45.959481
 30
0.0
 11
20.075776
 21
45.780164
 31
0.0
  0
LINE
  5
168
100
AcDbEntity
  8
Export_xmas
 62
7
100
AcDbLine
 10
20.075776
 20
45.780164
 30
0.0
 11
19.865970
 21
45.824606
 31
0.0
  0
LINE
  5
169
100
AcDbEntity
  8
Export_xmas
 62
7
100
AcDbLine
 10
19.865970
 20
45.824606
 30
0.0
 11
19.743497
 21
46.094357
 31
0.0
  0
LINE
  5
16a
100
AcDbEntity
  8
Export_xmas
 62
7
100
AcDbLine
 10
19.743497
 20
46.094357
 30
0.0
 11
19.728507
 21
47.016781
 31
0.0
  0
LINE
  5
16b
100
AcDbEntity
  8
Export_xmas
 62
7
100
AcDbLine
 10
19.728507
 20
47.016781
 30
0.0
 11
19.866883
 21
47.402267
 31
0.0
  0
LINE
  5
16c
100
AcDbEntity
  8
Export_xmas
 62
7
100
AcDbLine
 10
19.866883
 20
47.402267
 30
0.0
 11
20.088691
 21
47.574370
 31
0.0
  0
LINE
  5
16d
100
AcDbEntity
  8
Export_xmas
 62
7
100
AcDbLine
 10
20.088691
 20
47.574370
 30
0.0
 11
20.173961
 21
47.580050
 31
0.0
  0
LINE
  5
16e
100
AcDbEntity
  8
Export_xmas
 62
7
100
AcDbLine
 10
20.173961
 20
47.580050
 30
0.0
 11
20.173962
 21
47.580054
 31
0.0
  0
LINE
  5
16f
100
AcDbEntity
  8
Export_xmas
 62
7
100
AcDbLine
 10
32.060575
 20
47.561967
 30
0.0
 11
30.798637
 21
45.376054
 31
0.0
  0
LINE
  5
170
100
AcDbEntity
  8
Export_xmas
 62
7
100
AcDbLine
 10
30.798637
 20
45.376054
 30
0.0
 11
31.474565
 21
45.155913
 31
0.0
  0
LINE
  5
171
100
AcDbEntity
  8
Export_xmas
 62
7
100
AcDbLine
 10
31.474565
 20
45.155913
 30
0.0
 11
32.431612
 21
46.818343
 31
0.0
  0
LINE
  5
172
100
AcDbEntity
  8
Export_xmas
 62
7
100
AcDbLine
 10
32.431612
 20
46.818343
 30
0.0
 11
32.671391
 21
46.901026
 31
0.0
  0
LINE
  5
173
100
AcDbEntity
  8
Export_xmas
 62
7
100
AcDbLine
 10
32.671391
 20
46.901026
 30
0.0
 11
32.832621
 21
46.885005
 31
0.0
  0
LINE
  5
174
100
AcDbEntity
  8
Export_xmas
 62
7
100
AcDbLine
 10
32.832621
 20
46.885005
 30
0.0
 11
32.876541
 21
46.844698
 31
0.0
  0
LINE
  5
175
100
AcDbEntity
  8
Export_xmas
 62
7
100
AcDbLine
 10
32.876541
 20
46.844698
 30
0.0
 11
32.878641
 21
46.740311
 31
0.0
  0
LINE
  5
176
100
AcDbEntity
  8
Export_xmas
 62
7
100
AcDbLine
 10
32.878641
 20
46.740311
 30
0.0
 11
32.889491
 21
46.565128
 31
0.0
  0
LINE
  5
177
100
AcDbEntity
  8
Export_xmas
 62
7
100
AcDbLine
 10
32.889491
 20
46.565128
 30
0.0
 11
33.003696
 21
46.486580
 31
0.0
  0
LINE
  5
178
100
AcDbEntity
  8
Export_xmas
 62
7
100
AcDbLine
 10
33.003696
 20
46.486580
 30
0.0
 11
33.280165
 21
46.505700
 31
0.0
  0
LINE
  5
179
100
AcDbEntity
  8
Export_xmas
 62
7
100
AcDbLine
 10
33.280165
 20
46.505700
 30
0.0
 11
33.453798
 21
46.719124
 31
0.0
  0
LINE
  5
17a
100
AcDbEntity
  8
Export_xmas
 62
7
100
AcDbLine
 10
33.453798
 20
46.719124
 30
0.0
 11
33.445498
 21
46.997143
 31
0.0
  0
LINE
  5
17b
100
AcDbEntity
  8
Export_xmas
 62
7
100
AcDbLine
 10
33.445498
 20
46.997143
 30
0.0
 11
33.244476
 21
47.176977
 31
0.0
  0
LINE
  5
17c
100
AcDbEntity
  8
Export_xmas
 62
7
100
AcDbLine
 10
33.244476
 20
47.176977
 30
0.0
 11
32.980410
 21
47.195581
 31
0.0
  0
LINE
  5
17d
100
AcDbEntity
  8
Export_xmas
 62
7
100
AcDbLine
 10
32.980410
 20
47.195581
 30
0.0
 11
32.580951
 21
47.070524
 31
0.0
  0
LINE
  5
17e
100
AcDbEntity
  8
Export_xmas
 62
7
100
AcDbLine
 10
32.580951
 20
47.070524
 30
0.0
 11
32.737020
 21
47.341825
 31
0.0
  0
LINE
  5
17f
100
AcDbEntity
  8
Export_xmas
 62
7
100
AcDbLine
 10
32.737020
 20
47.341825
 30
0.0
 11
32.060575
 21
47.561967
 31
0.0
  0
LINE
  5
180
100
AcDbEntity
  8
Export_xmas
 62
7
100
AcDbLine
 10
16.866154
 20
46.852450
 30
0.0
 11
16.219165
 21
46.556861
 31
0.0
  0
LINE
  5
181
100
AcDbEntity
  8
Export_xmas
 62
7
100
AcDbLine
 10
16.219165
 20
46.556861
 30
0.0
 11
16.572115
 21
44.975562
 31
0.0
  0
LINE
  5
182
100
AcDbEntity
  8
Export_xmas
 62
7
100
AcDbLine
 10
16.572115
 20
44.975562
 30
0.0
 11
16.555065
 21
44.609176
 31
0.0
  0
LINE
  5
183
100
AcDbEntity
  8
Export_xmas
 62
7
100
AcDbLine
 10
16.555065
 20
44.609176
 30
0.0
 11
16.393834
 21
44.415906
 31
0.0
  0
LINE
  5
184
100
AcDbEntity
  8
Export_xmas
 62
7
100
AcDbLine
 10
16.393834
 20
44.415906
 30
0.0
 11
16.269811
 21
44.413326
 31
0.0
  0
LINE
  5
185
100
AcDbEntity
  8
Export_xmas
 62
7
100
AcDbLine
 10
16.269811
 20
44.413326
 30
0.0
 11
16.174721
 21
44.538383
 31
0.0
  0
LINE
  5
186
100
AcDbEntity
  8
Export_xmas
 62
7
100
AcDbLine
 10
16.174721
 20
44.538383
 30
0.0
 11
16.147851
 21
44.596777
 31
0.0
  0
LINE
  5
187
100
AcDbEntity
  8
Export_xmas
 62
7
100
AcDbLine
 10
16.147851
 20
44.596777
 30
0.0
 11
16.130801
 21
44.670157
 31
0.0
  0
LINE
  5
188
100
AcDbEntity
  8
Export_xmas
 62
7
100
AcDbLine
 10
16.130801
 20
44.670157
 30
0.0
 11
15.756147
 21
46.345507
 31
0.0
  0
LINE
  5
189
100
AcDbEntity
  8
Export_xmas
 62
7
100
AcDbLine
 10
15.756147
 20
46.345507
 30
0.0
 11
15.109675
 21
46.049918
 31
0.0
  0
LINE
  5
18a
100
AcDbEntity
  8
Export_xmas
 62
7
100
AcDbLine
 10
15.109675
 20
46.049918
 30
0.0
 11
15.221296
 21
45.549173
 31
0.0
  0
LINE
  5
18b
100
AcDbEntity
  8
Export_xmas
 62
7
100
AcDbLine
 10
15.221296
 20
45.549173
 30
0.0
 11
15.155146
 21
45.604984
 31
0.0
  0
LINE
  5
18c
100
AcDbEntity
  8
Export_xmas
 62
7
100
AcDbLine
 10
15.155146
 20
45.604984
 30
0.0
 11
14.928804
 21
45.217928
 31
0.0
  0
LINE
  5
18d
100
AcDbEntity
  8
Export_xmas
 62
7
100
AcDbLine
 10
14.928804
 20
45.217928
 30
0.0
 11
14.660603
 21
44.955928
 31
0.0
  0
LINE
  5
18e
100
AcDbEntity
  8
Export_xmas
 62
7
100
AcDbLine
 10
14.660603
 20
44.955928
 30
0.0
 11
14.631143
 21
44.937841
 31
0.0
  0
LINE
  5
18f
100
AcDbEntity
  8
Export_xmas
 62
7
100
AcDbLine
 10
14.631143
 20
44.937841
 30
0.0
 11
14.608923
 21
44.935771
 31
0.0
  0
LINE
  5
190
100
AcDbEntity
  8
Export_xmas
 62
7
100
AcDbLine
 10
14.608923
 20
44.935771
 30
0.0
 11
14.165540
 21
45.359518
 31
0.0
  0
LINE
  5
191
100
AcDbEntity
  8
Export_xmas
 62
7
100
AcDbLine
 10
14.165540
 20
45.359518
 30
0.0
 11
13.657560
 21
45.280970
 31
0.0
  0
LINE
  5
192
100
AcDbEntity
  8
Export_xmas
 62
7
100
AcDbLine
 10
13.657560
 20
45.280970
 30
0.0
 11
13.248283
 21
44.851539
 31
0.0
  0
LINE
  5
193
100
AcDbEntity
  8
Export_xmas
 62
7
100
AcDbLine
 10
13.248283
 20
44.851539
 30
0.0
 11
13.102555
 21
44.247441
 31
0.0
  0
LINE
  5
194
100
AcDbEntity
  8
Export_xmas
 62
7
100
AcDbLine
 10
13.102555
 20
44.247441
 30
0.0
 11
13.180585
 21
43.635592
 31
0.0
  0
LINE
  5
195
100
AcDbEntity
  8
Export_xmas
 62
7
100
AcDbLine
 10
13.180585
 20
43.635592
 30
0.0
 11
13.353701
 21
43.201510
 31
0.0
  0
LINE
  5
196
100
AcDbEntity
  8
Export_xmas
 62
7
100
AcDbLine
 10
13.353701
 20
43.201510
 30
0.0
 11
13.219342
 21
43.096090
 31
0.0
  0
LINE
  5
197
100
AcDbEntity
  8
Export_xmas
 62
7
100
AcDbLine
 10
13.219342
 20
43.096090
 30
0.0
 11
13.316492
 21
42.588628
 31
0.0
  0
LINE
  5
198
100
AcDbEntity
  8
Export_xmas
 62
7
100
AcDbLine
 10
13.316492
 20
42.588628
 30
0.0
 11
13.166113
 21
42.156096
 31
0.0
  0
LINE
  5
199
100
AcDbEntity
  8
Export_xmas
 62
7
100
AcDbLine
 10
13.166113
 20
42.156096
 30
0.0
 11
12.136210
 21
44.260877
 31
0.0
  0
LINE
  5
19a
100
AcDbEntity
  8
Export_xmas
 62
7
100
AcDbLine
 10
12.136210
 20
44.260877
 30
0.0
 11
11.576554
 21
43.822144
 31
0.0
  0
LINE
  5
19b
100
AcDbEntity
  8
Export_xmas
 62
7
100
AcDbLine
 10
11.576554
 20
43.822144
 30
0.0
 11
12.301575
 21
42.337996
 31
0.0
  0
LINE
  5
19c
100
AcDbEntity
  8
Export_xmas
 62
7
100
AcDbLine
 10
12.301575
 20
42.337996
 30
0.0
 11
12.358935
 21
42.000549
 31
0.0
  0
LINE
  5
19d
100
AcDbEntity
  8
Export_xmas
 62
7
100
AcDbLine
 10
12.358935
 20
42.000549
 30
0.0
 11
12.248347
 21
41.781441
 31
0.0
  0
LINE
  5
19e
100
AcDbEntity
  8
Export_xmas
 62
7
100
AcDbLine
 10
12.248347
 20
41.781441
 30
0.0
 11
12.125357
 21
41.754053
 31
0.0
  0
LINE
  5
19f
100
AcDbEntity
  8
Export_xmas
 62
7
100
AcDbLine
 10
12.125357
 20
41.754053
 30
0.0
 11
11.997716
 21
41.861023
 31
0.0
  0
LINE
  5
1a0
100
AcDbEntity
  8
Export_xmas
 62
7
100
AcDbLine
 10
11.997716
 20
41.861023
 30
0.0
 11
11.965156
 21
41.910632
 31
0.0
  0
LINE
  5
1a1
100
AcDbEntity
  8
Export_xmas
 62
7
100
AcDbLine
 10
11.965156
 20
41.910632
 30
0.0
 11
11.933116
 21
41.967476
 31
0.0
  0
LINE
  5
1a2
100
AcDbEntity
  8
Export_xmas
 62
7
100
AcDbLine
 10
11.933116
 20
41.967476
 30
0.0
 11
11.176056
 21
43.507951
 31
0.0
  0
LINE
  5
1a3
100
AcDbEntity
  8
Export_xmas
 62
7
100
AcDbLine
 10
11.176056
 20
43.507951
 30
0.0
 11
10.616917
 21
43.069218
 31
0.0
  0
LINE
  5
1a4
100
AcDbEntity
  8
Export_xmas
 62
7
100
AcDbLine
 10
10.616917
 20
43.069218
 30
0.0
 11
11.331085
 21
41.614526
 31
0.0
  0
LINE
  5
1a5
100
AcDbEntity
  8
Export_xmas
 62
7
100
AcDbLine
 10
11.331085
 20
41.614526
 30
0.0
 11
11.417385
 21
41.456396
 31
0.0
  0
LINE
  5
1a6
100
AcDbEntity
  8
Export_xmas
 62
7
100
AcDbLine
 10
11.417385
 20
41.456396
 30
0.0
 11
11.497995
 21
41.337541
 31
0.0
  0
LINE
  5
1a7
100
AcDbEntity
  8
Export_xmas
 62
7
100
AcDbLine
 10
11.497995
 20
41.337541
 30
0.0
 11
11.878334
 21
41.077091
 31
0.0
  0
LINE
  5
1a8
100
AcDbEntity
  8
Export_xmas
 62
7
100
AcDbLine
 10
11.878334
 20
41.077091
 30
0.0
 11
12.279860
 21
41.197498
 31
0.0
  0
LINE
  5
1a9
100
AcDbEntity
  8
Export_xmas
 62
7
100
AcDbLine
 10
12.279860
 20
41.197498
 30
0.0
 11
12.489666
 21
41.450195
 31
0.0
  0
LINE
  5
1aa
100
AcDbEntity
  8
Export_xmas
 62
7
100
AcDbLine
 10
12.489666
 20
41.450195
 30
0.0
 11
12.575446
 21
41.780924
 31
0.0
  0
LINE
  5
1ab
100
AcDbEntity
  8
Export_xmas
 62
7
100
AcDbLine
 10
12.575446
 20
41.780924
 30
0.0
 11
12.693268
 21
41.534428
 31
0.0
  0
LINE
  5
1ac
100
AcDbEntity
  8
Export_xmas
 62
7
100
AcDbLine
 10
12.693268
 20
41.534428
 30
0.0
 11
12.404397
 21
40.918445
 31
0.0
  0
LINE
  5
1ad
100
AcDbEntity
  8
Export_xmas
 62
7
100
AcDbLine
 10
12.404397
 20
40.918445
 30
0.0
 11
12.514468
 21
40.458525
 31
0.0
  0
LINE
  5
1ae
100
AcDbEntity
  8
Export_xmas
 62
7
100
AcDbLine
 10
12.514468
 20
40.458525
 30
0.0
 11
12.847264
 21
40.274040
 31
0.0
  0
LINE
  5
1af
100
AcDbEntity
  8
Export_xmas
 62
7
100
AcDbLine
 10
12.847264
 20
40.274040
 30
0.0
 11
13.245172
 21
40.422868
 31
0.0
  0
LINE
  5
1b0
100
AcDbEntity
  8
Export_xmas
 62
7
100
AcDbLine
 10
13.245172
 20
40.422868
 30
0.0
 11
13.568667
 21
40.946867
 31
0.0
  0
LINE
  5
1b1
100
AcDbEntity
  8
Export_xmas
 62
7
100
AcDbLine
 10
13.568667
 20
40.946867
 30
0.0
 11
13.426557
 21
41.632613
 31
0.0
  0
LINE
  5
1b2
100
AcDbEntity
  8
Export_xmas
 62
7
100
AcDbLine
 10
13.426557
 20
41.632613
 30
0.0
 11
13.265340
 21
41.957658
 31
0.0
  0
LINE
  5
1b3
100
AcDbEntity
  8
Export_xmas
 62
7
100
AcDbLine
 10
13.265340
 20
41.957658
 30
0.0
 11
13.498401
 21
42.548836
 31
0.0
  0
LINE
  5
1b4
100
AcDbEntity
  8
Export_xmas
 62
7
100
AcDbLine
 10
13.498401
 20
42.548836
 30
0.0
 11
13.429151
 21
43.060433
 31
0.0
  0
LINE
  5
1b5
100
AcDbEntity
  8
Export_xmas
 62
7
100
AcDbLine
 10
13.429151
 20
43.060433
 30
0.0
 11
13.892689
 21
42.687329
 31
0.0
  0
LINE
  5
1b6
100
AcDbEntity
  8
Export_xmas
 62
7
100
AcDbLine
 10
13.892689
 20
42.687329
 30
0.0
 11
14.497303
 21
42.824788
 31
0.0
  0
LINE
  5
1b7
100
AcDbEntity
  8
Export_xmas
 62
7
100
AcDbLine
 10
14.497303
 20
42.824788
 30
0.0
 11
14.813810
 21
43.138125
 31
0.0
  0
LINE
  5
1b8
100
AcDbEntity
  8
Export_xmas
 62
7
100
AcDbLine
 10
14.813810
 20
43.138125
 30
0.0
 11
14.962391
 21
43.589083
 31
0.0
  0
LINE
  5
1b9
100
AcDbEntity
  8
Export_xmas
 62
7
100
AcDbLine
 10
14.962391
 20
43.589083
 30
0.0
 11
14.936740
 21
44.128940
 31
0.0
  0
LINE
  5
1ba
100
AcDbEntity
  8
Export_xmas
 62
7
100
AcDbLine
 10
14.936740
 20
44.128940
 30
0.0
 11
14.730364
 21
44.708911
 31
0.0
  0
LINE
  5
1bb
100
AcDbEntity
  8
Export_xmas
 62
7
100
AcDbLine
 10
14.730364
 20
44.708911
 30
0.0
 11
15.080213
 21
45.102169
 31
0.0
  0
LINE
  5
1bc
100
AcDbEntity
  8
Export_xmas
 62
7
100
AcDbLine
 10
15.080213
 20
45.102169
 30
0.0
 11
15.242994
 21
45.453569
 31
0.0
  0
LINE
  5
1bd
100
AcDbEntity
  8
Export_xmas
 62
7
100
AcDbLine
 10
15.242994
 20
45.453569
 30
0.0
 11
15.462619
 21
44.468616
 31
0.0
  0
LINE
  5
1be
100
AcDbEntity
  8
Export_xmas
 62
7
100
AcDbLine
 10
15.462619
 20
44.468616
 30
0.0
 11
15.509649
 21
44.294466
 31
0.0
  0
LINE
  5
1bf
100
AcDbEntity
  8
Export_xmas
 62
7
100
AcDbLine
 10
15.509649
 20
44.294466
 30
0.0
 11
15.560289
 21
44.160107
 31
0.0
  0
LINE
  5
1c0
100
AcDbEntity
  8
Export_xmas
 62
7
100
AcDbLine
 10
15.560289
 20
44.160107
 30
0.0
 11
15.868797
 21
43.817493
 31
0.0
  0
LINE
  5
1c1
100
AcDbEntity
  8
Export_xmas
 62
7
100
AcDbLine
 10
15.868797
 20
43.817493
 30
0.0
 11
16.287376
 21
43.840747
 31
0.0
  0
LINE
  5
1c2
100
AcDbEntity
  8
Export_xmas
 62
7
100
AcDbLine
 10
16.287376
 20
43.840747
 30
0.0
 11
16.608287
 21
44.112048
 31
0.0
  0
LINE
  5
1c3
100
AcDbEntity
  8
Export_xmas
 62
7
100
AcDbLine
 10
16.608287
 20
44.112048
 30
0.0
 11
16.757115
 21
44.570935
 31
0.0
  0
LINE
  5
1c4
100
AcDbEntity
  8
Export_xmas
 62
7
100
AcDbLine
 10
16.757115
 20
44.570935
 30
0.0
 11
17.037718
 21
44.313586
 31
0.0
  0
LINE
  5
1c5
100
AcDbEntity
  8
Export_xmas
 62
7
100
AcDbLine
 10
17.037718
 20
44.313586
 30
0.0
 11
17.396869
 21
44.347693
 31
0.0
  0
LINE
  5
1c6
100
AcDbEntity
  8
Export_xmas
 62
7
100
AcDbLine
 10
17.396869
 20
44.347693
 30
0.0
 11
17.832501
 21
44.796244
 31
0.0
  0
LINE
  5
1c7
100
AcDbEntity
  8
Export_xmas
 62
7
100
AcDbLine
 10
17.832501
 20
44.796244
 30
0.0
 11
17.919831
 21
45.591028
 31
0.0
  0
LINE
  5
1c8
100
AcDbEntity
  8
Export_xmas
 62
7
100
AcDbLine
 10
17.919831
 20
45.591028
 30
0.0
 11
17.731212
 21
45.504728
 31
0.0
  0
LINE
  5
1c9
100
AcDbEntity
  8
Export_xmas
 62
7
100
AcDbLine
 10
17.731212
 20
45.504728
 30
0.0
 11
17.712092
 21
45.142993
 31
0.0
  0
LINE
  5
1ca
100
AcDbEntity
  8
Export_xmas
 62
7
100
AcDbLine
 10
17.712092
 20
45.142993
 30
0.0
 11
17.548278
 21
44.943522
 31
0.0
  0
LINE
  5
1cb
100
AcDbEntity
  8
Export_xmas
 62
7
100
AcDbLine
 10
17.548278
 20
44.943522
 30
0.0
 11
17.388081
 21
44.913550
 31
0.0
  0
LINE
  5
1cc
100
AcDbEntity
  8
Export_xmas
 62
7
100
AcDbLine
 10
17.388081
 20
44.913550
 30
0.0
 11
17.287829
 21
45.025171
 31
0.0
  0
LINE
  5
1cd
100
AcDbEntity
  8
Export_xmas
 62
7
100
AcDbLine
 10
17.287829
 20
45.025171
 30
0.0
 11
17.261479
 21
45.094934
 31
0.0
  0
LINE
  5
1ce
100
AcDbEntity
  8
Export_xmas
 62
7
100
AcDbLine
 10
17.261479
 20
45.094934
 30
0.0
 11
17.240289
 21
45.177100
 31
0.0
  0
LINE
  5
1cf
100
AcDbEntity
  8
Export_xmas
 62
7
100
AcDbLine
 10
17.240289
 20
45.177100
 30
0.0
 11
16.866154
 21
46.852450
 31
0.0
  0
LINE
  5
1d0
100
AcDbEntity
  8
Export_xmas
 62
7
100
AcDbLine
 10
34.178276
 20
46.827645
 30
0.0
 11
33.219678
 21
45.520748
 31
0.0
  0
LINE
  5
1d1
100
AcDbEntity
  8
Export_xmas
 62
7
100
AcDbLine
 10
33.219678
 20
45.520748
 30
0.0
 11
33.119425
 21
45.370886
 31
0.0
  0
LINE
  5
1d2
100
AcDbEntity
  8
Export_xmas
 62
7
100
AcDbLine
 10
33.119425
 20
45.370886
 30
0.0
 11
33.051725
 21
45.244279
 31
0.0
  0
LINE
  5
1d3
100
AcDbEntity
  8
Export_xmas
 62
7
100
AcDbLine
 10
33.051725
 20
45.244279
 30
0.0
 11
32.996945
 21
44.786943
 31
0.0
  0
LINE
  5
1d4
100
AcDbEntity
  8
Export_xmas
 62
7
100
AcDbLine
 10
32.996945
 20
44.786943
 30
0.0
 11
33.289434
 21
44.486702
 31
0.0
  0
LINE
  5
1d5
100
AcDbEntity
  8
Export_xmas
 62
7
100
AcDbLine
 10
33.289434
 20
44.486702
 30
0.0
 11
33.610345
 21
44.417972
 31
0.0
  0
LINE
  5
1d6
100
AcDbEntity
  8
Export_xmas
 62
7
100
AcDbLine
 10
33.610345
 20
44.417972
 30
0.0
 11
33.943658
 21
44.494971
 31
0.0
  0
LINE
  5
1d7
100
AcDbEntity
  8
Export_xmas
 62
7
100
AcDbLine
 10
33.943658
 20
44.494971
 30
0.0
 11
33.779850
 21
44.276379
 31
0.0
  0
LINE
  5
1d8
100
AcDbEntity
  8
Export_xmas
 62
7
100
AcDbLine
 10
33.779850
 20
44.276379
 30
0.0
 11
33.100305
 21
44.247440
 31
0.0
  0
LINE
  5
1d9
100
AcDbEntity
  8
Export_xmas
 62
7
100
AcDbLine
 10
33.100305
 20
44.247440
 30
0.0
 11
32.743221
 21
43.936865
 31
0.0
  0
LINE
  5
1da
100
AcDbEntity
  8
Export_xmas
 62
7
100
AcDbLine
 10
32.743221
 20
43.936865
 30
0.0
 11
32.733921
 21
43.556526
 31
0.0
  0
LINE
  5
1db
100
AcDbEntity
  8
Export_xmas
 62
7
100
AcDbLine
 10
32.733921
 20
43.556526
 30
0.0
 11
33.050181
 21
43.272823
 31
0.0
  0
LINE
  5
1dc
100
AcDbEntity
  8
Export_xmas
 62
7
100
AcDbLine
 10
33.050181
 20
43.272823
 30
0.0
 11
33.664614
 21
43.228381
 31
0.0
  0
LINE
  5
1dd
100
AcDbEntity
  8
Export_xmas
 62
7
100
AcDbLine
 10
33.664614
 20
43.228381
 30
0.0
 11
34.206183
 21
43.672281
 31
0.0
  0
LINE
  5
1de
100
AcDbEntity
  8
Export_xmas
 62
7
100
AcDbLine
 10
34.206183
 20
43.672281
 30
0.0
 11
34.420123
 21
43.965804
 31
0.0
  0
LINE
  5
1df
100
AcDbEntity
  8
Export_xmas
 62
7
100
AcDbLine
 10
34.420123
 20
43.965804
 30
0.0
 11
35.051609
 21
44.032983
 31
0.0
  0
LINE
  5
1e0
100
AcDbEntity
  8
Export_xmas
 62
7
100
AcDbLine
 10
35.051609
 20
44.032983
 30
0.0
 11
35.596796
 21
44.447944
 31
0.0
  0
LINE
  5
1e1
100
AcDbEntity
  8
Export_xmas
 62
7
100
AcDbLine
 10
35.596796
 20
44.447944
 30
0.0
 11
35.407658
 21
44.533211
 31
0.0
  0
LINE
  5
1e2
100
AcDbEntity
  8
Export_xmas
 62
7
100
AcDbLine
 10
35.407658
 20
44.533211
 30
0.0
 11
35.002515
 21
44.212301
 31
0.0
  0
LINE
  5
1e3
100
AcDbEntity
  8
Export_xmas
 62
7
100
AcDbLine
 10
35.002515
 20
44.212301
 30
0.0
 11
34.549829
 21
44.145638
 31
0.0
  0
LINE
  5
1e4
100
AcDbEntity
  8
Export_xmas
 62
7
100
AcDbLine
 10
34.549829
 20
44.145638
 30
0.0
 11
35.938375
 21
46.033378
 31
0.0
  0
LINE
  5
1e5
100
AcDbEntity
  8
Export_xmas
 62
7
100
AcDbLine
 10
35.938375
 20
46.033378
 30
0.0
 11
35.289836
 21
46.325867
 31
0.0
  0
LINE
  5
1e6
100
AcDbEntity
  8
Export_xmas
 62
7
100
AcDbLine
 10
35.289836
 20
46.325867
 30
0.0
 11
34.310567
 21
44.996232
 31
0.0
  0
LINE
  5
1e7
100
AcDbEntity
  8
Export_xmas
 62
7
100
AcDbLine
 10
34.310567
 20
44.996232
 30
0.0
 11
34.038232
 21
44.788493
 31
0.0
  0
LINE
  5
1e8
100
AcDbEntity
  8
Export_xmas
 62
7
100
AcDbLine
 10
34.038232
 20
44.788493
 30
0.0
 11
33.792769
 21
44.785393
 31
0.0
  0
LINE
  5
1e9
100
AcDbEntity
  8
Export_xmas
 62
7
100
AcDbLine
 10
33.792769
 20
44.785393
 30
0.0
 11
33.711639
 21
44.881511
 31
0.0
  0
LINE
  5
1ea
100
AcDbEntity
  8
Export_xmas
 62
7
100
AcDbLine
 10
33.711639
 20
44.881511
 30
0.0
 11
33.747299
 21
45.044292
 31
0.0
  0
LINE
  5
1eb
100
AcDbEntity
  8
Export_xmas
 62
7
100
AcDbLine
 10
33.747299
 20
45.044292
 30
0.0
 11
33.776239
 21
45.096485
 31
0.0
  0
LINE
  5
1ec
100
AcDbEntity
  8
Export_xmas
 62
7
100
AcDbLine
 10
33.776239
 20
45.096485
 30
0.0
 11
33.811379
 21
45.150745
 31
0.0
  0
LINE
  5
1ed
100
AcDbEntity
  8
Export_xmas
 62
7
100
AcDbLine
 10
33.811379
 20
45.150745
 30
0.0
 11
34.826304
 21
46.535156
 31
0.0
  0
LINE
  5
1ee
100
AcDbEntity
  8
Export_xmas
 62
7
100
AcDbLine
 10
34.826304
 20
46.535156
 30
0.0
 11
34.178276
 21
46.827645
 31
0.0
  0
LINE
  5
1ef
100
AcDbEntity
  8
Export_xmas
 62
7
100
AcDbLine
 10
38.983150
 20
45.363652
 30
0.0
 11
38.124805
 21
45.128007
 31
0.0
  0
LINE
  5
1f0
100
AcDbEntity
  8
Export_xmas
 62
7
100
AcDbLine
 10
38.124805
 20
45.128007
 30
0.0
 11
37.437508
 21
44.635531
 31
0.0
  0
LINE
  5
1f1
100
AcDbEntity
  8
Export_xmas
 62
7
100
AcDbLine
 10
37.437508
 20
44.635531
 30
0.0
 11
36.867517
 21
43.991126
 31
0.0
  0
LINE
  5
1f2
100
AcDbEntity
  8
Export_xmas
 62
7
100
AcDbLine
 10
36.867517
 20
43.991126
 30
0.0
 11
36.606680
 21
43.501975
 31
0.0
  0
LINE
  5
1f3
100
AcDbEntity
  8
Export_xmas
 62
7
100
AcDbLine
 10
36.606680
 20
43.501975
 30
0.0
 11
36.547640
 21
43.083687
 31
0.0
  0
LINE
  5
1f4
100
AcDbEntity
  8
Export_xmas
 62
7
100
AcDbLine
 10
36.547640
 20
43.083687
 30
0.0
 11
36.702382
 21
42.716098
 31
0.0
  0
LINE
  5
1f5
100
AcDbEntity
  8
Export_xmas
 62
7
100
AcDbLine
 10
36.702382
 20
42.716098
 30
0.0
 11
37.068538
 21
42.376754
 31
0.0
  0
LINE
  5
1f6
100
AcDbEntity
  8
Export_xmas
 62
7
100
AcDbLine
 10
37.068538
 20
42.376754
 30
0.0
 11
37.900012
 21
42.103385
 31
0.0
  0
LINE
  5
1f7
100
AcDbEntity
  8
Export_xmas
 62
7
100
AcDbLine
 10
37.900012
 20
42.103385
 30
0.0
 11
38.748539
 21
42.334379
 31
0.0
  0
LINE
  5
1f8
100
AcDbEntity
  8
Export_xmas
 62
7
100
AcDbLine
 10
38.748539
 20
42.334379
 30
0.0
 11
38.683429
 21
42.439282
 31
0.0
  0
LINE
  5
1f9
100
AcDbEntity
  8
Export_xmas
 62
7
100
AcDbLine
 10
38.683429
 20
42.439282
 30
0.0
 11
38.122223
 21
42.382438
 31
0.0
  0
LINE
  5
1fa
100
AcDbEntity
  8
Export_xmas
 62
7
100
AcDbLine
 10
38.122223
 20
42.382438
 30
0.0
 11
37.610109
 21
42.579325
 31
0.0
  0
LINE
  5
1fb
100
AcDbEntity
  8
Export_xmas
 62
7
100
AcDbLine
 10
37.610109
 20
42.579325
 30
0.0
 11
37.340875
 21
42.980851
 31
0.0
  0
LINE
  5
1fc
100
AcDbEntity
  8
Export_xmas
 62
7
100
AcDbLine
 10
37.340875
 20
42.980851
 30
0.0
 11
37.559467
 21
43.550325
 31
0.0
  0
LINE
  5
1fd
100
AcDbEntity
  8
Export_xmas
 62
7
100
AcDbLine
 10
37.559467
 20
43.550325
 30
0.0
 11
37.978046
 21
44.053137
 31
0.0
  0
LINE
  5
1fe
100
AcDbEntity
  8
Export_xmas
 62
7
100
AcDbLine
 10
37.978046
 20
44.053137
 30
0.0
 11
38.491709
 21
44.502722
 31
0.0
  0
LINE
  5
1ff
100
AcDbEntity
  8
Export_xmas
 62
7
100
AcDbLine
 10
38.491709
 20
44.502722
 30
0.0
 11
39.208978
 21
44.890295
 31
0.0
  0
LINE
  5
200
100
AcDbEntity
  8
Export_xmas
 62
7
100
AcDbLine
 10
39.208978
 20
44.890295
 30
0.0
 11
39.713857
 21
44.866007
 31
0.0
  0
LINE
  5
201
100
AcDbEntity
  8
Export_xmas
 62
7
100
AcDbLine
 10
39.713857
 20
44.866007
 30
0.0
 11
39.852350
 21
44.674805
 31
0.0
  0
LINE
  5
202
100
AcDbEntity
  8
Export_xmas
 62
7
100
AcDbLine
 10
39.852350
 20
44.674805
 30
0.0
 11
39.790850
 21
44.447428
 31
0.0
  0
LINE
  5
203
100
AcDbEntity
  8
Export_xmas
 62
7
100
AcDbLine
 10
39.790850
 20
44.447428
 30
0.0
 11
39.576909
 21
44.258809
 31
0.0
  0
LINE
  5
204
100
AcDbEntity
  8
Export_xmas
 62
7
100
AcDbLine
 10
39.576909
 20
44.258809
 30
0.0
 11
39.345916
 21
44.201965
 31
0.0
  0
LINE
  5
205
100
AcDbEntity
  8
Export_xmas
 62
7
100
AcDbLine
 10
39.345916
 20
44.201965
 30
0.0
 11
39.391906
 21
44.050553
 31
0.0
  0
LINE
  5
206
100
AcDbEntity
  8
Export_xmas
 62
7
100
AcDbLine
 10
39.391906
 20
44.050553
 30
0.0
 11
39.505077
 21
43.936349
 31
0.0
  0
LINE
  5
207
100
AcDbEntity
  8
Export_xmas
 62
7
100
AcDbLine
 10
39.505077
 20
43.936349
 30
0.0
 11
39.781029
 21
43.884155
 31
0.0
  0
LINE
  5
208
100
AcDbEntity
  8
Export_xmas
 62
7
100
AcDbLine
 10
39.781029
 20
43.884155
 30
0.0
 11
40.047680
 21
44.114632
 31
0.0
  0
LINE
  5
209
100
AcDbEntity
  8
Export_xmas
 62
7
100
AcDbLine
 10
40.047680
 20
44.114632
 30
0.0
 11
40.145870
 21
44.640181
 31
0.0
  0
LINE
  5
20a
100
AcDbEntity
  8
Export_xmas
 62
7
100
AcDbLine
 10
40.145870
 20
44.640181
 30
0.0
 11
39.743827
 21
45.127490
 31
0.0
  0
LINE
  5
20b
100
AcDbEntity
  8
Export_xmas
 62
7
100
AcDbLine
 10
39.743827
 20
45.127490
 30
0.0
 11
38.983150
 21
45.363652
 31
0.0
  0
LINE
  5
20c
100
AcDbEntity
  8
Export_xmas
 62
7
100
AcDbLine
 10
38.983150
 20
45.363652
 30
0.0
 11
38.983150
 21
45.363652
 31
0.0
  0
LINE
  5
20d
100
AcDbEntity
  8
Export_xmas
 62
7
100
AcDbLine
 10
13.925248
 20
45.072197
 30
0.0
 11
13.995528
 21
45.058760
 31
0.0
  0
LINE
  5
20e
100
AcDbEntity
  8
Export_xmas
 62
7
100
AcDbLine
 10
13.995528
 20
45.058760
 30
0.0
 11
14.157792
 21
44.897530
 31
0.0
  0
LINE
  5
20f
100
AcDbEntity
  8
Export_xmas
 62
7
100
AcDbLine
 10
14.157792
 20
44.897530
 30
0.0
 11
14.114902
 21
44.749735
 31
0.0
  0
LINE
  5
210
100
AcDbEntity
  8
Export_xmas
 62
7
100
AcDbLine
 10
14.114902
 20
44.749735
 30
0.0
 11
14.166062
 21
44.590055
 31
0.0
  0
LINE
  5
211
100
AcDbEntity
  8
Export_xmas
 62
7
100
AcDbLine
 10
14.166062
 20
44.590055
 30
0.0
 11
14.266315
 21
44.483602
 31
0.0
  0
LINE
  5
212
100
AcDbEntity
  8
Export_xmas
 62
7
100
AcDbLine
 10
14.266315
 20
44.483602
 30
0.0
 11
14.388271
 21
44.482572
 31
0.0
  0
LINE
  5
213
100
AcDbEntity
  8
Export_xmas
 62
7
100
AcDbLine
 10
14.388271
 20
44.482572
 30
0.0
 11
14.574823
 21
43.740498
 31
0.0
  0
LINE
  5
214
100
AcDbEntity
  8
Export_xmas
 62
7
100
AcDbLine
 10
14.574823
 20
43.740498
 30
0.0
 11
14.434263
 21
43.307450
 31
0.0
  0
LINE
  5
215
100
AcDbEntity
  8
Export_xmas
 62
7
100
AcDbLine
 10
14.434263
 20
43.307450
 30
0.0
 11
14.217739
 21
43.273343
 31
0.0
  0
LINE
  5
216
100
AcDbEntity
  8
Export_xmas
 62
7
100
AcDbLine
 10
14.217739
 20
43.273343
 30
0.0
 11
14.011031
 21
43.517253
 31
0.0
  0
LINE
  5
217
100
AcDbEntity
  8
Export_xmas
 62
7
100
AcDbLine
 10
14.011031
 20
43.517253
 30
0.0
 11
13.714408
 21
44.401436
 31
0.0
  0
LINE
  5
218
100
AcDbEntity
  8
Export_xmas
 62
7
100
AcDbLine
 10
13.714408
 20
44.401436
 30
0.0
 11
13.713671
 21
44.821870
 31
0.0
  0
LINE
  5
219
100
AcDbEntity
  8
Export_xmas
 62
7
100
AcDbLine
 10
13.713671
 20
44.821870
 30
0.0
 11
13.848250
 21
45.044291
 31
0.0
  0
LINE
  5
21a
100
AcDbEntity
  8
Export_xmas
 62
7
100
AcDbLine
 10
13.848250
 20
45.044291
 30
0.0
 11
13.925250
 21
45.072196
 31
0.0
  0
LINE
  5
21b
100
AcDbEntity
  8
Export_xmas
 62
7
100
AcDbLine
 10
13.925250
 20
45.072196
 30
0.0
 11
13.925248
 21
45.072197
 31
0.0
  0
LINE
  5
21c
100
AcDbEntity
  8
Export_xmas
 62
7
100
AcDbLine
 10
33.398478
 20
44.073291
 30
0.0
 11
33.633089
 21
44.071741
 31
0.0
  0
LINE
  5
21d
100
AcDbEntity
  8
Export_xmas
 62
7
100
AcDbLine
 10
33.633089
 20
44.071741
 30
0.0
 11
33.547309
 21
43.953402
 31
0.0
  0
LINE
  5
21e
100
AcDbEntity
  8
Export_xmas
 62
7
100
AcDbLine
 10
33.547309
 20
43.953402
 30
0.0
 11
33.302880
 21
43.711556
 31
0.0
  0
LINE
  5
21f
100
AcDbEntity
  8
Export_xmas
 62
7
100
AcDbLine
 10
33.302880
 20
43.711556
 30
0.0
 11
33.105476
 21
43.670732
 31
0.0
  0
LINE
  5
220
100
AcDbEntity
  8
Export_xmas
 62
7
100
AcDbLine
 10
33.105476
 20
43.670732
 30
0.0
 11
33.017626
 21
43.764266
 31
0.0
  0
LINE
  5
221
100
AcDbEntity
  8
Export_xmas
 62
7
100
AcDbLine
 10
33.017626
 20
43.764266
 30
0.0
 11
33.019226
 21
43.888290
 31
0.0
  0
LINE
  5
222
100
AcDbEntity
  8
Export_xmas
 62
7
100
AcDbLine
 10
33.019226
 20
43.888290
 30
0.0
 11
33.220764
 21
44.046420
 31
0.0
  0
LINE
  5
223
100
AcDbEntity
  8
Export_xmas
 62
7
100
AcDbLine
 10
33.220764
 20
44.046420
 30
0.0
 11
33.398531
 21
44.073292
 31
0.0
  0
LINE
  5
224
100
AcDbEntity
  8
Export_xmas
 62
7
100
AcDbLine
 10
33.398531
 20
44.073292
 30
0.0
 11
33.398478
 21
44.073291
 31
0.0
  0
LINE
  5
225
100
AcDbEntity
  8
Export_xmas
 62
7
100
AcDbLine
 10
40.907581
 20
43.782353
 30
0.0
 11
38.133590
 21
41.758704
 31
0.0
  0
LINE
  5
226
100
AcDbEntity
  8
Export_xmas
 62
7
100
AcDbLine
 10
38.133590
 20
41.758704
 30
0.0
 11
38.663790
 21
41.283797
 31
0.0
  0
LINE
  5
227
100
AcDbEntity
  8
Export_xmas
 62
7
100
AcDbLine
 10
38.663790
 20
41.283797
 30
0.0
 11
39.988257
 21
42.252213
 31
0.0
  0
LINE
  5
228
100
AcDbEntity
  8
Export_xmas
 62
7
100
AcDbLine
 10
39.988257
 20
42.252213
 30
0.0
 11
40.289530
 21
42.374170
 31
0.0
  0
LINE
  5
229
100
AcDbEntity
  8
Export_xmas
 62
7
100
AcDbLine
 10
40.289530
 20
42.374170
 30
0.0
 11
40.557731
 21
42.325594
 31
0.0
  0
LINE
  5
22a
100
AcDbEntity
  8
Export_xmas
 62
7
100
AcDbLine
 10
40.557731
 20
42.325594
 30
0.0
 11
40.614571
 21
42.189168
 31
0.0
  0
LINE
  5
22b
100
AcDbEntity
  8
Export_xmas
 62
7
100
AcDbLine
 10
40.614571
 20
42.189168
 30
0.0
 11
40.525691
 21
42.016052
 31
0.0
  0
LINE
  5
22c
100
AcDbEntity
  8
Export_xmas
 62
7
100
AcDbLine
 10
40.525691
 20
42.016052
 30
0.0
 11
40.372728
 21
41.874975
 31
0.0
  0
LINE
  5
22d
100
AcDbEntity
  8
Export_xmas
 62
7
100
AcDbLine
 10
40.372728
 20
41.874975
 30
0.0
 11
40.036315
 21
41.632613
 31
0.0
  0
LINE
  5
22e
100
AcDbEntity
  8
Export_xmas
 62
7
100
AcDbLine
 10
40.036315
 20
41.632613
 30
0.0
 11
39.683365
 21
41.378882
 31
0.0
  0
LINE
  5
22f
100
AcDbEntity
  8
Export_xmas
 62
7
100
AcDbLine
 10
39.683365
 20
41.378882
 30
0.0
 11
39.520067
 21
41.226436
 31
0.0
  0
LINE
  5
230
100
AcDbEntity
  8
Export_xmas
 62
7
100
AcDbLine
 10
39.520067
 20
41.226436
 30
0.0
 11
39.360904
 21
40.818709
 31
0.0
  0
LINE
  5
231
100
AcDbEntity
  8
Export_xmas
 62
7
100
AcDbLine
 10
39.360904
 20
40.818709
 30
0.0
 11
39.582079
 21
40.421834
 31
0.0
  0
LINE
  5
232
100
AcDbEntity
  8
Export_xmas
 62
7
100
AcDbLine
 10
39.582079
 20
40.421834
 30
0.0
 11
40.130883
 21
40.235282
 31
0.0
  0
LINE
  5
233
100
AcDbEntity
  8
Export_xmas
 62
7
100
AcDbLine
 10
40.130883
 20
40.235282
 30
0.0
 11
40.876057
 21
40.489530
 31
0.0
  0
LINE
  5
234
100
AcDbEntity
  8
Export_xmas
 62
7
100
AcDbLine
 10
40.876057
 20
40.489530
 30
0.0
 11
40.721544
 21
40.628023
 31
0.0
  0
LINE
  5
235
100
AcDbEntity
  8
Export_xmas
 62
7
100
AcDbLine
 10
40.721544
 20
40.628023
 30
0.0
 11
40.336555
 21
40.501933
 31
0.0
  0
LINE
  5
236
100
AcDbEntity
  8
Export_xmas
 62
7
100
AcDbLine
 10
40.336555
 20
40.501933
 30
0.0
 11
40.122615
 21
40.580993
 31
0.0
  0
LINE
  5
237
100
AcDbEntity
  8
Export_xmas
 62
7
100
AcDbLine
 10
40.122615
 20
40.580993
 30
0.0
 11
40.045105
 21
40.716385
 31
0.0
  0
LINE
  5
238
100
AcDbEntity
  8
Export_xmas
 62
7
100
AcDbLine
 10
40.045105
 20
40.716385
 30
0.0
 11
40.113835
 21
40.867280
 31
0.0
  0
LINE
  5
239
100
AcDbEntity
  8
Export_xmas
 62
7
100
AcDbLine
 10
40.113835
 20
40.867280
 30
0.0
 11
40.243542
 21
40.983035
 31
0.0
  0
LINE
  5
23a
100
AcDbEntity
  8
Export_xmas
 62
7
100
AcDbLine
 10
40.243542
 20
40.983035
 30
0.0
 11
40.543266
 21
41.191808
 31
0.0
  0
LINE
  5
23b
100
AcDbEntity
  8
Export_xmas
 62
7
100
AcDbLine
 10
40.543266
 20
41.191808
 30
0.0
 11
40.937040
 21
41.476028
 31
0.0
  0
LINE
  5
23c
100
AcDbEntity
  8
Export_xmas
 62
7
100
AcDbLine
 10
40.937040
 20
41.476028
 30
0.0
 11
41.140129
 21
41.658446
 31
0.0
  0
LINE
  5
23d
100
AcDbEntity
  8
Export_xmas
 62
7
100
AcDbLine
 10
41.140129
 20
41.658446
 30
0.0
 11
41.310140
 21
42.063078
 31
0.0
  0
LINE
  5
23e
100
AcDbEntity
  8
Export_xmas
 62
7
100
AcDbLine
 10
41.310140
 20
42.063078
 30
0.0
 11
41.103951
 21
42.439799
 31
0.0
  0
LINE
  5
23f
100
AcDbEntity
  8
Export_xmas
 62
7
100
AcDbLine
 10
41.103951
 20
42.439799
 30
0.0
 11
40.826449
 21
42.595862
 31
0.0
  0
LINE
  5
240
100
AcDbEntity
  8
Export_xmas
 62
7
100
AcDbLine
 10
40.826449
 20
42.595862
 30
0.0
 11
40.489001
 21
42.619116
 31
0.0
  0
LINE
  5
241
100
AcDbEntity
  8
Export_xmas
 62
7
100
AcDbLine
 10
40.489001
 20
42.619116
 30
0.0
 11
41.518396
 21
43.368425
 31
0.0
  0
LINE
  5
242
100
AcDbEntity
  8
Export_xmas
 62
7
100
AcDbLine
 10
41.518396
 20
43.368425
 30
0.0
 11
40.907581
 21
43.782353
 31
0.0
  0
LINE
  5
243
100
AcDbEntity
  8
Export_xmas
 62
7
100
AcDbLine
 10
9.015470
 20
41.591789
 30
0.0
 11
8.544181
 21
41.059522
 31
0.0
  0
LINE
  5
244
100
AcDbEntity
  8
Export_xmas
 62
7
100
AcDbLine
 10
8.544181
 20
41.059522
 30
0.0
 11
8.700244
 21
40.848682
 31
0.0
  0
LINE
  5
245
100
AcDbEntity
  8
Export_xmas
 62
7
100
AcDbLine
 10
8.700244
 20
40.848682
 30
0.0
 11
8.678023
 21
40.868319
 31
0.0
  0
LINE
  5
246
100
AcDbEntity
  8
Export_xmas
 62
7
100
AcDbLine
 10
8.678023
 20
40.868319
 30
0.0
 11
8.472868
 21
40.911729
 31
0.0
  0
LINE
  5
247
100
AcDbEntity
  8
Export_xmas
 62
7
100
AcDbLine
 10
8.472868
 20
40.911729
 30
0.0
 11
8.224304
 21
40.736029
 31
0.0
  0
LINE
  5
248
100
AcDbEntity
  8
Export_xmas
 62
7
100
AcDbLine
 10
8.224304
 20
40.736029
 30
0.0
 11
7.992277
 21
40.235284
 31
0.0
  0
LINE
  5
249
100
AcDbEntity
  8
Export_xmas
 62
7
100
AcDbLine
 10
7.992277
 20
40.235284
 30
0.0
 11
8.043437
 21
39.622919
 31
0.0
  0
LINE
  5
24a
100
AcDbEntity
  8
Export_xmas
 62
7
100
AcDbLine
 10
8.043437
 20
39.622919
 30
0.0
 11
8.300269
 21
39.085484
 31
0.0
  0
LINE
  5
24b
100
AcDbEntity
  8
Export_xmas
 62
7
100
AcDbLine
 10
8.300269
 20
39.085484
 30
0.0
 11
8.676990
 21
38.639516
 31
0.0
  0
LINE
  5
24c
100
AcDbEntity
  8
Export_xmas
 62
7
100
AcDbLine
 10
8.676990
 20
38.639516
 30
0.0
 11
8.929171
 21
38.467950
 31
0.0
  0
LINE
  5
24d
100
AcDbEntity
  8
Export_xmas
 62
7
100
AcDbLine
 10
8.929171
 20
38.467950
 30
0.0
 11
8.833053
 21
38.326874
 31
0.0
  0
LINE
  5
24e
100
AcDbEntity
  8
Export_xmas
 62
7
100
AcDbLine
 10
8.833053
 20
38.326874
 30
0.0
 11
9.009786
 21
37.962038
 31
0.0
  0
LINE
  5
24f
100
AcDbEntity
  8
Export_xmas
 62
7
100
AcDbLine
 10
9.009786
 20
37.962038
 30
0.0
 11
8.959660
 21
37.739313
 31
0.0
  0
LINE
  5
250
100
AcDbEntity
  8
Export_xmas
 62
7
100
AcDbLine
 10
8.959660
 20
37.739313
 30
0.0
 11
8.835637
 21
37.644743
 31
0.0
  0
LINE
  5
251
100
AcDbEntity
  8
Export_xmas
 62
7
100
AcDbLine
 10
8.835637
 20
37.644743
 30
0.0
 11
8.676990
 21
37.692283
 31
0.0
  0
LINE
  5
252
100
AcDbEntity
  8
Export_xmas
 62
7
100
AcDbLine
 10
8.676990
 20
37.692283
 30
0.0
 11
8.545215
 21
37.805971
 31
0.0
  0
LINE
  5
253
100
AcDbEntity
  8
Export_xmas
 62
7
100
AcDbLine
 10
8.545215
 20
37.805971
 30
0.0
 11
8.298201
 21
38.075208
 31
0.0
  0
LINE
  5
254
100
AcDbEntity
  8
Export_xmas
 62
7
100
AcDbLine
 10
8.298201
 20
38.075208
 30
0.0
 11
7.964372
 21
38.427641
 31
0.0
  0
LINE
  5
255
100
AcDbEntity
  8
Export_xmas
 62
7
100
AcDbLine
 10
7.964372
 20
38.427641
 30
0.0
 11
7.756116
 21
38.604374
 31
0.0
  0
LINE
  5
256
100
AcDbEntity
  8
Export_xmas
 62
7
100
AcDbLine
 10
7.756116
 20
38.604374
 30
0.0
 11
7.332369
 21
38.719096
 31
0.0
  0
LINE
  5
257
100
AcDbEntity
  8
Export_xmas
 62
7
100
AcDbLine
 10
7.332369
 20
38.719096
 30
0.0
 11
6.986654
 21
38.464331
 31
0.0
  0
LINE
  5
258
100
AcDbEntity
  8
Export_xmas
 62
7
100
AcDbLine
 10
6.986654
 20
38.464331
 30
0.0
 11
6.868831
 21
38.168225
 31
0.0
  0
LINE
  5
259
100
AcDbEntity
  8
Export_xmas
 62
7
100
AcDbLine
 10
6.868831
 20
38.168225
 30
0.0
 11
6.890535
 21
37.831295
 31
0.0
  0
LINE
  5
25a
100
AcDbEntity
  8
Export_xmas
 62
7
100
AcDbLine
 10
6.890535
 20
37.831295
 30
0.0
 11
6.708634
 21
38.020431
 31
0.0
  0
LINE
  5
25b
100
AcDbEntity
  8
Export_xmas
 62
7
100
AcDbLine
 10
6.708634
 20
38.020431
 30
0.0
 11
6.309176
 21
37.431836
 31
0.0
  0
LINE
  5
25c
100
AcDbEntity
  8
Export_xmas
 62
7
100
AcDbLine
 10
6.309176
 20
37.431836
 30
0.0
 11
7.448124
 21
36.246379
 31
0.0
  0
LINE
  5
25d
100
AcDbEntity
  8
Export_xmas
 62
7
100
AcDbLine
 10
7.448124
 20
36.246379
 30
0.0
 11
7.399548
 21
36.158009
 31
0.0
  0
LINE
  5
25e
100
AcDbEntity
  8
Export_xmas
 62
7
100
AcDbLine
 10
7.399548
 20
36.158009
 30
0.0
 11
7.589717
 21
35.845883
 31
0.0
  0
LINE
  5
25f
100
AcDbEntity
  8
Export_xmas
 62
7
100
AcDbLine
 10
7.589717
 20
35.845883
 30
0.0
 11
7.568013
 21
35.559596
 31
0.0
  0
LINE
  5
260
100
AcDbEntity
  8
Export_xmas
 62
7
100
AcDbLine
 10
7.568013
 20
35.559596
 30
0.0
 11
7.457943
 21
35.439706
 31
0.0
  0
LINE
  5
261
100
AcDbEntity
  8
Export_xmas
 62
7
100
AcDbLine
 10
7.457943
 20
35.439706
 30
0.0
 11
7.310665
 21
35.469676
 31
0.0
  0
LINE
  5
262
100
AcDbEntity
  8
Export_xmas
 62
7
100
AcDbLine
 10
7.310665
 20
35.469676
 30
0.0
 11
7.248137
 21
35.509466
 31
0.0
  0
LINE
  5
263
100
AcDbEntity
  8
Export_xmas
 62
7
100
AcDbLine
 10
7.248137
 20
35.509466
 30
0.0
 11
7.181474
 21
35.562696
 31
0.0
  0
LINE
  5
264
100
AcDbEntity
  8
Export_xmas
 62
7
100
AcDbLine
 10
7.181474
 20
35.562696
 30
0.0
 11
5.878194
 21
36.679424
 31
0.0
  0
LINE
  5
265
100
AcDbEntity
  8
Export_xmas
 62
7
100
AcDbLine
 10
5.878194
 20
36.679424
 30
0.0
 11
5.537130
 21
36.055173
 31
0.0
  0
LINE
  5
266
100
AcDbEntity
  8
Export_xmas
 62
7
100
AcDbLine
 10
5.537130
 20
36.055173
 30
0.0
 11
6.738607
 21
35.025261
 31
0.0
  0
LINE
  5
267
100
AcDbEntity
  8
Export_xmas
 62
7
100
AcDbLine
 10
6.738607
 20
35.025261
 30
0.0
 11
6.677629
 21
34.881601
 31
0.0
  0
LINE
  5
268
100
AcDbEntity
  8
Export_xmas
 62
7
100
AcDbLine
 10
6.677629
 20
34.881601
 30
0.0
 11
6.920508
 21
34.558107
 31
0.0
  0
LINE
  5
269
100
AcDbEntity
  8
Export_xmas
 62
7
100
AcDbLine
 10
6.920508
 20
34.558107
 30
0.0
 11
6.914308
 21
34.329697
 31
0.0
  0
LINE
  5
26a
100
AcDbEntity
  8
Export_xmas
 62
7
100
AcDbLine
 10
6.914308
 20
34.329697
 30
0.0
 11
6.810955
 21
34.212908
 31
0.0
  0
LINE
  5
26b
100
AcDbEntity
  8
Export_xmas
 62
7
100
AcDbLine
 10
6.810955
 20
34.212908
 30
0.0
 11
6.646107
 21
34.229448
 31
0.0
  0
LINE
  5
26c
100
AcDbEntity
  8
Export_xmas
 62
7
100
AcDbLine
 10
6.646107
 20
34.229448
 30
0.0
 11
6.495211
 21
34.315230
 31
0.0
  0
LINE
  5
26d
100
AcDbEntity
  8
Export_xmas
 62
7
100
AcDbLine
 10
6.495211
 20
34.315230
 30
0.0
 11
6.200655
 21
34.532271
 31
0.0
  0
LINE
  5
26e
100
AcDbEntity
  8
Export_xmas
 62
7
100
AcDbLine
 10
6.200655
 20
34.532271
 30
0.0
 11
5.805330
 21
34.813391
 31
0.0
  0
LINE
  5
26f
100
AcDbEntity
  8
Export_xmas
 62
7
100
AcDbLine
 10
5.805330
 20
34.813391
 30
0.0
 11
5.567102
 21
34.947233
 31
0.0
  0
LINE
  5
270
100
AcDbEntity
  8
Export_xmas
 62
7
100
AcDbLine
 10
5.567102
 20
34.947233
 30
0.0
 11
5.129403
 21
34.978243
 31
0.0
  0
LINE
  5
271
100
AcDbEntity
  8
Export_xmas
 62
7
100
AcDbLine
 10
5.129403
 20
34.978243
 30
0.0
 11
4.838464
 21
34.661983
 31
0.0
  0
LINE
  5
272
100
AcDbEntity
  8
Export_xmas
 62
7
100
AcDbLine
 10
4.838464
 20
34.661983
 30
0.0
 11
4.780070
 21
34.348307
 31
0.0
  0
LINE
  5
273
100
AcDbEntity
  8
Export_xmas
 62
7
100
AcDbLine
 10
4.780070
 20
34.348307
 30
0.0
 11
4.866370
 21
34.021712
 31
0.0
  0
LINE
  5
274
100
AcDbEntity
  8
Export_xmas
 62
7
100
AcDbLine
 10
4.866370
 20
34.021712
 30
0.0
 11
3.826123
 21
34.755514
 31
0.0
  0
LINE
  5
275
100
AcDbEntity
  8
Export_xmas
 62
7
100
AcDbLine
 10
3.826123
 20
34.755514
 30
0.0
 11
3.630269
 21
34.044446
 31
0.0
  0
LINE
  5
276
100
AcDbEntity
  8
Export_xmas
 62
7
100
AcDbLine
 10
3.630269
 20
34.044446
 30
0.0
 11
6.438884
 21
32.068339
 31
0.0
  0
LINE
  5
277
100
AcDbEntity
  8
Export_xmas
 62
7
100
AcDbLine
 10
6.438884
 20
32.068339
 30
0.0
 11
6.717936
 21
32.722563
 31
0.0
  0
LINE
  5
278
100
AcDbEntity
  8
Export_xmas
 62
7
100
AcDbLine
 10
6.717936
 20
32.722563
 30
0.0
 11
5.374866
 21
33.665658
 31
0.0
  0
LINE
  5
279
100
AcDbEntity
  8
Export_xmas
 62
7
100
AcDbLine
 10
5.374866
 20
33.665658
 30
0.0
 11
5.162992
 21
33.911637
 31
0.0
  0
LINE
  5
27a
100
AcDbEntity
  8
Export_xmas
 62
7
100
AcDbLine
 10
5.162992
 20
33.911637
 30
0.0
 11
5.122168
 21
34.181388
 31
0.0
  0
LINE
  5
27b
100
AcDbEntity
  8
Export_xmas
 62
7
100
AcDbLine
 10
5.122168
 20
34.181388
 30
0.0
 11
5.233790
 21
34.278538
 31
0.0
  0
LINE
  5
27c
100
AcDbEntity
  8
Export_xmas
 62
7
100
AcDbLine
 10
5.233790
 20
34.278538
 30
0.0
 11
5.425509
 21
34.250628
 31
0.0
  0
LINE
  5
27d
100
AcDbEntity
  8
Export_xmas
 62
7
100
AcDbLine
 10
5.425509
 20
34.250628
 30
0.0
 11
5.608960
 21
34.150888
 31
0.0
  0
LINE
  5
27e
100
AcDbEntity
  8
Export_xmas
 62
7
100
AcDbLine
 10
5.608960
 20
34.150888
 30
0.0
 11
5.946408
 21
33.910076
 31
0.0
  0
LINE
  5
27f
100
AcDbEntity
  8
Export_xmas
 62
7
100
AcDbLine
 10
5.946408
 20
33.910076
 30
0.0
 11
6.300391
 21
33.657378
 31
0.0
  0
LINE
  5
280
100
AcDbEntity
  8
Export_xmas
 62
7
100
AcDbLine
 10
6.300391
 20
33.657378
 30
0.0
 11
6.497278
 21
33.551958
 31
0.0
  0
LINE
  5
281
100
AcDbEntity
  8
Export_xmas
 62
7
100
AcDbLine
 10
6.497278
 20
33.551958
 30
0.0
 11
6.933944
 21
33.532318
 31
0.0
  0
LINE
  5
282
100
AcDbEntity
  8
Export_xmas
 62
7
100
AcDbLine
 10
6.933944
 20
33.532318
 30
0.0
 11
7.238835
 21
33.869249
 31
0.0
  0
LINE
  5
283
100
AcDbEntity
  8
Export_xmas
 62
7
100
AcDbLine
 10
7.238835
 20
33.869249
 30
0.0
 11
7.239352
 21
34.449058
 31
0.0
  0
LINE
  5
284
100
AcDbEntity
  8
Export_xmas
 62
7
100
AcDbLine
 10
7.239352
 20
34.449058
 30
0.0
 11
6.964433
 21
34.854718
 31
0.0
  0
LINE
  5
285
100
AcDbEntity
  8
Export_xmas
 62
7
100
AcDbLine
 10
6.964433
 20
34.854718
 30
0.0
 11
7.030579
 21
34.812348
 31
0.0
  0
LINE
  5
286
100
AcDbEntity
  8
Export_xmas
 62
7
100
AcDbLine
 10
7.030579
 20
34.812348
 30
0.0
 11
7.482748
 21
34.722948
 31
0.0
  0
LINE
  5
287
100
AcDbEntity
  8
Export_xmas
 62
7
100
AcDbLine
 10
7.482748
 20
34.722948
 30
0.0
 11
7.804175
 21
34.991666
 31
0.0
  0
LINE
  5
288
100
AcDbEntity
  8
Export_xmas
 62
7
100
AcDbLine
 10
7.804175
 20
34.991666
 30
0.0
 11
7.893575
 21
35.640722
 31
0.0
  0
LINE
  5
289
100
AcDbEntity
  8
Export_xmas
 62
7
100
AcDbLine
 10
7.893575
 20
35.640722
 30
0.0
 11
7.818127
 21
35.861380
 31
0.0
  0
LINE
  5
28a
100
AcDbEntity
  8
Export_xmas
 62
7
100
AcDbLine
 10
7.818127
 20
35.861380
 30
0.0
 11
8.057906
 21
35.611792
 31
0.0
  0
LINE
  5
28b
100
AcDbEntity
  8
Export_xmas
 62
7
100
AcDbLine
 10
8.057906
 20
35.611792
 30
0.0
 11
8.457365
 21
36.199870
 31
0.0
  0
LINE
  5
28c
100
AcDbEntity
  8
Export_xmas
 62
7
100
AcDbLine
 10
8.457365
 20
36.199870
 30
0.0
 11
7.334436
 21
37.368274
 31
0.0
  0
LINE
  5
28d
100
AcDbEntity
  8
Export_xmas
 62
7
100
AcDbLine
 10
7.334436
 20
37.368274
 30
0.0
 11
7.152535
 21
37.689185
 31
0.0
  0
LINE
  5
28e
100
AcDbEntity
  8
Export_xmas
 62
7
100
AcDbLine
 10
7.152535
 20
37.689185
 30
0.0
 11
7.175273
 21
37.942399
 31
0.0
  0
LINE
  5
28f
100
AcDbEntity
  8
Export_xmas
 62
7
100
AcDbLine
 10
7.175273
 20
37.942399
 30
0.0
 11
7.303431
 21
38.016809
 31
0.0
  0
LINE
  5
290
100
AcDbEntity
  8
Export_xmas
 62
7
100
AcDbLine
 10
7.303431
 20
38.016809
 30
0.0
 11
7.483265
 21
37.948079
 31
0.0
  0
LINE
  5
291
100
AcDbEntity
  8
Export_xmas
 62
7
100
AcDbLine
 10
7.483265
 20
37.948079
 30
0.0
 11
7.643978
 21
37.815271
 31
0.0
  0
LINE
  5
292
100
AcDbEntity
  8
Export_xmas
 62
7
100
AcDbLine
 10
7.643978
 20
37.815271
 30
0.0
 11
7.929232
 21
37.513997
 31
0.0
  0
LINE
  5
293
100
AcDbEntity
  8
Export_xmas
 62
7
100
AcDbLine
 10
7.929232
 20
37.513997
 30
0.0
 11
8.227922
 21
37.197738
 31
0.0
  0
LINE
  5
294
100
AcDbEntity
  8
Export_xmas
 62
7
100
AcDbLine
 10
8.227922
 20
37.197738
 30
0.0
 11
8.400521
 21
37.056661
 31
0.0
  0
LINE
  5
295
100
AcDbEntity
  8
Export_xmas
 62
7
100
AcDbLine
 10
8.400521
 20
37.056661
 30
0.0
 11
8.825818
 21
36.952791
 31
0.0
  0
LINE
  5
296
100
AcDbEntity
  8
Export_xmas
 62
7
100
AcDbLine
 10
8.825818
 20
36.952791
 30
0.0
 11
9.189620
 21
37.225130
 31
0.0
  0
LINE
  5
297
100
AcDbEntity
  8
Export_xmas
 62
7
100
AcDbLine
 10
9.189620
 20
37.225130
 30
0.0
 11
9.301241
 21
37.794088
 31
0.0
  0
LINE
  5
298
100
AcDbEntity
  8
Export_xmas
 62
7
100
AcDbLine
 10
9.301241
 20
37.794088
 30
0.0
 11
8.988082
 21
38.437459
 31
0.0
  0
LINE
  5
299
100
AcDbEntity
  8
Export_xmas
 62
7
100
AcDbLine
 10
8.988082
 20
38.437459
 30
0.0
 11
9.231478
 21
38.379069
 31
0.0
  0
LINE
  5
29a
100
AcDbEntity
  8
Export_xmas
 62
7
100
AcDbLine
 10
9.231478
 20
38.379069
 30
0.0
 11
9.707935
 21
38.603861
 31
0.0
  0
LINE
  5
29b
100
AcDbEntity
  8
Export_xmas
 62
7
100
AcDbLine
 10
9.707935
 20
38.603861
 30
0.0
 11
9.865548
 21
38.886532
 31
0.0
  0
LINE
  5
29c
100
AcDbEntity
  8
Export_xmas
 62
7
100
AcDbLine
 10
9.865548
 20
38.886532
 30
0.0
 11
9.897587
 21
39.228113
 31
0.0
  0
LINE
  5
29d
100
AcDbEntity
  8
Export_xmas
 62
7
100
AcDbLine
 10
9.897587
 20
39.228113
 30
0.0
 11
10.054167
 21
39.010038
 31
0.0
  0
LINE
  5
29e
100
AcDbEntity
  8
Export_xmas
 62
7
100
AcDbLine
 10
10.054167
 20
39.010038
 30
0.0
 11
9.880533
 21
38.352197
 31
0.0
  0
LINE
  5
29f
100
AcDbEntity
  8
Export_xmas
 62
7
100
AcDbLine
 10
9.880533
 20
38.352197
 30
0.0
 11
10.071220
 21
37.919665
 31
0.0
  0
LINE
  5
2a0
100
AcDbEntity
  8
Export_xmas
 62
7
100
AcDbLine
 10
10.071220
 20
37.919665
 30
0.0
 11
10.431921
 21
37.797709
 31
0.0
  0
LINE
  5
2a1
100
AcDbEntity
  8
Export_xmas
 62
7
100
AcDbLine
 10
10.431921
 20
37.797709
 30
0.0
 11
10.796757
 21
38.015784
 31
0.0
  0
LINE
  5
2a2
100
AcDbEntity
  8
Export_xmas
 62
7
100
AcDbLine
 10
10.796757
 20
38.015784
 30
0.0
 11
11.020516
 21
38.589392
 31
0.0
  0
LINE
  5
2a3
100
AcDbEntity
  8
Export_xmas
 62
7
100
AcDbLine
 10
11.020516
 20
38.589392
 30
0.0
 11
10.757483
 21
39.237931
 31
0.0
  0
LINE
  5
2a4
100
AcDbEntity
  8
Export_xmas
 62
7
100
AcDbLine
 10
10.757483
 20
39.237931
 30
0.0
 11
10.540442
 21
39.529386
 31
0.0
  0
LINE
  5
2a5
100
AcDbEntity
  8
Export_xmas
 62
7
100
AcDbLine
 10
10.540442
 20
39.529386
 30
0.0
 11
10.663432
 21
40.152604
 31
0.0
  0
LINE
  5
2a6
100
AcDbEntity
  8
Export_xmas
 62
7
100
AcDbLine
 10
10.663432
 20
40.152604
 30
0.0
 11
10.428304
 21
40.795976
 31
0.0
  0
LINE
  5
2a7
100
AcDbEntity
  8
Export_xmas
 62
7
100
AcDbLine
 10
10.428304
 20
40.795976
 30
0.0
 11
10.290845
 21
40.640946
 31
0.0
  0
LINE
  5
2a8
100
AcDbEntity
  8
Export_xmas
 62
7
100
AcDbLine
 10
10.290845
 20
40.640946
 30
0.0
 11
10.477913
 21
40.158805
 31
0.0
  0
LINE
  5
2a9
100
AcDbEntity
  8
Export_xmas
 62
7
100
AcDbLine
 10
10.477913
 20
40.158805
 30
0.0
 11
10.407113
 21
39.706636
 31
0.0
  0
LINE
  5
2aa
100
AcDbEntity
  8
Export_xmas
 62
7
100
AcDbLine
 10
10.407113
 20
39.706636
 30
0.0
 11
9.015470
 21
41.591789
 31
0.0
  0
LINE
  5
2ab
100
AcDbEntity
  8
Export_xmas
 62
7
100
AcDbLine
 10
12.806970
 20
41.309635
 30
0.0
 11
12.872080
 21
41.178894
 31
0.0
  0
LINE
  5
2ac
100
AcDbEntity
  8
Export_xmas
 62
7
100
AcDbLine
 10
12.872080
 20
41.178894
 30
0.0
 11
12.972849
 21
40.849715
 31
0.0
  0
LINE
  5
2ad
100
AcDbEntity
  8
Export_xmas
 62
7
100
AcDbLine
 10
12.972849
 20
40.849715
 30
0.0
 11
12.918069
 21
40.655929
 31
0.0
  0
LINE
  5
2ae
100
AcDbEntity
  8
Export_xmas
 62
7
100
AcDbLine
 10
12.918069
 20
40.655929
 30
0.0
 11
12.794045
 21
40.621819
 31
0.0
  0
LINE
  5
2af
100
AcDbEntity
  8
Export_xmas
 62
7
100
AcDbLine
 10
12.794045
 20
40.621819
 30
0.0
 11
12.685525
 21
40.680729
 31
0.0
  0
LINE
  5
2b0
100
AcDbEntity
  8
Export_xmas
 62
7
100
AcDbLine
 10
12.685525
 20
40.680729
 30
0.0
 11
12.638495
 21
40.932393
 31
0.0
  0
LINE
  5
2b1
100
AcDbEntity
  8
Export_xmas
 62
7
100
AcDbLine
 10
12.638495
 20
40.932393
 30
0.0
 11
12.806960
 21
41.309631
 31
0.0
  0
LINE
  5
2b2
100
AcDbEntity
  8
Export_xmas
 62
7
100
AcDbLine
 10
12.806960
 20
41.309631
 30
0.0
 11
12.806970
 21
41.309635
 31
0.0
  0
LINE
  5
2b3
100
AcDbEntity
  8
Export_xmas
 62
7
100
AcDbLine
 10
42.271838
 20
41.264677
 30
0.0
 11
40.079724
 21
40.013075
 31
0.0
  0
LINE
  5
2b4
100
AcDbEntity
  8
Export_xmas
 62
7
100
AcDbLine
 10
40.079724
 20
40.013075
 30
0.0
 11
40.552563
 21
39.481841
 31
0.0
  0
LINE
  5
2b5
100
AcDbEntity
  8
Export_xmas
 62
7
100
AcDbLine
 10
40.552563
 20
39.481841
 30
0.0
 11
42.217061
 21
40.435270
 31
0.0
  0
LINE
  5
2b6
100
AcDbEntity
  8
Export_xmas
 62
7
100
AcDbLine
 10
42.217061
 20
40.435270
 30
0.0
 11
42.465625
 21
40.385660
 31
0.0
  0
LINE
  5
2b7
100
AcDbEntity
  8
Export_xmas
 62
7
100
AcDbLine
 10
42.465625
 20
40.385660
 30
0.0
 11
42.596883
 21
40.290570
 31
0.0
  0
LINE
  5
2b8
100
AcDbEntity
  8
Export_xmas
 62
7
100
AcDbLine
 10
42.596883
 20
40.290570
 30
0.0
 11
42.614453
 21
40.233730
 31
0.0
  0
LINE
  5
2b9
100
AcDbEntity
  8
Export_xmas
 62
7
100
AcDbLine
 10
42.614453
 20
40.233730
 30
0.0
 11
42.563813
 21
40.142260
 31
0.0
  0
LINE
  5
2ba
100
AcDbEntity
  8
Export_xmas
 62
7
100
AcDbLine
 10
42.563813
 20
40.142260
 30
0.0
 11
42.484753
 21
39.986197
 31
0.0
  0
LINE
  5
2bb
100
AcDbEntity
  8
Export_xmas
 62
7
100
AcDbLine
 10
42.484753
 20
39.986197
 30
0.0
 11
42.543663
 21
39.860106
 31
0.0
  0
LINE
  5
2bc
100
AcDbEntity
  8
Export_xmas
 62
7
100
AcDbLine
 10
42.543663
 20
39.860106
 30
0.0
 11
42.792227
 21
39.737117
 31
0.0
  0
LINE
  5
2bd
100
AcDbEntity
  8
Export_xmas
 62
7
100
AcDbLine
 10
42.792227
 20
39.737117
 30
0.0
 11
43.049576
 21
39.834267
 31
0.0
  0
LINE
  5
2be
100
AcDbEntity
  8
Export_xmas
 62
7
100
AcDbLine
 10
43.049576
 20
39.834267
 30
0.0
 11
43.182901
 21
40.078696
 31
0.0
  0
LINE
  5
2bf
100
AcDbEntity
  8
Export_xmas
 62
7
100
AcDbLine
 10
43.182901
 20
40.078696
 30
0.0
 11
43.099701
 21
40.335012
 31
0.0
  0
LINE
  5
2c0
100
AcDbEntity
  8
Export_xmas
 62
7
100
AcDbLine
 10
43.099701
 20
40.335012
 30
0.0
 11
42.880593
 21
40.484357
 31
0.0
  0
LINE
  5
2c1
100
AcDbEntity
  8
Export_xmas
 62
7
100
AcDbLine
 10
42.880593
 20
40.484357
 30
0.0
 11
42.473382
 21
40.577887
 31
0.0
  0
LINE
  5
2c2
100
AcDbEntity
  8
Export_xmas
 62
7
100
AcDbLine
 10
42.473382
 20
40.577887
 30
0.0
 11
42.744684
 21
40.733432
 31
0.0
  0
LINE
  5
2c3
100
AcDbEntity
  8
Export_xmas
 62
7
100
AcDbLine
 10
42.744684
 20
40.733432
 30
0.0
 11
42.271838
 21
41.264677
 31
0.0
  0
LINE
  5
2c4
100
AcDbEntity
  8
Export_xmas
 62
7
100
AcDbLine
 10
8.690942
 20
40.718457
 30
0.0
 11
8.826335
 21
40.677637
 31
0.0
  0
LINE
  5
2c5
100
AcDbEntity
  8
Export_xmas
 62
7
100
AcDbLine
 10
8.826335
 20
40.677637
 30
0.0
 11
9.535335
 21
39.713354
 31
0.0
  0
LINE
  5
2c6
100
AcDbEntity
  8
Export_xmas
 62
7
100
AcDbLine
 10
9.535335
 20
39.713354
 30
0.0
 11
9.634554
 21
39.407947
 31
0.0
  0
LINE
  5
2c7
100
AcDbEntity
  8
Export_xmas
 62
7
100
AcDbLine
 10
9.634554
 20
39.407947
 30
0.0
 11
9.562207
 21
39.161967
 31
0.0
  0
LINE
  5
2c8
100
AcDbEntity
  8
Export_xmas
 62
7
100
AcDbLine
 10
9.562207
 20
39.161967
 30
0.0
 11
9.364287
 21
39.080317
 31
0.0
  0
LINE
  5
2c9
100
AcDbEntity
  8
Export_xmas
 62
7
100
AcDbLine
 10
9.364287
 20
39.080317
 30
0.0
 11
9.110038
 21
39.232760
 31
0.0
  0
LINE
  5
2ca
100
AcDbEntity
  8
Export_xmas
 62
7
100
AcDbLine
 10
9.110038
 20
39.232760
 30
0.0
 11
8.574670
 21
39.983618
 31
0.0
  0
LINE
  5
2cb
100
AcDbEntity
  8
Export_xmas
 62
7
100
AcDbLine
 10
8.574670
 20
39.983618
 30
0.0
 11
8.469987
 21
40.379598
 31
0.0
  0
LINE
  5
2cc
100
AcDbEntity
  8
Export_xmas
 62
7
100
AcDbLine
 10
8.469987
 20
40.379598
 30
0.0
 11
8.555033
 21
40.647144
 31
0.0
  0
LINE
  5
2cd
100
AcDbEntity
  8
Export_xmas
 62
7
100
AcDbLine
 10
8.555033
 20
40.647144
 30
0.0
 11
8.690942
 21
40.718454
 31
0.0
  0
LINE
  5
2ce
100
AcDbEntity
  8
Export_xmas
 62
7
100
AcDbLine
 10
8.690942
 20
40.718454
 30
0.0
 11
8.690942
 21
40.718457
 31
0.0
  0
LINE
  5
2cf
100
AcDbEntity
  8
Export_xmas
 62
7
100
AcDbLine
 10
44.566789
 20
39.982068
 30
0.0
 11
44.277401
 21
39.906618
 31
0.0
  0
LINE
  5
2d0
100
AcDbEntity
  8
Export_xmas
 62
7
100
AcDbLine
 10
44.277401
 20
39.906618
 30
0.0
 11
44.124955
 21
39.649270
 31
0.0
  0
LINE
  5
2d1
100
AcDbEntity
  8
Export_xmas
 62
7
100
AcDbLine
 10
44.124955
 20
39.649270
 30
0.0
 11
44.200405
 21
39.359882
 31
0.0
  0
LINE
  5
2d2
100
AcDbEntity
  8
Export_xmas
 62
7
100
AcDbLine
 10
44.200405
 20
39.359882
 30
0.0
 11
44.457237
 21
39.207436
 31
0.0
  0
LINE
  5
2d3
100
AcDbEntity
  8
Export_xmas
 62
7
100
AcDbLine
 10
44.457237
 20
39.207436
 30
0.0
 11
44.749725
 21
39.278746
 31
0.0
  0
LINE
  5
2d4
100
AcDbEntity
  8
Export_xmas
 62
7
100
AcDbLine
 10
44.749725
 20
39.278746
 30
0.0
 11
44.899587
 21
39.539712
 31
0.0
  0
LINE
  5
2d5
100
AcDbEntity
  8
Export_xmas
 62
7
100
AcDbLine
 10
44.899587
 20
39.539712
 30
0.0
 11
44.827757
 21
39.832200
 31
0.0
  0
LINE
  5
2d6
100
AcDbEntity
  8
Export_xmas
 62
7
100
AcDbLine
 10
44.827757
 20
39.832200
 30
0.0
 11
44.566791
 21
39.982062
 31
0.0
  0
LINE
  5
2d7
100
AcDbEntity
  8
Export_xmas
 62
7
100
AcDbLine
 10
44.566791
 20
39.982062
 30
0.0
 11
44.566789
 21
39.982068
 31
0.0
  0
LINE
  5
2d8
100
AcDbEntity
  8
Export_xmas
 62
7
100
AcDbLine
 10
43.693457
 20
39.590361
 30
0.0
 11
42.224296
 21
38.905648
 31
0.0
  0
LINE
  5
2d9
100
AcDbEntity
  8
Export_xmas
 62
7
100
AcDbLine
 10
42.224296
 20
38.905648
 30
0.0
 11
42.064616
 21
38.822448
 31
0.0
  0
LINE
  5
2da
100
AcDbEntity
  8
Export_xmas
 62
7
100
AcDbLine
 10
42.064616
 20
38.822448
 30
0.0
 11
41.944210
 21
38.744418
 31
0.0
  0
LINE
  5
2db
100
AcDbEntity
  8
Export_xmas
 62
7
100
AcDbLine
 10
41.944210
 20
38.744418
 30
0.0
 11
41.676009
 21
38.369764
 31
0.0
  0
LINE
  5
2dc
100
AcDbEntity
  8
Export_xmas
 62
7
100
AcDbLine
 10
41.676009
 20
38.369764
 30
0.0
 11
41.788147
 21
37.965654
 31
0.0
  0
LINE
  5
2dd
100
AcDbEntity
  8
Export_xmas
 62
7
100
AcDbLine
 10
41.788147
 20
37.965654
 30
0.0
 11
42.342118
 21
37.615805
 31
0.0
  0
LINE
  5
2de
100
AcDbEntity
  8
Export_xmas
 62
7
100
AcDbLine
 10
42.342118
 20
37.615805
 30
0.0
 11
42.671814
 21
37.595655
 31
0.0
  0
LINE
  5
2df
100
AcDbEntity
  8
Export_xmas
 62
7
100
AcDbLine
 10
42.671814
 20
37.595655
 30
0.0
 11
42.513167
 21
37.305750
 31
0.0
  0
LINE
  5
2e0
100
AcDbEntity
  8
Export_xmas
 62
7
100
AcDbLine
 10
42.513167
 20
37.305750
 30
0.0
 11
42.644425
 21
36.764181
 31
0.0
  0
LINE
  5
2e1
100
AcDbEntity
  8
Export_xmas
 62
7
100
AcDbLine
 10
42.644425
 20
36.764181
 30
0.0
 11
42.938981
 21
36.436036
 31
0.0
  0
LINE
  5
2e2
100
AcDbEntity
  8
Export_xmas
 62
7
100
AcDbLine
 10
42.938981
 20
36.436036
 30
0.0
 11
43.308984
 21
36.266537
 31
0.0
  0
LINE
  5
2e3
100
AcDbEntity
  8
Export_xmas
 62
7
100
AcDbLine
 10
43.308984
 20
36.266537
 30
0.0
 11
43.772522
 21
36.068100
 31
0.0
  0
LINE
  5
2e4
100
AcDbEntity
  8
Export_xmas
 62
7
100
AcDbLine
 10
43.772522
 20
36.068100
 30
0.0
 11
44.153894
 21
35.976120
 31
0.0
  0
LINE
  5
2e5
100
AcDbEntity
  8
Export_xmas
 62
7
100
AcDbLine
 10
44.153894
 20
35.976120
 30
0.0
 11
44.021602
 21
35.932710
 31
0.0
  0
LINE
  5
2e6
100
AcDbEntity
  8
Export_xmas
 62
7
100
AcDbLine
 10
44.021602
 20
35.932710
 30
0.0
 11
43.889827
 21
35.874830
 31
0.0
  0
LINE
  5
2e7
100
AcDbEntity
  8
Export_xmas
 62
7
100
AcDbLine
 10
43.889827
 20
35.874830
 30
0.0
 11
43.563749
 21
35.549269
 31
0.0
  0
LINE
  5
2e8
100
AcDbEntity
  8
Export_xmas
 62
7
100
AcDbLine
 10
43.563749
 20
35.549269
 30
0.0
 11
43.608709
 21
35.132240
 31
0.0
  0
LINE
  5
2e9
100
AcDbEntity
  8
Export_xmas
 62
7
100
AcDbLine
 10
43.608709
 20
35.132240
 30
0.0
 11
44.097568
 21
34.696607
 31
0.0
  0
LINE
  5
2ea
100
AcDbEntity
  8
Export_xmas
 62
7
100
AcDbLine
 10
44.097568
 20
34.696607
 30
0.0
 11
44.898036
 21
34.635117
 31
0.0
  0
LINE
  5
2eb
100
AcDbEntity
  8
Export_xmas
 62
7
100
AcDbLine
 10
44.898036
 20
34.635117
 30
0.0
 11
44.802436
 21
34.819086
 31
0.0
  0
LINE
  5
2ec
100
AcDbEntity
  8
Export_xmas
 62
7
100
AcDbLine
 10
44.802436
 20
34.819086
 30
0.0
 11
44.437601
 21
34.835106
 31
0.0
  0
LINE
  5
2ed
100
AcDbEntity
  8
Export_xmas
 62
7
100
AcDbLine
 10
44.437601
 20
34.835106
 30
0.0
 11
44.211258
 21
35.012356
 31
0.0
  0
LINE
  5
2ee
100
AcDbEntity
  8
Export_xmas
 62
7
100
AcDbLine
 10
44.211258
 20
35.012356
 30
0.0
 11
44.173538
 21
35.170486
 31
0.0
  0
LINE
  5
2ef
100
AcDbEntity
  8
Export_xmas
 62
7
100
AcDbLine
 10
44.173538
 20
35.170486
 30
0.0
 11
44.279992
 21
35.276423
 31
0.0
  0
LINE
  5
2f0
100
AcDbEntity
  8
Export_xmas
 62
7
100
AcDbLine
 10
44.279992
 20
35.276423
 30
0.0
 11
44.347692
 21
35.306393
 31
0.0
  0
LINE
  5
2f1
100
AcDbEntity
  8
Export_xmas
 62
7
100
AcDbLine
 10
44.347692
 20
35.306393
 30
0.0
 11
44.429342
 21
35.331713
 31
0.0
  0
LINE
  5
2f2
100
AcDbEntity
  8
Export_xmas
 62
7
100
AcDbLine
 10
44.429342
 20
35.331713
 30
0.0
 11
45.889202
 21
35.736339
 31
0.0
  0
LINE
  5
2f3
100
AcDbEntity
  8
Export_xmas
 62
7
100
AcDbLine
 10
45.889202
 20
35.736339
 30
0.0
 11
46.026144
 21
35.473823
 31
0.0
  0
LINE
  5
2f4
100
AcDbEntity
  8
Export_xmas
 62
7
100
AcDbLine
 10
46.026144
 20
35.473823
 30
0.0
 11
46.219414
 21
35.530153
 31
0.0
  0
LINE
  5
2f5
100
AcDbEntity
  8
Export_xmas
 62
7
100
AcDbLine
 10
46.219414
 20
35.530153
 30
0.0
 11
46.082471
 21
35.792670
 31
0.0
  0
LINE
  5
2f6
100
AcDbEntity
  8
Export_xmas
 62
7
100
AcDbLine
 10
46.082471
 20
35.792670
 30
0.0
 11
46.851934
 21
36.004543
 31
0.0
  0
LINE
  5
2f7
100
AcDbEntity
  8
Export_xmas
 62
7
100
AcDbLine
 10
46.851934
 20
36.004543
 30
0.0
 11
46.426637
 21
36.607090
 31
0.0
  0
LINE
  5
2f8
100
AcDbEntity
  8
Export_xmas
 62
7
100
AcDbLine
 10
46.426637
 20
36.607090
 30
0.0
 11
45.753809
 21
36.423639
 31
0.0
  0
LINE
  5
2f9
100
AcDbEntity
  8
Export_xmas
 62
7
100
AcDbLine
 10
45.753809
 20
36.423639
 30
0.0
 11
45.678359
 21
36.567816
 31
0.0
  0
LINE
  5
2fa
100
AcDbEntity
  8
Export_xmas
 62
7
100
AcDbLine
 10
45.678359
 20
36.567816
 30
0.0
 11
45.485089
 21
36.511486
 31
0.0
  0
LINE
  5
2fb
100
AcDbEntity
  8
Export_xmas
 62
7
100
AcDbLine
 10
45.485089
 20
36.511486
 30
0.0
 11
45.560539
 21
36.367308
 31
0.0
  0
LINE
  5
2fc
100
AcDbEntity
  8
Export_xmas
 62
7
100
AcDbLine
 10
45.560539
 20
36.367308
 30
0.0
 11
44.211267
 21
35.993688
 31
0.0
  0
LINE
  5
2fd
100
AcDbEntity
  8
Export_xmas
 62
7
100
AcDbLine
 10
44.211267
 20
35.993688
 30
0.0
 11
44.123417
 21
36.132181
 31
0.0
  0
LINE
  5
2fe
100
AcDbEntity
  8
Export_xmas
 62
7
100
AcDbLine
 10
44.123417
 20
36.132181
 30
0.0
 11
43.932214
 21
36.204011
 31
0.0
  0
LINE
  5
2ff
100
AcDbEntity
  8
Export_xmas
 62
7
100
AcDbLine
 10
43.932214
 20
36.204011
 30
0.0
 11
43.724992
 21
36.301161
 31
0.0
  0
LINE
  5
300
100
AcDbEntity
  8
Export_xmas
 62
7
100
AcDbLine
 10
43.724992
 20
36.301161
 30
0.0
 11
43.804052
 21
36.333201
 31
0.0
  0
LINE
  5
301
100
AcDbEntity
  8
Export_xmas
 62
7
100
AcDbLine
 10
43.804052
 20
36.333201
 30
0.0
 11
43.894482
 21
36.384361
 31
0.0
  0
LINE
  5
302
100
AcDbEntity
  8
Export_xmas
 62
7
100
AcDbLine
 10
43.894482
 20
36.384361
 30
0.0
 11
44.029358
 21
36.475831
 31
0.0
  0
LINE
  5
303
100
AcDbEntity
  8
Export_xmas
 62
7
100
AcDbLine
 10
44.029358
 20
36.475831
 30
0.0
 11
44.265519
 21
36.647913
 31
0.0
  0
LINE
  5
304
100
AcDbEntity
  8
Export_xmas
 62
7
100
AcDbLine
 10
44.265519
 20
36.647913
 30
0.0
 11
44.802954
 21
37.045305
 31
0.0
  0
LINE
  5
305
100
AcDbEntity
  8
Export_xmas
 62
7
100
AcDbLine
 10
44.802954
 20
37.045305
 30
0.0
 11
45.356925
 21
37.435462
 31
0.0
  0
LINE
  5
306
100
AcDbEntity
  8
Export_xmas
 62
7
100
AcDbLine
 10
45.356925
 20
37.435462
 30
0.0
 11
44.883565
 21
38.001310
 31
0.0
  0
LINE
  5
307
100
AcDbEntity
  8
Export_xmas
 62
7
100
AcDbLine
 10
44.883565
 20
38.001310
 30
0.0
 11
44.031938
 21
37.814242
 31
0.0
  0
LINE
  5
308
100
AcDbEntity
  8
Export_xmas
 62
7
100
AcDbLine
 10
44.031938
 20
37.814242
 30
0.0
 11
43.322937
 21
37.735182
 31
0.0
  0
LINE
  5
309
100
AcDbEntity
  8
Export_xmas
 62
7
100
AcDbLine
 10
43.322937
 20
37.735182
 30
0.0
 11
43.068172
 21
37.796162
 31
0.0
  0
LINE
  5
30a
100
AcDbEntity
  8
Export_xmas
 62
7
100
AcDbLine
 10
43.068172
 20
37.796162
 30
0.0
 11
43.059872
 21
37.794562
 31
0.0
  0
LINE
  5
30b
100
AcDbEntity
  8
Export_xmas
 62
7
100
AcDbLine
 10
43.059872
 20
37.794562
 30
0.0
 11
43.016982
 21
37.851922
 31
0.0
  0
LINE
  5
30c
100
AcDbEntity
  8
Export_xmas
 62
7
100
AcDbLine
 10
43.016982
 20
37.851922
 30
0.0
 11
42.654730
 21
37.808002
 31
0.0
  0
LINE
  5
30d
100
AcDbEntity
  8
Export_xmas
 62
7
100
AcDbLine
 10
42.654730
 20
37.808002
 30
0.0
 11
42.402549
 21
37.945978
 31
0.0
  0
LINE
  5
30e
100
AcDbEntity
  8
Export_xmas
 62
7
100
AcDbLine
 10
42.402549
 20
37.945978
 30
0.0
 11
42.338989
 21
38.095840
 31
0.0
  0
LINE
  5
30f
100
AcDbEntity
  8
Export_xmas
 62
7
100
AcDbLine
 10
42.338989
 20
38.095840
 30
0.0
 11
42.426839
 21
38.217796
 31
0.0
  0
LINE
  5
310
100
AcDbEntity
  8
Export_xmas
 62
7
100
AcDbLine
 10
42.426839
 20
38.217796
 30
0.0
 11
42.489369
 21
38.258106
 31
0.0
  0
LINE
  5
311
100
AcDbEntity
  8
Export_xmas
 62
7
100
AcDbLine
 10
42.489369
 20
38.258106
 30
0.0
 11
42.565339
 21
38.296866
 31
0.0
  0
LINE
  5
312
100
AcDbEntity
  8
Export_xmas
 62
7
100
AcDbLine
 10
42.565339
 20
38.296866
 30
0.0
 11
44.120799
 21
39.021887
 31
0.0
  0
LINE
  5
313
100
AcDbEntity
  8
Export_xmas
 62
7
100
AcDbLine
 10
44.120799
 20
39.021887
 30
0.0
 11
43.693457
 21
39.590361
 31
0.0
  0
LINE
  5
314
100
AcDbEntity
  8
Export_xmas
 62
7
100
AcDbLine
 10
10.206095
 20
38.809530
 30
0.0
 11
10.293945
 21
38.692224
 31
0.0
  0
LINE
  5
315
100
AcDbEntity
  8
Export_xmas
 62
7
100
AcDbLine
 10
10.293945
 20
38.692224
 30
0.0
 11
10.452075
 21
38.386816
 31
0.0
  0
LINE
  5
316
100
AcDbEntity
  8
Export_xmas
 62
7
100
AcDbLine
 10
10.452075
 20
38.386816
 30
0.0
 11
10.432955
 21
38.186312
 31
0.0
  0
LINE
  5
317
100
AcDbEntity
  8
Export_xmas
 62
7
100
AcDbLine
 10
10.432955
 20
38.186312
 30
0.0
 11
10.317200
 21
38.130502
 31
0.0
  0
LINE
  5
318
100
AcDbEntity
  8
Export_xmas
 62
7
100
AcDbLine
 10
10.317200
 20
38.130502
 30
0.0
 11
10.199377
 21
38.168742
 31
0.0
  0
LINE
  5
319
100
AcDbEntity
  8
Export_xmas
 62
7
100
AcDbLine
 10
10.199377
 20
38.168742
 30
0.0
 11
10.107907
 21
38.408004
 31
0.0
  0
LINE
  5
31a
100
AcDbEntity
  8
Export_xmas
 62
7
100
AcDbLine
 10
10.107907
 20
38.408004
 30
0.0
 11
10.206087
 21
38.809530
 31
0.0
  0
LINE
  5
31b
100
AcDbEntity
  8
Export_xmas
 62
7
100
AcDbLine
 10
10.206087
 20
38.809530
 30
0.0
 11
10.206095
 21
38.809530
 31
0.0
  0
LINE
  5
31c
100
AcDbEntity
  8
Export_xmas
 62
7
100
AcDbLine
 10
44.447933
 20
37.691252
 30
0.0
 11
44.142008
 21
37.463359
 31
0.0
  0
LINE
  5
31d
100
AcDbEntity
  8
Export_xmas
 62
7
100
AcDbLine
 10
44.142008
 20
37.463359
 30
0.0
 11
43.816447
 21
37.211178
 31
0.0
  0
LINE
  5
31e
100
AcDbEntity
  8
Export_xmas
 62
7
100
AcDbLine
 10
43.816447
 20
37.211178
 30
0.0
 11
43.622660
 21
37.065450
 31
0.0
  0
LINE
  5
31f
100
AcDbEntity
  8
Export_xmas
 62
7
100
AcDbLine
 10
43.622660
 20
37.065450
 30
0.0
 11
43.507939
 21
36.987420
 31
0.0
  0
LINE
  5
320
100
AcDbEntity
  8
Export_xmas
 62
7
100
AcDbLine
 10
43.507939
 20
36.987420
 30
0.0
 11
43.159123
 21
36.901640
 31
0.0
  0
LINE
  5
321
100
AcDbEntity
  8
Export_xmas
 62
7
100
AcDbLine
 10
43.159123
 20
36.901640
 30
0.0
 11
42.890405
 21
37.105762
 31
0.0
  0
LINE
  5
322
100
AcDbEntity
  8
Export_xmas
 62
7
100
AcDbLine
 10
42.890405
 20
37.105762
 30
0.0
 11
42.833565
 21
37.344507
 31
0.0
  0
LINE
  5
323
100
AcDbEntity
  8
Export_xmas
 62
7
100
AcDbLine
 10
42.833565
 20
37.344507
 30
0.0
 11
43.022184
 21
37.545011
 31
0.0
  0
LINE
  5
324
100
AcDbEntity
  8
Export_xmas
 62
7
100
AcDbLine
 10
43.022184
 20
37.545011
 30
0.0
 11
43.006684
 21
37.477311
 31
0.0
  0
LINE
  5
325
100
AcDbEntity
  8
Export_xmas
 62
7
100
AcDbLine
 10
43.006684
 20
37.477311
 30
0.0
 11
43.038724
 21
37.398251
 31
0.0
  0
LINE
  5
326
100
AcDbEntity
  8
Export_xmas
 62
7
100
AcDbLine
 10
43.038724
 20
37.398251
 30
0.0
 11
43.183418
 21
37.308331
 31
0.0
  0
LINE
  5
327
100
AcDbEntity
  8
Export_xmas
 62
7
100
AcDbLine
 10
43.183418
 20
37.308331
 30
0.0
 11
43.359634
 21
37.343471
 31
0.0
  0
LINE
  5
328
100
AcDbEntity
  8
Export_xmas
 62
7
100
AcDbLine
 10
43.359634
 20
37.343471
 30
0.0
 11
43.431464
 21
37.424081
 31
0.0
  0
LINE
  5
329
100
AcDbEntity
  8
Export_xmas
 62
7
100
AcDbLine
 10
43.431464
 20
37.424081
 30
0.0
 11
43.444904
 21
37.531568
 31
0.0
  0
LINE
  5
32a
100
AcDbEntity
  8
Export_xmas
 62
7
100
AcDbLine
 10
43.444904
 20
37.531568
 30
0.0
 11
44.004560
 21
37.598748
 31
0.0
  0
LINE
  5
32b
100
AcDbEntity
  8
Export_xmas
 62
7
100
AcDbLine
 10
44.004560
 20
37.598748
 30
0.0
 11
44.447944
 21
37.691248
 31
0.0
  0
LINE
  5
32c
100
AcDbEntity
  8
Export_xmas
 62
7
100
AcDbLine
 10
44.447944
 20
37.691248
 30
0.0
 11
44.447933
 21
37.691252
 31
0.0
  0
LINE
  5
32d
100
AcDbEntity
  8
Export_xmas
 62
7
100
AcDbLine
 10
5.237923
 20
37.192057
 30
0.0
 11
5.084961
 21
37.174487
 31
0.0
  0
LINE
  5
32e
100
AcDbEntity
  8
Export_xmas
 62
7
100
AcDbLine
 10
5.084961
 20
37.174487
 30
0.0
 11
4.848283
 21
36.988452
 31
0.0
  0
LINE
  5
32f
100
AcDbEntity
  8
Export_xmas
 62
7
100
AcDbLine
 10
4.848283
 20
36.988452
 30
0.0
 11
4.819861
 21
36.689246
 31
0.0
  0
LINE
  5
330
100
AcDbEntity
  8
Export_xmas
 62
7
100
AcDbLine
 10
4.819861
 20
36.689246
 30
0.0
 11
5.007963
 21
36.456702
 31
0.0
  0
LINE
  5
331
100
AcDbEntity
  8
Export_xmas
 62
7
100
AcDbLine
 10
5.007963
 20
36.456702
 30
0.0
 11
5.305103
 21
36.424142
 31
0.0
  0
LINE
  5
332
100
AcDbEntity
  8
Export_xmas
 62
7
100
AcDbLine
 10
5.305103
 20
36.424142
 30
0.0
 11
5.537647
 21
36.612244
 31
0.0
  0
LINE
  5
333
100
AcDbEntity
  8
Export_xmas
 62
7
100
AcDbLine
 10
5.537647
 20
36.612244
 30
0.0
 11
5.570203
 21
36.909383
 31
0.0
  0
LINE
  5
334
100
AcDbEntity
  8
Export_xmas
 62
7
100
AcDbLine
 10
5.570203
 20
36.909383
 30
0.0
 11
5.384684
 21
37.146061
 31
0.0
  0
LINE
  5
335
100
AcDbEntity
  8
Export_xmas
 62
7
100
AcDbLine
 10
5.384684
 20
37.146061
 30
0.0
 11
5.237923
 21
37.192051
 31
0.0
  0
LINE
  5
336
100
AcDbEntity
  8
Export_xmas
 62
7
100
AcDbLine
 10
5.237923
 20
37.192051
 30
0.0
 11
5.237923
 21
37.192057
 31
0.0
  0
LINE
  5
337
100
AcDbEntity
  8
Export_xmas
 62
7
100
AcDbLine
 10
46.579586
 20
34.850081
 30
0.0
 11
44.080514
 21
34.491964
 31
0.0
  0
LINE
  5
338
100
AcDbEntity
  8
Export_xmas
 62
7
100
AcDbLine
 10
44.080514
 20
34.491964
 30
0.0
 11
44.325460
 21
33.824304
 31
0.0
  0
LINE
  5
339
100
AcDbEntity
  8
Export_xmas
 62
7
100
AcDbLine
 10
44.325460
 20
33.824304
 30
0.0
 11
45.929496
 21
34.054264
 31
0.0
  0
LINE
  5
33a
100
AcDbEntity
  8
Export_xmas
 62
7
100
AcDbLine
 10
45.929496
 20
34.054264
 30
0.0
 11
46.302600
 21
34.011894
 31
0.0
  0
LINE
  5
33b
100
AcDbEntity
  8
Export_xmas
 62
7
100
AcDbLine
 10
46.302600
 20
34.011894
 30
0.0
 11
46.498454
 21
33.836711
 31
0.0
  0
LINE
  5
33c
100
AcDbEntity
  8
Export_xmas
 62
7
100
AcDbLine
 10
46.498454
 20
33.836711
 30
0.0
 11
46.480364
 21
33.714237
 31
0.0
  0
LINE
  5
33d
100
AcDbEntity
  8
Export_xmas
 62
7
100
AcDbLine
 10
46.480364
 20
33.714237
 30
0.0
 11
46.345489
 21
33.622767
 31
0.0
  0
LINE
  5
33e
100
AcDbEntity
  8
Export_xmas
 62
7
100
AcDbLine
 10
46.345489
 20
33.622767
 30
0.0
 11
46.283479
 21
33.605197
 31
0.0
  0
LINE
  5
33f
100
AcDbEntity
  8
Export_xmas
 62
7
100
AcDbLine
 10
46.283479
 20
33.605197
 30
0.0
 11
46.224049
 21
33.594347
 31
0.0
  0
LINE
  5
340
100
AcDbEntity
  8
Export_xmas
 62
7
100
AcDbLine
 10
46.224049
 20
33.594347
 30
0.0
 11
44.500123
 21
33.346300
 31
0.0
  0
LINE
  5
341
100
AcDbEntity
  8
Export_xmas
 62
7
100
AcDbLine
 10
44.500123
 20
33.346300
 30
0.0
 11
44.745069
 21
32.678641
 31
0.0
  0
LINE
  5
342
100
AcDbEntity
  8
Export_xmas
 62
7
100
AcDbLine
 10
44.745069
 20
32.678641
 30
0.0
 11
46.349106
 21
32.908601
 31
0.0
  0
LINE
  5
343
100
AcDbEntity
  8
Export_xmas
 62
7
100
AcDbLine
 10
46.349106
 20
32.908601
 30
0.0
 11
46.716009
 21
32.869841
 31
0.0
  0
LINE
  5
344
100
AcDbEntity
  8
Export_xmas
 62
7
100
AcDbLine
 10
46.716009
 20
32.869841
 30
0.0
 11
46.908245
 21
32.703443
 31
0.0
  0
LINE
  5
345
100
AcDbEntity
  8
Export_xmas
 62
7
100
AcDbLine
 10
46.908245
 20
32.703443
 30
0.0
 11
46.893775
 21
32.556166
 31
0.0
  0
LINE
  5
346
100
AcDbEntity
  8
Export_xmas
 62
7
100
AcDbLine
 10
46.893775
 20
32.556166
 30
0.0
 11
46.733062
 21
32.449712
 31
0.0
  0
LINE
  5
347
100
AcDbEntity
  8
Export_xmas
 62
7
100
AcDbLine
 10
46.733062
 20
32.449712
 30
0.0
 11
46.531524
 21
32.397002
 31
0.0
  0
LINE
  5
348
100
AcDbEntity
  8
Export_xmas
 62
7
100
AcDbLine
 10
46.531524
 20
32.397002
 30
0.0
 11
46.120696
 21
32.341192
 31
0.0
  0
LINE
  5
349
100
AcDbEntity
  8
Export_xmas
 62
7
100
AcDbLine
 10
46.120696
 20
32.341192
 30
0.0
 11
45.689715
 21
32.283312
 31
0.0
  0
LINE
  5
34a
100
AcDbEntity
  8
Export_xmas
 62
7
100
AcDbLine
 10
45.689715
 20
32.283312
 30
0.0
 11
45.474224
 21
32.224922
 31
0.0
  0
LINE
  5
34b
100
AcDbEntity
  8
Export_xmas
 62
7
100
AcDbLine
 10
45.474224
 20
32.224922
 30
0.0
 11
45.141944
 21
31.940184
 31
0.0
  0
LINE
  5
34c
100
AcDbEntity
  8
Export_xmas
 62
7
100
AcDbLine
 10
45.141944
 20
31.940184
 30
0.0
 11
45.150744
 21
31.485949
 31
0.0
  0
LINE
  5
34d
100
AcDbEntity
  8
Export_xmas
 62
7
100
AcDbLine
 10
45.150744
 20
31.485949
 30
0.0
 11
45.547619
 21
31.063235
 31
0.0
  0
LINE
  5
34e
100
AcDbEntity
  8
Export_xmas
 62
7
100
AcDbLine
 10
45.547619
 20
31.063235
 30
0.0
 11
46.324833
 21
30.937662
 31
0.0
  0
LINE
  5
34f
100
AcDbEntity
  8
Export_xmas
 62
7
100
AcDbLine
 10
46.324833
 20
30.937662
 30
0.0
 11
46.253003
 21
31.132482
 31
0.0
  0
LINE
  5
350
100
AcDbEntity
  8
Export_xmas
 62
7
100
AcDbLine
 10
46.253003
 20
31.132482
 30
0.0
 11
45.854061
 21
31.202242
 31
0.0
  0
LINE
  5
351
100
AcDbEntity
  8
Export_xmas
 62
7
100
AcDbLine
 10
45.854061
 20
31.202242
 30
0.0
 11
45.702132
 21
31.372774
 31
0.0
  0
LINE
  5
352
100
AcDbEntity
  8
Export_xmas
 62
7
100
AcDbLine
 10
45.702132
 20
31.372774
 30
0.0
 11
45.698032
 21
31.528837
 31
0.0
  0
LINE
  5
353
100
AcDbEntity
  8
Export_xmas
 62
7
100
AcDbLine
 10
45.698032
 20
31.528837
 30
0.0
 11
45.829290
 21
31.629606
 31
0.0
  0
LINE
  5
354
100
AcDbEntity
  8
Export_xmas
 62
7
100
AcDbLine
 10
45.829290
 20
31.629606
 30
0.0
 11
45.998272
 21
31.670436
 31
0.0
  0
LINE
  5
355
100
AcDbEntity
  8
Export_xmas
 62
7
100
AcDbLine
 10
45.998272
 20
31.670436
 30
0.0
 11
46.361040
 21
31.713846
 31
0.0
  0
LINE
  5
356
100
AcDbEntity
  8
Export_xmas
 62
7
100
AcDbLine
 10
46.361040
 20
31.713846
 30
0.0
 11
46.842148
 21
31.779476
 31
0.0
  0
LINE
  5
357
100
AcDbEntity
  8
Export_xmas
 62
7
100
AcDbLine
 10
46.842148
 20
31.779476
 30
0.0
 11
47.107248
 21
31.845106
 31
0.0
  0
LINE
  5
358
100
AcDbEntity
  8
Export_xmas
 62
7
100
AcDbLine
 10
47.107248
 20
31.845106
 30
0.0
 11
47.447279
 21
32.122608
 31
0.0
  0
LINE
  5
359
100
AcDbEntity
  8
Export_xmas
 62
7
100
AcDbLine
 10
47.447279
 20
32.122608
 30
0.0
 11
47.442579
 21
32.552039
 31
0.0
  0
LINE
  5
35a
100
AcDbEntity
  8
Export_xmas
 62
7
100
AcDbLine
 10
47.442579
 20
32.552039
 30
0.0
 11
47.214169
 21
32.873467
 31
0.0
  0
LINE
  5
35b
100
AcDbEntity
  8
Export_xmas
 62
7
100
AcDbLine
 10
47.214169
 20
32.873467
 30
0.0
 11
46.812127
 21
33.052267
 31
0.0
  0
LINE
  5
35c
100
AcDbEntity
  8
Export_xmas
 62
7
100
AcDbLine
 10
46.812127
 20
33.052267
 30
0.0
 11
47.051389
 21
33.318401
 31
0.0
  0
LINE
  5
35d
100
AcDbEntity
  8
Export_xmas
 62
7
100
AcDbLine
 10
47.051389
 20
33.318401
 30
0.0
 11
47.035889
 21
33.676002
 31
0.0
  0
LINE
  5
35e
100
AcDbEntity
  8
Export_xmas
 62
7
100
AcDbLine
 10
47.035889
 20
33.676002
 30
0.0
 11
46.857088
 21
33.962806
 31
0.0
  0
LINE
  5
35f
100
AcDbEntity
  8
Export_xmas
 62
7
100
AcDbLine
 10
46.857088
 20
33.962806
 30
0.0
 11
46.564083
 21
34.144707
 31
0.0
  0
LINE
  5
360
100
AcDbEntity
  8
Export_xmas
 62
7
100
AcDbLine
 10
46.564083
 20
34.144707
 30
0.0
 11
46.824015
 21
34.182427
 31
0.0
  0
LINE
  5
361
100
AcDbEntity
  8
Export_xmas
 62
7
100
AcDbLine
 10
46.824015
 20
34.182427
 30
0.0
 11
46.579586
 21
34.850081
 31
0.0
  0
LINE
  5
362
100
AcDbEntity
  8
Export_xmas
 62
7
100
AcDbLine
 10
5.702494
 20
32.576318
 30
0.0
 11
5.643066
 21
32.377364
 31
0.0
  0
LINE
  5
363
100
AcDbEntity
  8
Export_xmas
 62
7
100
AcDbLine
 10
5.643066
 20
32.377364
 30
0.0
 11
5.714896
 21
32.186161
 31
0.0
  0
LINE
  5
364
100
AcDbEntity
  8
Export_xmas
 62
7
100
AcDbLine
 10
5.714896
 20
32.186161
 30
0.0
 11
5.777941
 21
31.966536
 31
0.0
  0
LINE
  5
365
100
AcDbEntity
  8
Export_xmas
 62
7
100
AcDbLine
 10
5.777941
 20
31.966536
 30
0.0
 11
5.701977
 21
32.004256
 31
0.0
  0
LINE
  5
366
100
AcDbEntity
  8
Export_xmas
 62
7
100
AcDbLine
 10
5.701977
 20
32.004256
 30
0.0
 11
5.603792
 21
32.038876
 31
0.0
  0
LINE
  5
367
100
AcDbEntity
  8
Export_xmas
 62
7
100
AcDbLine
 10
5.603792
 20
32.038876
 30
0.0
 11
5.446179
 21
32.080736
 31
0.0
  0
LINE
  5
368
100
AcDbEntity
  8
Export_xmas
 62
7
100
AcDbLine
 10
5.446179
 20
32.080736
 30
0.0
 11
5.161442
 21
32.144820
 31
0.0
  0
LINE
  5
369
100
AcDbEntity
  8
Export_xmas
 62
7
100
AcDbLine
 10
5.161442
 20
32.144820
 30
0.0
 11
4.508252
 21
32.287964
 31
0.0
  0
LINE
  5
36a
100
AcDbEntity
  8
Export_xmas
 62
7
100
AcDbLine
 10
4.508252
 20
32.287964
 30
0.0
 11
3.849894
 21
32.448161
 31
0.0
  0
LINE
  5
36b
100
AcDbEntity
  8
Export_xmas
 62
7
100
AcDbLine
 10
3.849894
 20
32.448161
 30
0.0
 11
3.736206
 21
31.719523
 31
0.0
  0
LINE
  5
36c
100
AcDbEntity
  8
Export_xmas
 62
7
100
AcDbLine
 10
3.736206
 20
31.719523
 30
0.0
 11
4.436939
 21
31.201208
 31
0.0
  0
LINE
  5
36d
100
AcDbEntity
  8
Export_xmas
 62
7
100
AcDbLine
 10
4.436939
 20
31.201208
 30
0.0
 11
4.963521
 21
30.719584
 31
0.0
  0
LINE
  5
36e
100
AcDbEntity
  8
Export_xmas
 62
7
100
AcDbLine
 10
4.963521
 20
30.719584
 30
0.0
 11
5.084961
 21
30.487557
 31
0.0
  0
LINE
  5
36f
100
AcDbEntity
  8
Export_xmas
 62
7
100
AcDbLine
 10
5.084961
 20
30.487557
 30
0.0
 11
5.093231
 21
30.480357
 31
0.0
  0
LINE
  5
370
100
AcDbEntity
  8
Export_xmas
 62
7
100
AcDbLine
 10
5.093231
 20
30.480357
 30
0.0
 11
5.086001
 21
30.444697
 31
0.0
  0
LINE
  5
371
100
AcDbEntity
  8
Export_xmas
 62
7
100
AcDbLine
 10
5.086001
 20
30.444697
 30
0.0
 11
5.357819
 21
30.200784
 31
0.0
  0
LINE
  5
372
100
AcDbEntity
  8
Export_xmas
 62
7
100
AcDbLine
 10
5.357819
 20
30.200784
 30
0.0
 11
5.420347
 21
29.920698
 31
0.0
  0
LINE
  5
373
100
AcDbEntity
  8
Export_xmas
 62
7
100
AcDbLine
 10
5.420347
 20
29.920698
 30
0.0
 11
5.349034
 21
29.773936
 31
0.0
  0
LINE
  5
374
100
AcDbEntity
  8
Export_xmas
 62
7
100
AcDbLine
 10
5.349034
 20
29.773936
 30
0.0
 11
5.199689
 21
29.759466
 31
0.0
  0
LINE
  5
375
100
AcDbEntity
  8
Export_xmas
 62
7
100
AcDbLine
 10
5.199689
 20
29.759466
 30
0.0
 11
5.128375
 21
29.779616
 31
0.0
  0
LINE
  5
376
100
AcDbEntity
  8
Export_xmas
 62
7
100
AcDbLine
 10
5.128375
 20
29.779616
 30
0.0
 11
5.049310
 21
29.811136
 31
0.0
  0
LINE
  5
377
100
AcDbEntity
  8
Export_xmas
 62
7
100
AcDbLine
 10
5.049310
 20
29.811136
 30
0.0
 11
3.478347
 21
30.503084
 31
0.0
  0
LINE
  5
378
100
AcDbEntity
  8
Export_xmas
 62
7
100
AcDbLine
 10
3.478347
 20
30.503084
 30
0.0
 11
3.332619
 21
29.807002
 31
0.0
  0
LINE
  5
379
100
AcDbEntity
  8
Export_xmas
 62
7
100
AcDbLine
 10
3.332619
 20
29.807002
 30
0.0
 11
4.815733
 21
29.153812
 31
0.0
  0
LINE
  5
37a
100
AcDbEntity
  8
Export_xmas
 62
7
100
AcDbLine
 10
4.815733
 20
29.153812
 30
0.0
 11
4.983681
 21
29.088182
 31
0.0
  0
LINE
  5
37b
100
AcDbEntity
  8
Export_xmas
 62
7
100
AcDbLine
 10
4.983681
 20
29.088182
 30
0.0
 11
5.122174
 21
29.049422
 31
0.0
  0
LINE
  5
37c
100
AcDbEntity
  8
Export_xmas
 62
7
100
AcDbLine
 10
5.122174
 20
29.049422
 30
0.0
 11
5.580544
 21
29.094892
 31
0.0
  0
LINE
  5
37d
100
AcDbEntity
  8
Export_xmas
 62
7
100
AcDbLine
 10
5.580544
 20
29.094892
 30
0.0
 11
5.810504
 21
29.445258
 31
0.0
  0
LINE
  5
37e
100
AcDbEntity
  8
Export_xmas
 62
7
100
AcDbLine
 10
5.810504
 20
29.445258
 30
0.0
 11
5.708701
 21
30.092247
 31
0.0
  0
LINE
  5
37f
100
AcDbEntity
  8
Export_xmas
 62
7
100
AcDbLine
 10
5.708701
 20
30.092247
 30
0.0
 11
5.539719
 21
30.316523
 31
0.0
  0
LINE
  5
380
100
AcDbEntity
  8
Export_xmas
 62
7
100
AcDbLine
 10
5.539719
 20
30.316523
 30
0.0
 11
5.819289
 21
30.392483
 31
0.0
  0
LINE
  5
381
100
AcDbEntity
  8
Export_xmas
 62
7
100
AcDbLine
 10
5.819289
 20
30.392483
 30
0.0
 11
6.140716
 21
30.848269
 31
0.0
  0
LINE
  5
382
100
AcDbEntity
  8
Export_xmas
 62
7
100
AcDbLine
 10
6.140716
 20
30.848269
 30
0.0
 11
6.193943
 21
31.285969
 31
0.0
  0
LINE
  5
383
100
AcDbEntity
  8
Export_xmas
 62
7
100
AcDbLine
 10
6.193943
 20
31.285969
 30
0.0
 11
6.078182
 21
31.676115
 31
0.0
  0
LINE
  5
384
100
AcDbEntity
  8
Export_xmas
 62
7
100
AcDbLine
 10
6.078182
 20
31.676115
 30
0.0
 11
5.922119
 21
32.155155
 31
0.0
  0
LINE
  5
385
100
AcDbEntity
  8
Export_xmas
 62
7
100
AcDbLine
 10
5.922119
 20
32.155155
 30
0.0
 11
5.702494
 21
32.576318
 31
0.0
  0
LINE
  5
386
100
AcDbEntity
  8
Export_xmas
 62
7
100
AcDbLine
 10
5.702494
 20
32.576318
 30
0.0
 11
5.702494
 21
32.576318
 31
0.0
  0
LINE
  5
387
100
AcDbEntity
  8
Export_xmas
 62
7
100
AcDbLine
 10
4.255554
 20
31.595500
 30
0.0
 11
4.628658
 21
31.515400
 31
0.0
  0
LINE
  5
388
100
AcDbEntity
  8
Export_xmas
 62
7
100
AcDbLine
 10
4.628658
 20
31.515400
 30
0.0
 11
5.032768
 21
31.435820
 31
0.0
  0
LINE
  5
389
100
AcDbEntity
  8
Export_xmas
 62
7
100
AcDbLine
 10
5.032768
 20
31.435820
 30
0.0
 11
5.270479
 21
31.385690
 31
0.0
  0
LINE
  5
38a
100
AcDbEntity
  8
Export_xmas
 62
7
100
AcDbLine
 10
5.270479
 20
31.385690
 30
0.0
 11
5.404321
 21
31.351070
 31
0.0
  0
LINE
  5
38b
100
AcDbEntity
  8
Export_xmas
 62
7
100
AcDbLine
 10
5.404321
 20
31.351070
 30
0.0
 11
5.698360
 21
31.144881
 31
0.0
  0
LINE
  5
38c
100
AcDbEntity
  8
Export_xmas
 62
7
100
AcDbLine
 10
5.698360
 20
31.144881
 30
0.0
 11
5.721614
 21
30.807951
 31
0.0
  0
LINE
  5
38d
100
AcDbEntity
  8
Export_xmas
 62
7
100
AcDbLine
 10
5.721614
 20
30.807951
 30
0.0
 11
5.579504
 21
30.608480
 31
0.0
  0
LINE
  5
38e
100
AcDbEntity
  8
Export_xmas
 62
7
100
AcDbLine
 10
5.579504
 20
30.608480
 30
0.0
 11
5.304585
 21
30.618280
 31
0.0
  0
LINE
  5
38f
100
AcDbEntity
  8
Export_xmas
 62
7
100
AcDbLine
 10
5.304585
 20
30.618280
 30
0.0
 11
5.365563
 21
30.651350
 31
0.0
  0
LINE
  5
390
100
AcDbEntity
  8
Export_xmas
 62
7
100
AcDbLine
 10
5.365563
 20
30.651350
 30
0.0
 11
5.403803
 21
30.727830
 31
0.0
  0
LINE
  5
391
100
AcDbEntity
  8
Export_xmas
 62
7
100
AcDbLine
 10
5.403803
 20
30.727830
 30
0.0
 11
5.376931
 21
30.895262
 31
0.0
  0
LINE
  5
392
100
AcDbEntity
  8
Export_xmas
 62
7
100
AcDbLine
 10
5.376931
 20
30.895262
 30
0.0
 11
5.234304
 21
31.004816
 31
0.0
  0
LINE
  5
393
100
AcDbEntity
  8
Export_xmas
 62
7
100
AcDbLine
 10
5.234304
 20
31.004816
 30
0.0
 11
5.126301
 21
31.006416
 31
0.0
  0
LINE
  5
394
100
AcDbEntity
  8
Export_xmas
 62
7
100
AcDbLine
 10
5.126301
 20
31.006416
 30
0.0
 11
5.035867
 21
30.945436
 31
0.0
  0
LINE
  5
395
100
AcDbEntity
  8
Export_xmas
 62
7
100
AcDbLine
 10
5.035867
 20
30.945436
 30
0.0
 11
4.617806
 21
31.322648
 31
0.0
  0
LINE
  5
396
100
AcDbEntity
  8
Export_xmas
 62
7
100
AcDbLine
 10
4.617806
 20
31.322648
 30
0.0
 11
4.255554
 21
31.595500
 31
0.0
  0
LINE
  5
397
100
AcDbEntity
  8
Export_xmas
 62
7
100
AcDbLine
 10
4.255554
 20
31.595500
 30
0.0
 11
4.255554
 21
31.595500
 31
0.0
  0
LINE
  5
398
100
AcDbEntity
  8
Export_xmas
 62
7
100
AcDbLine
 10
46.450395
 20
30.877714
 30
0.0
 11
46.168758
 21
30.845154
 31
0.0
  0
LINE
  5
399
100
AcDbEntity
  8
Export_xmas
 62
7
100
AcDbLine
 10
46.168758
 20
30.845154
 30
0.0
 11
45.624089
 21
30.565068
 31
0.0
  0
LINE
  5
39a
100
AcDbEntity
  8
Export_xmas
 62
7
100
AcDbLine
 10
45.624089
 20
30.565068
 30
0.0
 11
45.511434
 21
30.050370
 31
0.0
  0
LINE
  5
39b
100
AcDbEntity
  8
Export_xmas
 62
7
100
AcDbLine
 10
45.511434
 20
30.050370
 30
0.0
 11
45.697469
 21
29.683984
 31
0.0
  0
LINE
  5
39c
100
AcDbEntity
  8
Export_xmas
 62
7
100
AcDbLine
 10
45.697469
 20
29.683984
 30
0.0
 11
46.096411
 21
29.413200
 31
0.0
  0
LINE
  5
39d
100
AcDbEntity
  8
Export_xmas
 62
7
100
AcDbLine
 10
46.096411
 20
29.413200
 30
0.0
 11
45.793587
 21
29.209078
 31
0.0
  0
LINE
  5
39e
100
AcDbEntity
  8
Export_xmas
 62
7
100
AcDbLine
 10
45.793587
 20
29.209078
 30
0.0
 11
45.741397
 21
28.852511
 31
0.0
  0
LINE
  5
39f
100
AcDbEntity
  8
Export_xmas
 62
7
100
AcDbLine
 10
45.741397
 20
28.852511
 30
0.0
 11
46.074193
 21
28.322827
 31
0.0
  0
LINE
  5
3a0
100
AcDbEntity
  8
Export_xmas
 62
7
100
AcDbLine
 10
46.074193
 20
28.322827
 30
0.0
 11
46.409057
 21
28.150745
 31
0.0
  0
LINE
  5
3a1
100
AcDbEntity
  8
Export_xmas
 62
7
100
AcDbLine
 10
46.409057
 20
28.150745
 30
0.0
 11
46.062824
 21
27.949723
 31
0.0
  0
LINE
  5
3a2
100
AcDbEntity
  8
Export_xmas
 62
7
100
AcDbLine
 10
46.062824
 20
27.949723
 30
0.0
 11
45.924848
 21
27.409705
 31
0.0
  0
LINE
  5
3a3
100
AcDbEntity
  8
Export_xmas
 62
7
100
AcDbLine
 10
45.924848
 20
27.409705
 30
0.0
 11
46.031302
 21
26.981307
 31
0.0
  0
LINE
  5
3a4
100
AcDbEntity
  8
Export_xmas
 62
7
100
AcDbLine
 10
46.031302
 20
26.981307
 30
0.0
 11
46.278315
 21
26.658329
 31
0.0
  0
LINE
  5
3a5
100
AcDbEntity
  8
Export_xmas
 62
7
100
AcDbLine
 10
46.278315
 20
26.658329
 30
0.0
 11
46.594575
 21
26.266105
 31
0.0
  0
LINE
  5
3a6
100
AcDbEntity
  8
Export_xmas
 62
7
100
AcDbLine
 10
46.594575
 20
26.266105
 30
0.0
 11
46.950109
 21
25.950879
 31
0.0
  0
LINE
  5
3a7
100
AcDbEntity
  8
Export_xmas
 62
7
100
AcDbLine
 10
46.950109
 20
25.950879
 30
0.0
 11
46.934609
 21
26.157585
 31
0.0
  0
LINE
  5
3a8
100
AcDbEntity
  8
Export_xmas
 62
7
100
AcDbLine
 10
46.934609
 20
26.157585
 30
0.0
 11
46.799217
 21
26.311064
 31
0.0
  0
LINE
  5
3a9
100
AcDbEntity
  8
Export_xmas
 62
7
100
AcDbLine
 10
46.799217
 20
26.311064
 30
0.0
 11
46.661757
 21
26.493998
 31
0.0
  0
LINE
  5
3aa
100
AcDbEntity
  8
Export_xmas
 62
7
100
AcDbLine
 10
46.661757
 20
26.493998
 30
0.0
 11
46.747027
 21
26.485198
 31
0.0
  0
LINE
  5
3ab
100
AcDbEntity
  8
Export_xmas
 62
7
100
AcDbLine
 10
46.747027
 20
26.485198
 30
0.0
 11
46.850380
 21
26.488298
 31
0.0
  0
LINE
  5
3ac
100
AcDbEntity
  8
Export_xmas
 62
7
100
AcDbLine
 10
46.850380
 20
26.488298
 30
0.0
 11
47.012644
 21
26.505348
 31
0.0
  0
LINE
  5
3ad
100
AcDbEntity
  8
Export_xmas
 62
7
100
AcDbLine
 10
47.012644
 20
26.505348
 30
0.0
 11
47.302032
 21
26.546688
 31
0.0
  0
LINE
  5
3ae
100
AcDbEntity
  8
Export_xmas
 62
7
100
AcDbLine
 10
47.302032
 20
26.546688
 30
0.0
 11
47.962974
 21
26.645908
 31
0.0
  0
LINE
  5
3af
100
AcDbEntity
  8
Export_xmas
 62
7
100
AcDbLine
 10
47.962974
 20
26.645908
 30
0.0
 11
48.635284
 21
26.730658
 31
0.0
  0
LINE
  5
3b0
100
AcDbEntity
  8
Export_xmas
 62
7
100
AcDbLine
 10
48.635284
 20
26.730658
 30
0.0
 11
48.482322
 21
27.452061
 31
0.0
  0
LINE
  5
3b1
100
AcDbEntity
  8
Export_xmas
 62
7
100
AcDbLine
 10
48.482322
 20
27.452061
 30
0.0
 11
47.642580
 21
27.686672
 31
0.0
  0
LINE
  5
3b2
100
AcDbEntity
  8
Export_xmas
 62
7
100
AcDbLine
 10
47.642580
 20
27.686672
 30
0.0
 11
46.979055
 21
27.948672
 31
0.0
  0
LINE
  5
3b3
100
AcDbEntity
  8
Export_xmas
 62
7
100
AcDbLine
 10
46.979055
 20
27.948672
 30
0.0
 11
46.815757
 21
28.100601
 31
0.0
  0
LINE
  5
3b4
100
AcDbEntity
  8
Export_xmas
 62
7
100
AcDbLine
 10
46.815757
 20
28.100601
 30
0.0
 11
46.786307
 21
28.253046
 31
0.0
  0
LINE
  5
3b5
100
AcDbEntity
  8
Export_xmas
 62
7
100
AcDbLine
 10
46.786307
 20
28.253046
 30
0.0
 11
46.415270
 21
28.352786
 31
0.0
  0
LINE
  5
3b6
100
AcDbEntity
  8
Export_xmas
 62
7
100
AcDbLine
 10
46.415270
 20
28.352786
 30
0.0
 11
46.255073
 21
28.558458
 31
0.0
  0
LINE
  5
3b7
100
AcDbEntity
  8
Export_xmas
 62
7
100
AcDbLine
 10
46.255073
 20
28.558458
 30
0.0
 11
46.274713
 21
28.718138
 31
0.0
  0
LINE
  5
3b8
100
AcDbEntity
  8
Export_xmas
 62
7
100
AcDbLine
 10
46.274713
 20
28.718138
 30
0.0
 11
46.425608
 21
28.797198
 31
0.0
  0
LINE
  5
3b9
100
AcDbEntity
  8
Export_xmas
 62
7
100
AcDbLine
 10
46.425608
 20
28.797198
 30
0.0
 11
46.499508
 21
28.806498
 31
0.0
  0
LINE
  5
3ba
100
AcDbEntity
  8
Export_xmas
 62
7
100
AcDbLine
 10
46.499508
 20
28.806498
 30
0.0
 11
46.584778
 21
28.808098
 31
0.0
  0
LINE
  5
3bb
100
AcDbEntity
  8
Export_xmas
 62
7
100
AcDbLine
 10
46.584778
 20
28.808098
 30
0.0
 11
48.300436
 21
28.775028
 31
0.0
  0
LINE
  5
3bc
100
AcDbEntity
  8
Export_xmas
 62
7
100
AcDbLine
 10
48.300436
 20
28.775028
 30
0.0
 11
48.166594
 21
29.473177
 31
0.0
  0
LINE
  5
3bd
100
AcDbEntity
  8
Export_xmas
 62
7
100
AcDbLine
 10
48.166594
 20
29.473177
 30
0.0
 11
47.899427
 21
29.477277
 31
0.0
  0
LINE
  5
3be
100
AcDbEntity
  8
Export_xmas
 62
7
100
AcDbLine
 10
47.899427
 20
29.477277
 30
0.0
 11
47.933537
 21
29.483977
 31
0.0
  0
LINE
  5
3bf
100
AcDbEntity
  8
Export_xmas
 62
7
100
AcDbLine
 10
47.933537
 20
29.483977
 30
0.0
 11
48.093217
 21
29.619886
 31
0.0
  0
LINE
  5
3c0
100
AcDbEntity
  8
Export_xmas
 62
7
100
AcDbLine
 10
48.093217
 20
29.619886
 30
0.0
 11
48.105617
 21
29.924260
 31
0.0
  0
LINE
  5
3c1
100
AcDbEntity
  8
Export_xmas
 62
7
100
AcDbLine
 10
48.105617
 20
29.924260
 30
0.0
 11
47.850852
 21
30.413119
 31
0.0
  0
LINE
  5
3c2
100
AcDbEntity
  8
Export_xmas
 62
7
100
AcDbLine
 10
47.850852
 20
30.413119
 30
0.0
 11
47.334088
 21
30.746949
 31
0.0
  0
LINE
  5
3c3
100
AcDbEntity
  8
Export_xmas
 62
7
100
AcDbLine
 10
47.334088
 20
30.746949
 30
0.0
 11
46.752211
 21
30.871489
 31
0.0
  0
LINE
  5
3c4
100
AcDbEntity
  8
Export_xmas
 62
7
100
AcDbLine
 10
46.752211
 20
30.871489
 30
0.0
 11
46.450421
 21
30.877689
 31
0.0
  0
LINE
  5
3c5
100
AcDbEntity
  8
Export_xmas
 62
7
100
AcDbLine
 10
46.450421
 20
30.877689
 30
0.0
 11
46.450395
 21
30.877714
 31
0.0
  0
LINE
  5
3c6
100
AcDbEntity
  8
Export_xmas
 62
7
100
AcDbLine
 10
2.717147
 20
30.808984
 30
0.0
 11
2.576070
 21
30.747494
 31
0.0
  0
LINE
  5
3c7
100
AcDbEntity
  8
Export_xmas
 62
7
100
AcDbLine
 10
2.576070
 20
30.747494
 30
0.0
 11
2.403471
 21
30.500998
 31
0.0
  0
LINE
  5
3c8
100
AcDbEntity
  8
Export_xmas
 62
7
100
AcDbLine
 10
2.403471
 20
30.500998
 30
0.0
 11
2.462382
 21
30.206442
 31
0.0
  0
LINE
  5
3c9
100
AcDbEntity
  8
Export_xmas
 62
7
100
AcDbLine
 10
2.462382
 20
30.206442
 30
0.0
 11
2.709912
 21
30.038494
 31
0.0
  0
LINE
  5
3ca
100
AcDbEntity
  8
Export_xmas
 62
7
100
AcDbLine
 10
2.709912
 20
30.038494
 30
0.0
 11
3.003951
 21
30.092754
 31
0.0
  0
LINE
  5
3cb
100
AcDbEntity
  8
Export_xmas
 62
7
100
AcDbLine
 10
3.003951
 20
30.092754
 30
0.0
 11
3.171899
 21
30.340284
 31
0.0
  0
LINE
  5
3cc
100
AcDbEntity
  8
Export_xmas
 62
7
100
AcDbLine
 10
3.171899
 20
30.340284
 30
0.0
 11
3.117122
 21
30.634323
 31
0.0
  0
LINE
  5
3cd
100
AcDbEntity
  8
Export_xmas
 62
7
100
AcDbLine
 10
3.117122
 20
30.634323
 30
0.0
 11
2.871143
 21
30.806922
 31
0.0
  0
LINE
  5
3ce
100
AcDbEntity
  8
Export_xmas
 62
7
100
AcDbLine
 10
2.871143
 20
30.806922
 30
0.0
 11
2.717147
 21
30.809022
 31
0.0
  0
LINE
  5
3cf
100
AcDbEntity
  8
Export_xmas
 62
7
100
AcDbLine
 10
2.717147
 20
30.809022
 30
0.0
 11
2.717147
 21
30.808984
 31
0.0
  0
LINE
  5
3d0
100
AcDbEntity
  8
Export_xmas
 62
7
100
AcDbLine
 10
46.822982
 20
30.173881
 30
0.0
 11
47.296338
 21
30.106181
 31
0.0
  0
LINE
  5
3d1
100
AcDbEntity
  8
Export_xmas
 62
7
100
AcDbLine
 10
47.296338
 20
30.106181
 30
0.0
 11
47.673831
 21
29.947040
 31
0.0
  0
LINE
  5
3d2
100
AcDbEntity
  8
Export_xmas
 62
7
100
AcDbLine
 10
47.673831
 20
29.947040
 30
0.0
 11
47.833773
 21
29.716024
 31
0.0
  0
LINE
  5
3d3
100
AcDbEntity
  8
Export_xmas
 62
7
100
AcDbLine
 10
47.833773
 20
29.716024
 30
0.0
 11
47.803283
 21
29.559444
 31
0.0
  0
LINE
  5
3d4
100
AcDbEntity
  8
Export_xmas
 62
7
100
AcDbLine
 10
47.803283
 20
29.559444
 30
0.0
 11
47.687527
 21
29.481934
 31
0.0
  0
LINE
  5
3d5
100
AcDbEntity
  8
Export_xmas
 62
7
100
AcDbLine
 10
47.687527
 20
29.481934
 30
0.0
 11
46.546512
 21
29.504674
 31
0.0
  0
LINE
  5
3d6
100
AcDbEntity
  8
Export_xmas
 62
7
100
AcDbLine
 10
46.546512
 20
29.504674
 30
0.0
 11
46.210098
 21
29.605960
 31
0.0
  0
LINE
  5
3d7
100
AcDbEntity
  8
Export_xmas
 62
7
100
AcDbLine
 10
46.210098
 20
29.605960
 30
0.0
 11
46.042667
 21
29.825585
 31
0.0
  0
LINE
  5
3d8
100
AcDbEntity
  8
Export_xmas
 62
7
100
AcDbLine
 10
46.042667
 20
29.825585
 30
0.0
 11
46.098477
 21
30.032291
 31
0.0
  0
LINE
  5
3d9
100
AcDbEntity
  8
Export_xmas
 62
7
100
AcDbLine
 10
46.098477
 20
30.032291
 30
0.0
 11
46.374429
 21
30.140294
 31
0.0
  0
LINE
  5
3da
100
AcDbEntity
  8
Export_xmas
 62
7
100
AcDbLine
 10
46.374429
 20
30.140294
 30
0.0
 11
46.822981
 21
30.173884
 31
0.0
  0
LINE
  5
3db
100
AcDbEntity
  8
Export_xmas
 62
7
100
AcDbLine
 10
46.822981
 20
30.173884
 30
0.0
 11
46.822982
 21
30.173881
 31
0.0
  0
LINE
  5
3dc
100
AcDbEntity
  8
Export_xmas
 62
7
100
AcDbLine
 10
1.878438
 20
29.420439
 30
0.0
 11
1.860868
 21
29.075240
 31
0.0
  0
LINE
  5
3dd
100
AcDbEntity
  8
Export_xmas
 62
7
100
AcDbLine
 10
1.860868
 20
29.075240
 30
0.0
 11
4.826062
 21
27.861877
 31
0.0
  0
LINE
  5
3de
100
AcDbEntity
  8
Export_xmas
 62
7
100
AcDbLine
 10
4.826062
 20
27.861877
 30
0.0
 11
1.807125
 21
28.014840
 31
0.0
  0
LINE
  5
3df
100
AcDbEntity
  8
Export_xmas
 62
7
100
AcDbLine
 10
1.807125
 20
28.014840
 30
0.0
 11
1.774569
 21
27.368368
 31
0.0
  0
LINE
  5
3e0
100
AcDbEntity
  8
Export_xmas
 62
7
100
AcDbLine
 10
1.774569
 20
27.368368
 30
0.0
 11
4.740796
 21
26.179810
 31
0.0
  0
LINE
  5
3e1
100
AcDbEntity
  8
Export_xmas
 62
7
100
AcDbLine
 10
4.740796
 20
26.179810
 30
0.0
 11
1.705322
 21
26.288847
 31
0.0
  0
LINE
  5
3e2
100
AcDbEntity
  8
Export_xmas
 62
7
100
AcDbLine
 10
1.705322
 20
26.288847
 30
0.0
 11
1.693953
 21
26.165857
 31
0.0
  0
LINE
  5
3e3
100
AcDbEntity
  8
Export_xmas
 62
7
100
AcDbLine
 10
1.693953
 20
26.165857
 30
0.0
 11
1.685173
 21
26.092477
 31
0.0
  0
LINE
  5
3e4
100
AcDbEntity
  8
Export_xmas
 62
7
100
AcDbLine
 10
1.685173
 20
26.092477
 30
0.0
 11
1.750285
 21
25.520419
 31
0.0
  0
LINE
  5
3e5
100
AcDbEntity
  8
Export_xmas
 62
7
100
AcDbLine
 10
1.750285
 20
25.520419
 30
0.0
 11
1.974561
 21
24.970065
 31
0.0
  0
LINE
  5
3e6
100
AcDbEntity
  8
Export_xmas
 62
7
100
AcDbLine
 10
1.974561
 20
24.970065
 30
0.0
 11
2.395207
 21
24.483790
 31
0.0
  0
LINE
  5
3e7
100
AcDbEntity
  8
Export_xmas
 62
7
100
AcDbLine
 10
2.395207
 20
24.483790
 30
0.0
 11
2.879932
 21
24.296205
 31
0.0
  0
LINE
  5
3e8
100
AcDbEntity
  8
Export_xmas
 62
7
100
AcDbLine
 10
2.879932
 20
24.296205
 30
0.0
 11
3.251486
 21
24.400591
 31
0.0
  0
LINE
  5
3e9
100
AcDbEntity
  8
Export_xmas
 62
7
100
AcDbLine
 10
3.251486
 20
24.400591
 30
0.0
 11
3.385328
 21
24.799533
 31
0.0
  0
LINE
  5
3ea
100
AcDbEntity
  8
Export_xmas
 62
7
100
AcDbLine
 10
3.385328
 20
24.799533
 30
0.0
 11
3.374993
 21
24.795433
 31
0.0
  0
LINE
  5
3eb
100
AcDbEntity
  8
Export_xmas
 62
7
100
AcDbLine
 10
3.374993
 20
24.795433
 30
0.0
 11
3.345021
 21
24.786633
 31
0.0
  0
LINE
  5
3ec
100
AcDbEntity
  8
Export_xmas
 62
7
100
AcDbLine
 10
3.345021
 20
24.786633
 30
0.0
 11
3.209628
 21
24.748913
 31
0.0
  0
LINE
  5
3ed
100
AcDbEntity
  8
Export_xmas
 62
7
100
AcDbLine
 10
3.209628
 20
24.748913
 30
0.0
 11
3.046331
 21
24.747413
 31
0.0
  0
LINE
  5
3ee
100
AcDbEntity
  8
Export_xmas
 62
7
100
AcDbLine
 10
3.046331
 20
24.747413
 30
0.0
 11
2.361096
 21
24.985050
 31
0.0
  0
LINE
  5
3ef
100
AcDbEntity
  8
Export_xmas
 62
7
100
AcDbLine
 10
2.361096
 20
24.985050
 30
0.0
 11
1.991610
 21
25.602067
 31
0.0
  0
LINE
  5
3f0
100
AcDbEntity
  8
Export_xmas
 62
7
100
AcDbLine
 10
1.991610
 20
25.602067
 30
0.0
 11
5.360913
 21
25.431535
 31
0.0
  0
LINE
  5
3f1
100
AcDbEntity
  8
Export_xmas
 62
7
100
AcDbLine
 10
5.360913
 20
25.431535
 30
0.0
 11
5.397603
 21
26.156555
 31
0.0
  0
LINE
  5
3f2
100
AcDbEntity
  8
Export_xmas
 62
7
100
AcDbLine
 10
5.397603
 20
26.156555
 30
0.0
 11
2.936255
 21
27.260364
 31
0.0
  0
LINE
  5
3f3
100
AcDbEntity
  8
Export_xmas
 62
7
100
AcDbLine
 10
2.936255
 20
27.260364
 30
0.0
 11
5.446696
 21
27.133240
 31
0.0
  0
LINE
  5
3f4
100
AcDbEntity
  8
Export_xmas
 62
7
100
AcDbLine
 10
5.446696
 20
27.133240
 30
0.0
 11
5.483903
 21
27.863428
 31
0.0
  0
LINE
  5
3f5
100
AcDbEntity
  8
Export_xmas
 62
7
100
AcDbLine
 10
5.483903
 20
27.863428
 30
0.0
 11
1.878438
 21
29.420439
 31
0.0
  0
LINE
  5
3f6
100
AcDbEntity
  8
Export_xmas
 62
7
100
AcDbLine
 10
46.624544
 20
27.922339
 30
0.0
 11
46.579064
 21
27.869629
 31
0.0
  0
LINE
  5
3f7
100
AcDbEntity
  8
Export_xmas
 62
7
100
AcDbLine
 10
46.579064
 20
27.869629
 30
0.0
 11
46.570264
 21
27.784879
 31
0.0
  0
LINE
  5
3f8
100
AcDbEntity
  8
Export_xmas
 62
7
100
AcDbLine
 10
46.570264
 20
27.784879
 30
0.0
 11
46.655534
 21
27.637601
 31
0.0
  0
LINE
  5
3f9
100
AcDbEntity
  8
Export_xmas
 62
7
100
AcDbLine
 10
46.655534
 20
27.637601
 30
0.0
 11
46.827617
 21
27.585921
 31
0.0
  0
LINE
  5
3fa
100
AcDbEntity
  8
Export_xmas
 62
7
100
AcDbLine
 10
46.827617
 20
27.585921
 30
0.0
 11
46.928902
 21
27.623131
 31
0.0
  0
LINE
  5
3fb
100
AcDbEntity
  8
Export_xmas
 62
7
100
AcDbLine
 10
46.928902
 20
27.623131
 30
0.0
 11
46.991952
 21
27.712011
 31
0.0
  0
LINE
  5
3fc
100
AcDbEntity
  8
Export_xmas
 62
7
100
AcDbLine
 10
46.991952
 20
27.712011
 30
0.0
 11
47.516984
 21
27.508922
 31
0.0
  0
LINE
  5
3fd
100
AcDbEntity
  8
Export_xmas
 62
7
100
AcDbLine
 10
47.516984
 20
27.508922
 30
0.0
 11
47.952617
 21
27.382832
 31
0.0
  0
LINE
  5
3fe
100
AcDbEntity
  8
Export_xmas
 62
7
100
AcDbLine
 10
47.952617
 20
27.382832
 30
0.0
 11
47.575379
 21
27.324952
 31
0.0
  0
LINE
  5
3ff
100
AcDbEntity
  8
Export_xmas
 62
7
100
AcDbLine
 10
47.575379
 20
27.324952
 30
0.0
 11
47.169719
 21
27.255192
 31
0.0
  0
LINE
  5
400
100
AcDbEntity
  8
Export_xmas
 62
7
100
AcDbLine
 10
47.169719
 20
27.255192
 30
0.0
 11
46.929940
 21
27.216952
 31
0.0
  0
LINE
  5
401
100
AcDbEntity
  8
Export_xmas
 62
7
100
AcDbLine
 10
46.929940
 20
27.216952
 30
0.0
 11
46.791964
 21
27.201962
 31
0.0
  0
LINE
  5
402
100
AcDbEntity
  8
Export_xmas
 62
7
100
AcDbLine
 10
46.791964
 20
27.201962
 30
0.0
 11
46.443665
 21
27.289812
 31
0.0
  0
LINE
  5
403
100
AcDbEntity
  8
Export_xmas
 62
7
100
AcDbLine
 10
46.443665
 20
27.289812
 30
0.0
 11
46.302071
 21
27.596254
 31
0.0
  0
LINE
  5
404
100
AcDbEntity
  8
Export_xmas
 62
7
100
AcDbLine
 10
46.302071
 20
27.596254
 30
0.0
 11
46.363561
 21
27.833448
 31
0.0
  0
LINE
  5
405
100
AcDbEntity
  8
Export_xmas
 62
7
100
AcDbLine
 10
46.363561
 20
27.833448
 30
0.0
 11
46.624527
 21
27.922328
 31
0.0
  0
LINE
  5
406
100
AcDbEntity
  8
Export_xmas
 62
7
100
AcDbLine
 10
46.624527
 20
27.922328
 30
0.0
 11
46.624544
 21
27.922339
 31
0.0
  0
LINE
  5
407
100
AcDbEntity
  8
Export_xmas
 62
7
100
AcDbLine
 10
46.437476
 20
25.836161
 30
0.0
 11
46.155322
 21
25.724023
 31
0.0
  0
LINE
  5
408
100
AcDbEntity
  8
Export_xmas
 62
7
100
AcDbLine
 10
46.155322
 20
25.724023
 30
0.0
 11
46.040084
 21
25.443420
 31
0.0
  0
LINE
  5
409
100
AcDbEntity
  8
Export_xmas
 62
7
100
AcDbLine
 10
46.040084
 20
25.443420
 30
0.0
 11
46.151705
 21
25.165918
 31
0.0
  0
LINE
  5
40a
100
AcDbEntity
  8
Export_xmas
 62
7
100
AcDbLine
 10
46.151705
 20
25.165918
 30
0.0
 11
46.432825
 21
25.050680
 31
0.0
  0
LINE
  5
40b
100
AcDbEntity
  8
Export_xmas
 62
7
100
AcDbLine
 10
46.432825
 20
25.050680
 30
0.0
 11
46.709810
 21
25.162301
 31
0.0
  0
LINE
  5
40c
100
AcDbEntity
  8
Export_xmas
 62
7
100
AcDbLine
 10
46.709810
 20
25.162301
 30
0.0
 11
46.825566
 21
25.438253
 31
0.0
  0
LINE
  5
40d
100
AcDbEntity
  8
Export_xmas
 62
7
100
AcDbLine
 10
46.825566
 20
25.438253
 30
0.0
 11
46.713428
 21
25.720406
 31
0.0
  0
LINE
  5
40e
100
AcDbEntity
  8
Export_xmas
 62
7
100
AcDbLine
 10
46.713428
 20
25.720406
 30
0.0
 11
46.437476
 21
25.836161
 31
0.0
  0
LINE
  5
40f
100
AcDbEntity
  8
Export_xmas
 62
7
100
AcDbLine
 10
46.437476
 20
25.836161
 30
0.0
 11
46.437476
 21
25.836161
 31
0.0
  0
LINE
  5
410
100
AcDbEntity
  8
Export_xmas
 62
7
100
AcDbLine
 10
47.181616
 20
25.515251
 30
0.0
 11
47.179016
 21
25.095638
 31
0.0
  0
LINE
  5
411
100
AcDbEntity
  8
Export_xmas
 62
7
100
AcDbLine
 10
47.179016
 20
25.095638
 30
0.0
 11
49.491020
 21
24.438831
 31
0.0
  0
LINE
  5
412
100
AcDbEntity
  8
Export_xmas
 62
7
100
AcDbLine
 10
49.491020
 20
24.438831
 30
0.0
 11
49.495720
 21
25.149898
 31
0.0
  0
LINE
  5
413
100
AcDbEntity
  8
Export_xmas
 62
7
100
AcDbLine
 10
49.495720
 20
25.149898
 30
0.0
 11
47.181616
 21
25.515251
 31
0.0
  0
LINE
  5
414
100
AcDbEntity
  8
Export_xmas
 62
7
100
AcDbLine
 10
30.410030
 20
6.311772
 30
0.0
 11
29.606462
 21
6.057524
 31
0.0
  0
LINE
  5
415
100
AcDbEntity
  8
Export_xmas
 62
7
100
AcDbLine
 10
29.606462
 20
6.057524
 30
0.0
 11
29.524292
 21
3.860759
 31
0.0
  0
LINE
  5
416
100
AcDbEntity
  8
Export_xmas
 62
7
100
AcDbLine
 10
29.524292
 20
3.860759
 30
0.0
 11
28.656645
 21
3.709864
 31
0.0
  0
LINE
  5
417
100
AcDbEntity
  8
Export_xmas
 62
7
100
AcDbLine
 10
28.656645
 20
3.709864
 30
0.0
 11
28.850948
 21
4.173401
 31
0.0
  0
LINE
  5
418
100
AcDbEntity
  8
Export_xmas
 62
7
100
AcDbLine
 10
28.850948
 20
4.173401
 30
0.0
 11
29.040084
 21
4.601799
 31
0.0
  0
LINE
  5
419
100
AcDbEntity
  8
Export_xmas
 62
7
100
AcDbLine
 10
29.040084
 20
4.601799
 30
0.0
 11
29.175993
 21
5.106678
 31
0.0
  0
LINE
  5
41a
100
AcDbEntity
  8
Export_xmas
 62
7
100
AcDbLine
 10
29.175993
 20
5.106678
 30
0.0
 11
29.172893
 21
5.552645
 31
0.0
  0
LINE
  5
41b
100
AcDbEntity
  8
Export_xmas
 62
7
100
AcDbLine
 10
29.172893
 20
5.552645
 30
0.0
 11
28.933631
 21
5.906629
 31
0.0
  0
LINE
  5
41c
100
AcDbEntity
  8
Export_xmas
 62
7
100
AcDbLine
 10
28.933631
 20
5.906629
 30
0.0
 11
28.463893
 21
5.973809
 31
0.0
  0
LINE
  5
41d
100
AcDbEntity
  8
Export_xmas
 62
7
100
AcDbLine
 10
28.463893
 20
5.973809
 30
0.0
 11
28.519703
 21
5.817230
 31
0.0
  0
LINE
  5
41e
100
AcDbEntity
  8
Export_xmas
 62
7
100
AcDbLine
 10
28.519703
 20
5.817230
 30
0.0
 11
28.560533
 21
5.646697
 31
0.0
  0
LINE
  5
41f
100
AcDbEntity
  8
Export_xmas
 62
7
100
AcDbLine
 10
28.560533
 20
5.646697
 30
0.0
 11
28.564133
 21
5.000225
 31
0.0
  0
LINE
  5
420
100
AcDbEntity
  8
Export_xmas
 62
7
100
AcDbLine
 10
28.564133
 20
5.000225
 30
0.0
 11
28.326421
 21
3.927422
 31
0.0
  0
LINE
  5
421
100
AcDbEntity
  8
Export_xmas
 62
7
100
AcDbLine
 10
28.326421
 20
3.927422
 30
0.0
 11
28.197230
 21
3.452516
 31
0.0
  0
LINE
  5
422
100
AcDbEntity
  8
Export_xmas
 62
7
100
AcDbLine
 10
28.197230
 20
3.452516
 30
0.0
 11
28.149690
 21
3.197751
 31
0.0
  0
LINE
  5
423
100
AcDbEntity
  8
Export_xmas
 62
7
100
AcDbLine
 10
28.149690
 20
3.197751
 30
0.0
 11
29.506713
 21
3.433912
 31
0.0
  0
LINE
  5
424
100
AcDbEntity
  8
Export_xmas
 62
7
100
AcDbLine
 10
29.506713
 20
3.433912
 30
0.0
 11
29.444183
 21
1.847446
 31
0.0
  0
LINE
  5
425
100
AcDbEntity
  8
Export_xmas
 62
7
100
AcDbLine
 10
29.444183
 20
1.847446
 30
0.0
 11
30.245167
 21
1.986456
 31
0.0
  0
LINE
  5
426
100
AcDbEntity
  8
Export_xmas
 62
7
100
AcDbLine
 10
30.245167
 20
1.986456
 30
0.0
 11
30.302007
 21
3.571889
 31
0.0
  0
LINE
  5
427
100
AcDbEntity
  8
Export_xmas
 62
7
100
AcDbLine
 10
30.302007
 20
3.571889
 30
0.0
 11
30.635837
 21
3.629769
 31
0.0
  0
LINE
  5
428
100
AcDbEntity
  8
Export_xmas
 62
7
100
AcDbLine
 10
30.635837
 20
3.629769
 30
0.0
 11
30.675107
 21
4.060751
 31
0.0
  0
LINE
  5
429
100
AcDbEntity
  8
Export_xmas
 62
7
100
AcDbLine
 10
30.675107
 20
4.060751
 30
0.0
 11
30.319573
 21
3.998741
 31
0.0
  0
LINE
  5
42a
100
AcDbEntity
  8
Export_xmas
 62
7
100
AcDbLine
 10
30.319573
 20
3.998741
 30
0.0
 11
30.410030
 21
6.311772
 31
0.0
  0
LINE
  5
42b
100
AcDbEntity
  8
Export_xmas
 62
7
100
AcDbLine
 10
21.746476
 20
6.073027
 30
0.0
 11
21.241081
 21
5.960372
 31
0.0
  0
LINE
  5
42c
100
AcDbEntity
  8
Export_xmas
 62
7
100
AcDbLine
 10
21.241081
 20
5.960372
 30
0.0
 11
20.965643
 21
5.739530
 31
0.0
  0
LINE
  5
42d
100
AcDbEntity
  8
Export_xmas
 62
7
100
AcDbLine
 10
20.965643
 20
5.739530
 30
0.0
 11
20.831287
 21
5.425004
 31
0.0
  0
LINE
  5
42e
100
AcDbEntity
  8
Export_xmas
 62
7
100
AcDbLine
 10
20.831287
 20
5.425004
 30
0.0
 11
20.872107
 21
5.039498
 31
0.0
  0
LINE
  5
42f
100
AcDbEntity
  8
Export_xmas
 62
7
100
AcDbLine
 10
20.872107
 20
5.039498
 30
0.0
 11
21.142892
 21
4.853980
 31
0.0
  0
LINE
  5
430
100
AcDbEntity
  8
Export_xmas
 62
7
100
AcDbLine
 10
21.142892
 20
4.853980
 30
0.0
 11
21.362000
 21
4.861180
 31
0.0
  0
LINE
  5
431
100
AcDbEntity
  8
Export_xmas
 62
7
100
AcDbLine
 10
21.362000
 20
4.861180
 30
0.0
 11
21.598678
 21
4.968667
 31
0.0
  0
LINE
  5
432
100
AcDbEntity
  8
Export_xmas
 62
7
100
AcDbLine
 10
21.598678
 20
4.968667
 30
0.0
 11
21.466903
 21
5.129380
 31
0.0
  0
LINE
  5
433
100
AcDbEntity
  8
Export_xmas
 62
7
100
AcDbLine
 10
21.466903
 20
5.129380
 30
0.0
 11
21.454503
 21
5.383628
 31
0.0
  0
LINE
  5
434
100
AcDbEntity
  8
Export_xmas
 62
7
100
AcDbLine
 10
21.454503
 20
5.383628
 30
0.0
 11
21.621935
 21
5.715391
 31
0.0
  0
LINE
  5
435
100
AcDbEntity
  8
Export_xmas
 62
7
100
AcDbLine
 10
21.621935
 20
5.715391
 30
0.0
 11
21.984187
 21
5.754661
 31
0.0
  0
LINE
  5
436
100
AcDbEntity
  8
Export_xmas
 62
7
100
AcDbLine
 10
21.984187
 20
5.754661
 30
0.0
 11
22.193993
 21
5.579995
 31
0.0
  0
LINE
  5
437
100
AcDbEntity
  8
Export_xmas
 62
7
100
AcDbLine
 10
22.193993
 20
5.579995
 30
0.0
 11
22.242573
 21
5.238930
 31
0.0
  0
LINE
  5
438
100
AcDbEntity
  8
Export_xmas
 62
7
100
AcDbLine
 10
22.242573
 20
5.238930
 30
0.0
 11
22.076692
 21
4.752138
 31
0.0
  0
LINE
  5
439
100
AcDbEntity
  8
Export_xmas
 62
7
100
AcDbLine
 10
22.076692
 20
4.752138
 30
0.0
 11
21.762499
 21
4.303587
 31
0.0
  0
LINE
  5
43a
100
AcDbEntity
  8
Export_xmas
 62
7
100
AcDbLine
 10
21.762499
 20
4.303587
 30
0.0
 11
21.472077
 21
4.022467
 31
0.0
  0
LINE
  5
43b
100
AcDbEntity
  8
Export_xmas
 62
7
100
AcDbLine
 10
21.472077
 20
4.022467
 30
0.0
 11
20.949629
 21
3.627142
 31
0.0
  0
LINE
  5
43c
100
AcDbEntity
  8
Export_xmas
 62
7
100
AcDbLine
 10
20.949629
 20
3.627142
 30
0.0
 11
20.109887
 21
2.898505
 31
0.0
  0
LINE
  5
43d
100
AcDbEntity
  8
Export_xmas
 62
7
100
AcDbLine
 10
20.109887
 20
2.898505
 30
0.0
 11
19.841686
 21
2.321279
 31
0.0
  0
LINE
  5
43e
100
AcDbEntity
  8
Export_xmas
 62
7
100
AcDbLine
 10
19.841686
 20
2.321279
 30
0.0
 11
19.826696
 21
2.203457
 31
0.0
  0
LINE
  5
43f
100
AcDbEntity
  8
Export_xmas
 62
7
100
AcDbLine
 10
19.826696
 20
2.203457
 30
0.0
 11
19.820496
 21
2.135757
 31
0.0
  0
LINE
  5
440
100
AcDbEntity
  8
Export_xmas
 62
7
100
AcDbLine
 10
19.820496
 20
2.135757
 30
0.0
 11
19.868036
 21
2.144557
 31
0.0
  0
LINE
  5
441
100
AcDbEntity
  8
Export_xmas
 62
7
100
AcDbLine
 10
19.868036
 20
2.144557
 30
0.0
 11
19.951756
 21
2.164197
 31
0.0
  0
LINE
  5
442
100
AcDbEntity
  8
Export_xmas
 62
7
100
AcDbLine
 10
19.951756
 20
2.164197
 30
0.0
 11
20.172414
 21
2.211217
 31
0.0
  0
LINE
  5
443
100
AcDbEntity
  8
Export_xmas
 62
7
100
AcDbLine
 10
20.172414
 20
2.211217
 30
0.0
 11
20.287136
 21
2.213817
 31
0.0
  0
LINE
  5
444
100
AcDbEntity
  8
Export_xmas
 62
7
100
AcDbLine
 10
20.287136
 20
2.213817
 30
0.0
 11
20.572390
 21
2.140437
 31
0.0
  0
LINE
  5
445
100
AcDbEntity
  8
Export_xmas
 62
7
100
AcDbLine
 10
20.572390
 20
2.140437
 30
0.0
 11
20.936709
 21
1.996260
 31
0.0
  0
LINE
  5
446
100
AcDbEntity
  8
Export_xmas
 62
7
100
AcDbLine
 10
20.936709
 20
1.996260
 30
0.0
 11
21.323248
 21
1.847432
 31
0.0
  0
LINE
  5
447
100
AcDbEntity
  8
Export_xmas
 62
7
100
AcDbLine
 10
21.323248
 20
1.847432
 30
0.0
 11
21.630723
 21
1.770432
 31
0.0
  0
LINE
  5
448
100
AcDbEntity
  8
Export_xmas
 62
7
100
AcDbLine
 10
21.630723
 20
1.770432
 30
0.0
 11
22.173326
 21
1.857762
 31
0.0
  0
LINE
  5
449
100
AcDbEntity
  8
Export_xmas
 62
7
100
AcDbLine
 10
22.173326
 20
1.857762
 30
0.0
 11
22.438942
 21
2.487181
 31
0.0
  0
LINE
  5
44a
100
AcDbEntity
  8
Export_xmas
 62
7
100
AcDbLine
 10
22.438942
 20
2.487181
 30
0.0
 11
22.464782
 21
2.631875
 31
0.0
  0
LINE
  5
44b
100
AcDbEntity
  8
Export_xmas
 62
7
100
AcDbLine
 10
22.464782
 20
2.631875
 30
0.0
 11
22.476662
 21
2.733161
 31
0.0
  0
LINE
  5
44c
100
AcDbEntity
  8
Export_xmas
 62
7
100
AcDbLine
 10
22.476662
 20
2.733161
 30
0.0
 11
22.231199
 21
2.575548
 31
0.0
  0
LINE
  5
44d
100
AcDbEntity
  8
Export_xmas
 62
7
100
AcDbLine
 10
22.231199
 20
2.575548
 30
0.0
 11
22.104075
 21
2.506298
 31
0.0
  0
LINE
  5
44e
100
AcDbEntity
  8
Export_xmas
 62
7
100
AcDbLine
 10
22.104075
 20
2.506298
 30
0.0
 11
21.901504
 21
2.461858
 31
0.0
  0
LINE
  5
44f
100
AcDbEntity
  8
Export_xmas
 62
7
100
AcDbLine
 10
21.901504
 20
2.461858
 30
0.0
 11
21.664309
 21
2.480978
 31
0.0
  0
LINE
  5
450
100
AcDbEntity
  8
Export_xmas
 62
7
100
AcDbLine
 10
21.664309
 20
2.480978
 30
0.0
 11
21.421429
 21
2.535238
 31
0.0
  0
LINE
  5
451
100
AcDbEntity
  8
Export_xmas
 62
7
100
AcDbLine
 10
21.421429
 20
2.535238
 30
0.0
 11
21.079331
 21
2.641692
 31
0.0
  0
LINE
  5
452
100
AcDbEntity
  8
Export_xmas
 62
7
100
AcDbLine
 10
21.079331
 20
2.641692
 30
0.0
 11
20.796145
 21
2.725922
 31
0.0
  0
LINE
  5
453
100
AcDbEntity
  8
Export_xmas
 62
7
100
AcDbLine
 10
20.796145
 20
2.725922
 30
0.0
 11
20.619928
 21
2.768292
 31
0.0
  0
LINE
  5
454
100
AcDbEntity
  8
Export_xmas
 62
7
100
AcDbLine
 10
20.619928
 20
2.768292
 30
0.0
 11
20.592538
 21
2.773492
 31
0.0
  0
LINE
  5
455
100
AcDbEntity
  8
Export_xmas
 62
7
100
AcDbLine
 10
20.592538
 20
2.773492
 30
0.0
 11
20.883476
 21
3.025673
 31
0.0
  0
LINE
  5
456
100
AcDbEntity
  8
Export_xmas
 62
7
100
AcDbLine
 10
20.883476
 20
3.025673
 30
0.0
 11
21.505143
 21
3.397226
 31
0.0
  0
LINE
  5
457
100
AcDbEntity
  8
Export_xmas
 62
7
100
AcDbLine
 10
21.505143
 20
3.397226
 30
0.0
 11
22.106140
 21
3.749659
 31
0.0
  0
LINE
  5
458
100
AcDbEntity
  8
Export_xmas
 62
7
100
AcDbLine
 10
22.106140
 20
3.749659
 30
0.0
 11
22.449788
 21
4.010109
 31
0.0
  0
LINE
  5
459
100
AcDbEntity
  8
Export_xmas
 62
7
100
AcDbLine
 10
22.449788
 20
4.010109
 30
0.0
 11
22.826510
 21
4.454009
 31
0.0
  0
LINE
  5
45a
100
AcDbEntity
  8
Export_xmas
 62
7
100
AcDbLine
 10
22.826510
 20
4.454009
 30
0.0
 11
23.018746
 21
4.958888
 31
0.0
  0
LINE
  5
45b
100
AcDbEntity
  8
Export_xmas
 62
7
100
AcDbLine
 10
23.018746
 20
4.958888
 30
0.0
 11
23.020602
 21
5.359783
 31
0.0
  0
LINE
  5
45c
100
AcDbEntity
  8
Export_xmas
 62
7
100
AcDbLine
 10
23.020602
 20
5.359783
 30
0.0
 11
22.869401
 21
5.673056
 31
0.0
  0
LINE
  5
45d
100
AcDbEntity
  8
Export_xmas
 62
7
100
AcDbLine
 10
22.869401
 20
5.673056
 30
0.0
 11
22.120610
 21
6.039959
 31
0.0
  0
LINE
  5
45e
100
AcDbEntity
  8
Export_xmas
 62
7
100
AcDbLine
 10
22.120610
 20
6.039959
 30
0.0
 11
21.746472
 21
6.073029
 31
0.0
  0
LINE
  5
45f
100
AcDbEntity
  8
Export_xmas
 62
7
100
AcDbLine
 10
21.746472
 20
6.073029
 30
0.0
 11
21.746476
 21
6.073027
 31
0.0
  0
LINE
  5
460
100
AcDbEntity
  8
Export_xmas
 62
7
100
AcDbLine
 10
27.193172
 20
5.820329
 30
0.0
 11
27.063464
 21
5.815629
 31
0.0
  0
LINE
  5
461
100
AcDbEntity
  8
Export_xmas
 62
7
100
AcDbLine
 10
27.063464
 20
5.815629
 30
0.0
 11
26.227856
 21
5.529342
 31
0.0
  0
LINE
  5
462
100
AcDbEntity
  8
Export_xmas
 62
7
100
AcDbLine
 10
26.227856
 20
5.529342
 30
0.0
 11
26.012563
 21
5.249604
 31
0.0
  0
LINE
  5
463
100
AcDbEntity
  8
Export_xmas
 62
7
100
AcDbLine
 10
26.012563
 20
5.249604
 30
0.0
 11
25.956555
 21
4.912325
 31
0.0
  0
LINE
  5
464
100
AcDbEntity
  8
Export_xmas
 62
7
100
AcDbLine
 10
25.956555
 20
4.912325
 30
0.0
 11
26.087813
 21
4.547490
 31
0.0
  0
LINE
  5
465
100
AcDbEntity
  8
Export_xmas
 62
7
100
AcDbLine
 10
26.087813
 20
4.547490
 30
0.0
 11
26.395288
 21
4.431734
 31
0.0
  0
LINE
  5
466
100
AcDbEntity
  8
Export_xmas
 62
7
100
AcDbLine
 10
26.395288
 20
4.431734
 30
0.0
 11
26.606128
 21
4.490644
 31
0.0
  0
LINE
  5
467
100
AcDbEntity
  8
Export_xmas
 62
7
100
AcDbLine
 10
26.606128
 20
4.490644
 30
0.0
 11
26.810767
 21
4.650840
 31
0.0
  0
LINE
  5
468
100
AcDbEntity
  8
Export_xmas
 62
7
100
AcDbLine
 10
26.810767
 20
4.650840
 30
0.0
 11
26.644368
 21
4.775897
 31
0.0
  0
LINE
  5
469
100
AcDbEntity
  8
Export_xmas
 62
7
100
AcDbLine
 10
26.644368
 20
4.775897
 30
0.0
 11
26.572018
 21
5.020327
 31
0.0
  0
LINE
  5
46a
100
AcDbEntity
  8
Export_xmas
 62
7
100
AcDbLine
 10
26.572018
 20
5.020327
 30
0.0
 11
26.655738
 21
5.382062
 31
0.0
  0
LINE
  5
46b
100
AcDbEntity
  8
Export_xmas
 62
7
100
AcDbLine
 10
26.655738
 20
5.382062
 30
0.0
 11
26.998353
 21
5.506085
 31
0.0
  0
LINE
  5
46c
100
AcDbEntity
  8
Export_xmas
 62
7
100
AcDbLine
 10
26.998353
 20
5.506085
 30
0.0
 11
27.243816
 21
5.386196
 31
0.0
  0
LINE
  5
46d
100
AcDbEntity
  8
Export_xmas
 62
7
100
AcDbLine
 10
27.243816
 20
5.386196
 30
0.0
 11
27.371974
 21
5.066319
 31
0.0
  0
LINE
  5
46e
100
AcDbEntity
  8
Export_xmas
 62
7
100
AcDbLine
 10
27.371974
 20
5.066319
 30
0.0
 11
27.325984
 21
4.554206
 31
0.0
  0
LINE
  5
46f
100
AcDbEntity
  8
Export_xmas
 62
7
100
AcDbLine
 10
27.325984
 20
4.554206
 30
0.0
 11
27.127546
 21
4.043642
 31
0.0
  0
LINE
  5
470
100
AcDbEntity
  8
Export_xmas
 62
7
100
AcDbLine
 10
27.127546
 20
4.043642
 30
0.0
 11
26.912055
 21
3.701544
 31
0.0
  0
LINE
  5
471
100
AcDbEntity
  8
Export_xmas
 62
7
100
AcDbLine
 10
26.912055
 20
3.701544
 30
0.0
 11
26.498127
 21
3.194082
 31
0.0
  0
LINE
  5
472
100
AcDbEntity
  8
Export_xmas
 62
7
100
AcDbLine
 10
26.498127
 20
3.194082
 30
0.0
 11
25.855789
 21
2.286644
 31
0.0
  0
LINE
  5
473
100
AcDbEntity
  8
Export_xmas
 62
7
100
AcDbLine
 10
25.855789
 20
2.286644
 30
0.0
 11
25.731766
 21
1.662392
 31
0.0
  0
LINE
  5
474
100
AcDbEntity
  8
Export_xmas
 62
7
100
AcDbLine
 10
25.731766
 20
1.662392
 30
0.0
 11
25.745206
 21
1.544570
 31
0.0
  0
LINE
  5
475
100
AcDbEntity
  8
Export_xmas
 62
7
100
AcDbLine
 10
25.745206
 20
1.544570
 30
0.0
 11
25.755546
 21
1.477390
 31
0.0
  0
LINE
  5
476
100
AcDbEntity
  8
Export_xmas
 62
7
100
AcDbLine
 10
25.755546
 20
1.477390
 30
0.0
 11
25.799466
 21
1.497030
 31
0.0
  0
LINE
  5
477
100
AcDbEntity
  8
Export_xmas
 62
7
100
AcDbLine
 10
25.799466
 20
1.497030
 30
0.0
 11
25.875946
 21
1.535790
 31
0.0
  0
LINE
  5
478
100
AcDbEntity
  8
Export_xmas
 62
7
100
AcDbLine
 10
25.875946
 20
1.535790
 30
0.0
 11
26.079034
 21
1.633980
 31
0.0
  0
LINE
  5
479
100
AcDbEntity
  8
Export_xmas
 62
7
100
AcDbLine
 10
26.079034
 20
1.633980
 30
0.0
 11
26.190139
 21
1.663950
 31
0.0
  0
LINE
  5
47a
100
AcDbEntity
  8
Export_xmas
 62
7
100
AcDbLine
 10
26.190139
 20
1.663950
 30
0.0
 11
26.484694
 21
1.660350
 31
0.0
  0
LINE
  5
47b
100
AcDbEntity
  8
Export_xmas
 62
7
100
AcDbLine
 10
26.484694
 20
1.660350
 30
0.0
 11
26.872784
 21
1.606090
 31
0.0
  0
LINE
  5
47c
100
AcDbEntity
  8
Export_xmas
 62
7
100
AcDbLine
 10
26.872784
 20
1.606090
 30
0.0
 11
27.283095
 21
1.553900
 31
0.0
  0
LINE
  5
47d
100
AcDbEntity
  8
Export_xmas
 62
7
100
AcDbLine
 10
27.283095
 20
1.553900
 30
0.0
 11
27.600388
 21
1.551800
 31
0.0
  0
LINE
  5
47e
100
AcDbEntity
  8
Export_xmas
 62
7
100
AcDbLine
 10
27.600388
 20
1.551800
 30
0.0
 11
28.106818
 21
1.765223
 31
0.0
  0
LINE
  5
47f
100
AcDbEntity
  8
Export_xmas
 62
7
100
AcDbLine
 10
28.106818
 20
1.765223
 30
0.0
 11
28.215338
 21
2.440118
 31
0.0
  0
LINE
  5
480
100
AcDbEntity
  8
Export_xmas
 62
7
100
AcDbLine
 10
28.215338
 20
2.440118
 30
0.0
 11
28.206038
 21
2.586362
 31
0.0
  0
LINE
  5
481
100
AcDbEntity
  8
Export_xmas
 62
7
100
AcDbLine
 10
28.206038
 20
2.586362
 30
0.0
 11
28.193638
 21
2.687648
 31
0.0
  0
LINE
  5
482
100
AcDbEntity
  8
Export_xmas
 62
7
100
AcDbLine
 10
28.193638
 20
2.687648
 30
0.0
 11
27.992617
 21
2.476291
 31
0.0
  0
LINE
  5
483
100
AcDbEntity
  8
Export_xmas
 62
7
100
AcDbLine
 10
27.992617
 20
2.476291
 30
0.0
 11
27.885646
 21
2.379141
 31
0.0
  0
LINE
  5
484
100
AcDbEntity
  8
Export_xmas
 62
7
100
AcDbLine
 10
27.885646
 20
2.379141
 30
0.0
 11
27.699611
 21
2.287671
 31
0.0
  0
LINE
  5
485
100
AcDbEntity
  8
Export_xmas
 62
7
100
AcDbLine
 10
27.699611
 20
2.287671
 30
0.0
 11
27.464483
 21
2.249951
 31
0.0
  0
LINE
  5
486
100
AcDbEntity
  8
Export_xmas
 62
7
100
AcDbLine
 10
27.464483
 20
2.249951
 30
0.0
 11
27.215920
 21
2.244751
 31
0.0
  0
LINE
  5
487
100
AcDbEntity
  8
Export_xmas
 62
7
100
AcDbLine
 10
27.215920
 20
2.244751
 30
0.0
 11
26.857802
 21
2.266971
 31
0.0
  0
LINE
  5
488
100
AcDbEntity
  8
Export_xmas
 62
7
100
AcDbLine
 10
26.857802
 20
2.266971
 30
0.0
 11
26.562730
 21
2.281961
 31
0.0
  0
LINE
  5
489
100
AcDbEntity
  8
Export_xmas
 62
7
100
AcDbLine
 10
26.562730
 20
2.281961
 30
0.0
 11
26.381862
 21
2.281444
 31
0.0
  0
LINE
  5
48a
100
AcDbEntity
  8
Export_xmas
 62
7
100
AcDbLine
 10
26.381862
 20
2.281444
 30
0.0
 11
26.353962
 21
2.279344
 31
0.0
  0
LINE
  5
48b
100
AcDbEntity
  8
Export_xmas
 62
7
100
AcDbLine
 10
26.353962
 20
2.279344
 30
0.0
 11
26.576687
 21
2.594053
 31
0.0
  0
LINE
  5
48c
100
AcDbEntity
  8
Export_xmas
 62
7
100
AcDbLine
 10
26.576687
 20
2.594053
 30
0.0
 11
27.092418
 21
3.102550
 31
0.0
  0
LINE
  5
48d
100
AcDbEntity
  8
Export_xmas
 62
7
100
AcDbLine
 10
27.092418
 20
3.102550
 30
0.0
 11
27.592646
 21
3.587274
 31
0.0
  0
LINE
  5
48e
100
AcDbEntity
  8
Export_xmas
 62
7
100
AcDbLine
 10
27.592646
 20
3.587274
 30
0.0
 11
27.864981
 21
3.921621
 31
0.0
  0
LINE
  5
48f
100
AcDbEntity
  8
Export_xmas
 62
7
100
AcDbLine
 10
27.864981
 20
3.921621
 30
0.0
 11
28.125430
 21
4.442003
 31
0.0
  0
LINE
  5
490
100
AcDbEntity
  8
Export_xmas
 62
7
100
AcDbLine
 10
28.125430
 20
4.442003
 30
0.0
 11
28.192090
 21
4.977887
 31
0.0
  0
LINE
  5
491
100
AcDbEntity
  8
Export_xmas
 62
7
100
AcDbLine
 10
28.192090
 20
4.977887
 30
0.0
 11
28.098931
 21
5.367778
 31
0.0
  0
LINE
  5
492
100
AcDbEntity
  8
Export_xmas
 62
7
100
AcDbLine
 10
28.098931
 20
5.367778
 30
0.0
 11
27.877897
 21
5.636245
 31
0.0
  0
LINE
  5
493
100
AcDbEntity
  8
Export_xmas
 62
7
100
AcDbLine
 10
27.877897
 20
5.636245
 30
0.0
 11
27.193184
 21
5.820213
 31
0.0
  0
LINE
  5
494
100
AcDbEntity
  8
Export_xmas
 62
7
100
AcDbLine
 10
27.193184
 20
5.820213
 30
0.0
 11
27.193172
 21
5.820329
 31
0.0
  0
LINE
  5
495
100
AcDbEntity
  8
Export_xmas
 62
7
100
AcDbLine
 10
24.852230
 20
5.765549
 30
0.0
 11
24.116169
 21
5.584038
 31
0.0
  0
LINE
  5
496
100
AcDbEntity
  8
Export_xmas
 62
7
100
AcDbLine
 10
24.116169
 20
5.584038
 30
0.0
 11
23.502958
 21
5.048280
 31
0.0
  0
LINE
  5
497
100
AcDbEntity
  8
Export_xmas
 62
7
100
AcDbLine
 10
23.502958
 20
5.048280
 30
0.0
 11
23.049848
 21
4.173700
 31
0.0
  0
LINE
  5
498
100
AcDbEntity
  8
Export_xmas
 62
7
100
AcDbLine
 10
23.049848
 20
4.173700
 30
0.0
 11
22.855969
 21
3.070623
 31
0.0
  0
LINE
  5
499
100
AcDbEntity
  8
Export_xmas
 62
7
100
AcDbLine
 10
22.855969
 20
3.070623
 30
0.0
 11
22.886266
 21
2.359558
 31
0.0
  0
LINE
  5
49a
100
AcDbEntity
  8
Export_xmas
 62
7
100
AcDbLine
 10
22.886266
 20
2.359558
 30
0.0
 11
23.065259
 21
1.894984
 31
0.0
  0
LINE
  5
49b
100
AcDbEntity
  8
Export_xmas
 62
7
100
AcDbLine
 10
23.065259
 20
1.894984
 30
0.0
 11
23.411744
 21
1.635133
 31
0.0
  0
LINE
  5
49c
100
AcDbEntity
  8
Export_xmas
 62
7
100
AcDbLine
 10
23.411744
 20
1.635133
 30
0.0
 11
23.944275
 21
1.526531
 31
0.0
  0
LINE
  5
49d
100
AcDbEntity
  8
Export_xmas
 62
7
100
AcDbLine
 10
23.944275
 20
1.526531
 30
0.0
 11
24.713737
 21
1.757008
 31
0.0
  0
LINE
  5
49e
100
AcDbEntity
  8
Export_xmas
 62
7
100
AcDbLine
 10
24.713737
 20
1.757008
 30
0.0
 11
25.369511
 21
2.507867
 31
0.0
  0
LINE
  5
49f
100
AcDbEntity
  8
Export_xmas
 62
7
100
AcDbLine
 10
25.369511
 20
2.507867
 30
0.0
 11
25.725045
 21
3.353810
 31
0.0
  0
LINE
  5
4a0
100
AcDbEntity
  8
Export_xmas
 62
7
100
AcDbLine
 10
25.725045
 20
3.353810
 30
0.0
 11
25.885242
 21
4.238511
 31
0.0
  0
LINE
  5
4a1
100
AcDbEntity
  8
Export_xmas
 62
7
100
AcDbLine
 10
25.885242
 20
4.238511
 30
0.0
 11
25.857485
 21
4.889934
 31
0.0
  0
LINE
  5
4a2
100
AcDbEntity
  8
Export_xmas
 62
7
100
AcDbLine
 10
25.857485
 20
4.889934
 30
0.0
 11
25.695589
 21
5.356272
 31
0.0
  0
LINE
  5
4a3
100
AcDbEntity
  8
Export_xmas
 62
7
100
AcDbLine
 10
25.695589
 20
5.356272
 30
0.0
 11
25.397317
 21
5.647783
 31
0.0
  0
LINE
  5
4a4
100
AcDbEntity
  8
Export_xmas
 62
7
100
AcDbLine
 10
25.397317
 20
5.647783
 30
0.0
 11
24.959717
 21
5.762965
 31
0.0
  0
LINE
  5
4a5
100
AcDbEntity
  8
Export_xmas
 62
7
100
AcDbLine
 10
24.959717
 20
5.762965
 30
0.0
 11
24.852230
 21
5.765565
 31
0.0
  0
LINE
  5
4a6
100
AcDbEntity
  8
Export_xmas
 62
7
100
AcDbLine
 10
24.852230
 20
5.765565
 30
0.0
 11
24.852230
 21
5.765549
 31
0.0
  0
LINE
  5
4a7
100
AcDbEntity
  8
Export_xmas
 62
7
100
AcDbLine
 10
24.904420
 20
5.471510
 30
0.0
 11
25.126112
 21
5.279274
 31
0.0
  0
LINE
  5
4a8
100
AcDbEntity
  8
Export_xmas
 62
7
100
AcDbLine
 10
25.126112
 20
5.279274
 30
0.0
 11
25.165902
 21
4.638486
 31
0.0
  0
LINE
  5
4a9
100
AcDbEntity
  8
Export_xmas
 62
7
100
AcDbLine
 10
25.165902
 20
4.638486
 30
0.0
 11
25.038340
 21
3.617865
 31
0.0
  0
LINE
  5
4aa
100
AcDbEntity
  8
Export_xmas
 62
7
100
AcDbLine
 10
25.038340
 20
3.617865
 30
0.0
 11
24.772127
 21
2.754363
 31
0.0
  0
LINE
  5
4ab
100
AcDbEntity
  8
Export_xmas
 62
7
100
AcDbLine
 10
24.772127
 20
2.754363
 30
0.0
 11
24.410943
 21
2.175723
 31
0.0
  0
LINE
  5
4ac
100
AcDbEntity
  8
Export_xmas
 62
7
100
AcDbLine
 10
24.410943
 20
2.175723
 30
0.0
 11
23.997498
 21
1.998337
 31
0.0
  0
LINE
  5
4ad
100
AcDbEntity
  8
Export_xmas
 62
7
100
AcDbLine
 10
23.997498
 20
1.998337
 30
0.0
 11
23.760820
 21
2.225713
 31
0.0
  0
LINE
  5
4ae
100
AcDbEntity
  8
Export_xmas
 62
7
100
AcDbLine
 10
23.760820
 20
2.225713
 30
0.0
 11
23.709660
 21
2.867018
 31
0.0
  0
LINE
  5
4af
100
AcDbEntity
  8
Export_xmas
 62
7
100
AcDbLine
 10
23.709660
 20
2.867018
 30
0.0
 11
23.725680
 21
3.058221
 31
0.0
  0
LINE
  5
4b0
100
AcDbEntity
  8
Export_xmas
 62
7
100
AcDbLine
 10
23.725680
 20
3.058221
 30
0.0
 11
23.767540
 21
3.423573
 31
0.0
  0
LINE
  5
4b1
100
AcDbEntity
  8
Export_xmas
 62
7
100
AcDbLine
 10
23.767540
 20
3.423573
 30
0.0
 11
23.891046
 21
4.044207
 31
0.0
  0
LINE
  5
4b2
100
AcDbEntity
  8
Export_xmas
 62
7
100
AcDbLine
 10
23.891046
 20
4.044207
 30
0.0
 11
24.095685
 21
4.604380
 31
0.0
  0
LINE
  5
4b3
100
AcDbEntity
  8
Export_xmas
 62
7
100
AcDbLine
 10
24.095685
 20
4.604380
 30
0.0
 11
24.502378
 21
5.238449
 31
0.0
  0
LINE
  5
4b4
100
AcDbEntity
  8
Export_xmas
 62
7
100
AcDbLine
 10
24.502378
 20
5.238449
 30
0.0
 11
24.904420
 21
5.471510
 31
0.0
  0
LINE
  5
4b5
100
AcDbEntity
  8
Export_xmas
 62
7
100
AcDbLine
 10
24.904420
 20
5.471510
 30
0.0
 11
24.904420
 21
5.471510
 31
0.0
  0
ENDSEC
  0
SECTION
  2
OBJECTS
  0
DICTIONARY
  5
C
330
0
100
AcDbDictionary
  3
ACAD_GROUP
350
D
  3
ACAD_MLINESTYLE
350
17
  0
DICTIONARY
  5
D
330
C
100
AcDbDictionary
  0
DICTIONARY
  5
1A
330
C
100
AcDbDictionary
  0
DICTIONARY
  5
17
330
C
100
AcDbDictionary
  3
STANDARD
350
18
  0
DICTIONARY
  5
19
330
C
100
AcDbDictionary
  0
ENDSEC
  0
EOF
