<?xml version="1.0" encoding="UTF-8" standalone="no"?>
<!-- Created with Inkscape (http://www.inkscape.org/) -->

<svg
   width="51mm"
   height="51mm"
   viewBox="0 0 51 51"
   version="1.1"
   id="svg1"
   xmlns:xlink="http://www.w3.org/1999/xlink"
   xmlns="http://www.w3.org/2000/svg"
   xmlns:svg="http://www.w3.org/2000/svg">
  <defs
     id="defs1" />
  <g
     id="layer1"
     transform="translate(-42.935692,-41.245308)"
     style="display:none">
    <circle
       style="vector-effect:non-scaling-stroke;fill:none;fill-rule:evenodd;stroke:#000000;stroke-width:0.264583;stroke-linejoin:round;stroke-dasharray:none;-inkscape-stroke:hairline;paint-order:markers stroke fill"
       id="path2"
       cx="68.435692"
       cy="66.745308"
       r="25.5" />
    <circle
       style="vector-effect:non-scaling-stroke;fill:none;fill-rule:evenodd;stroke:#000000;stroke-width:0.264583;stroke-linejoin:round;stroke-dasharray:none;-inkscape-stroke:hairline;paint-order:markers stroke fill"
       id="circle2"
       cx="68.435692"
       cy="66.745308"
       r="18.5" />
  </g>
  <g
     id="layer3"
     style="display:none">
    <path
       style="fill:none;fill-rule:evenodd;stroke:#0000ff;stroke-width:0.264583;stroke-linejoin:round;stroke-dasharray:none;stroke-opacity:1;paint-order:markers stroke fill"
       id="circle3"
       d="M 8.7518801,14.752225 A 19.900007,19.900007 0 0 1 22.742538,5.7919475 19.900007,19.900007 0 0 1 38.655107,10.568477" />
    <path
       style="display:inline;vector-effect:non-scaling-stroke;fill:none;fill-rule:evenodd;stroke:#000000;stroke-width:0.264583;stroke-linejoin:round;stroke-dasharray:none;-inkscape-stroke:hairline;paint-order:markers stroke fill"
       id="circle4"
       transform="scale(-1,1)"
       d="M -2.8610229e-4,25.5 A 25.5,25.5 0 0 1 -15.024828,48.748974 25.5,25.5 0 0 1 -42.393603,44.601462" />
  </g>
  <g
     id="layer2"
     style="display:none">
    <text
       xml:space="preserve"
       style="font-size:4.23333px;line-height:6.61457px;font-family:Sans;-inkscape-font-specification:Sans;text-align:end;letter-spacing:0px;word-spacing:0px;text-anchor:end;fill:none;stroke:#000000;stroke-width:0.264583px;stroke-linecap:butt;stroke-linejoin:miter;stroke-opacity:1"
       id="text3"
       transform="translate(0,-0.52916663)"><textPath
         xlink:href="#circle3"
         startOffset="100%"
         id="textPath3"
         style="font-style:normal;font-variant:normal;font-weight:bold;font-stretch:normal;font-size:4.23333px;line-height:6.61457px;font-family:Charm;-inkscape-font-specification:'Charm Bold';fill:#000000;fill-opacity:1;stroke:none;stroke-width:0.264583px">Merry Christmas!</textPath></text>
    <text
       xml:space="preserve"
       style="font-size:4.23333px;line-height:6.61458px;font-family:Sans;-inkscape-font-specification:Sans;text-align:end;letter-spacing:0px;word-spacing:0px;text-anchor:end;fill:none;stroke:#000000;stroke-width:0.264583px;stroke-linecap:butt;stroke-linejoin:miter;stroke-opacity:1"
       id="text1"
       transform="translate(0,-2.1166667)"><textPath
         xlink:href="#circle4"
         startOffset="100%"
         id="textPath1"
         style="font-style:normal;font-variant:normal;font-weight:bold;font-stretch:normal;font-family:Charm;-inkscape-font-specification:'Charm Bold';fill:#000000;fill-opacity:1;stroke:none;stroke-width:0.264583px">From Chris Bero 2024</textPath></text>
  </g>
  <g
     id="layer4"
     style="display:inline">
    <path
       id="text2"
       style="-inkscape-font-specification:'Charm Bold';stroke-width:0.264583px"
       transform="translate(0,-0.52916663)"
       d="m 26.35188,1.8872233 c -0.0085,2.6e-6 -0.02656,0.00393 -0.05478,0.012402 -0.02822,0.00565 -0.08746,0.015834 -0.177767,0.029972 -0.143927,0.022621 -0.264241,0.053477 -0.360185,0.093018 -0.09312,0.036717 -0.190406,0.1118726 -0.291972,0.2247925 -0.129778,0.1439729 -0.238143,0.3313076 -0.325561,0.5627564 -0.0846,0.2314478 -0.155017,0.5152493 -0.211357,0.8511108 L 24.82019,4.3470214 c -0.07323,0.4826221 -0.123755,0.7986763 -0.151928,0.9482626 -0.0085,0.042336 -0.02658,0.1046989 -0.05478,0.1865519 -0.01974,0.064917 -0.02998,0.1042277 -0.02997,0.118339 1.4e-5,0.028223 0.02254,0.042389 0.0677,0.042375 0.08749,-2.68e-5 0.176362,-0.036665 0.266651,-0.1100708 0.09311,-0.073406 0.149772,-0.1525222 0.169499,-0.2371948 l 0.0677,-0.3431315 c 0.02536,-0.1382966 0.07577,-0.2818973 0.151928,-0.4314982 0.07615,-0.149601 0.155381,-0.2737844 0.237195,-0.3725871 0.08463,-0.1016258 0.150975,-0.1524308 0.198955,-0.1524455 0.03104,-9.3e-6 0.04649,0.025164 0.04651,0.075964 v 0.025321 c -0.0028,0.067734 -0.01387,0.1565778 -0.03359,0.2666504 -0.0169,0.1100718 -0.03688,0.2201389 -0.05943,0.3302124 -0.03382,0.1636991 -0.05907,0.2981321 -0.07597,0.4025594 -0.0169,0.1044273 -0.02534,0.1932727 -0.02532,0.2666504 5.7e-5,0.1862665 0.07076,0.2790959 0.211873,0.2790527 0.09313,-2.84e-5 0.185942,-0.036665 0.279053,-0.1100708 0.09593,-0.076229 0.175142,-0.1694839 0.237195,-0.2795695 0.06206,-0.1129078 0.09305,-0.2185156 0.09302,-0.3172933 -1.3e-5,-0.053622 -0.01284,-0.080623 -0.03824,-0.080615 -0.01975,6e-6 -0.03654,0.019913 -0.05064,0.059428 -0.04512,0.11008 -0.08632,0.1931412 -0.12299,0.2495972 -0.03667,0.053633 -0.07601,0.080602 -0.118339,0.080615 -0.03669,1.13e-5 -0.05476,-0.028305 -0.05478,-0.084749 -7e-6,-0.019756 0.01815,-0.1298236 0.05478,-0.3302124 0.02536,-0.1213632 0.06612,-0.3286562 0.122473,-0.6221843 0.02536,-0.1326521 0.03827,-0.2400998 0.03824,-0.3219442 -3.4e-5,-0.1072446 -0.01859,-0.1832658 -0.05529,-0.2284098 -0.0367,-0.047966 -0.09016,-0.071852 -0.160714,-0.07183 -0.214488,6.56e-5 -0.470155,0.207744 -0.766361,0.622701 h -0.0041 l 0.05478,-0.4066935 c 0.05068,-0.3838374 0.100391,-0.6728995 0.148311,-0.8676473 0.04792,-0.1975701 0.112497,-0.3584553 0.194303,-0.4826579 0.05924,-0.087507 0.121136,-0.1511554 0.186036,-0.1906861 0.0649,-0.039531 0.14144,-0.063337 0.228926,-0.07183 0.09031,-2.73e-5 0.157949,-0.021215 0.203089,-0.063562 0.03103,-0.031054 0.05622,-0.063796 0.07596,-0.097669 0.02257,-0.036696 0.03411,-0.067618 0.03411,-0.093017 -6e-6,-0.031044 -0.01153,-0.046516 -0.03411,-0.046509 z m -2.555916,0.784965 c -0.277855,0.029338 -0.529631,0.1412009 -0.756027,0.33538 -0.223884,0.1910762 -0.394995,0.4420077 -0.51263,0.7524089 -0.114826,0.3101048 -0.152948,0.6461534 -0.114722,1.0082072 0.03764,0.3564404 0.137841,0.6181652 0.300241,0.7854817 0.16491,0.1642134 0.380359,0.2322746 0.646988,0.2041219 0.244176,-0.025782 0.451545,-0.1199737 0.621668,-0.28267 0.17293,-0.1629927 0.282802,-0.3716311 0.329696,-0.6263184 0.01091,-0.057911 0.01507,-0.099798 0.0124,-0.125057 -0.0039,-0.036489 -0.01999,-0.053093 -0.04806,-0.050126 -0.03368,0.00356 -0.06039,0.030753 -0.08062,0.081132 -0.06849,0.1576411 -0.152579,0.29122 -0.251665,0.4010091 -0.09909,0.1097889 -0.239765,0.1740072 -0.422196,0.1932699 -0.185237,0.019559 -0.327981,-0.031788 -0.428914,-0.1545126 -0.09812,-0.1230206 -0.161863,-0.3236584 -0.191203,-0.6015136 -0.03023,-0.286275 -0.01819,-0.54542 0.03669,-0.7782471 0.05458,-0.2356337 0.148511,-0.424666 0.28112,-0.5663737 0.132312,-0.1445146 0.293875,-0.226862 0.484725,-0.2470133 0.218919,-0.023115 0.358405,0.048732 0.418579,0.2154907 0.0077,0.019054 0.01616,0.045462 0.02532,0.078548 0.0092,0.033087 0.01918,0.060085 0.02997,0.081649 0.01049,0.018757 0.02797,0.026955 0.05323,0.024288 0.02807,-0.00296 0.05227,-0.017034 0.07235,-0.041858 0.01978,-0.02763 0.04038,-0.062426 0.0615,-0.1043864 0.04517,-0.1097718 0.06403,-0.200913 0.05633,-0.2738851 -0.01215,-0.115071 -0.07515,-0.1994064 -0.188619,-0.2526977 -0.113764,-0.056098 -0.259332,-0.074997 -0.436149,-0.056327 z m 5.731949,0.4619873 c -0.04616,0.00662 -0.0867,0.021186 -0.121956,0.043925 -0.07005,0.042695 -0.120905,0.1074839 -0.152445,0.1937867 L 29.14034,3.6917643 c -0.0061,0.019024 -0.0073,0.033096 -0.0031,0.042375 0.0046,0.00649 0.01669,0.01174 0.03617,0.014986 l 0.02946,0.00465 c 0.22271,0.037087 0.367296,-0.041801 0.434082,-0.2366781 l 0.113171,-0.3198771 c 0.0079,-0.030159 -0.0035,-0.048127 -0.03411,-0.053227 l -0.03307,-0.00568 c -0.05707,-0.0095 -0.108865,-0.010752 -0.15503,-0.00413 z m -2.116149,0.5343343 c -0.08993,-0.00826 -0.187672,0.023653 -0.293523,0.096118 -0.102782,0.069913 -0.192749,0.1565235 -0.270267,0.2599324 -0.07445,0.1008566 -0.115243,0.1878959 -0.121957,0.260966 -0.0044,0.047778 0.0076,0.072868 0.03566,0.075448 0.01405,0.00129 0.02884,-0.00562 0.04444,-0.021187 0.01586,-0.018381 0.03062,-0.038494 0.04393,-0.059945 0.108488,-0.1629151 0.189479,-0.2421015 0.242879,-0.2371948 0.02531,0.00232 0.03541,0.027671 0.03101,0.075448 l -0.0036,0.037724 c -0.0095,0.072812 -0.07195,0.3224461 -0.187585,0.7482748 l -0.108521,0.3979085 c -0.02923,0.1021773 -0.05762,0.1773047 -0.08475,0.225826 -0.02409,0.045969 -0.03697,0.076382 -0.03824,0.090434 -0.0031,0.033727 0.01941,0.052457 0.06718,0.056844 0.08431,0.00775 0.177562,-0.019133 0.279569,-0.080615 0.105078,-0.064034 0.168373,-0.1344734 0.189653,-0.2118733 0.02309,-0.097073 0.0638,-0.2311547 0.121956,-0.4015259 0.08432,-0.2699962 0.184898,-0.4731943 0.302307,-0.6097819 0.12022,-0.1363294 0.233753,-0.1994632 0.340548,-0.1896525 0.06464,0.00594 0.09353,0.045269 0.08682,0.118339 -0.0031,0.033725 -0.01069,0.06995 -0.02274,0.1085205 -0.01101,0.027328 -0.0054,0.042375 0.01705,0.044442 0.03653,0.00336 0.08222,-0.015491 0.136943,-0.05581 0.05497,-0.043129 0.102703,-0.099527 0.143143,-0.1694987 0.04325,-0.069714 0.06847,-0.1427109 0.07545,-0.2185913 0.0072,-0.078691 -0.0096,-0.140782 -0.05064,-0.1870687 -0.04109,-0.046287 -0.0985,-0.072869 -0.171566,-0.079582 -0.106794,-0.00981 -0.21774,0.027946 -0.333313,0.1136881 -0.112504,0.08319 -0.237512,0.223521 -0.374654,0.4206462 l -0.0041,-5.168e-4 c 0.04111,-0.2002823 0.06308,-0.3171583 0.06615,-0.3508829 0.01472,-0.1601923 -0.03832,-0.2457306 -0.159163,-0.2568319 z m 1.867586,0.2439128 c -0.09465,-0.015762 -0.198409,0.00695 -0.311609,0.068213 -0.113201,0.06126 -0.212247,0.140783 -0.29714,0.2382284 -0.08443,0.094661 -0.133264,0.1809502 -0.146244,0.2588989 -0.0074,0.044541 0.0013,0.06869 0.02636,0.072864 0.0084,0.00139 0.01765,-0.00131 0.02739,-0.00827 0.0097,-0.00696 0.01987,-0.01776 0.03101,-0.033073 0.01436,-0.01763 0.02366,-0.029 0.02739,-0.034106 0.06819,-0.08306 0.121854,-0.1417718 0.161747,-0.1751831 0.04036,-0.036196 0.07313,-0.052232 0.09819,-0.048059 0.02503,0.00417 0.03437,0.026138 0.02791,0.065112 -0.0019,0.011136 -0.0099,0.041251 -0.02377,0.090434 l -0.368453,0.9772013 c -0.02783,0.081199 -0.04591,0.1467772 -0.05426,0.1968872 -0.0306,0.1837362 0.02224,0.2868258 0.158647,0.3095418 0.09465,0.015762 0.195655,-0.00623 0.302824,-0.065629 0.110417,-0.061723 0.206762,-0.1413529 0.288871,-0.2392619 0.08257,-0.1006929 0.131568,-0.1997036 0.147795,-0.2971395 0.0079,-0.047325 -2.68e-4,-0.072825 -0.02532,-0.076998 -0.01949,-0.00325 -0.03954,0.01347 -0.05994,0.050126 -0.05845,0.093266 -0.116056,0.16491 -0.173116,0.2154907 -0.05428,0.051044 -0.09972,0.073723 -0.135909,0.067696 -0.03059,-0.0051 -0.04326,-0.024471 -0.03772,-0.057878 0.0014,-0.00835 0.0067,-0.023098 0.01602,-0.044442 l 0.38809,-1.0428304 c 0.03757,-0.1053265 0.06028,-0.1802505 0.0677,-0.2247925 0.02596,-0.1558975 -0.0195,-0.2435624 -0.136426,-0.263033 z M 20.507792,4.150651 c -0.01608,-0.00498 -0.03744,-0.00356 -0.06459,0.00413 -0.08689,0.024624 -0.165531,0.084877 -0.235128,0.1808675 -0.06767,0.092506 -0.09892,0.1838079 -0.09405,0.2733684 l 0.01137,0.2563151 c 0.0078,0.1620597 0.0022,0.3247876 -0.01602,0.4883422 -0.01818,0.1635546 -0.04678,0.3010734 -0.08578,0.4118612 -0.03629,0.1100185 -0.07735,0.1714035 -0.123507,0.1844849 -0.02173,0.00616 -0.04191,-0.0028 -0.06046,-0.026872 -0.01855,-0.024075 -0.0384,-0.07435 -0.05994,-0.1503784 -0.0069,-0.024438 -0.02322,-0.091387 -0.04858,-0.2015381 l -0.12609,-0.5229655 c -0.0081,-0.038784 -0.02158,-0.092315 -0.04082,-0.1601969 C 19.52032,4.7333022 19.470659,4.62569 19.415352,4.565096 c -0.05607,-0.063309 -0.127567,-0.082502 -0.214457,-0.057878 -0.08418,0.023854 -0.159352,0.078542 -0.225826,0.1648478 -0.06453,0.082821 -0.110869,0.1780608 -0.139009,0.2857707 -0.02621,0.104225 -0.02878,0.1947563 -0.0072,0.2707845 0.0069,0.024438 0.01475,0.041321 0.02325,0.050643 0.0077,0.00661 0.01988,0.0072 0.03617,0.00258 0.01629,-0.00462 0.02761,-0.014868 0.03462,-0.031523 0.0062,-0.01937 0.01668,-0.054797 0.03152,-0.1059367 0.01837,-0.06974 0.03533,-0.1197851 0.05013,-0.1503784 0.01674,-0.034078 0.03847,-0.054833 0.06563,-0.062528 0.02715,-0.0077 0.04849,-9.42e-4 0.06356,0.021187 0.01779,0.02136 0.03464,0.066741 0.05116,0.1353923 l 0.238746,0.9353434 c 0.0923,0.3463807 0.213427,0.4986254 0.362768,0.4563029 0.07331,-0.020777 0.145608,-0.085395 0.217558,-0.1937866 0.07195,-0.1083911 0.138862,-0.2504597 0.200504,-0.4263306 l 0.0083,-0.00258 0.02687,0.4061768 0.03566,0.4826578 c 0.01201,0.1872668 0.01875,0.3143035 0.02015,0.3813721 0.0041,0.066299 0.0018,0.1299715 -0.0072,0.1912028 -0.04008,0.2518948 -0.170218,0.4089597 -0.390157,0.4712891 -0.14391,0.040784 -0.256726,0.021768 -0.337964,-0.057878 -0.07852,-0.080415 -0.149667,-0.2289973 -0.21394,-0.4454509 -0.0077,-0.027153 -0.01551,-0.044036 -0.02325,-0.050643 -0.0077,-0.00661 -0.01705,-0.00825 -0.02791,-0.00517 -0.02715,0.0077 -0.06345,0.035226 -0.10852,0.083199 -0.04702,0.051458 -0.08225,0.1172097 -0.106454,0.197404 -0.02689,0.080964 -0.02771,0.1676126 -0.0016,0.2599325 0.02462,0.086889 0.07004,0.1680492 0.135392,0.2433959 0.06612,0.078062 0.149528,0.135167 0.250631,0.171049 0.101103,0.035885 0.211256,0.036959 0.330729,0.0031 0.146626,-0.041553 0.285706,-0.1307331 0.417029,-0.2676839 0.132093,-0.1342355 0.242157,-0.3047737 0.330212,-0.5115967 0.05222,-0.1262659 0.08606,-0.2444379 0.101803,-0.3545003 0.01921,-0.1081167 0.02749,-0.2251443 0.02429,-0.3503662 -0.0032,-0.1252219 -0.01517,-0.3209354 -0.03514,-0.5880778 L 20.618896,5.9092 20.534664,4.7888549 c -0.01391,-0.204328 -0.01611,-0.3561781 -0.0062,-0.4557861 0.0016,-0.035662 0.0051,-0.065634 0.0098,-0.090434 0.0039,-0.027515 0.0041,-0.047016 0.001,-0.057878 -0.005,-0.017649 -0.01545,-0.029129 -0.03152,-0.034107 z m 12.012187,0.00879 c -0.05192,0.00499 -0.107979,0.019339 -0.167432,0.043408 -0.116212,0.048992 -0.199184,0.120383 -0.249597,0.2139404 l -0.09922,0.1994711 -0.185518,-0.058911 c -0.02959,-0.00939 -0.07288,-0.00392 -0.129708,0.016536 -0.05414,0.021314 -0.105369,0.048153 -0.153996,0.080099 -0.04863,0.031945 -0.07655,0.060022 -0.08423,0.084232 -0.0043,0.013451 -0.0025,0.025723 0.0057,0.037207 0.01174,0.00965 0.03242,0.01955 0.06201,0.028939 l 0.327112,0.1033528 -0.465088,0.8919353 c -0.06249,0.1222945 -0.106505,0.2222284 -0.131258,0.30024 -0.03927,0.1237427 -0.04631,0.2207907 -0.02119,0.2909383 0.02512,0.070148 0.08228,0.1191112 0.171049,0.1472779 0.09684,0.030728 0.197448,0.030318 0.302307,-0.00155 0.10755,-0.031015 0.201376,-0.079406 0.281637,-0.1457276 0.08111,-0.069011 0.132836,-0.1388312 0.155029,-0.2087727 0.01451,-0.045731 0.0083,-0.072597 -0.0186,-0.081132 -0.01076,-0.00341 -0.02159,-9.653e-4 -0.03307,0.00723 -0.01063,0.00551 -0.02316,0.016286 -0.03721,0.032556 -0.124102,0.1205109 -0.230589,0.1666595 -0.319361,0.1384929 -0.02421,-0.00768 -0.04095,-0.020523 -0.05013,-0.038241 -0.0056,-0.019555 -0.0021,-0.048122 0.0098,-0.085783 0.01621,-0.051111 0.04844,-0.1205955 0.09715,-0.2087728 l 0.466121,-0.9095052 0.181901,0.057878 c 0.02421,0.00768 0.06605,0.00152 0.125574,-0.018087 0.05951,-0.019607 0.114561,-0.044873 0.165881,-0.075964 0.05217,-0.033781 0.08293,-0.06405 0.09147,-0.09095 0.0042,-0.013448 0.0011,-0.023349 -0.0088,-0.029456 -0.0091,-0.00879 -0.02973,-0.018179 -0.06201,-0.028422 L 32.40319,4.7428629 32.530831,4.494816 c 0.03991,-0.079124 0.08106,-0.1369535 0.122473,-0.1741495 0.04228,-0.039886 0.06481,-0.065721 0.06821,-0.076481 0.0051,-0.01614 0.0021,-0.030037 -0.0088,-0.042375 -0.01089,-0.012338 -0.02706,-0.022111 -0.04858,-0.028939 -0.04439,-0.014083 -0.09226,-0.018429 -0.144177,-0.013436 z m -1.816427,0.074414 c -0.0604,8.5e-4 -0.120984,0.00976 -0.181384,0.025838 -0.117401,0.030071 -0.220773,0.084961 -0.309542,0.1653646 -0.08602,0.081058 -0.141802,0.1764683 -0.167948,0.2862874 -0.0131,0.054909 -0.0137,0.1128401 -0.0021,0.1736328 0.01504,0.058701 0.04659,0.1521016 0.09457,0.2795695 l 0.05684,0.1436605 c 0.04235,0.1145247 0.06987,0.2008516 0.08216,0.2588989 0.01297,0.055301 0.01522,0.1012512 0.0067,0.1369426 -0.01373,0.057655 -0.04679,0.098791 -0.09922,0.1240234 -0.04968,0.025887 -0.107739,0.031191 -0.173632,0.015503 -0.07962,-0.018956 -0.133885,-0.058082 -0.163298,-0.1173055 -0.02941,-0.059223 -0.04834,-0.1319191 -0.05684,-0.2180745 -0.0037,-0.021179 -0.0097,-0.038596 -0.01809,-0.052193 -0.005,-0.01569 -0.01331,-0.024775 -0.02429,-0.027388 -0.01373,-0.00327 -0.04149,0.0043 -0.08372,0.023254 -0.06811,0.0302 -0.125029,0.069206 -0.171049,0.1162719 -0.04536,0.04432 -0.06985,0.091764 -0.07338,0.1431438 -0.0064,0.03909 -0.0014,0.085283 0.01499,0.1384928 0.01974,0.051118 0.05544,0.1004686 0.108004,0.1477946 0.05256,0.047326 0.124373,0.081782 0.214974,0.1033529 0.112564,0.026802 0.237,0.027562 0.37362,0.00207 0.140019,-0.027587 0.263454,-0.082358 0.370004,-0.164331 0.109951,-0.084065 0.1805,-0.1922283 0.211873,-0.3240113 0.01698,-0.071382 0.02028,-0.1385168 0.0093,-0.2020548 -0.01033,-0.066283 -0.03457,-0.1432758 -0.07183,-0.2304769 l -0.06511,-0.1462443 -0.04858,-0.1069702 c -0.03295,-0.068767 -0.05578,-0.1239272 -0.06925,-0.1648478 -0.01281,-0.043666 -0.01446,-0.085942 -0.0047,-0.1271241 0.01307,-0.05491 0.04361,-0.092259 0.09198,-0.1126546 0.04837,-0.020395 0.105673,-0.022923 0.171566,-0.00723 0.101585,0.024185 0.173401,0.089185 0.214974,0.1948202 0.0035,0.00954 0.0064,0.020267 0.0093,0.032556 0.0063,0.010197 0.0113,0.018523 0.0155,0.025321 0.0042,0.0068 0.01176,0.011856 0.02274,0.014469 0.02197,0.00523 0.05617,-0.010045 0.102319,-0.045475 0.06236,-0.054779 0.09972,-0.1080329 0.112138,-0.1601969 0.017,-0.071382 -0.0051,-0.1361261 -0.06666,-0.1943034 -0.06092,-0.060923 -0.145108,-0.1042152 -0.252181,-0.1297079 -0.0604,-0.014381 -0.120467,-0.021521 -0.180868,-0.020671 z M 18.246431,4.8208943 c -0.03145,9.917e-4 -0.06456,0.00828 -0.0987,0.021704 -0.09981,0.039237 -0.181796,0.123125 -0.246496,0.2516643 -0.06311,0.1248802 -0.111821,0.3059044 -0.145728,0.543636 l -0.0041,0.00155 c -0.05333,-0.1973722 -0.08579,-0.3116128 -0.09818,-0.3431315 -0.05886,-0.1497138 -0.144923,-0.2025292 -0.257865,-0.1581299 -0.08405,0.033041 -0.157122,0.1057656 -0.219108,0.2180746 -0.06039,0.1086498 -0.101774,0.2267669 -0.124541,0.3539835 -0.02118,0.1235575 -0.01858,0.2195474 0.0083,0.2878378 0.01755,0.044651 0.03936,0.061485 0.06563,0.05116 0.01313,-0.00516 0.02355,-0.017835 0.03049,-0.038757 0.0059,-0.023549 0.0096,-0.048238 0.01188,-0.07338 0.02369,-0.1942938 0.06068,-0.3012927 0.110588,-0.3209107 0.02364,-0.00929 0.04446,0.00858 0.06201,0.053227 l 0.01395,0.035657 c 0.02422,0.069323 0.08037,0.3200409 0.168465,0.7524088 l 0.08165,0.4046265 c 0.01979,0.1044105 0.02824,0.1842407 0.02584,0.2397787 -8e-4,0.051879 0.0016,0.084536 0.0067,0.097668 0.01239,0.031519 0.04061,0.038224 0.08527,0.020671 0.0788,-0.030976 0.149937,-0.096634 0.213424,-0.197404 0.06509,-0.1044293 0.08968,-0.1962124 0.0739,-0.2749186 -0.02301,-0.097092 -0.04669,-0.2345602 -0.07131,-0.4128947 -0.04603,-0.2790857 -0.04711,-0.5063106 -0.0036,-0.6810954 0.04612,-0.1758171 0.118782,-0.2832243 0.218591,-0.3224609 0.06041,-0.023748 0.104411,-0.00163 0.131258,0.066663 0.01237,0.031519 0.02182,0.067618 0.02842,0.107487 0.0024,0.029363 0.01413,0.039783 0.03514,0.031523 0.03414,-0.013423 0.06639,-0.050494 0.09715,-0.1111043 0.02973,-0.063237 0.04701,-0.1353267 0.05168,-0.2160075 0.0073,-0.081713 -0.0031,-0.1580096 -0.03101,-0.2289266 -0.02891,-0.073543 -0.07219,-0.121816 -0.129708,-0.144694 -0.02876,-0.01144 -0.05847,-0.016495 -0.08992,-0.015503 z M 33.578312,5.141805 c -0.05122,-0.0011 -0.107302,0.00611 -0.168465,0.022221 -0.119746,0.033358 -0.232988,0.087021 -0.339514,0.160197 -0.102801,0.071739 -0.169625,0.1422106 -0.200505,0.2118734 -0.01947,0.043862 -0.0165,0.071762 0.0093,0.083199 0.0129,0.00572 0.02933,0.00356 0.04909,-0.0062 0.02091,-0.012343 0.04099,-0.026825 0.06046,-0.042891 0.15491,-0.1196449 0.259496,-0.1671611 0.313676,-0.1431437 0.02067,0.00915 0.02365,0.030537 0.0088,0.064079 -0.0092,0.020641 -0.04009,0.073028 -0.09302,0.1576131 -0.08325,0.13906 -0.189274,0.3021862 -0.318326,0.488859 -0.126473,0.1878166 -0.222188,0.3260674 -0.286288,0.4149618 -0.03061,0.048171 -0.07816,0.1072673 -0.143144,0.1772501 -0.03004,0.032983 -0.04801,0.055829 -0.05374,0.06873 -0.01143,0.025801 0.0037,0.047847 0.04496,0.066146 0.08256,0.036598 0.179674,0.039786 0.291972,0.0093 0.114877,-0.029341 0.19722,-0.079321 0.247014,-0.1498617 l 0.201021,-0.2862874 c 0.08299,-0.1175683 0.184417,-0.2311404 0.304374,-0.3415812 0.119958,-0.1104407 0.233437,-0.1962639 0.340548,-0.2568319 0.107113,-0.060568 0.182999,-0.080938 0.226859,-0.061495 0.0258,0.011437 0.02915,0.037784 0.01085,0.079065 l -0.01344,0.031006 c -0.06607,0.1281541 -0.220594,0.3649594 -0.463538,0.7110677 -0.240365,0.347252 -0.3644,0.5256744 -0.371554,0.534851 -0.01546,0.020934 -0.02189,0.036481 -0.02015,0.046509 5.86e-4,0.012607 0.01244,0.023813 0.03566,0.034107 0.05934,0.026308 0.137697,0.041388 0.235128,0.044442 0.09858,4.767e-4 0.160108,-0.016922 0.185002,-0.052193 l 0.399459,-0.5777425 c 0.08759,-0.1000931 0.183444,-0.1936759 0.286804,-0.280603 0.10594,-0.085784 0.200819,-0.1502046 0.284737,-0.1932699 0.08764,-0.044501 0.149398,-0.058903 0.185518,-0.042891 0.02838,0.01258 0.03247,0.041925 0.01189,0.088367 l -0.01033,0.023254 c -0.03003,0.060779 -0.07634,0.1378587 -0.13901,0.2304769 -0.05894,0.091182 -0.121305,0.1824105 -0.186552,0.273885 -0.196874,0.2770037 -0.318459,0.468341 -0.365352,0.5741252 -0.07549,0.1702866 -0.04891,0.2838805 0.0801,0.3410645 0.08256,0.036597 0.179266,0.040824 0.290422,0.012919 0.111155,-0.027905 0.216148,-0.076975 0.315226,-0.1472779 0.102801,-0.071739 0.180017,-0.1514697 0.23151,-0.2397786 0.01516,-0.027237 0.02299,-0.051889 0.02325,-0.07338 0.0028,-0.020347 -0.0021,-0.033037 -0.01499,-0.038757 -0.02064,-0.00915 -0.04654,7.13e-4 -0.07803,0.029972 -0.08216,0.080889 -0.151842,0.1399994 -0.208256,0.1767334 -0.05642,0.036735 -0.103927,0.046094 -0.142627,0.028939 -0.03354,-0.014868 -0.03889,-0.048134 -0.01602,-0.099736 0.0091,-0.020641 0.04811,-0.080102 0.116788,-0.1793173 0.06982,-0.1017949 0.130855,-0.1909492 0.182935,-0.2666504 0.02375,-0.03269 0.106862,-0.149987 0.24908,-0.3524332 0.07468,-0.1058115 0.128984,-0.1975156 0.163298,-0.2749186 0.08235,-0.1857676 0.05769,-0.3080586 -0.0739,-0.366386 -0.09288,-0.041173 -0.20879,-0.040019 -0.348299,0.0031 -0.138365,0.04054 -0.291819,0.1145862 -0.45992,0.2222087 l -0.0036,-0.00155 0.01395,-0.021704 c 0.0495,-0.076845 0.08432,-0.1385596 0.104904,-0.1850016 0.08006,-0.1806074 0.05459,-0.2997904 -0.077,-0.3581177 -0.100624,-0.044603 -0.229739,-0.038519 -0.387574,0.018087 -0.156692,0.054026 -0.320496,0.144881 -0.491442,0.2728516 l -0.0041,-0.00155 c 0.07782,-0.1198556 0.138845,-0.2301051 0.183452,-0.3307291 0.03431,-0.077403 0.0444,-0.1413575 0.02945,-0.1912028 -0.01495,-0.049846 -0.04865,-0.086164 -0.100252,-0.1090373 -0.04128,-0.0183 -0.08727,-0.027842 -0.138493,-0.028939 z m -20.58324,0.1333252 c -0.0092,-0.00268 -0.01846,-7.095e-4 -0.02739,0.0062 -0.0067,0.00518 -0.014,0.014287 -0.0217,0.027389 -0.0077,0.013101 -0.01729,0.027884 -0.02946,0.044442 -0.01764,0.027931 -0.05203,0.061549 -0.103353,0.1012858 -0.100422,0.077746 -0.184429,0.1517924 -0.251664,0.2216919 -0.06724,0.0699 -0.121231,0.147756 -0.162264,0.2330607 -0.06243,0.1268413 -0.09454,0.2652546 -0.0956,0.4159953 0.0012,0.149013 0.02821,0.3499322 0.08061,0.6020304 0.01202,0.047799 0.0251,0.1086441 0.03979,0.1829346 0.03506,0.1513165 0.07106,0.328989 0.107487,0.532784 0.03693,0.1998357 0.101256,0.5960463 0.192753,1.1890747 -0.03038,-0.030019 -0.07075,-0.060996 -0.120923,-0.093534 L 12.154814,8.3736491 C 11.959872,8.2140545 11.810826,8.088495 11.707812,7.9969279 11.603073,7.9031292 11.519041,7.8149134 11.455115,7.7323445 c -0.03282,-0.0424 -0.06961,-0.094586 -0.110071,-0.1560628 -0.01562,0.012094 -0.04183,0.035752 -0.07855,0.071313 -0.07515,0.068892 -0.122541,0.1110579 -0.142627,0.1266072 -0.05579,0.043193 -0.111959,0.08168 -0.168465,0.1147217 -0.06148,0.040457 -0.106029,0.070735 -0.132809,0.091467 -0.131665,0.1019339 -0.214914,0.2201725 -0.250114,0.3545003 -0.03693,0.1320962 -0.02239,0.2637199 0.04341,0.394808 0.0059,0.016845 0.01735,0.036595 0.03462,0.058911 0.01727,0.022316 0.03624,0.025368 0.05633,0.00982 0.0089,-0.00691 0.01537,-0.019126 0.01964,-0.03669 0.0025,-0.019797 0.003,-0.041887 0.0021,-0.066146 -5.8e-4,-0.074507 0.0138,-0.1369068 0.04237,-0.1875854 0.03081,-0.052406 0.07843,-0.1033757 0.143143,-0.153479 0.0491,-0.038009 0.09936,-0.069974 0.150896,-0.095601 0.03916,-0.02318 0.06429,-0.03942 0.07545,-0.048059 l 0.02015,-0.015503 0.83044,1.7022216 c 0.04262,0.091931 0.07187,0.162023 0.08785,0.210323 0.01821,0.04657 0.02746,0.08616 0.02739,0.118339 -7.4e-5,0.03218 -0.0043,0.0798 -0.0124,0.143144 -0.01151,0.05889 -0.01579,0.108745 -0.01292,0.149345 0.0051,0.03887 0.01974,0.07366 0.04392,0.104903 0.02073,0.02678 0.03777,0.03517 0.05116,0.02481 0.0067,-0.0052 0.02465,-0.03304 0.05323,-0.08372 0.02858,-0.05068 0.06856,-0.09618 0.119889,-0.135909 0.03571,-0.02764 0.08713,-0.05338 0.154513,-0.077 0.05846,-0.0167 0.103118,-0.03679 0.134358,-0.06098 0.04463,-0.03455 0.07528,-0.07803 0.09198,-0.130225 0.0167,-0.05219 0.02392,-0.130688 0.02119,-0.2356445 -0.0026,-0.05867 -0.01184,-0.098255 -0.02739,-0.118339 -0.01727,-0.022316 -0.03486,-0.026224 -0.05271,-0.012402 -0.0089,0.00691 -0.02131,0.027373 -0.03772,0.061495 -0.01591,0.030163 -0.04094,0.057801 -0.07441,0.083716 -0.03794,0.029371 -0.084,0.053075 -0.138492,0.07028 l -0.0052,-0.0067 c 0.0058,-0.029443 -0.0012,-0.068498 -0.02119,-0.1173055 -0.01945,-0.052766 -0.03066,-0.083561 -0.03359,-0.091984 l -0.58136,-1.1725382 0.0062,0.00103 c 0.06867,0.061045 0.167406,0.1446919 0.296623,0.2516642 0.131448,0.1052445 0.231238,0.1854416 0.29869,0.2402954 0.150957,0.1258328 0.25996,0.2235253 0.327628,0.2924886 0.06817,0.065004 0.173459,0.170955 0.315743,0.3178101 0.01037,0.013389 0.02032,0.02329 0.02946,0.030489 0.0096,0.00323 0.01759,0.0026 0.02429,-0.00258 0.02453,-0.019005 0.03914,-0.092966 0.04341,-0.2211752 0.0065,-0.1299364 0.0019,-0.2551095 -0.01292,-0.3756876 -0.06191,-0.20905 -0.118402,-0.4503773 -0.170016,-0.7245036 -0.05162,-0.2741262 -0.08856,-0.5225777 -0.110587,-0.7446574 l 0.0036,-0.00258 c 0.09322,0.1526841 0.172661,0.2859227 0.238745,0.398942 0.06436,0.1107878 0.229109,0.3741887 0.494027,0.7901327 l 0.04754,0.075448 c 0.01851,0.028507 0.02715,0.05342 0.02635,0.075448 -2.86e-4,0.018069 -0.0058,0.04755 -0.01705,0.088367 l -0.02377,0.093534 c -0.02822,0.1110763 -0.01926,0.1965792 0.02739,0.2568319 0.02073,0.026779 0.03916,0.034315 0.05478,0.022221 0.0089,-0.00691 0.02636,-0.034764 0.05271,-0.083716 0.02858,-0.050679 0.06631,-0.093943 0.113172,-0.1302246 0.03571,-0.027643 0.07469,-0.051046 0.117305,-0.069763 0.04262,-0.018715 0.06858,-0.029603 0.077,-0.032556 0.06789,-0.027571 0.117071,-0.053327 0.148311,-0.077515 0.0848,-0.065652 0.127184,-0.1910539 0.126608,-0.3762044 0.0043,-0.049743 -0.0049,-0.089328 -0.02739,-0.118339 -0.01037,-0.013391 -0.01947,-0.020697 -0.02739,-0.021704 -0.0057,-0.00274 -0.01278,-1.928e-4 -0.0217,0.00672 -0.0089,0.00691 -0.02495,0.029942 -0.04806,0.069246 -0.02261,0.035345 -0.04989,0.065212 -0.08113,0.0894 -0.04463,0.034554 -0.09777,0.057525 -0.159681,0.069763 l -0.0026,-0.0031 c 0.0063,-0.033402 0.0032,-0.071915 -0.0093,-0.1157553 -0.01202,-0.047799 -0.03349,-0.093848 -0.06408,-0.137976 C 13.732248,8.3157696 13.550068,8.0227392 13.326835,7.6744669 13.239514,7.5386278 13.156098,7.4076053 13.075688,7.2806925 12.997506,7.152052 12.928682,7.0337277 12.870015,6.9256754 12.738347,6.6956774 12.654401,6.510626 12.617834,6.3711873 c -0.03657,-0.1394386 -0.02786,-0.2621151 0.02584,-0.3679362 0.02908,-0.054638 0.06426,-0.1032676 0.105936,-0.1462443 0.04168,-0.042976 0.09862,-0.094234 0.170533,-0.153479 0.06249,-0.048375 0.10434,-0.1162977 0.125573,-0.2041219 0.02123,-0.087824 0.01354,-0.1551915 -0.02274,-0.2020549 -0.0095,-0.012274 -0.01869,-0.019539 -0.02791,-0.022221 z m 3.502629,0.2449463 c -0.03125,0.00369 -0.06325,0.013668 -0.09612,0.029972 -0.09607,0.04766 -0.170849,0.1381985 -0.224276,0.271818 -0.05215,0.1298371 -0.08481,0.3147232 -0.09818,0.5544881 l -0.0041,0.00207 C 16.004912,6.186357 15.9624,6.0749309 15.947347,6.0445922 15.875857,5.9004841 15.785793,5.8552687 15.677079,5.9092 c -0.0809,0.040135 -0.147357,0.1189455 -0.199471,0.2361613 -0.05085,0.1134333 -0.08229,0.2345837 -0.09405,0.3632853 -0.01049,0.1249193 9.83e-4,0.2200373 0.03359,0.2857707 0.02133,0.042979 0.04448,0.058534 0.06976,0.045992 0.01263,-0.00627 0.02122,-0.020417 0.02636,-0.041858 0.0039,-0.023969 0.0061,-0.048655 0.0062,-0.073897 0.0069,-0.1956103 0.03413,-0.3053489 0.08217,-0.3291789 0.02275,-0.011289 0.04483,0.00456 0.06615,0.047542 l 0.01705,0.034107 c 0.03008,0.066988 0.107656,0.3121469 0.232544,0.7353556 l 0.116272,0.3963583 c 0.02873,0.1023236 0.04418,0.1811367 0.04651,0.236678 0.0036,0.051759 0.0087,0.083994 0.01499,0.096635 0.01505,0.030339 0.04384,0.034758 0.08682,0.013436 0.07584,-0.037627 0.141247,-0.1091251 0.195854,-0.2149739 0.05588,-0.1096312 0.07261,-0.2030252 0.05013,-0.2800863 -0.03126,-0.094759 -0.06713,-0.2300975 -0.10697,-0.40566 -0.06982,-0.2741035 -0.09034,-0.5001217 -0.06201,-0.6779948 0.03085,-0.1791277 0.0941,-0.2923709 0.190169,-0.3400309 0.05815,-0.028847 0.103819,-0.01044 0.136426,0.055294 0.01505,0.030339 0.02723,0.065229 0.03721,0.1043864 0.005,0.029045 0.0175,0.038456 0.03772,0.028422 0.03287,-0.016305 0.06241,-0.056345 0.08785,-0.1193726 0.02418,-0.065556 0.03482,-0.1383238 0.03256,-0.219108 2.6e-4,-0.082038 -0.01626,-0.1575642 -0.05013,-0.225826 -0.03512,-0.07079 -0.08233,-0.1149525 -0.141594,-0.1328085 -0.02963,-0.00893 -0.06022,-0.01144 -0.09147,-0.00775 z m -1.809709,0.9327596 c -0.03835,0.0074 -0.07738,0.023568 -0.117305,0.047542 -0.145163,0.087181 -0.249359,0.2419017 -0.313159,0.4645711 -0.06283,0.2187969 -0.08153,0.4566875 -0.05529,0.7141683 0.02721,0.2536083 0.09566,0.4712157 0.204639,0.6526733 0.09299,0.1548438 0.200505,0.2547612 0.322977,0.2997233 0.123439,0.04109 0.248327,0.023881 0.374138,-0.051676 0.113713,-0.068292 0.204661,-0.1686603 0.272851,-0.3017903 0.06674,-0.1355494 0.103971,-0.2735302 0.112138,-0.4134115 0.01059,-0.1413343 -0.0073,-0.2507234 -0.05374,-0.3281454 -0.01453,-0.024194 -0.02707,-0.039737 -0.03772,-0.046509 -0.01065,-0.00677 -0.02321,-0.00562 -0.03772,0.0031 -0.0097,0.00581 -0.01569,0.017747 -0.01809,0.035657 -0.0039,0.01549 -0.0057,0.037623 -0.0047,0.066663 -0.0038,0.1142271 -0.02607,0.2164318 -0.06718,0.306958 -0.03868,0.089073 -0.09673,0.1571085 -0.17415,0.2036051 -0.140327,0.084275 -0.264554,0.04476 -0.37207,-0.1178222 0.116097,-0.152026 0.205864,-0.3127129 0.268718,-0.4821411 0.06382,-0.1733008 0.09632,-0.337659 0.09819,-0.49351 4.2e-4,-0.1582704 -0.03177,-0.2916178 -0.09715,-0.4004923 -0.05231,-0.0871 -0.116757,-0.1391542 -0.192753,-0.1560629 -0.03679,-0.00918 -0.0743,-0.010498 -0.112655,-0.0031 z m 21.930445,0.3219441 c -0.0598,-1.042e-4 -0.121595,0.0048 -0.185002,0.014469 -0.252175,0.036244 -0.491171,0.1296439 -0.716752,0.2806031 -0.223161,0.1524118 -0.395168,0.3293646 -0.515731,0.5302002 -0.07556,0.1258247 -0.114989,0.2382594 -0.118856,0.3379638 -0.0015,0.1011574 0.03506,0.1745955 0.110071,0.2196249 0.08469,0.050839 0.210186,0.066898 0.376205,0.048059 0.168438,-0.017386 0.338139,-0.06707 0.509012,-0.1488281 l 0.0072,0.00413 -0.09198,0.1126547 c -0.02808,0.03581 -0.04832,0.063324 -0.05994,0.082682 -0.04647,0.077431 -0.06621,0.1491807 -0.05994,0.2154907 0.0087,0.067763 0.04406,0.12088 0.10697,0.1586466 0.07743,0.046482 0.17005,0.062038 0.277502,0.047542 0.109873,-0.013043 0.217386,-0.048978 0.321945,-0.1080037 0.106011,-0.061445 0.192636,-0.1344221 0.259932,-0.2191081 0.0082,-0.00823 0.01722,-0.020786 0.02739,-0.037724 0.02031,-0.033875 0.01971,-0.057207 -0.0021,-0.07028 -0.0121,-0.00726 -0.02466,-0.00842 -0.03772,-0.0031 -0.01307,0.00532 -0.02676,0.013708 -0.04031,0.025321 -0.09246,0.066288 -0.170748,0.1147328 -0.235128,0.1452108 -0.06293,0.02806 -0.114929,0.029861 -0.156063,0.00517 -0.01695,-0.010168 -0.02654,-0.024466 -0.02894,-0.042375 0,-0.016457 0.0078,-0.037979 0.02377,-0.064596 0.02324,-0.038715 0.06386,-0.089603 0.121956,-0.153479 0.126358,-0.1446894 0.258348,-0.2959638 0.395842,-0.453719 0.141366,-0.1587224 0.247029,-0.2765254 0.316259,-0.3534668 0.0082,-0.00823 0.02615,-0.027326 0.05374,-0.056844 0.02759,-0.029518 0.06822,-0.064226 0.121956,-0.1043864 -0.02564,-0.045019 -0.06569,-0.09396 -0.119889,-0.1462443 C 37.228118,6.9895647 37.170726,6.9453553 37.107812,6.9075887 36.960816,6.8193453 36.797852,6.775093 36.618437,6.7747802 Z M 14.618746,6.9365275 c 0.04927,-0.00737 0.09358,0.021492 0.132808,0.086816 0.04214,0.070164 0.06353,0.1466454 0.06356,0.2289266 3.4e-5,0.082281 -0.01618,0.1593801 -0.04857,0.2315104 -0.03385,0.069711 -0.07752,0.1204788 -0.130742,0.1524455 -0.03145,0.018889 -0.05657,0.029029 -0.07545,0.030489 -0.07749,-0.1674344 -0.114388,-0.3163178 -0.110588,-0.4470012 0.0038,-0.1306836 0.04334,-0.2185065 0.118339,-0.2635498 0.01754,-0.010534 0.03422,-0.01718 0.05064,-0.019637 z m 21.975403,0.092501 c 0.05385,-5.933e-4 0.100294,0.010865 0.139009,0.034106 0.05081,0.030504 0.09565,0.081903 0.134359,0.1545126 L 36.75693,7.3437378 c -0.109899,0.128237 -0.244365,0.2435931 -0.40411,0.3451985 -0.158292,0.099186 -0.308245,0.1704118 -0.449585,0.2139405 -0.13892,0.044981 -0.235121,0.051594 -0.288355,0.019637 -0.02177,-0.013073 -0.03191,-0.032193 -0.02997,-0.057361 0.0058,-0.026135 0.02663,-0.068535 0.0615,-0.1266073 0.09442,-0.1572809 0.210363,-0.2960583 0.348816,-0.4170288 0.142326,-0.1219373 0.280881,-0.2068782 0.414962,-0.2547648 0.06898,-0.024428 0.130122,-0.037131 0.183968,-0.037724 z m 1.51877,0.7803141 c -0.0582,0.00566 -0.115645,0.01873 -0.172082,0.038757 -0.11059,0.041714 -0.199224,0.1081693 -0.265617,0.1994711 -0.03319,0.04565 -0.05608,0.098574 -0.06873,0.1591634 -0.0087,0.059966 -0.01542,0.1579227 -0.02015,0.2940389 l -0.0026,0.1550293 c -0.005,0.1220064 -0.01329,0.2124778 -0.02429,0.2707845 -0.0093,0.056024 -0.02441,0.098484 -0.04599,0.1281575 -0.03485,0.047937 -0.08143,0.073368 -0.139526,0.076481 -0.05582,0.00478 -0.111101,-0.012358 -0.165881,-0.052193 -0.06622,-0.048134 -0.101604,-0.1055831 -0.105937,-0.1715658 -0.0044,-0.065983 0.0062,-0.1399338 0.03152,-0.2227254 0.0047,-0.020957 0.0056,-0.039524 0.0031,-0.055294 0.0015,-0.016391 -0.0022,-0.027983 -0.01137,-0.034623 -0.01141,-0.0083 -0.04003,-0.011582 -0.0863,-0.010335 -0.07449,0.00166 -0.141985,0.015091 -0.202572,0.040824 -0.05893,0.02345 -0.09996,0.058321 -0.12299,0.1043864 -0.02095,0.033615 -0.03439,0.077924 -0.03979,0.1333252 -0.0015,0.054778 0.01311,0.1143777 0.04341,0.1782837 0.0303,0.063906 0.08281,0.1229936 0.15813,0.1777669 0.09358,0.068052 0.208771,0.1166875 0.344681,0.1457275 0.139853,0.02842 0.274738,0.025358 0.404627,-0.0093 0.133831,-0.035283 0.240207,-0.1074791 0.319877,-0.2170411 0.04315,-0.059346 0.07199,-0.12058 0.0863,-0.1834513 0.01601,-0.065154 0.0236,-0.144954 0.02274,-0.2397786 l -0.0041,-0.160197 -0.0031,-0.1178222 c -0.004,-0.07615 -0.0044,-0.1353324 -0.001,-0.1782837 0.005,-0.045234 0.01954,-0.085135 0.04444,-0.1193726 0.0332,-0.045651 0.07618,-0.068519 0.128674,-0.06873 0.0525,-2.114e-4 0.10645,0.019592 0.16123,0.059428 0.08445,0.061412 0.125257,0.1485003 0.12299,0.2619995 -4e-4,0.010167 -0.0015,0.021656 -0.0036,0.034106 0.0019,0.011827 0.0034,0.021571 0.0047,0.029456 0.0012,0.00788 0.0064,0.015581 0.0155,0.022221 0.01826,0.013277 0.05539,0.01236 0.111621,-0.00258 0.07864,-0.026564 0.133831,-0.061534 0.165365,-0.1049031 0.04315,-0.059346 0.04736,-0.1277626 0.01292,-0.2051555 -0.03279,-0.079675 -0.0934,-0.1517922 -0.182418,-0.2165242 -0.100431,-0.073031 -0.212538,-0.1180768 -0.336414,-0.1348755 -0.05997,-0.00871 -0.119048,-0.010309 -0.17725,-0.00465 z m 2.01228,0.1658814 c -0.01884,0.00496 -0.03551,0.015204 -0.04961,0.031006 -0.225962,0.2488606 -0.385766,0.4228119 -0.479041,0.5214152 -0.09111,0.1004112 -0.179887,0.1913839 -0.26665,0.2733683 -0.03507,0.033227 -0.101345,0.097249 -0.198954,0.1922364 -0.09363,0.094628 -0.257227,0.2600897 -0.49041,0.495577 -0.02205,0.022031 -0.03367,0.046746 -0.03514,0.074931 7.13e-4,0.029992 0.01762,0.058666 0.05013,0.085783 0.03901,0.03254 0.07869,0.043843 0.119889,0.034106 0.0412,-0.00974 0.08644,-0.034483 0.134875,-0.074931 l 0.131259,-0.1111043 c 0.885668,-0.7533481 1.352658,-1.1594989 1.401464,-1.2180136 0.0235,-0.028173 0.02772,-0.057645 0.01292,-0.088367 -0.01299,-0.032889 -0.04514,-0.070818 -0.09715,-0.1142049 -0.09915,-0.082706 -0.177065,-0.1166809 -0.233578,-0.1018025 z m -1.713073,1.7745686 c -0.06468,-0.00617 -0.130231,0.00176 -0.196371,0.023771 -0.06216,0.021651 -0.111641,0.054324 -0.147794,0.097669 -0.03796,0.045511 -0.05428,0.094052 -0.04961,0.1457279 0.0065,0.04951 0.03107,0.092 0.07441,0.128157 0.04551,0.03794 0.100685,0.05995 0.165365,0.06615 0.06685,0.008 0.131627,0.0015 0.193787,-0.02015 0.06397,-0.02382 0.113708,-0.05742 0.149861,-0.100769 0.03976,-0.04768 0.05659,-0.096219 0.05013,-0.1457274 -0.0025,-0.049867 -0.02632,-0.093812 -0.07183,-0.1317749 -0.04335,-0.036157 -0.0993,-0.057232 -0.167948,-0.063045 z" />
    <path
       id="text4"
       style="-inkscape-font-specification:'Charm Bold';stroke-width:0.264583px"
       transform="translate(0,-2.1166667)"
       d="m 40.376864,42.444438 c -0.0141,5.5e-4 -0.03003,0.008 -0.04754,0.02222 -0.05035,0.04097 -0.09051,0.09726 -0.119889,0.168465 -0.02717,0.06943 -0.04219,0.141714 -0.04599,0.217558 -0.0034,0.07187 0.0076,0.130436 0.03307,0.175183 l 0.717269,1.250053 -0.535368,0.435632 -0.0057,-0.382923 c -0.0157,-0.511164 -0.04218,-0.811701 -0.07906,-0.901753 -0.0099,-0.02107 -0.01952,-0.03711 -0.02842,-0.04806 -0.03206,-0.0394 -0.07476,-0.06279 -0.128158,-0.07028 -0.05517,-0.0097 -0.09893,-8.82e-4 -0.131775,0.02584 -0.0088,0.0071 -0.01367,0.01428 -0.01447,0.02222 -0.0026,0.0058 -0.0014,0.01598 0.0031,0.03049 0.0028,0.01232 0.0048,0.02346 0.0057,0.03359 0.04629,0.21339 0.07502,0.54856 0.0863,1.005106 l 0.01034,0.569991 0.07183,0.12144 c 0.06387,0.100845 0.159321,0.09969 0.286287,-0.0036 l 0.630453,-0.513146 0.387056,0.683679 c 0.01563,0.02367 0.03258,0.03581 0.05064,0.03566 0.01629,-0.0023 0.03872,-0.01508 0.06718,-0.03824 0.0613,-0.04987 0.114311,-0.107509 0.159164,-0.173116 0.04486,-0.06561 0.05805,-0.114741 0.03927,-0.146761 l -0.368453,-0.633553 0.08888,-0.07235 c 0.07224,-0.05878 0.12482,-0.13059 0.157614,-0.215491 0.03099,-0.08709 0.04456,-0.171034 0.04082,-0.251664 -0.0038,-0.08063 -0.02008,-0.13809 -0.04858,-0.173116 -0.02315,-0.02846 -0.04672,-0.03303 -0.0708,-0.01344 -0.01095,0.0089 -0.02757,0.03525 -0.05013,0.07906 -0.02515,0.04957 -0.05088,0.09388 -0.077,0.133325 -0.0279,0.03726 -0.06696,0.07686 -0.117305,0.117822 l -0.0987,0.0801 -0.698149,-1.227316 c -0.04962,-0.08333 -0.08198,-0.153729 -0.09612,-0.211356 -0.01373,-0.0616 -0.02549,-0.099 -0.03617,-0.112138 -0.01069,-0.01315 -0.02311,-0.01967 -0.03721,-0.01912 z m -29.098483,0.815454 c -0.110396,0.002 -0.203464,0.03377 -0.279569,0.0956 -0.02155,0.01907 -0.03695,0.03423 -0.04547,0.04547 -0.01707,0.02249 -0.01729,0.03974 -0.0016,0.05168 0.009,0.0068 0.04086,0.01142 0.0956,0.01395 0.05474,0.0026 0.115348,0.01306 0.182418,0.03204 0.06932,0.02069 0.150162,0.06599 0.242362,0.135909 l 0.01705,0.01292 -1.348238,1.273307 c -0.07829,0.07522 -0.140142,0.128737 -0.1860351,0.161231 -0.043644,0.0342 -0.082806,0.058 -0.1173055,0.0708 -0.032794,0.01053 -0.080034,0.01885 -0.1415934,0.02532 -0.059311,0.0081 -0.1083077,0.01869 -0.1467611,0.03204 -0.038453,0.01334 -0.068782,0.03485 -0.09095,0.06408 -0.020463,0.02699 -0.023828,0.04558 -0.010335,0.05581 0.009,0.0068 0.041817,0.01763 0.098185,0.03204 0.056369,0.01441 0.109174,0.04 0.1586467,0.07752 0.047224,0.03581 0.09364,0.0872 0.1390096,0.153479 0.00729,0.0091 0.022908,0.02793 0.047026,0.05684 0.026367,0.03062 0.050893,0.05426 0.073381,0.07131 0.085453,0.0648 0.2172163,0.07301 0.3958413,0.02429 0.05652,-0.01381 0.09441,-0.03314 0.113172,-0.05788 0.01537,-0.02024 0.01301,-0.03788 -0.0072,-0.05323 -0.009,-0.0068 -0.03425,-0.01546 -0.07597,-0.02584 -0.03776,-0.01093 -0.07375,-0.0292 -0.107487,-0.05478 -0.05846,-0.04434 -0.09512,-0.08955 -0.109554,-0.135909 l 0.0026,-0.0036 c 0.07513,-0.01033 0.137666,-0.03915 0.187586,-0.0863 l 0.534851,-0.508496 0.114205,0.08682 c 0.06521,0.04945 0.141012,0.122649 0.226859,0.219625 0.04715,0.04992 0.07746,0.0802 0.09095,0.09043 0.04048,0.03068 0.0945,0.04351 0.162264,0.03824 0.06776,-0.0053 0.132176,-0.02044 0.19327,-0.04496 0.06504,-0.02505 0.105576,-0.04746 0.120922,-0.0677 0.01193,-0.01574 0.0065,-0.03204 -0.01602,-0.04909 l -0.651123,-0.494027 0.702799,-0.667659 c 0.09445,0.07162 0.192402,0.153064 0.293522,0.243912 0.06855,0.05907 0.113086,0.09627 0.133326,0.111622 0.0967,0.07333 0.192935,0.116264 0.289388,0.129191 0.09645,0.01293 0.180416,0.0074 0.251664,-0.01654 0.0752,-0.02444 0.126709,-0.05445 0.153996,-0.09043 0.01023,-0.01349 0.01367,-0.02501 0.01033,-0.03462 -0.0011,-0.0079 -0.0074,-0.01628 -0.0186,-0.0248 -0.01349,-0.01023 -0.04456,-0.02274 -0.09302,-0.03824 -0.04451,-0.01604 -0.09685,-0.03817 -0.157097,-0.06615 -0.05854,-0.03022 -0.131922,-0.0787 -0.219624,-0.145211 -0.03598,-0.02728 -0.1392,-0.11485 -0.310576,-0.262516 -0.103912,-0.09651 -0.195695,-0.174408 -0.274402,-0.234094 -0.175404,-0.133009 -0.343994,-0.211638 -0.506429,-0.235645 -0.04061,-0.006 -0.07947,-0.0084 -0.116272,-0.0078 z m 27.526486,0.553971 c -0.120739,-0.0055 -0.237591,0.03046 -0.350883,0.108521 -0.134789,0.09288 -0.238288,0.224364 -0.310059,0.393774 -0.07177,0.169411 -0.100056,0.344683 -0.08475,0.526066 1.53e-4,0.01017 0.004,0.03511 0.01085,0.07493 0.0069,0.03981 0.01908,0.07262 0.03669,0.09819 0.01922,0.02789 0.04291,0.03213 0.0708,0.01292 0.02553,-0.01761 0.04096,-0.0592 0.04702,-0.125057 0.02678,-0.244655 0.116111,-0.419397 0.267167,-0.523482 0.178944,-0.123301 0.349813,-0.06651 0.513147,0.170532 0.104086,0.151057 0.169027,0.327592 0.19482,0.529167 0.02812,0.199975 0.03314,0.405881 0.01447,0.617533 -0.02027,0.209328 -0.05753,0.481396 -0.111104,0.816488 l -0.04393,0.271818 c -0.0085,0.05728 -0.0099,0.104617 -0.0047,0.14211 0.003,0.0391 0.01386,0.07288 0.03307,0.100769 0.02402,0.03485 0.05014,0.04247 0.07803,0.02325 0.01394,-0.0096 0.03299,-0.0364 0.05736,-0.08062 0.02509,-0.04814 0.05195,-0.09092 0.08113,-0.128157 0.02918,-0.03724 0.07394,-0.07671 0.134359,-0.118339 0.07669,-0.05284 0.202989,-0.115468 0.378788,-0.188619 0.155606,-0.06266 0.268246,-0.118358 0.337964,-0.166398 0.09064,-0.06245 0.16184,-0.138383 0.212907,-0.22841 0.04945,-0.09235 0.07306,-0.187435 0.0708,-0.285254 4e-5,-0.09942 -0.02819,-0.189963 -0.08423,-0.271301 -0.02402,-0.03485 -0.04812,-0.05938 -0.07183,-0.0739 -0.02298,-0.01843 -0.04135,-0.02304 -0.05529,-0.01343 -0.0046,0.0032 -0.0073,0.0087 -0.0088,0.01654 -0.0014,0.0078 -0.0012,0.01799 5.16e-4,0.03049 0.0017,0.01249 0.0031,0.02698 0.0041,0.04341 0.01525,0.126586 -0.06445,0.249905 -0.238746,0.370004 -0.03486,0.02402 -0.125925,0.07832 -0.273368,0.16278 -0.09399,0.04763 -0.169019,0.09076 -0.224792,0.129191 -0.02556,0.01761 -0.0458,0.03298 -0.06046,0.04651 l -0.0021,-0.0036 c 0.06834,-0.393249 0.112595,-0.721861 0.132809,-0.985986 0.01861,-0.26645 0.01287,-0.490362 -0.01654,-0.672311 -0.03101,-0.184274 -0.09119,-0.341665 -0.180867,-0.471806 -0.123302,-0.178942 -0.267515,-0.288652 -0.432532,-0.329179 -0.04107,-0.01111 -0.08171,-0.01729 -0.121956,-0.01912 z m -1.525489,0.972551 c -0.104575,0.0062 -0.209891,0.03947 -0.315226,0.09974 -0.225369,0.128935 -0.373331,0.330653 -0.443901,0.605131 -0.06953,0.270627 -0.07481,0.564815 -0.01654,0.882634 0.05932,0.313967 0.161056,0.597245 0.305408,0.84956 0.110716,0.193523 0.234294,0.343739 0.37052,0.451135 0.136226,0.1074 0.275582,0.168975 0.418062,0.185002 0.144929,0.01463 0.284365,-0.01645 0.419096,-0.09353 0.198422,-0.113519 0.339693,-0.293372 0.42323,-0.539502 0.08599,-0.247532 0.106298,-0.527518 0.06098,-0.839742 -0.04532,-0.312224 -0.154214,-0.61905 -0.326595,-0.920358 -0.180789,-0.316005 -0.374763,-0.521724 -0.582393,-0.617533 -0.103816,-0.0479 -0.208068,-0.06871 -0.312643,-0.06253 z m -24.990722,0.281119 c -0.123569,0.01352 -0.243727,0.04737 -0.360702,0.10232 -0.113065,0.05413 -0.189747,0.112253 -0.22996,0.173633 -0.02627,0.04013 -0.02774,0.06773 -0.0041,0.0832 0.01181,0.0077 0.02853,0.0085 0.04961,0.0021 0.02263,-0.0088 0.04485,-0.01934 0.06666,-0.03204 0.172246,-0.09297 0.280708,-0.124988 0.325561,-0.0956 0.02123,0.01392 0.01854,0.041 -0.0078,0.08113 l -0.02067,0.03204 c -0.04257,0.05983 -0.214848,0.250268 -0.516764,0.572058 l -0.283187,0.300757 c -0.07375,0.07652 -0.133624,0.12956 -0.180351,0.15968 -0.04282,0.02931 -0.06823,0.05021 -0.07596,0.06201 -0.01856,0.02833 -0.0081,0.05536 0.03204,0.08165 0.07082,0.04637 0.165808,0.06634 0.284738,0.05994 0.122838,-0.0072 0.21206,-0.03982 0.267167,-0.09819 0.06593,-0.07489 0.164289,-0.173975 0.295589,-0.297139 0.201141,-0.198871 0.385685,-0.331342 0.553455,-0.396875 0.17013,-0.06397 0.299933,-0.06652 0.38964,-0.0078 0.0543,0.03557 0.0614,0.08435 0.02119,0.145728 -0.01856,0.02833 -0.04206,0.05634 -0.0708,0.08475 -0.02255,0.01897 -0.02457,0.03465 -0.0057,0.04703 0.03069,0.02011 0.07952,0.02544 0.146761,0.0155 0.06879,-0.01229 0.137649,-0.03986 0.206189,-0.08268 0.0709,-0.04127 0.127222,-0.09387 0.168982,-0.157613 0.04331,-0.0661 0.05747,-0.129499 0.04289,-0.189652 -0.01457,-0.06016 -0.05231,-0.110165 -0.113688,-0.150379 -0.08971,-0.05877 -0.205491,-0.0773 -0.347782,-0.05581 -0.138384,0.02068 -0.314535,0.0856 -0.528133,0.195337 l -0.0036,-0.0021 c 0.13024,-0.1576 0.204683,-0.250726 0.223243,-0.279053 0.08816,-0.134558 0.08136,-0.234767 -0.02015,-0.301274 -0.07554,-0.04949 -0.176898,-0.06704 -0.304374,-0.05271 z m 24.80417,0.128675 c 0.09083,-0.016 0.188734,0.0181 0.293006,0.102319 0.139028,0.112296 0.282426,0.298442 0.430981,0.558106 0.141549,0.247414 0.241837,0.479428 0.300757,0.696081 0.05892,0.216653 0.0761,0.400335 0.05168,0.550871 -0.02443,0.150537 -0.0878,0.254816 -0.190686,0.313676 -0.112684,0.06446 -0.23757,0.05167 -0.374137,-0.03927 -0.137969,-0.09339 -0.283389,-0.27404 -0.436149,-0.541053 -0.135944,-0.237616 -0.233882,-0.469127 -0.294556,-0.694531 -0.06068,-0.225403 -0.0807,-0.418591 -0.05943,-0.580326 0.02372,-0.163139 0.08728,-0.274453 0.19017,-0.333313 0.02878,-0.01647 0.05809,-0.02722 0.08837,-0.03256 z m -1.643827,0.566373 c -0.08022,0.0016 -0.161804,0.02173 -0.244946,0.06046 -0.148377,0.06912 -0.272048,0.181326 -0.371037,0.336413 -0.09899,0.155088 -0.155929,0.322964 -0.171049,0.504362 -0.0015,0.01006 -0.0022,0.03556 -0.0021,0.07597 1.47e-4,0.04041 0.0065,0.0747 0.01964,0.102836 0.0143,0.0307 0.037,0.03859 0.0677,0.02429 0.02814,-0.01311 0.05078,-0.05131 0.0677,-0.115239 0.06716,-0.236776 0.183565,-0.393821 0.34985,-0.471289 0.196983,-0.09177 0.356442,-0.0072 0.478007,0.253732 0.07747,0.166284 0.112016,0.350915 0.103869,0.553971 -0.0056,0.201864 -0.03522,0.405231 -0.08888,0.610815 -0.05486,0.203026 -0.136302,0.465546 -0.244946,0.787032 l -0.08888,0.260966 c -0.01792,0.05506 -0.02736,0.101163 -0.02842,0.13901 -0.0036,0.03904 0.0017,0.0742 0.01602,0.104903 0.01787,0.03837 0.04216,0.05047 0.07286,0.03617 v -5.17e-4 c 0.01535,-0.0072 0.03888,-0.03023 0.07028,-0.06976 0.03276,-0.04328 0.06631,-0.0808 0.101286,-0.112655 0.03497,-0.03186 0.08593,-0.06358 0.152446,-0.09457 0.08442,-0.03933 0.219098,-0.08014 0.404626,-0.12299 0.163871,-0.03587 0.284472,-0.07173 0.361218,-0.107487 0.09977,-0.04648 0.182177,-0.109908 0.247531,-0.190169 0.06416,-0.08282 0.103258,-0.172401 0.117305,-0.269234 0.0166,-0.09802 0.004,-0.192099 -0.03772,-0.281637 -0.01788,-0.03837 -0.03743,-0.0665 -0.05839,-0.08475 -0.01959,-0.02201 -0.03685,-0.02937 -0.05219,-0.02222 -0.0051,0.0024 -0.0092,0.007 -0.01189,0.01447 -0.0027,0.0075 -0.0043,0.01787 -0.0047,0.03049 -3.33e-4,0.01261 -0.0014,0.02704 -0.0031,0.04341 -0.006,0.127357 -0.104756,0.235659 -0.296623,0.325045 -0.03837,0.01787 -0.137171,0.056 -0.296623,0.114721 -0.10061,0.0313 -0.181996,0.06131 -0.243396,0.08992 -0.02814,0.01311 -0.05047,0.02527 -0.06718,0.03617 l -0.0015,-0.0036 c 0.13289,-0.37637 0.231139,-0.693262 0.295072,-0.950329 0.06272,-0.259626 0.09479,-0.481803 0.09612,-0.666109 1.22e-4,-0.186864 -0.03299,-0.3518 -0.09973,-0.495061 -0.09177,-0.196982 -0.215593,-0.32891 -0.371554,-0.396358 -0.0773,-0.0356 -0.156458,-0.05273 -0.236678,-0.05116 z m -21.619352,0.265101 c -0.05153,0.0036 -0.105939,0.01167 -0.162781,0.02325 -0.223519,0.04528 -0.44257,0.13991 -0.657324,0.28422 -0.2123,0.145702 -0.37462,0.31787 -0.487309,0.516765 -0.09043,0.159607 -0.127161,0.301275 -0.109554,0.42478 0.019,0.12105 0.08665,0.214183 0.202055,0.279569 0.152241,0.08625 0.339943,0.103774 0.56379,0.05219 0.226302,-0.05019 0.443894,-0.150851 0.652673,-0.301791 0.211235,-0.149548 0.370366,-0.318906 0.47749,-0.507979 0.08765,-0.154696 0.124191,-0.292849 0.109038,-0.414962 -0.01515,-0.122115 -0.08045,-0.21625 -0.195854,-0.281636 -0.106814,-0.06052 -0.237627,-0.08535 -0.392224,-0.07441 z m -0.0925,0.257348 c 0.04105,5.5e-4 0.07847,0.01016 0.111621,0.02894 0.05648,0.032 0.08266,0.08312 0.07906,0.152445 -0.0036,0.06932 -0.03999,0.165063 -0.109554,0.287838 -0.08208,0.144874 -0.173953,0.269966 -0.275435,0.374654 -0.101482,0.10469 -0.201511,0.177442 -0.299724,0.219108 -0.09682,0.03921 -0.179293,0.03947 -0.248047,5.17e-4 -0.117864,-0.06678 -0.10573,-0.22548 0.03617,-0.47594 0.08208,-0.144874 0.173247,-0.266449 0.274402,-0.364835 0.103611,-0.097 0.202584,-0.162588 0.296623,-0.196888 0.04894,-0.01768 0.09383,-0.02639 0.134875,-0.02584 z m 1.296045,0.288871 c -0.05121,-0.0014 -0.107707,0.006 -0.168982,0.0217 -0.119977,0.03252 -0.233512,0.08467 -0.340548,0.157096 -0.103301,0.07102 -0.170688,0.141395 -0.202055,0.21084 -0.01972,0.04372 -0.01642,0.07158 0.0093,0.0832 0.01286,0.0058 0.02874,0.0039 0.04858,-0.0057 0.02099,-0.0122 0.0414,-0.02645 0.06098,-0.04237 0.155741,-0.118555 0.260696,-0.16547 0.31471,-0.141077 0.02057,0.0093 0.02337,0.03064 0.0083,0.06408 -0.0093,0.02058 -0.04053,0.07288 -0.09405,0.157096 -0.08422,0.138474 -0.191588,0.300511 -0.321944,0.486275 -0.127785,0.186927 -0.224152,0.324451 -0.288872,0.412895 -0.03095,0.04796 -0.07923,0.106691 -0.144694,0.176217 -0.03029,0.03277 -0.04846,0.05587 -0.05426,0.06873 -0.01162,0.02572 0.0033,0.04756 0.04444,0.06615 0.0823,0.03717 0.179979,0.04107 0.292488,0.01137 0.115079,-0.02854 0.197761,-0.07812 0.248047,-0.148311 l 0.202572,-0.284737 c 0.08381,-0.116984 0.18623,-0.229916 0.306958,-0.339515 0.120727,-0.109594 0.235082,-0.194428 0.342615,-0.254248 0.10753,-0.05981 0.183133,-0.07969 0.226859,-0.05994 0.02572,0.01162 0.02892,0.03791 0.01034,0.07906 l -0.01395,0.03101 c -0.06696,0.127689 -0.222828,0.363568 -0.468189,0.707968 -0.242787,0.34556 -0.36795,0.522623 -0.37517,0.53175 -0.01561,0.02083 -0.02234,0.03647 -0.02067,0.04651 5e-4,0.01261 0.01199,0.02417 0.03514,0.03462 0.05916,0.02673 0.13772,0.04174 0.235128,0.04547 0.09857,0.0012 0.160378,-0.01555 0.185518,-0.05064 l 0.403593,-0.574642 c 0.08829,-0.09948 0.184389,-0.192334 0.288355,-0.278535 0.106538,-0.08504 0.20207,-0.14924 0.286287,-0.19172 0.08795,-0.04389 0.149512,-0.05761 0.185518,-0.04134 0.02829,0.01278 0.03228,0.04259 0.01137,0.08888 l -0.01033,0.02326 c -0.03045,0.06057 -0.07776,0.136749 -0.141077,0.228926 -0.05958,0.09077 -0.122222,0.181836 -0.188102,0.272852 -0.198808,0.275618 -0.321853,0.466088 -0.369486,0.571541 -0.07667,0.169753 -0.05057,0.283495 0.07803,0.341581 0.0823,0.03717 0.179073,0.04211 0.290421,0.01499 0.111348,-0.02713 0.216692,-0.0756 0.31626,-0.145211 0.103306,-0.07102 0.180954,-0.150283 0.233061,-0.238229 0.01535,-0.02713 0.02336,-0.05138 0.02377,-0.07286 0.003,-0.02033 -0.0021,-0.03347 -0.01499,-0.03927 -0.02058,-0.0093 -0.04685,4.15e-4 -0.07855,0.02945 -0.08272,0.08031 -0.1521,0.138843 -0.208773,0.175183 -0.05667,0.03634 -0.104564,0.04585 -0.143144,0.02842 -0.03343,-0.0151 -0.03822,-0.0483 -0.01499,-0.09974 0.0093,-0.02058 0.04845,-0.08058 0.117822,-0.179317 0.07053,-0.101304 0.132395,-0.189249 0.185002,-0.264584 0.02398,-0.03252 0.107516,-0.149954 0.251147,-0.3514 0.07542,-0.105286 0.130512,-0.196207 0.165365,-0.273368 0.08364,-0.185187 0.05986,-0.307656 -0.07131,-0.366903 -0.09259,-0.04182 -0.208492,-0.04162 -0.3483,5.17e-4 -0.138646,0.03957 -0.29262,0.112665 -0.46147,0.219108 l -0.0041,-0.0016 0.01447,-0.0217 c 0.05003,-0.07649 0.08554,-0.137668 0.106454,-0.183968 0.08132,-0.180043 0.05624,-0.299905 -0.07493,-0.359151 -0.10031,-0.04531 -0.229346,-0.04 -0.387573,0.0155 -0.157066,0.05293 -0.321672,0.14298 -0.49351,0.26975 l -0.0036,-0.0021 c 0.07866,-0.119308 0.140729,-0.228869 0.186035,-0.329178 0.03485,-0.07716 0.04457,-0.14074 0.02997,-0.190686 -0.0146,-0.04995 -0.04726,-0.08684 -0.0987,-0.110071 -0.04115,-0.01858 -0.08728,-0.02852 -0.138493,-0.02997 z m 6.876066,0.467672 c -0.145587,-0.0056 -0.269267,0.0014 -0.371037,0.0217 -0.09846,0.01806 -0.20825,0.07313 -0.329695,0.164331 -0.15512,0.116226 -0.297963,0.279145 -0.428398,0.489376 -0.127666,0.210775 -0.251464,0.475589 -0.371554,0.794267 l -0.240295,0.65164 c -0.164977,0.459422 -0.275766,0.759899 -0.332279,0.901237 -0.01647,0.03991 -0.04646,0.09721 -0.08992,0.172082 -0.03188,0.05989 -0.04894,0.09674 -0.05168,0.110588 -0.0054,0.02769 0.01409,0.04608 0.05839,0.05478 0.08585,0.01686 0.179915,-0.0022 0.282671,-0.05684 0.105528,-0.05406 0.17618,-0.120713 0.211873,-0.199988 l 0.132808,-0.323495 c 0.05157,-0.130804 0.128954,-0.262195 0.232544,-0.394291 0.10359,-0.132094 0.205033,-0.238718 0.304374,-0.319877 0.102654,-0.08338 0.177713,-0.120344 0.224793,-0.111104 0.03046,0.006 0.04079,0.03387 0.03101,0.08372 l -0.0052,0.0248 c -0.01581,0.06592 -0.04364,0.151083 -0.08423,0.255282 -0.03782,0.104742 -0.0786,0.208988 -0.121957,0.312642 -0.06477,0.154098 -0.115712,0.280619 -0.152445,0.379822 -0.03674,0.0992 -0.06183,0.184829 -0.07597,0.256832 -0.03589,0.182777 0.01501,0.288039 0.153479,0.315226 0.09139,0.01794 0.190064,-2e-4 0.29559,-0.05426 0.108838,-0.05629 0.204156,-0.132367 0.286287,-0.22841 0.08267,-0.09881 0.133929,-0.196595 0.152962,-0.293522 0.01033,-0.05265 0.0027,-0.08143 -0.02222,-0.0863 -0.01939,-0.0038 -0.03952,0.01201 -0.06098,0.04806 -0.06552,0.0993 -0.122108,0.173372 -0.168982,0.221692 -0.04633,0.04555 -0.09023,0.06396 -0.131775,0.05581 -0.036,-0.0071 -0.0486,-0.03815 -0.03772,-0.09354 0.0038,-0.01938 0.04322,-0.12412 0.117822,-0.313675 0.04831,-0.114189 0.128361,-0.309391 0.240295,-0.586528 0.05048,-0.125266 0.08345,-0.228197 0.09922,-0.308508 0.02063,-0.105233 0.01748,-0.183748 -0.0098,-0.235128 -0.02676,-0.05415 -0.07494,-0.08769 -0.144177,-0.101286 -0.21047,-0.04132 -0.501072,0.113018 -0.871781,0.463021 l -0.0041,-0.001 0.132291,-0.38809 c 0.123795,-0.366844 0.228047,-0.641364 0.312643,-0.823205 0.08514,-0.184611 0.179985,-0.330066 0.28422,-0.436149 0.07501,-0.07443 0.148318,-0.124629 0.219625,-0.150895 0.07131,-0.02627 0.150748,-0.0349 0.238228,-0.02636 0.08862,0.0174 0.15889,0.0096 0.211357,-0.02325 0.03645,-0.02448 0.06763,-0.05171 0.09353,-0.08113 0.02925,-0.03165 0.04629,-0.05982 0.05116,-0.08475 0.006,-0.03048 -0.0021,-0.04786 -0.02429,-0.05219 -0.0083,-0.0016 -0.027,-8e-4 -0.05633,0.0021 -0.02878,6.6e-5 -0.08901,-0.0016 -0.180351,-0.0052 z m -2.272213,0.269234 c -0.137801,0.005 -0.276883,0.03154 -0.418062,0.07958 -0.278875,0.09414 -0.530907,0.263561 -0.75551,0.507979 -0.221887,0.245187 -0.382509,0.542654 -0.481624,0.892969 -0.09758,0.344884 -0.10199,0.625592 -0.01344,0.841292 0.09204,0.213754 0.267049,0.356957 0.525033,0.429948 0.236259,0.06685 0.463713,0.05626 0.682129,-0.03152 0.221132,-0.08702 0.400766,-0.239889 0.538985,-0.458887 0.03166,-0.0497 0.05096,-0.08666 0.05788,-0.111104 0.01,-0.03531 0.0013,-0.05692 -0.02584,-0.0646 -0.03259,-0.0092 -0.0674,0.0057 -0.104903,0.04496 -0.122191,0.120879 -0.249605,0.213972 -0.382405,0.279052 -0.132801,0.06508 -0.287539,0.07268 -0.464055,0.02274 -0.17923,-0.05071 -0.292991,-0.151888 -0.341064,-0.303341 -0.04536,-0.150684 -0.03007,-0.360572 0.04599,-0.629419 0.07837,-0.276992 0.186507,-0.513264 0.324011,-0.709 0.138273,-0.198452 0.294986,-0.338914 0.470772,-0.421163 0.176556,-0.08497 0.357424,-0.101339 0.542086,-0.04909 0.211817,0.05993 0.314642,0.178873 0.308508,0.356051 6.7e-5,0.02054 -0.0019,0.04752 -0.0057,0.08165 -0.0038,0.03412 -0.0046,0.0633 -0.0026,0.08733 0.0028,0.02131 0.01638,0.03546 0.04083,0.04237 0.02715,0.0077 0.05481,0.0037 0.08268,-0.01188 0.02864,-0.01829 0.0604,-0.04279 0.0956,-0.0739 0.08274,-0.08511 0.134016,-0.162972 0.153996,-0.233578 0.0315,-0.111341 0.0044,-0.213235 -0.08113,-0.304891 -0.08475,-0.09437 -0.212355,-0.165534 -0.383439,-0.21394 -0.134423,-0.03803 -0.270959,-0.05462 -0.408761,-0.04961 z m 13.604855,0.375171 c -0.02991,0.0033 -0.06048,0.01032 -0.09198,0.02067 -0.155502,0.05112 -0.29271,0.176267 -0.411345,0.375687 -0.116837,0.195859 -0.193857,0.422013 -0.23151,0.677995 -0.03498,0.255102 -0.01661,0.491317 0.05478,0.708484 0.05729,0.17427 0.137577,0.296344 0.240812,0.366386 0.102355,0.06736 0.216087,0.08018 0.342098,0.03876 0.166227,-0.05464 0.305671,-0.182066 0.418062,-0.382405 0.11507,-0.20122 0.187274,-0.429726 0.216008,-0.685746 0.03141,-0.256902 0.01309,-0.488606 -0.05478,-0.695049 -0.05552,-0.168908 -0.13354,-0.288744 -0.234095,-0.359667 -0.07542,-0.05319 -0.158311,-0.07511 -0.248046,-0.06511 z m -4.719092,0.144694 c -0.06159,1.81e-4 -0.126648,0.0045 -0.195337,0.0124 -0.213075,0.02458 -0.405751,0.07915 -0.577743,0.164331 -0.169511,0.08206 -0.306917,0.183217 -0.412378,0.30334 -0.105786,0.11732 -0.17687,0.239491 -0.213423,0.365869 -0.0085,0.04928 -0.01212,0.07922 -0.01085,0.09043 0.0042,0.03642 0.02187,0.05314 0.05271,0.04961 0.01962,-0.0023 0.03699,-0.01143 0.05219,-0.02739 0.01801,-0.01629 0.04301,-0.04646 0.07493,-0.08992 0.09856,-0.130691 0.214372,-0.243482 0.348299,-0.338481 0.136731,-0.09532 0.320457,-0.155891 0.550354,-0.182417 0.185039,-0.02135 0.324937,-0.0035 0.419613,0.05374 0.09436,0.05446 0.149388,0.153121 0.165881,0.296106 0.01649,0.142985 -0.0067,0.273633 -0.06976,0.391707 -0.0606,0.114951 -0.15066,0.193378 -0.270785,0.235645 l -0.349333,0.04031 0.01292,-0.444418 c 0.0045,-0.108481 0.01624,-0.189506 0.03566,-0.242879 0.01908,-0.05618 0.02777,-0.09273 0.02584,-0.109554 -0.0032,-0.02806 -0.02749,-0.03982 -0.07235,-0.03462 -0.06729,0.0078 -0.132257,0.03382 -0.195337,0.07803 -0.06341,0.04141 -0.117238,0.09314 -0.161231,0.155029 -0.04151,0.05877 -0.06336,0.115259 -0.06563,0.169499 l -0.05374,1.565796 c -0.0038,0.06578 -0.01523,0.115402 -0.03411,0.148828 -0.01607,0.0331 -0.04936,0.07528 -0.100252,0.126607 -0.04842,0.0482 -0.08563,0.09546 -0.111621,0.141077 -0.02597,0.04561 -0.03611,0.09504 -0.02997,0.148311 0.0045,0.03928 0.02106,0.05701 0.04909,0.05374 0.01962,-0.0023 0.04948,-0.01265 0.08992,-0.03152 0.09489,-0.03937 0.168942,-0.06208 0.222209,-0.06821 0.03645,-0.0042 0.126078,-0.0058 0.2682,-0.0052 0.199165,0.0026 0.332173,8e-6 0.399459,-0.0078 0.182236,-0.02103 0.354477,-0.07975 0.516765,-0.175183 0.164767,-0.09856 0.294081,-0.222594 0.387573,-0.372587 0.09317,-0.152796 0.129804,-0.314738 0.110071,-0.485758 -0.01553,-0.134574 -0.06762,-0.255004 -0.15658,-0.361219 -0.08616,-0.106538 -0.203155,-0.196918 -0.350883,-0.270784 0.295138,-0.224395 0.4249,-0.489189 0.38964,-0.794784 -0.02394,-0.207468 -0.117949,-0.355864 -0.281636,-0.444934 -0.120906,-0.06915 -0.273594,-0.10338 -0.45837,-0.102836 z m 3.688664,0.207739 c -0.03134,-0.0028 -0.06473,6.46e-4 -0.100253,0.0098 -0.103839,0.02681 -0.195585,0.09991 -0.275435,0.219625 -0.07782,0.116281 -0.147763,0.290603 -0.210323,0.522449 l -0.0041,0.001 c -0.02894,-0.20239 -0.04786,-0.320157 -0.05633,-0.35295 -0.04022,-0.15576 -0.119176,-0.218442 -0.236678,-0.188102 -0.08744,0.02258 -0.168732,0.08571 -0.243912,0.189652 -0.07315,0.100502 -0.128849,0.212909 -0.166915,0.336414 -0.03604,0.120067 -0.0447,0.215239 -0.02635,0.286287 0.01199,0.04645 0.03158,0.06648 0.05891,0.05943 0.01367,-0.0035 0.0252,-0.01521 0.03462,-0.03514 0.0087,-0.02266 0.01592,-0.04663 0.02119,-0.07131 0.04714,-0.189971 0.09639,-0.291484 0.148312,-0.304891 0.02459,-0.0063 0.0433,0.01349 0.05529,0.05995 l 0.0093,0.03721 c 0.01561,0.07175 0.04058,0.327524 0.07545,0.767395 l 0.03204,0.411344 c 0.007,0.106043 0.0061,0.186496 -0.0031,0.241329 -0.0071,0.05139 -0.0092,0.084 -0.0057,0.09767 0.0085,0.03279 0.03623,0.043 0.08268,0.03101 0.08198,-0.02117 0.160374,-0.07771 0.235644,-0.170015 0.07727,-0.09574 0.113037,-0.184026 0.10697,-0.264067 -0.01105,-0.09917 -0.01794,-0.238574 -0.02067,-0.418579 -0.01176,-0.282611 0.01465,-0.507727 0.07906,-0.675928 0.06715,-0.168904 0.152475,-0.267225 0.256315,-0.294039 0.06285,-0.01623 0.103609,0.01163 0.121956,0.08268 0.0085,0.03279 0.01332,0.06918 0.01499,0.109554 -0.0011,0.02947 0.0091,0.04132 0.03101,0.03566 0.03552,-0.0092 0.07269,-0.04177 0.110588,-0.09819 0.03719,-0.05915 0.06255,-0.128742 0.077,-0.208256 0.01718,-0.08022 0.01646,-0.157213 -0.0026,-0.230993 -0.01975,-0.07651 -0.0568,-0.129464 -0.111105,-0.159164 -0.02715,-0.01485 -0.05651,-0.02403 -0.08785,-0.02687 z m 0.932242,0.08268 c 0.02764,0.0073 0.05359,0.0229 0.07803,0.04754 0.04888,0.04929 0.09546,0.141381 0.139526,0.275435 0.052,0.158184 0.08225,0.309759 0.09147,0.45527 0.0092,0.145511 -0.0035,0.268783 -0.03876,0.369486 -0.03611,0.09802 -0.09184,0.159288 -0.166915,0.183968 -0.128691,0.0423 -0.237732,-0.07328 -0.327628,-0.346748 -0.05197,-0.158184 -0.08047,-0.308038 -0.08527,-0.449069 -0.0021,-0.141911 0.01588,-0.259256 0.05374,-0.351916 0.03967,-0.09622 0.09556,-0.156041 0.167948,-0.179834 0.03083,-0.01013 0.06021,-0.01139 0.08785,-0.0041 z m -8.659936,0.01602 c -0.115471,-0.0075 -0.206205,0.01488 -0.271818,0.06718 -0.06543,0.04948 -0.109022,0.118716 -0.131775,0.207739 l -0.08113,0.329696 c -0.0041,0.01953 -0.0035,0.03356 0.0016,0.04237 0.0053,0.006 0.01801,0.0096 0.03772,0.01085 l 0.02946,0.0021 c 0.225302,0.01463 0.361277,-0.07848 0.408243,-0.279053 l 0.08062,-0.329696 c 0.0048,-0.03081 -0.0078,-0.04709 -0.03876,-0.04909 z m 6.027539,0.33383 c -0.03857,-0.0062 -0.0809,-0.0047 -0.126607,0.0041 -0.166224,0.0323 -0.317122,0.142256 -0.453203,0.329696 -0.133849,0.184131 -0.232739,0.401736 -0.296106,0.652673 -0.06114,0.247629 -0.07138,0.475382 -0.03101,0.683163 0.03445,0.177306 0.101301,0.307583 0.201021,0.391707 0.101953,0.08082 0.224908,0.107575 0.36897,0.07958 0.130209,-0.0253 0.250588,-0.08889 0.360184,-0.190686 0.10906,-0.104565 0.190997,-0.22119 0.246497,-0.34985 0.05827,-0.129196 0.07872,-0.237941 0.0615,-0.326595 -0.0054,-0.0277 -0.01194,-0.04684 -0.01964,-0.05684 -0.0077,-0.01 -0.01955,-0.01353 -0.03617,-0.01033 -0.01108,0.0022 -0.02106,0.01138 -0.02945,0.02739 -0.0089,0.01323 -0.01787,0.03387 -0.02687,0.0615 -0.04265,0.106036 -0.09837,0.194599 -0.167948,0.265617 -0.06681,0.07048 -0.144925,0.114032 -0.233578,0.131258 -0.160683,0.03122 -0.263572,-0.04765 -0.309025,-0.237194 0.161079,-0.103172 0.30004,-0.224004 0.417029,-0.361735 0.119223,-0.14104 0.206443,-0.284129 0.261483,-0.429948 0.0545,-0.14859 0.0697,-0.285126 0.04548,-0.409794 -0.01938,-0.09973 -0.06201,-0.170517 -0.127641,-0.212391 -0.03143,-0.02121 -0.06633,-0.03518 -0.104903,-0.04134 z m -7.964889,0.327629 c -0.08964,-0.01101 -0.188608,0.01813 -0.296622,0.08733 -0.104869,0.06674 -0.19738,0.15067 -0.27802,0.251664 -0.07749,0.09854 -0.120767,0.184001 -0.129707,0.256832 -0.0058,0.04759 0.0051,0.07353 0.03307,0.077 0.01401,0.0017 0.02889,-0.0051 0.04496,-0.02015 0.01641,-0.01789 0.03204,-0.03736 0.04599,-0.05839 0.113417,-0.159526 0.196377,-0.235977 0.249597,-0.229444 0.02523,0.0031 0.03532,0.02835 0.02946,0.07597 l -0.0047,0.03772 c -0.01174,0.07249 -0.08225,0.319974 -0.21084,0.742073 L 21.90874,50.41346 c -0.03233,0.101235 -0.06287,0.176086 -0.09147,0.223759 -0.02544,0.04521 -0.03857,0.07436 -0.04031,0.08837 -0.0041,0.03359 0.01749,0.05356 0.06511,0.05943 0.08404,0.01032 0.1778,-0.01349 0.281636,-0.07183 0.106984,-0.0608 0.172221,-0.129992 0.195854,-0.206706 0.02604,-0.09632 0.07102,-0.228359 0.134359,-0.396875 0.09252,-0.267296 0.199385,-0.467541 0.32091,-0.60048 0.124326,-0.132595 0.239787,-0.192384 0.346232,-0.179317 0.06443,0.0079 0.09214,0.04809 0.0832,0.120922 -0.0041,0.03361 -0.01313,0.06982 -0.02635,0.108004 -0.01184,0.027 -0.0064,0.04171 0.01602,0.04444 0.03641,0.0045 0.08257,-0.01253 0.138493,-0.05116 0.05627,-0.04143 0.105758,-0.09666 0.148311,-0.165364 0.04535,-0.06836 0.07288,-0.140375 0.08217,-0.216008 0.0096,-0.07843 -0.0058,-0.141099 -0.04547,-0.188619 -0.03966,-0.04752 -0.09563,-0.07581 -0.168466,-0.08475 -0.106445,-0.01307 -0.218793,0.02118 -0.33693,0.103353 -0.114991,0.07972 -0.24396,0.215914 -0.387056,0.40876 l -0.0041,-5.17e-4 c 0.04716,-0.198936 0.07287,-0.315202 0.077,-0.348815 0.0196,-0.159668 -0.03096,-0.246697 -0.151412,-0.261483 z m 7.734412,0.103353 c 0.04883,0.0099 0.08055,0.05232 0.09509,0.127124 0.01561,0.08034 0.0095,0.158826 -0.0186,0.236161 -0.0281,0.07733 -0.06995,0.144315 -0.125057,0.201021 -0.05565,0.05394 -0.113719,0.08686 -0.174666,0.0987 -0.03601,0.007 -0.06341,0.0082 -0.08165,0.0031 -0.01559,-0.183845 8.26e-4,-0.336867 0.04909,-0.45837 0.04827,-0.121504 0.115655,-0.190536 0.201538,-0.207223 0.02008,-0.0039 0.03798,-0.0038 0.05426,-5.16e-4 z m -6.121073,0.04548 c -0.09575,-0.0062 -0.196832,0.02695 -0.303341,0.09922 -0.106508,0.07227 -0.197093,0.160689 -0.271818,0.266133 -0.07453,0.102629 -0.114756,0.193479 -0.119889,0.272335 -0.0029,0.04504 0.0088,0.06861 0.03411,0.07028 0.0084,5.47e-4 0.01684,-0.0035 0.02584,-0.01137 0.009,-0.0079 0.01836,-0.01983 0.02791,-0.03617 0.01253,-0.01897 0.02057,-0.03122 0.02377,-0.03669 0.05954,-0.08946 0.1073,-0.152935 0.14366,-0.190169 0.03654,-0.04007 0.06767,-0.05903 0.09302,-0.05736 0.02532,0.0016 0.03664,0.02207 0.03411,0.06149 -7.33e-4,0.01127 -0.0055,0.04217 -0.01447,0.0925 l -0.269234,1.009241 c -0.01959,0.08357 -0.03084,0.150845 -0.03411,0.201538 -0.01207,0.185872 0.05062,0.283005 0.188619,0.291972 0.09575,0.0062 0.193862,-0.02578 0.294556,-0.0956 0.103692,-0.07245 0.191641,-0.161022 0.26355,-0.26665 0.07209,-0.108444 0.111422,-0.212005 0.117822,-0.310575 0.0031,-0.04786 -0.0082,-0.07275 -0.03359,-0.07441 -0.01972,-0.0013 -0.03762,0.0173 -0.05426,0.05581 -0.04883,0.09864 -0.09917,0.175994 -0.150895,0.232027 -0.0489,0.05624 -0.09154,0.08302 -0.128158,0.08062 -0.03098,-0.002 -0.04561,-0.01995 -0.04341,-0.05374 5.53e-4,-0.0084 0.0043,-0.02382 0.01137,-0.04599 l 0.282153,-1.075903 c 0.02684,-0.108556 0.04151,-0.185417 0.04444,-0.230477 0.01024,-0.157716 -0.04346,-0.240367 -0.161747,-0.248047 z m 1.392163,0.03927 c -0.124172,-0.0013 -0.241245,0.02714 -0.351917,0.08527 -0.107821,0.05533 -0.196351,0.131887 -0.2651,0.22996 -0.06596,0.0981 -0.09964,0.203894 -0.100769,0.316777 -5.8e-4,0.05644 0.01188,0.112798 0.03669,0.169498 0.02767,0.05391 0.07897,0.137995 0.153996,0.251665 l 0.08733,0.127641 c 0.06668,0.102294 0.112613,0.180731 0.13746,0.234611 0.02487,0.05106 0.03707,0.09457 0.03669,0.131258 -6.07e-4,0.05926 -0.02371,0.106923 -0.06925,0.143143 -0.04271,0.03622 -0.09764,0.05441 -0.165364,0.05374 -0.08184,-8.47e-4 -0.143712,-0.02732 -0.185519,-0.07855 -0.04181,-0.05123 -0.0765,-0.117857 -0.103869,-0.199988 -0.0083,-0.01984 -0.01828,-0.0351 -0.02946,-0.04651 -0.0083,-0.0142 -0.01765,-0.02159 -0.02894,-0.0217 -0.01411,-1.47e-4 -0.04002,0.0135 -0.077,0.04134 -0.05973,0.04454 -0.10663,0.09532 -0.141077,0.151412 -0.03441,0.05327 -0.04773,0.105176 -0.03979,0.156063 0.0024,0.03954 0.01775,0.08351 0.04547,0.131775 0.03058,0.04547 0.07624,0.08538 0.137976,0.119889 0.06174,0.03453 0.139416,0.05229 0.232544,0.05323 0.115705,0.0012 0.23726,-0.026 0.364836,-0.08113 0.130427,-0.05792 0.238788,-0.138303 0.324528,-0.241846 0.08859,-0.106336 0.133475,-0.227309 0.134875,-0.362768 7.6e-4,-0.07337 -0.01139,-0.139945 -0.03617,-0.199471 -0.02476,-0.06235 -0.06475,-0.131995 -0.120406,-0.208773 l -0.09612,-0.128158 -0.07131,-0.09353 c -0.04736,-0.05976 -0.08219,-0.108291 -0.104386,-0.145211 -0.02217,-0.03974 -0.03299,-0.08066 -0.03256,-0.12299 5.8e-4,-0.05644 0.02246,-0.100134 0.06511,-0.130741 0.04265,-0.03057 0.09764,-0.04563 0.165365,-0.04496 0.104416,0.0011 0.188751,0.04883 0.252697,0.142627 0.0056,0.0085 0.011,0.01863 0.01654,0.02997 0.0084,0.0085 0.01559,0.01545 0.02119,0.02119 0.0056,0.0057 0.01403,0.0087 0.02532,0.0088 0.02258,2.33e-4 0.05225,-0.02241 0.0894,-0.06718 0.04867,-0.06723 0.07334,-0.127248 0.0739,-0.180868 7.57e-4,-0.07337 -0.03558,-0.13158 -0.10852,-0.174666 -0.07291,-0.04591 -0.164342,-0.06966 -0.274402,-0.0708 z m 2.954858,0.484725 c 0.238523,0.09748 0.370675,0.259699 0.396875,0.486792 0.01682,0.145788 -0.01913,0.262313 -0.10852,0.349333 -0.08972,0.08422 -0.22867,0.136973 -0.416512,0.158646 -0.06168,0.0071 -0.129224,0.01085 -0.203089,0.01085 -0.07106,-3.2e-4 -0.126885,-0.0036 -0.167431,-0.01033 l -0.0047,-0.0041 c 0.01636,-0.03031 0.02702,-0.05855 0.03256,-0.08475 0.008,-0.02933 0.01229,-0.06797 0.0124,-0.116272 l 0.02119,-0.73949 z" />
  </g>
</svg>
