  0
SECTION
  2
HEADER
  9
$ACADVER
  1
AC1014
  9
$HANDSEED
  5
FFFF
  9
$INSUNITS
 70
     4
  9
$MEASUREMENT
 70
     1
  0
ENDSEC
  0
SECTION
  2
TABLES
  0
TABLE
  2
VPORT
  5
8
330
0
100
AcDbSymbolTable
 70
     4
  0
VPORT
  5
2E
330
8
100
AcDbSymbolTableRecord
100
AcDbViewportTableRecord
  2
*ACTIVE
 70
     0
 10
0.0
 20
0.0
 11
1.0
 21
1.0
 12
210.0
 22
148.5
 13
0.0
 23
0.0
 14
10.0
 24
10.0
 15
10.0
 25
10.0
 16
0.0
 26
0.0
 36
1.0
 17
0.0
 27
0.0
 37
0.0
 40
341.0
 41
1.24
 42
50.0
 43
0.0
 44
0.0
 50
0.0
 51
0.0
 71
     0
 72
   100
 73
     1
 74
     3
 75
     0
 76
     0
 77
     0
 78
     0
  0
ENDTAB
  0
TABLE
  2
LTYPE
  5
5
330
0
100
AcDbSymbolTable
 70
     1
  0
LTYPE
  5
14
330
5
100
AcDbSymbolTableRecord
100
AcDbLinetypeTableRecord
  2
BYBLOCK
 70
     0
  3

 72
    65
 73
     0
 40
0.0
  0
LTYPE
  5
15
330
5
100
AcDbSymbolTableRecord
100
AcDbLinetypeTableRecord
  2
BYLAYER
 70
     0
  3

 72
    65
 73
     0
 40
0.0
  0
LTYPE
  5
16
330
5
100
AcDbSymbolTableRecord
100
AcDbLinetypeTableRecord
  2
CONTINUOUS
 70
     0
  3
Solid line
 72
    65
 73
     0
 40
0.0
  0
ENDTAB
  0
TABLE
  2
LAYER
  5
2
100
AcDbSymbolTable
 70
5
  0
LAYER
  5
50
100
AcDbSymbolTableRecord
100
AcDbLayerTableRecord
  2
0
 70
0
  6
CONTINUOUS
  0
LAYER
  5
51
100
AcDbSymbolTableRecord
100
AcDbLayerTableRecord
  2
Circle_BG
 70
0
  6
CONTINUOUS
  0
LAYER
  5
52
100
AcDbSymbolTableRecord
100
AcDbLayerTableRecord
  2
Arc
 70
0
  6
CONTINUOUS
  0
LAYER
  5
53
100
AcDbSymbolTableRecord
100
AcDbLayerTableRecord
  2
Text
 70
0
  6
CONTINUOUS
  0
LAYER
  5
54
100
AcDbSymbolTableRecord
100
AcDbLayerTableRecord
  2
Export_Paths
 70
0
  6
CONTINUOUS
  0
ENDTAB
  0
TABLE
  2
STYLE
  5
3
330
0
100
AcDbSymbolTable
 70
     1
  0
STYLE
  5
11
330
3
100
AcDbSymbolTableRecord
100
AcDbTextStyleTableRecord
  2
STANDARD
 70
     0
 40
0.0
 41
1.0
 50
0.0
 71
     0
 42
2.5
  3
txt
  4

  0
ENDTAB
  0
TABLE
  2
VIEW
  5
6
330
0
100
AcDbSymbolTable
 70
     0
  0
ENDTAB
  0
TABLE
  2
UCS
  5
7
330
0
100
AcDbSymbolTable
 70
     0
  0
ENDTAB
  0
TABLE
  2
APPID
  5
9
330
0
100
AcDbSymbolTable
 70
     2
  0
APPID
  5
12
330
9
100
AcDbSymbolTableRecord
100
AcDbRegAppTableRecord
  2
ACAD
 70
     0
  0
ENDTAB
  0
TABLE
  2
DIMSTYLE
  5
A
330
0
100
AcDbSymbolTable
 70
     1
  0
DIMSTYLE
105
27
330
A
100
AcDbSymbolTableRecord
100
AcDbDimStyleTableRecord
  2
ISO-25
 70
     0
  3

  4

  5

  6

  7

 40
1.0
 41
2.5
 42
0.625
 43
3.75
 44
1.25
 45
0.0
 46
0.0
 47
0.0
 48
0.0
140
2.5
141
2.5
142
0.0
143
0.03937007874016
144
1.0
145
0.0
146
1.0
147
0.625
 71
     0
 72
     0
 73
     0
 74
     0
 75
     0
 76
     0
 77
     1
 78
     8
170
     0
171
     3
172
     1
173
     0
174
     0
175
     0
176
     0
177
     0
178
     0
270
     2
271
     2
272
     2
273
     2
274
     3
340
11
275
     0
280
     0
281
     0
282
     0
283
     0
284
     8
285
     0
286
     0
287
     3
288
     0
  0
ENDTAB
  0
TABLE
  2
BLOCK_RECORD
  5
1
330
0
100
AcDbSymbolTable
 70
     1
  0
BLOCK_RECORD
  5
1F
330
1
100
AcDbSymbolTableRecord
100
AcDbBlockTableRecord
  2
*MODEL_SPACE
  0
BLOCK_RECORD
  5
1B
330
1
100
AcDbSymbolTableRecord
100
AcDbBlockTableRecord
  2
*PAPER_SPACE
  0
ENDTAB
  0
ENDSEC
  0
SECTION
  2
BLOCKS
  0
BLOCK
  5
20
330
1F
100
AcDbEntity
  8
0
100
AcDbBlockBegin
  2
*MODEL_SPACE
 70
     0
 10
0.0
 20
0.0
 30
0.0
  3
*MODEL_SPACE
  1

  0
ENDBLK
  5
21
330
1F
100
AcDbEntity
  8
0
100
AcDbBlockEnd
  0
BLOCK
  5
1C
330
1B
100
AcDbEntity
 67
     1
  8
0
100
AcDbBlockBegin
  2
*PAPER_SPACE
  1

  0
ENDBLK
  5
1D
330
1B
100
AcDbEntity
 67
     1
  8
0
100
AcDbBlockEnd
  0
ENDSEC
  0
SECTION
  2
ENTITIES
  0
LINE
  5
100
100
AcDbEntity
  8
Export_Paths
 62
7
100
AcDbLine
 10
23.331392
 20
49.002189
 30
0.0
 11
23.171712
 21
48.991854
 31
0.0
  0
LINE
  5
101
100
AcDbEntity
  8
Export_Paths
 62
7
100
AcDbLine
 10
23.171712
 20
48.991854
 30
0.0
 11
22.549528
 21
48.710218
 31
0.0
  0
LINE
  5
102
100
AcDbEntity
  8
Export_Paths
 62
7
100
AcDbLine
 10
22.549528
 20
48.710218
 30
0.0
 11
22.134049
 21
48.070463
 31
0.0
  0
LINE
  5
103
100
AcDbEntity
  8
Export_Paths
 62
7
100
AcDbLine
 10
22.134049
 20
48.070463
 30
0.0
 11
21.973853
 21
47.364047
 31
0.0
  0
LINE
  5
104
100
AcDbEntity
  8
Export_Paths
 62
7
100
AcDbLine
 10
21.973853
 20
47.364047
 30
0.0
 11
21.975453
 21
46.626107
 31
0.0
  0
LINE
  5
105
100
AcDbEntity
  8
Export_Paths
 62
7
100
AcDbLine
 10
21.975453
 20
46.626107
 30
0.0
 11
22.287578
 21
45.862846
 31
0.0
  0
LINE
  5
106
100
AcDbEntity
  8
Export_Paths
 62
7
100
AcDbLine
 10
22.287578
 20
45.862846
 30
0.0
 11
22.595822
 21
45.715329
 31
0.0
  0
LINE
  5
107
100
AcDbEntity
  8
Export_Paths
 62
7
100
AcDbLine
 10
22.595822
 20
45.715329
 30
0.0
 11
23.023451
 21
45.706267
 31
0.0
  0
LINE
  5
108
100
AcDbEntity
  8
Export_Paths
 62
7
100
AcDbLine
 10
23.023451
 20
45.706267
 30
0.0
 11
23.711781
 21
46.004440
 31
0.0
  0
LINE
  5
109
100
AcDbEntity
  8
Export_Paths
 62
7
100
AcDbLine
 10
23.711781
 20
46.004440
 30
0.0
 11
24.046127
 21
46.425603
 31
0.0
  0
LINE
  5
10a
100
AcDbEntity
  8
Export_Paths
 62
7
100
AcDbLine
 10
24.046127
 20
46.425603
 30
0.0
 11
23.944325
 21
45.906254
 31
0.0
  0
LINE
  5
10b
100
AcDbEntity
  8
Export_Paths
 62
7
100
AcDbLine
 10
23.944325
 20
45.906254
 30
0.0
 11
24.554107
 21
45.916589
 31
0.0
  0
LINE
  5
10c
100
AcDbEntity
  8
Export_Paths
 62
7
100
AcDbLine
 10
24.554107
 20
45.916589
 30
0.0
 11
24.823858
 21
47.296867
 31
0.0
  0
LINE
  5
10d
100
AcDbEntity
  8
Export_Paths
 62
7
100
AcDbLine
 10
24.823858
 20
47.296867
 30
0.0
 11
24.942197
 21
47.548531
 31
0.0
  0
LINE
  5
10e
100
AcDbEntity
  8
Export_Paths
 62
7
100
AcDbLine
 10
24.942197
 20
47.548531
 30
0.0
 11
25.139084
 21
47.674622
 31
0.0
  0
LINE
  5
10f
100
AcDbEntity
  8
Export_Paths
 62
7
100
AcDbLine
 10
25.139084
 20
47.674622
 30
0.0
 11
25.254322
 21
47.621395
 31
0.0
  0
LINE
  5
110
100
AcDbEntity
  8
Export_Paths
 62
7
100
AcDbLine
 10
25.254322
 20
47.621395
 30
0.0
 11
25.299282
 21
47.461198
 31
0.0
  0
LINE
  5
111
100
AcDbEntity
  8
Export_Paths
 62
7
100
AcDbLine
 10
25.299282
 20
47.461198
 30
0.0
 11
25.285332
 21
47.283431
 31
0.0
  0
LINE
  5
112
100
AcDbEntity
  8
Export_Paths
 62
7
100
AcDbLine
 10
25.285332
 20
47.283431
 30
0.0
 11
25.215052
 21
46.934615
 31
0.0
  0
LINE
  5
113
100
AcDbEntity
  8
Export_Paths
 62
7
100
AcDbLine
 10
25.215052
 20
46.934615
 30
0.0
 11
25.140122
 21
46.569263
 31
0.0
  0
LINE
  5
114
100
AcDbEntity
  8
Export_Paths
 62
7
100
AcDbLine
 10
25.140122
 20
46.569263
 30
0.0
 11
25.126682
 21
46.378576
 31
0.0
  0
LINE
  5
115
100
AcDbEntity
  8
Export_Paths
 62
7
100
AcDbLine
 10
25.126682
 20
46.378576
 30
0.0
 11
25.263624
 21
46.029761
 31
0.0
  0
LINE
  5
116
100
AcDbEntity
  8
Export_Paths
 62
7
100
AcDbLine
 10
25.263624
 20
46.029761
 30
0.0
 11
25.633627
 21
45.908838
 31
0.0
  0
LINE
  5
117
100
AcDbEntity
  8
Export_Paths
 62
7
100
AcDbLine
 10
25.633627
 20
45.908838
 30
0.0
 11
26.087863
 21
46.110893
 31
0.0
  0
LINE
  5
118
100
AcDbEntity
  8
Export_Paths
 62
7
100
AcDbLine
 10
26.087863
 20
46.110893
 30
0.0
 11
26.158143
 21
46.195642
 31
0.0
  0
LINE
  5
119
100
AcDbEntity
  8
Export_Paths
 62
7
100
AcDbLine
 10
26.158143
 20
46.195642
 30
0.0
 11
26.083733
 21
45.944494
 31
0.0
  0
LINE
  5
11a
100
AcDbEntity
  8
Export_Paths
 62
7
100
AcDbLine
 10
26.083733
 20
45.944494
 30
0.0
 11
26.691448
 21
45.896952
 31
0.0
  0
LINE
  5
11b
100
AcDbEntity
  8
Export_Paths
 62
7
100
AcDbLine
 10
26.691448
 20
45.896952
 30
0.0
 11
27.155502
 21
47.474117
 31
0.0
  0
LINE
  5
11c
100
AcDbEntity
  8
Export_Paths
 62
7
100
AcDbLine
 10
27.155502
 20
47.474117
 30
0.0
 11
27.338437
 21
47.591422
 31
0.0
  0
LINE
  5
11d
100
AcDbEntity
  8
Export_Paths
 62
7
100
AcDbLine
 10
27.338437
 20
47.591422
 30
0.0
 11
27.475896
 21
47.610026
 31
0.0
  0
LINE
  5
11e
100
AcDbEntity
  8
Export_Paths
 62
7
100
AcDbLine
 10
27.475896
 20
47.610026
 30
0.0
 11
27.520856
 21
47.585221
 31
0.0
  0
LINE
  5
11f
100
AcDbEntity
  8
Export_Paths
 62
7
100
AcDbLine
 10
27.520856
 20
47.585221
 30
0.0
 11
27.543596
 21
47.498921
 31
0.0
  0
LINE
  5
120
100
AcDbEntity
  8
Export_Paths
 62
7
100
AcDbLine
 10
27.543596
 20
47.498921
 30
0.0
 11
27.587516
 21
47.355261
 31
0.0
  0
LINE
  5
121
100
AcDbEntity
  8
Export_Paths
 62
7
100
AcDbLine
 10
27.587516
 20
47.355261
 30
0.0
 11
27.698621
 21
47.312370
 31
0.0
  0
LINE
  5
122
100
AcDbEntity
  8
Export_Paths
 62
7
100
AcDbLine
 10
27.698621
 20
47.312370
 30
0.0
 11
27.925480
 21
47.383683
 31
0.0
  0
LINE
  5
123
100
AcDbEntity
  8
Export_Paths
 62
7
100
AcDbLine
 10
27.925480
 20
47.383683
 30
0.0
 11
28.026766
 21
47.596590
 31
0.0
  0
LINE
  5
124
100
AcDbEntity
  8
Export_Paths
 62
7
100
AcDbLine
 10
28.026766
 20
47.596590
 30
0.0
 11
27.964236
 21
47.826550
 31
0.0
  0
LINE
  5
125
100
AcDbEntity
  8
Export_Paths
 62
7
100
AcDbLine
 10
27.964236
 20
47.826550
 30
0.0
 11
27.760630
 21
47.936104
 31
0.0
  0
LINE
  5
126
100
AcDbEntity
  8
Export_Paths
 62
7
100
AcDbLine
 10
27.760630
 20
47.936104
 30
0.0
 11
27.536871
 21
47.898380
 31
0.0
  0
LINE
  5
127
100
AcDbEntity
  8
Export_Paths
 62
7
100
AcDbLine
 10
27.536871
 20
47.898380
 30
0.0
 11
27.229397
 21
47.714412
 31
0.0
  0
LINE
  5
128
100
AcDbEntity
  8
Export_Paths
 62
7
100
AcDbLine
 10
27.229397
 20
47.714412
 30
0.0
 11
27.304847
 21
47.971760
 31
0.0
  0
LINE
  5
129
100
AcDbEntity
  8
Export_Paths
 62
7
100
AcDbLine
 10
27.304847
 20
47.971760
 30
0.0
 11
26.697132
 21
48.019819
 31
0.0
  0
LINE
  5
12a
100
AcDbEntity
  8
Export_Paths
 62
7
100
AcDbLine
 10
26.697132
 20
48.019819
 30
0.0
 11
26.308009
 21
46.703104
 31
0.0
  0
LINE
  5
12b
100
AcDbEntity
  8
Export_Paths
 62
7
100
AcDbLine
 10
26.308009
 20
46.703104
 30
0.0
 11
26.230499
 21
46.701554
 31
0.0
  0
LINE
  5
12c
100
AcDbEntity
  8
Export_Paths
 62
7
100
AcDbLine
 10
26.230499
 20
46.701554
 30
0.0
 11
26.062034
 21
46.398213
 31
0.0
  0
LINE
  5
12d
100
AcDbEntity
  8
Export_Paths
 62
7
100
AcDbLine
 10
26.062034
 20
46.398213
 30
0.0
 11
25.881167
 21
46.323282
 31
0.0
  0
LINE
  5
12e
100
AcDbEntity
  8
Export_Paths
 62
7
100
AcDbLine
 10
25.881167
 20
46.323282
 30
0.0
 11
25.753526
 21
46.363590
 31
0.0
  0
LINE
  5
12f
100
AcDbEntity
  8
Export_Paths
 62
7
100
AcDbLine
 10
25.753526
 20
46.363590
 30
0.0
 11
25.709086
 21
46.498466
 31
0.0
  0
LINE
  5
130
100
AcDbEntity
  8
Export_Paths
 62
7
100
AcDbLine
 10
25.709086
 20
46.498466
 30
0.0
 11
25.723556
 21
46.646777
 31
0.0
  0
LINE
  5
131
100
AcDbEntity
  8
Export_Paths
 62
7
100
AcDbLine
 10
25.723556
 20
46.646777
 30
0.0
 11
25.790216
 21
46.952702
 31
0.0
  0
LINE
  5
132
100
AcDbEntity
  8
Export_Paths
 62
7
100
AcDbLine
 10
25.790216
 20
46.952702
 30
0.0
 11
25.872386
 21
47.360429
 31
0.0
  0
LINE
  5
133
100
AcDbEntity
  8
Export_Paths
 62
7
100
AcDbLine
 10
25.872386
 20
47.360429
 30
0.0
 11
25.894086
 21
47.593489
 31
0.0
  0
LINE
  5
134
100
AcDbEntity
  8
Export_Paths
 62
7
100
AcDbLine
 10
25.894086
 20
47.593489
 30
0.0
 11
25.765411
 21
47.947473
 31
0.0
  0
LINE
  5
135
100
AcDbEntity
  8
Export_Paths
 62
7
100
AcDbLine
 10
25.765411
 20
47.947473
 30
0.0
 11
25.416595
 21
48.064262
 31
0.0
  0
LINE
  5
136
100
AcDbEntity
  8
Export_Paths
 62
7
100
AcDbLine
 10
25.416595
 20
48.064262
 30
0.0
 11
25.150979
 21
48.000700
 31
0.0
  0
LINE
  5
137
100
AcDbEntity
  8
Export_Paths
 62
7
100
AcDbLine
 10
25.150979
 20
48.000700
 30
0.0
 11
24.925153
 21
47.819315
 31
0.0
  0
LINE
  5
138
100
AcDbEntity
  8
Export_Paths
 62
7
100
AcDbLine
 10
24.925153
 20
47.819315
 30
0.0
 11
25.136509
 21
48.889534
 31
0.0
  0
LINE
  5
139
100
AcDbEntity
  8
Export_Paths
 62
7
100
AcDbLine
 10
25.136509
 20
48.889534
 30
0.0
 11
24.511224
 21
48.794449
 31
0.0
  0
LINE
  5
13a
100
AcDbEntity
  8
Export_Paths
 62
7
100
AcDbLine
 10
24.511224
 20
48.794449
 30
0.0
 11
24.089545
 21
46.646260
 31
0.0
  0
LINE
  5
13b
100
AcDbEntity
  8
Export_Paths
 62
7
100
AcDbLine
 10
24.089545
 20
46.646260
 30
0.0
 11
24.022365
 21
46.665897
 31
0.0
  0
LINE
  5
13c
100
AcDbEntity
  8
Export_Paths
 62
7
100
AcDbLine
 10
24.022365
 20
46.665897
 30
0.0
 11
23.695253
 21
46.309846
 31
0.0
  0
LINE
  5
13d
100
AcDbEntity
  8
Export_Paths
 62
7
100
AcDbLine
 10
23.695253
 20
46.309846
 30
0.0
 11
23.254970
 21
46.144482
 31
0.0
  0
LINE
  5
13e
100
AcDbEntity
  8
Export_Paths
 62
7
100
AcDbLine
 10
23.254970
 20
46.144482
 30
0.0
 11
22.853961
 21
46.248351
 31
0.0
  0
LINE
  5
13f
100
AcDbEntity
  8
Export_Paths
 62
7
100
AcDbLine
 10
22.853961
 20
46.248351
 30
0.0
 11
22.669993
 21
46.737211
 31
0.0
  0
LINE
  5
140
100
AcDbEntity
  8
Export_Paths
 62
7
100
AcDbLine
 10
22.669993
 20
46.737211
 30
0.0
 11
22.651903
 21
47.298417
 31
0.0
  0
LINE
  5
141
100
AcDbEntity
  8
Export_Paths
 62
7
100
AcDbLine
 10
22.651903
 20
47.298417
 30
0.0
 11
22.724763
 21
47.878743
 31
0.0
  0
LINE
  5
142
100
AcDbEntity
  8
Export_Paths
 62
7
100
AcDbLine
 10
22.724763
 20
47.878743
 30
0.0
 11
22.963508
 21
48.535550
 31
0.0
  0
LINE
  5
143
100
AcDbEntity
  8
Export_Paths
 62
7
100
AcDbLine
 10
22.963508
 20
48.535550
 30
0.0
 11
23.300955
 21
48.807368
 31
0.0
  0
LINE
  5
144
100
AcDbEntity
  8
Export_Paths
 62
7
100
AcDbLine
 10
23.300955
 20
48.807368
 30
0.0
 11
23.498359
 21
48.763443
 31
0.0
  0
LINE
  5
145
100
AcDbEntity
  8
Export_Paths
 62
7
100
AcDbLine
 10
23.498359
 20
48.763443
 30
0.0
 11
23.589309
 21
48.583093
 31
0.0
  0
LINE
  5
146
100
AcDbEntity
  8
Export_Paths
 62
7
100
AcDbLine
 10
23.589309
 20
48.583093
 30
0.0
 11
23.559339
 21
48.340213
 31
0.0
  0
LINE
  5
147
100
AcDbEntity
  8
Export_Paths
 62
7
100
AcDbLine
 10
23.559339
 20
48.340213
 30
0.0
 11
23.443584
 21
48.172265
 31
0.0
  0
LINE
  5
148
100
AcDbEntity
  8
Export_Paths
 62
7
100
AcDbLine
 10
23.443584
 20
48.172265
 30
0.0
 11
23.558823
 21
48.101468
 31
0.0
  0
LINE
  5
149
100
AcDbEntity
  8
Export_Paths
 62
7
100
AcDbLine
 10
23.558823
 20
48.101468
 30
0.0
 11
23.696799
 21
48.092678
 31
0.0
  0
LINE
  5
14a
100
AcDbEntity
  8
Export_Paths
 62
7
100
AcDbLine
 10
23.696799
 20
48.092678
 30
0.0
 11
23.902988
 21
48.216701
 31
0.0
  0
LINE
  5
14b
100
AcDbEntity
  8
Export_Paths
 62
7
100
AcDbLine
 10
23.902988
 20
48.216701
 30
0.0
 11
23.942778
 21
48.515908
 31
0.0
  0
LINE
  5
14c
100
AcDbEntity
  8
Export_Paths
 62
7
100
AcDbLine
 10
23.942778
 20
48.515908
 30
0.0
 11
23.706616
 21
48.908649
 31
0.0
  0
LINE
  5
14d
100
AcDbEntity
  8
Export_Paths
 62
7
100
AcDbLine
 10
23.706616
 20
48.908649
 30
0.0
 11
23.331445
 21
49.002183
 31
0.0
  0
LINE
  5
14e
100
AcDbEntity
  8
Export_Paths
 62
7
100
AcDbLine
 10
23.331445
 20
49.002183
 30
0.0
 11
23.331392
 21
49.002189
 31
0.0
  0
LINE
  5
14f
100
AcDbEntity
  8
Export_Paths
 62
7
100
AcDbLine
 10
29.016833
 20
48.676628
 30
0.0
 11
28.767753
 21
48.610999
 31
0.0
  0
LINE
  5
150
100
AcDbEntity
  8
Export_Paths
 62
7
100
AcDbLine
 10
28.767753
 20
48.610999
 30
0.0
 11
28.636495
 21
48.390857
 31
0.0
  0
LINE
  5
151
100
AcDbEntity
  8
Export_Paths
 62
7
100
AcDbLine
 10
28.636495
 20
48.390857
 30
0.0
 11
28.697995
 21
48.141777
 31
0.0
  0
LINE
  5
152
100
AcDbEntity
  8
Export_Paths
 62
7
100
AcDbLine
 10
28.697995
 20
48.141777
 30
0.0
 11
28.918137
 21
48.010519
 31
0.0
  0
LINE
  5
153
100
AcDbEntity
  8
Export_Paths
 62
7
100
AcDbLine
 10
28.918137
 20
48.010519
 30
0.0
 11
29.166700
 21
48.072014
 31
0.0
  0
LINE
  5
154
100
AcDbEntity
  8
Export_Paths
 62
7
100
AcDbLine
 10
29.166700
 20
48.072014
 30
0.0
 11
29.302092
 21
48.291638
 31
0.0
  0
LINE
  5
155
100
AcDbEntity
  8
Export_Paths
 62
7
100
AcDbLine
 10
29.302092
 20
48.291638
 30
0.0
 11
29.236462
 21
48.541236
 31
0.0
  0
LINE
  5
156
100
AcDbEntity
  8
Export_Paths
 62
7
100
AcDbLine
 10
29.236462
 20
48.541236
 30
0.0
 11
29.016833
 21
48.676628
 31
0.0
  0
LINE
  5
157
100
AcDbEntity
  8
Export_Paths
 62
7
100
AcDbLine
 10
29.016833
 20
48.676628
 30
0.0
 11
29.016833
 21
48.676628
 31
0.0
  0
LINE
  5
158
100
AcDbEntity
  8
Export_Paths
 62
7
100
AcDbLine
 10
28.469580
 20
47.846187
 30
0.0
 11
27.984855
 21
46.544975
 31
0.0
  0
LINE
  5
159
100
AcDbEntity
  8
Export_Paths
 62
7
100
AcDbLine
 10
27.984855
 20
46.544975
 30
0.0
 11
27.937315
 21
46.397697
 31
0.0
  0
LINE
  5
15a
100
AcDbEntity
  8
Export_Paths
 62
7
100
AcDbLine
 10
27.937315
 20
46.397697
 30
0.0
 11
27.910445
 21
46.277808
 31
0.0
  0
LINE
  5
15b
100
AcDbEntity
  8
Export_Paths
 62
7
100
AcDbLine
 10
27.910445
 20
46.277808
 30
0.0
 11
27.972455
 21
45.887651
 31
0.0
  0
LINE
  5
15c
100
AcDbEntity
  8
Export_Paths
 62
7
100
AcDbLine
 10
27.972455
 20
45.887651
 30
0.0
 11
28.284064
 21
45.708333
 31
0.0
  0
LINE
  5
15d
100
AcDbEntity
  8
Export_Paths
 62
7
100
AcDbLine
 10
28.284064
 20
45.708333
 30
0.0
 11
28.832351
 21
45.827706
 31
0.0
  0
LINE
  5
15e
100
AcDbEntity
  8
Export_Paths
 62
7
100
AcDbLine
 10
28.832351
 20
45.827706
 30
0.0
 11
28.971360
 21
45.937260
 31
0.0
  0
LINE
  5
15f
100
AcDbEntity
  8
Export_Paths
 62
7
100
AcDbLine
 10
28.971360
 20
45.937260
 30
0.0
 11
29.049390
 21
45.754325
 31
0.0
  0
LINE
  5
160
100
AcDbEntity
  8
Export_Paths
 62
7
100
AcDbLine
 10
29.049390
 20
45.754325
 30
0.0
 11
29.459184
 21
45.508346
 31
0.0
  0
LINE
  5
161
100
AcDbEntity
  8
Export_Paths
 62
7
100
AcDbLine
 10
29.459184
 20
45.508346
 30
0.0
 11
29.836422
 21
45.489742
 31
0.0
  0
LINE
  5
162
100
AcDbEntity
  8
Export_Paths
 62
7
100
AcDbLine
 10
29.836422
 20
45.489742
 30
0.0
 11
30.163017
 21
45.613248
 31
0.0
  0
LINE
  5
163
100
AcDbEntity
  8
Export_Paths
 62
7
100
AcDbLine
 10
30.163017
 20
45.613248
 30
0.0
 11
30.562992
 21
45.776546
 31
0.0
  0
LINE
  5
164
100
AcDbEntity
  8
Export_Paths
 62
7
100
AcDbLine
 10
30.562992
 20
45.776546
 30
0.0
 11
30.714921
 21
45.861295
 31
0.0
  0
LINE
  5
165
100
AcDbEntity
  8
Export_Paths
 62
7
100
AcDbLine
 10
30.714921
 20
45.861295
 30
0.0
 11
30.674611
 21
45.752774
 31
0.0
  0
LINE
  5
166
100
AcDbEntity
  8
Export_Paths
 62
7
100
AcDbLine
 10
30.674611
 20
45.752774
 30
0.0
 11
30.682411
 21
45.357966
 31
0.0
  0
LINE
  5
167
100
AcDbEntity
  8
Export_Paths
 62
7
100
AcDbLine
 10
30.682411
 20
45.357966
 30
0.0
 11
30.966115
 21
45.137825
 31
0.0
  0
LINE
  5
168
100
AcDbEntity
  8
Export_Paths
 62
7
100
AcDbLine
 10
30.966115
 20
45.137825
 30
0.0
 11
31.525770
 21
45.180716
 31
0.0
  0
LINE
  5
169
100
AcDbEntity
  8
Export_Paths
 62
7
100
AcDbLine
 10
31.525770
 20
45.180716
 30
0.0
 11
31.648243
 21
45.249446
 31
0.0
  0
LINE
  5
16a
100
AcDbEntity
  8
Export_Paths
 62
7
100
AcDbLine
 10
31.648243
 20
45.249446
 30
0.0
 11
31.528354
 21
45.075296
 31
0.0
  0
LINE
  5
16b
100
AcDbEntity
  8
Export_Paths
 62
7
100
AcDbLine
 10
31.528354
 20
45.075296
 30
0.0
 11
32.091110
 21
44.841202
 31
0.0
  0
LINE
  5
16c
100
AcDbEntity
  8
Export_Paths
 62
7
100
AcDbLine
 10
32.091110
 20
44.841202
 30
0.0
 11
32.879176
 21
45.984801
 31
0.0
  0
LINE
  5
16d
100
AcDbEntity
  8
Export_Paths
 62
7
100
AcDbLine
 10
32.879176
 20
45.984801
 30
0.0
 11
33.122572
 21
46.195124
 31
0.0
  0
LINE
  5
16e
100
AcDbEntity
  8
Export_Paths
 62
7
100
AcDbLine
 10
33.122572
 20
46.195124
 30
0.0
 11
33.346848
 21
46.216311
 31
0.0
  0
LINE
  5
16f
100
AcDbEntity
  8
Export_Paths
 62
7
100
AcDbLine
 10
33.346848
 20
46.216311
 30
0.0
 11
33.413508
 21
46.133629
 31
0.0
  0
LINE
  5
170
100
AcDbEntity
  8
Export_Paths
 62
7
100
AcDbLine
 10
33.413508
 20
46.133629
 30
0.0
 11
33.392318
 21
45.995653
 31
0.0
  0
LINE
  5
171
100
AcDbEntity
  8
Export_Paths
 62
7
100
AcDbLine
 10
33.392318
 20
45.995653
 30
0.0
 11
33.367508
 21
45.946560
 31
0.0
  0
LINE
  5
172
100
AcDbEntity
  8
Export_Paths
 62
7
100
AcDbLine
 10
33.367508
 20
45.946560
 30
0.0
 11
33.340118
 21
45.902635
 31
0.0
  0
LINE
  5
173
100
AcDbEntity
  8
Export_Paths
 62
7
100
AcDbLine
 10
33.340118
 20
45.902635
 30
0.0
 11
32.493141
 21
44.673253
 31
0.0
  0
LINE
  5
174
100
AcDbEntity
  8
Export_Paths
 62
7
100
AcDbLine
 10
32.493141
 20
44.673253
 30
0.0
 11
33.055897
 21
44.439159
 31
0.0
  0
LINE
  5
175
100
AcDbEntity
  8
Export_Paths
 62
7
100
AcDbLine
 10
33.055897
 20
44.439159
 30
0.0
 11
33.844480
 21
45.582758
 31
0.0
  0
LINE
  5
176
100
AcDbEntity
  8
Export_Paths
 62
7
100
AcDbLine
 10
33.844480
 20
45.582758
 30
0.0
 11
34.082191
 21
45.791014
 31
0.0
  0
LINE
  5
177
100
AcDbEntity
  8
Export_Paths
 62
7
100
AcDbLine
 10
34.082191
 20
45.791014
 30
0.0
 11
34.298716
 21
45.815302
 31
0.0
  0
LINE
  5
178
100
AcDbEntity
  8
Export_Paths
 62
7
100
AcDbLine
 10
34.298716
 20
45.815302
 30
0.0
 11
34.382946
 21
45.720734
 31
0.0
  0
LINE
  5
179
100
AcDbEntity
  8
Export_Paths
 62
7
100
AcDbLine
 10
34.382946
 20
45.720734
 30
0.0
 11
34.356586
 21
45.557437
 31
0.0
  0
LINE
  5
17a
100
AcDbEntity
  8
Export_Paths
 62
7
100
AcDbLine
 10
34.356586
 20
45.557437
 30
0.0
 11
34.272356
 21
45.399824
 31
0.0
  0
LINE
  5
17b
100
AcDbEntity
  8
Export_Paths
 62
7
100
AcDbLine
 10
34.272356
 20
45.399824
 30
0.0
 11
34.068751
 21
45.108885
 31
0.0
  0
LINE
  5
17c
100
AcDbEntity
  8
Export_Paths
 62
7
100
AcDbLine
 10
34.068751
 20
45.108885
 30
0.0
 11
33.854293
 21
44.803478
 31
0.0
  0
LINE
  5
17d
100
AcDbEntity
  8
Export_Paths
 62
7
100
AcDbLine
 10
33.854293
 20
44.803478
 30
0.0
 11
33.765923
 21
44.634496
 31
0.0
  0
LINE
  5
17e
100
AcDbEntity
  8
Export_Paths
 62
7
100
AcDbLine
 10
33.765923
 20
44.634496
 30
0.0
 11
33.751973
 21
44.259325
 31
0.0
  0
LINE
  5
17f
100
AcDbEntity
  8
Export_Paths
 62
7
100
AcDbLine
 10
33.751973
 20
44.259325
 30
0.0
 11
34.042911
 21
44.000426
 31
0.0
  0
LINE
  5
180
100
AcDbEntity
  8
Export_Paths
 62
7
100
AcDbLine
 10
34.042911
 20
44.000426
 30
0.0
 11
34.540039
 21
44.004556
 31
0.0
  0
LINE
  5
181
100
AcDbEntity
  8
Export_Paths
 62
7
100
AcDbLine
 10
34.540039
 20
44.004556
 30
0.0
 11
34.814440
 21
44.174055
 31
0.0
  0
LINE
  5
182
100
AcDbEntity
  8
Export_Paths
 62
7
100
AcDbLine
 10
34.814440
 20
44.174055
 30
0.0
 11
34.770000
 21
43.839191
 31
0.0
  0
LINE
  5
183
100
AcDbEntity
  8
Export_Paths
 62
7
100
AcDbLine
 10
34.770000
 20
43.839191
 30
0.0
 11
35.037684
 21
43.475906
 31
0.0
  0
LINE
  5
184
100
AcDbEntity
  8
Export_Paths
 62
7
100
AcDbLine
 10
35.037684
 20
43.475906
 30
0.0
 11
35.379265
 21
43.388573
 31
0.0
  0
LINE
  5
185
100
AcDbEntity
  8
Export_Paths
 62
7
100
AcDbLine
 10
35.379265
 20
43.388573
 30
0.0
 11
35.779240
 21
43.492443
 31
0.0
  0
LINE
  5
186
100
AcDbEntity
  8
Export_Paths
 62
7
100
AcDbLine
 10
35.779240
 20
43.492443
 30
0.0
 11
35.739450
 21
43.182384
 31
0.0
  0
LINE
  5
187
100
AcDbEntity
  8
Export_Paths
 62
7
100
AcDbLine
 10
35.739450
 20
43.182384
 30
0.0
 11
35.939954
 21
42.946740
 31
0.0
  0
LINE
  5
188
100
AcDbEntity
  8
Export_Paths
 62
7
100
AcDbLine
 10
35.939954
 20
42.946740
 30
0.0
 11
36.469121
 21
42.861991
 31
0.0
  0
LINE
  5
189
100
AcDbEntity
  8
Export_Paths
 62
7
100
AcDbLine
 10
36.469121
 20
42.861991
 30
0.0
 11
36.619499
 21
42.908500
 31
0.0
  0
LINE
  5
18a
100
AcDbEntity
  8
Export_Paths
 62
7
100
AcDbLine
 10
36.619499
 20
42.908500
 30
0.0
 11
36.617899
 21
42.704894
 31
0.0
  0
LINE
  5
18b
100
AcDbEntity
  8
Export_Paths
 62
7
100
AcDbLine
 10
36.617899
 20
42.704894
 30
0.0
 11
36.895401
 21
42.315771
 31
0.0
  0
LINE
  5
18c
100
AcDbEntity
  8
Export_Paths
 62
7
100
AcDbLine
 10
36.895401
 20
42.315771
 30
0.0
 11
37.234399
 21
42.148339
 31
0.0
  0
LINE
  5
18d
100
AcDbEntity
  8
Export_Paths
 62
7
100
AcDbLine
 10
37.234399
 20
42.148339
 30
0.0
 11
37.582698
 21
42.131286
 31
0.0
  0
LINE
  5
18e
100
AcDbEntity
  8
Export_Paths
 62
7
100
AcDbLine
 10
37.582698
 20
42.131286
 30
0.0
 11
38.014713
 21
42.121466
 31
0.0
  0
LINE
  5
18f
100
AcDbEntity
  8
Export_Paths
 62
7
100
AcDbLine
 10
38.014713
 20
42.121466
 30
0.0
 11
38.417789
 21
42.179860
 31
0.0
  0
LINE
  5
190
100
AcDbEntity
  8
Export_Paths
 62
7
100
AcDbLine
 10
38.417789
 20
42.179860
 30
0.0
 11
38.273633
 21
42.284253
 31
0.0
  0
LINE
  5
191
100
AcDbEntity
  8
Export_Paths
 62
7
100
AcDbLine
 10
38.273633
 20
42.284253
 30
0.0
 11
38.098450
 21
42.280633
 31
0.0
  0
LINE
  5
192
100
AcDbEntity
  8
Export_Paths
 62
7
100
AcDbLine
 10
38.098450
 20
42.280633
 30
0.0
 11
37.902596
 21
42.291485
 31
0.0
  0
LINE
  5
193
100
AcDbEntity
  8
Export_Paths
 62
7
100
AcDbLine
 10
37.902596
 20
42.291485
 30
0.0
 11
37.955306
 21
42.342645
 31
0.0
  0
LINE
  5
194
100
AcDbEntity
  8
Export_Paths
 62
7
100
AcDbLine
 10
37.955306
 20
42.342645
 30
0.0
 11
38.010596
 21
42.411891
 31
0.0
  0
LINE
  5
195
100
AcDbEntity
  8
Export_Paths
 62
7
100
AcDbLine
 10
38.010596
 20
42.411891
 30
0.0
 11
38.089146
 21
42.527646
 31
0.0
  0
LINE
  5
196
100
AcDbEntity
  8
Export_Paths
 62
7
100
AcDbLine
 10
38.089146
 20
42.527646
 30
0.0
 11
38.221954
 21
42.740036
 31
0.0
  0
LINE
  5
197
100
AcDbEntity
  8
Export_Paths
 62
7
100
AcDbLine
 10
38.221954
 20
42.740036
 30
0.0
 11
38.523228
 21
43.227345
 31
0.0
  0
LINE
  5
198
100
AcDbEntity
  8
Export_Paths
 62
7
100
AcDbLine
 10
38.523228
 20
43.227345
 30
0.0
 11
38.839488
 21
43.714654
 31
0.0
  0
LINE
  5
199
100
AcDbEntity
  8
Export_Paths
 62
7
100
AcDbLine
 10
38.839488
 20
43.714654
 30
0.0
 11
38.282418
 21
44.013346
 31
0.0
  0
LINE
  5
19a
100
AcDbEntity
  8
Export_Paths
 62
7
100
AcDbLine
 10
38.282418
 20
44.013346
 30
0.0
 11
37.664368
 21
43.593217
 31
0.0
  0
LINE
  5
19b
100
AcDbEntity
  8
Export_Paths
 62
7
100
AcDbLine
 10
37.664368
 20
43.593217
 30
0.0
 11
37.125382
 21
43.304346
 31
0.0
  0
LINE
  5
19c
100
AcDbEntity
  8
Export_Paths
 62
7
100
AcDbLine
 10
37.125382
 20
43.304346
 30
0.0
 11
36.923328
 21
43.277991
 31
0.0
  0
LINE
  5
19d
100
AcDbEntity
  8
Export_Paths
 62
7
100
AcDbLine
 10
36.923328
 20
43.277991
 30
0.0
 11
36.916628
 21
43.281611
 31
0.0
  0
LINE
  5
19e
100
AcDbEntity
  8
Export_Paths
 62
7
100
AcDbLine
 10
36.916628
 20
43.281611
 30
0.0
 11
36.905258
 21
43.272311
 31
0.0
  0
LINE
  5
19f
100
AcDbEntity
  8
Export_Paths
 62
7
100
AcDbLine
 10
36.905258
 20
43.272311
 30
0.0
 11
36.903158
 21
43.271794
 31
0.0
  0
LINE
  5
1a0
100
AcDbEntity
  8
Export_Paths
 62
7
100
AcDbLine
 10
36.903158
 20
43.271794
 30
0.0
 11
36.746578
 21
43.152938
 31
0.0
  0
LINE
  5
1a1
100
AcDbEntity
  8
Export_Paths
 62
7
100
AcDbLine
 10
36.746578
 20
43.152938
 30
0.0
 11
36.642709
 21
43.099195
 31
0.0
  0
LINE
  5
1a2
100
AcDbEntity
  8
Export_Paths
 62
7
100
AcDbLine
 10
36.642709
 20
43.099195
 30
0.0
 11
36.419466
 21
43.112114
 31
0.0
  0
LINE
  5
1a3
100
AcDbEntity
  8
Export_Paths
 62
7
100
AcDbLine
 10
36.419466
 20
43.112114
 30
0.0
 11
36.327996
 21
43.214950
 31
0.0
  0
LINE
  5
1a4
100
AcDbEntity
  8
Export_Paths
 62
7
100
AcDbLine
 10
36.327996
 20
43.214950
 30
0.0
 11
36.362106
 21
43.357060
 31
0.0
  0
LINE
  5
1a5
100
AcDbEntity
  8
Export_Paths
 62
7
100
AcDbLine
 10
36.362106
 20
43.357060
 30
0.0
 11
36.397766
 21
43.409253
 31
0.0
  0
LINE
  5
1a6
100
AcDbEntity
  8
Export_Paths
 62
7
100
AcDbLine
 10
36.397766
 20
43.409253
 30
0.0
 11
36.445306
 21
43.465064
 31
0.0
  0
LINE
  5
1a7
100
AcDbEntity
  8
Export_Paths
 62
7
100
AcDbLine
 10
36.445306
 20
43.465064
 30
0.0
 11
37.436475
 21
44.552332
 31
0.0
  0
LINE
  5
1a8
100
AcDbEntity
  8
Export_Paths
 62
7
100
AcDbLine
 10
37.436475
 20
44.552332
 30
0.0
 11
36.910409
 21
44.860840
 31
0.0
  0
LINE
  5
1a9
100
AcDbEntity
  8
Export_Paths
 62
7
100
AcDbLine
 10
36.910409
 20
44.860840
 30
0.0
 11
36.756930
 21
44.690824
 31
0.0
  0
LINE
  5
1aa
100
AcDbEntity
  8
Export_Paths
 62
7
100
AcDbLine
 10
36.756930
 20
44.690824
 30
0.0
 11
36.771916
 21
44.716146
 31
0.0
  0
LINE
  5
1ab
100
AcDbEntity
  8
Export_Paths
 62
7
100
AcDbLine
 10
36.771916
 20
44.716146
 30
0.0
 11
36.774500
 21
44.896497
 31
0.0
  0
LINE
  5
1ac
100
AcDbEntity
  8
Export_Paths
 62
7
100
AcDbLine
 10
36.774500
 20
44.896497
 30
0.0
 11
36.585364
 21
45.076331
 31
0.0
  0
LINE
  5
1ad
100
AcDbEntity
  8
Export_Paths
 62
7
100
AcDbLine
 10
36.585364
 20
45.076331
 30
0.0
 11
36.125960
 21
45.188468
 31
0.0
  0
LINE
  5
1ae
100
AcDbEntity
  8
Export_Paths
 62
7
100
AcDbLine
 10
36.125960
 20
45.188468
 30
0.0
 11
35.619014
 21
45.044291
 31
0.0
  0
LINE
  5
1af
100
AcDbEntity
  8
Export_Paths
 62
7
100
AcDbLine
 10
35.619014
 20
45.044291
 30
0.0
 11
35.209737
 21
44.739400
 31
0.0
  0
LINE
  5
1b0
100
AcDbEntity
  8
Export_Paths
 62
7
100
AcDbLine
 10
35.209737
 20
44.739400
 30
0.0
 11
34.974609
 21
44.460864
 31
0.0
  0
LINE
  5
1b1
100
AcDbEntity
  8
Export_Paths
 62
7
100
AcDbLine
 10
34.974609
 20
44.460864
 30
0.0
 11
34.906909
 21
44.489286
 31
0.0
  0
LINE
  5
1b2
100
AcDbEntity
  8
Export_Paths
 62
7
100
AcDbLine
 10
34.906909
 20
44.489286
 30
0.0
 11
34.630957
 21
44.278446
 31
0.0
  0
LINE
  5
1b3
100
AcDbEntity
  8
Export_Paths
 62
7
100
AcDbLine
 10
34.630957
 20
44.278446
 30
0.0
 11
34.435103
 21
44.282066
 31
0.0
  0
LINE
  5
1b4
100
AcDbEntity
  8
Export_Paths
 62
7
100
AcDbLine
 10
34.435103
 20
44.282066
 30
0.0
 11
34.334334
 21
44.369916
 31
0.0
  0
LINE
  5
1b5
100
AcDbEntity
  8
Export_Paths
 62
7
100
AcDbLine
 10
34.334334
 20
44.369916
 30
0.0
 11
34.347254
 21
44.511510
 31
0.0
  0
LINE
  5
1b6
100
AcDbEntity
  8
Export_Paths
 62
7
100
AcDbLine
 10
34.347254
 20
44.511510
 30
0.0
 11
34.419604
 21
44.641734
 31
0.0
  0
LINE
  5
1b7
100
AcDbEntity
  8
Export_Paths
 62
7
100
AcDbLine
 10
34.419604
 20
44.641734
 30
0.0
 11
34.603573
 21
44.895466
 31
0.0
  0
LINE
  5
1b8
100
AcDbEntity
  8
Export_Paths
 62
7
100
AcDbLine
 10
34.603573
 20
44.895466
 30
0.0
 11
34.841801
 21
45.236530
 31
0.0
  0
LINE
  5
1b9
100
AcDbEntity
  8
Export_Paths
 62
7
100
AcDbLine
 10
34.841801
 20
45.236530
 30
0.0
 11
34.954456
 21
45.441686
 31
0.0
  0
LINE
  5
1ba
100
AcDbEntity
  8
Export_Paths
 62
7
100
AcDbLine
 10
34.954456
 20
45.441686
 30
0.0
 11
34.978226
 21
45.816856
 31
0.0
  0
LINE
  5
1bb
100
AcDbEntity
  8
Export_Paths
 62
7
100
AcDbLine
 10
34.978226
 20
45.816856
 30
0.0
 11
34.704857
 21
46.063870
 31
0.0
  0
LINE
  5
1bc
100
AcDbEntity
  8
Export_Paths
 62
7
100
AcDbLine
 10
34.704857
 20
46.063870
 30
0.0
 11
34.369477
 21
46.106761
 31
0.0
  0
LINE
  5
1bd
100
AcDbEntity
  8
Export_Paths
 62
7
100
AcDbLine
 10
34.369477
 20
46.106761
 30
0.0
 11
34.023245
 21
45.957933
 31
0.0
  0
LINE
  5
1be
100
AcDbEntity
  8
Export_Paths
 62
7
100
AcDbLine
 10
34.023245
 20
45.957933
 30
0.0
 11
33.994305
 21
46.263340
 31
0.0
  0
LINE
  5
1bf
100
AcDbEntity
  8
Export_Paths
 62
7
100
AcDbLine
 10
33.994305
 20
46.263340
 30
0.0
 11
33.760728
 21
46.461261
 31
0.0
  0
LINE
  5
1c0
100
AcDbEntity
  8
Export_Paths
 62
7
100
AcDbLine
 10
33.760728
 20
46.461261
 30
0.0
 11
33.475991
 21
46.515521
 31
0.0
  0
LINE
  5
1c1
100
AcDbEntity
  8
Export_Paths
 62
7
100
AcDbLine
 10
33.475991
 20
46.515521
 30
0.0
 11
33.191254
 21
46.436973
 31
0.0
  0
LINE
  5
1c2
100
AcDbEntity
  8
Export_Paths
 62
7
100
AcDbLine
 10
33.191254
 20
46.436973
 30
0.0
 11
33.318894
 21
46.622492
 31
0.0
  0
LINE
  5
1c3
100
AcDbEntity
  8
Export_Paths
 62
7
100
AcDbLine
 10
33.318894
 20
46.622492
 30
0.0
 11
32.756138
 21
46.857103
 31
0.0
  0
LINE
  5
1c4
100
AcDbEntity
  8
Export_Paths
 62
7
100
AcDbLine
 10
32.756138
 20
46.857103
 30
0.0
 11
31.937067
 21
45.668545
 31
0.0
  0
LINE
  5
1c5
100
AcDbEntity
  8
Export_Paths
 62
7
100
AcDbLine
 10
31.937067
 20
45.668545
 30
0.0
 11
31.869367
 21
45.688699
 31
0.0
  0
LINE
  5
1c6
100
AcDbEntity
  8
Export_Paths
 62
7
100
AcDbLine
 10
31.869367
 20
45.688699
 30
0.0
 11
31.642507
 21
45.472691
 31
0.0
  0
LINE
  5
1c7
100
AcDbEntity
  8
Export_Paths
 62
7
100
AcDbLine
 10
31.642507
 20
45.472691
 30
0.0
 11
31.398594
 21
45.438584
 31
0.0
  0
LINE
  5
1c8
100
AcDbEntity
  8
Export_Paths
 62
7
100
AcDbLine
 10
31.398594
 20
45.438584
 30
0.0
 11
31.278188
 21
45.509381
 31
0.0
  0
LINE
  5
1c9
100
AcDbEntity
  8
Export_Paths
 62
7
100
AcDbLine
 10
31.278188
 20
45.509381
 30
0.0
 11
31.276088
 21
45.638056
 31
0.0
  0
LINE
  5
1ca
100
AcDbEntity
  8
Export_Paths
 62
7
100
AcDbLine
 10
31.276088
 20
45.638056
 30
0.0
 11
31.298308
 21
45.697484
 31
0.0
  0
LINE
  5
1cb
100
AcDbEntity
  8
Export_Paths
 62
7
100
AcDbLine
 10
31.298308
 20
45.697484
 30
0.0
 11
31.330868
 21
45.763113
 31
0.0
  0
LINE
  5
1cc
100
AcDbEntity
  8
Export_Paths
 62
7
100
AcDbLine
 10
31.330868
 20
45.763113
 30
0.0
 11
31.948918
 21
46.905162
 31
0.0
  0
LINE
  5
1cd
100
AcDbEntity
  8
Export_Paths
 62
7
100
AcDbLine
 10
31.948918
 20
46.905162
 30
0.0
 11
32.192831
 21
46.833332
 31
0.0
  0
LINE
  5
1ce
100
AcDbEntity
  8
Export_Paths
 62
7
100
AcDbLine
 10
32.192831
 20
46.833332
 30
0.0
 11
32.272931
 21
46.986294
 31
0.0
  0
LINE
  5
1cf
100
AcDbEntity
  8
Export_Paths
 62
7
100
AcDbLine
 10
32.272931
 20
46.986294
 30
0.0
 11
32.029019
 21
47.058124
 31
0.0
  0
LINE
  5
1d0
100
AcDbEntity
  8
Export_Paths
 62
7
100
AcDbLine
 10
32.029019
 20
47.058124
 30
0.0
 11
32.356131
 21
47.659121
 31
0.0
  0
LINE
  5
1d1
100
AcDbEntity
  8
Export_Paths
 62
7
100
AcDbLine
 10
32.356131
 20
47.659121
 30
0.0
 11
31.730846
 21
47.754722
 31
0.0
  0
LINE
  5
1d2
100
AcDbEntity
  8
Export_Paths
 62
7
100
AcDbLine
 10
31.730846
 20
47.754722
 30
0.0
 11
31.444558
 21
47.230206
 31
0.0
  0
LINE
  5
1d3
100
AcDbEntity
  8
Export_Paths
 62
7
100
AcDbLine
 10
31.444558
 20
47.230206
 30
0.0
 11
31.310200
 21
47.269480
 31
0.0
  0
LINE
  5
1d4
100
AcDbEntity
  8
Export_Paths
 62
7
100
AcDbLine
 10
31.310200
 20
47.269480
 30
0.0
 11
31.230100
 21
47.116518
 31
0.0
  0
LINE
  5
1d5
100
AcDbEntity
  8
Export_Paths
 62
7
100
AcDbLine
 10
31.230100
 20
47.116518
 30
0.0
 11
31.363942
 21
47.077244
 31
0.0
  0
LINE
  5
1d6
100
AcDbEntity
  8
Export_Paths
 62
7
100
AcDbLine
 10
31.363942
 20
47.077244
 30
0.0
 11
30.790334
 21
46.016844
 31
0.0
  0
LINE
  5
1d7
100
AcDbEntity
  8
Export_Paths
 62
7
100
AcDbLine
 10
30.790334
 20
46.016844
 30
0.0
 11
30.735554
 21
46.028730
 31
0.0
  0
LINE
  5
1d8
100
AcDbEntity
  8
Export_Paths
 62
7
100
AcDbLine
 10
30.735554
 20
46.028730
 30
0.0
 11
30.576390
 21
45.955349
 31
0.0
  0
LINE
  5
1d9
100
AcDbEntity
  8
Export_Paths
 62
7
100
AcDbLine
 10
30.576390
 20
45.955349
 30
0.0
 11
30.392422
 21
45.887653
 31
0.0
  0
LINE
  5
1da
100
AcDbEntity
  8
Export_Paths
 62
7
100
AcDbLine
 10
30.392422
 20
45.887653
 30
0.0
 11
30.420332
 21
45.955349
 31
0.0
  0
LINE
  5
1db
100
AcDbEntity
  8
Export_Paths
 62
7
100
AcDbLine
 10
30.420332
 20
45.955349
 30
0.0
 11
30.443582
 21
46.041132
 31
0.0
  0
LINE
  5
1dc
100
AcDbEntity
  8
Export_Paths
 62
7
100
AcDbLine
 10
30.443582
 20
46.041132
 30
0.0
 11
30.469422
 21
46.178591
 31
0.0
  0
LINE
  5
1dd
100
AcDbEntity
  8
Export_Paths
 62
7
100
AcDbLine
 10
30.469422
 20
46.178591
 30
0.0
 11
30.506632
 21
46.426121
 31
0.0
  0
LINE
  5
1de
100
AcDbEntity
  8
Export_Paths
 62
7
100
AcDbLine
 10
30.506632
 20
46.426121
 30
0.0
 11
30.588282
 21
46.993011
 31
0.0
  0
LINE
  5
1df
100
AcDbEntity
  8
Export_Paths
 62
7
100
AcDbLine
 10
30.588282
 20
46.993011
 30
0.0
 11
30.684402
 21
47.566103
 31
0.0
  0
LINE
  5
1e0
100
AcDbEntity
  8
Export_Paths
 62
7
100
AcDbLine
 10
30.684402
 20
47.566103
 30
0.0
 11
30.053949
 21
47.618296
 31
0.0
  0
LINE
  5
1e1
100
AcDbEntity
  8
Export_Paths
 62
7
100
AcDbLine
 10
30.053949
 20
47.618296
 30
0.0
 11
29.655007
 21
46.986810
 31
0.0
  0
LINE
  5
1e2
100
AcDbEntity
  8
Export_Paths
 62
7
100
AcDbLine
 10
29.655007
 20
46.986810
 30
0.0
 11
29.276219
 21
46.506736
 31
0.0
  0
LINE
  5
1e3
100
AcDbEntity
  8
Export_Paths
 62
7
100
AcDbLine
 10
29.276219
 20
46.506736
 30
0.0
 11
29.085016
 21
46.388397
 31
0.0
  0
LINE
  5
1e4
100
AcDbEntity
  8
Export_Paths
 62
7
100
AcDbLine
 10
29.085016
 20
46.388397
 30
0.0
 11
28.986316
 21
46.209597
 31
0.0
  0
LINE
  5
1e5
100
AcDbEntity
  8
Export_Paths
 62
7
100
AcDbLine
 10
28.986316
 20
46.209597
 30
0.0
 11
28.907766
 21
46.133116
 31
0.0
  0
LINE
  5
1e6
100
AcDbEntity
  8
Export_Paths
 62
7
100
AcDbLine
 10
28.907766
 20
46.133116
 30
0.0
 11
28.671088
 21
46.065937
 31
0.0
  0
LINE
  5
1e7
100
AcDbEntity
  8
Export_Paths
 62
7
100
AcDbLine
 10
28.671088
 20
46.065937
 30
0.0
 11
28.541897
 21
46.119164
 31
0.0
  0
LINE
  5
1e8
100
AcDbEntity
  8
Export_Paths
 62
7
100
AcDbLine
 10
28.541897
 20
46.119164
 30
0.0
 11
28.522257
 21
46.246288
 31
0.0
  0
LINE
  5
1e9
100
AcDbEntity
  8
Export_Paths
 62
7
100
AcDbLine
 10
28.522257
 20
46.246288
 30
0.0
 11
28.535697
 21
46.308300
 31
0.0
  0
LINE
  5
1ea
100
AcDbEntity
  8
Export_Paths
 62
7
100
AcDbLine
 10
28.535697
 20
46.308300
 30
0.0
 11
28.558947
 21
46.378063
 31
0.0
  0
LINE
  5
1eb
100
AcDbEntity
  8
Export_Paths
 62
7
100
AcDbLine
 10
28.558947
 20
46.378063
 30
0.0
 11
29.072611
 21
47.756790
 31
0.0
  0
LINE
  5
1ec
100
AcDbEntity
  8
Export_Paths
 62
7
100
AcDbLine
 10
29.072611
 20
47.756790
 30
0.0
 11
28.469580
 21
47.846187
 31
0.0
  0
LINE
  5
1ed
100
AcDbEntity
  8
Export_Paths
 62
7
100
AcDbLine
 10
20.429244
 20
47.473600
 30
0.0
 11
19.842200
 21
47.308752
 31
0.0
  0
LINE
  5
1ee
100
AcDbEntity
  8
Export_Paths
 62
7
100
AcDbLine
 10
19.842200
 20
47.308752
 30
0.0
 11
19.931080
 21
45.895919
 31
0.0
  0
LINE
  5
1ef
100
AcDbEntity
  8
Export_Paths
 62
7
100
AcDbLine
 10
19.931080
 20
45.895919
 30
0.0
 11
19.866480
 21
45.609631
 31
0.0
  0
LINE
  5
1f0
100
AcDbEntity
  8
Export_Paths
 62
7
100
AcDbLine
 10
19.866480
 20
45.609631
 30
0.0
 11
19.706799
 21
45.472172
 31
0.0
  0
LINE
  5
1f1
100
AcDbEntity
  8
Export_Paths
 62
7
100
AcDbLine
 10
19.706799
 20
45.472172
 30
0.0
 11
19.600863
 21
45.490776
 31
0.0
  0
LINE
  5
1f2
100
AcDbEntity
  8
Export_Paths
 62
7
100
AcDbLine
 10
19.600863
 20
45.490776
 30
0.0
 11
19.534203
 21
45.617383
 31
0.0
  0
LINE
  5
1f3
100
AcDbEntity
  8
Export_Paths
 62
7
100
AcDbLine
 10
19.534203
 20
45.617383
 30
0.0
 11
19.524903
 21
45.667509
 31
0.0
  0
LINE
  5
1f4
100
AcDbEntity
  8
Export_Paths
 62
7
100
AcDbLine
 10
19.524903
 20
45.667509
 30
0.0
 11
19.518203
 21
45.722803
 31
0.0
  0
LINE
  5
1f5
100
AcDbEntity
  8
Export_Paths
 62
7
100
AcDbLine
 10
19.518203
 20
45.722803
 30
0.0
 11
19.422603
 21
47.190931
 31
0.0
  0
LINE
  5
1f6
100
AcDbEntity
  8
Export_Paths
 62
7
100
AcDbLine
 10
19.422603
 20
47.190931
 30
0.0
 11
18.835559
 21
47.026083
 31
0.0
  0
LINE
  5
1f7
100
AcDbEntity
  8
Export_Paths
 62
7
100
AcDbLine
 10
18.835559
 20
47.026083
 30
0.0
 11
18.925479
 21
45.640121
 31
0.0
  0
LINE
  5
1f8
100
AcDbEntity
  8
Export_Paths
 62
7
100
AcDbLine
 10
18.925479
 20
45.640121
 30
0.0
 11
18.942529
 21
45.486125
 31
0.0
  0
LINE
  5
1f9
100
AcDbEntity
  8
Export_Paths
 62
7
100
AcDbLine
 10
18.942529
 20
45.486125
 30
0.0
 11
18.967329
 21
45.365719
 31
0.0
  0
LINE
  5
1fa
100
AcDbEntity
  8
Export_Paths
 62
7
100
AcDbLine
 10
18.967329
 20
45.365719
 30
0.0
 11
19.183336
 21
45.034990
 31
0.0
  0
LINE
  5
1fb
100
AcDbEntity
  8
Export_Paths
 62
7
100
AcDbLine
 10
19.183336
 20
45.034990
 30
0.0
 11
19.540937
 21
44.999333
 31
0.0
  0
LINE
  5
1fc
100
AcDbEntity
  8
Export_Paths
 62
7
100
AcDbLine
 10
19.540937
 20
44.999333
 30
0.0
 11
19.789501
 21
45.130591
 31
0.0
  0
LINE
  5
1fd
100
AcDbEntity
  8
Export_Paths
 62
7
100
AcDbLine
 10
19.789501
 20
45.130591
 30
0.0
 11
19.965717
 21
45.364685
 31
0.0
  0
LINE
  5
1fe
100
AcDbEntity
  8
Export_Paths
 62
7
100
AcDbLine
 10
19.965717
 20
45.364685
 30
0.0
 11
19.978637
 21
45.131108
 31
0.0
  0
LINE
  5
1ff
100
AcDbEntity
  8
Export_Paths
 62
7
100
AcDbLine
 10
19.978637
 20
45.131108
 30
0.0
 11
19.548173
 21
44.737333
 31
0.0
  0
LINE
  5
200
100
AcDbEntity
  8
Export_Paths
 62
7
100
AcDbLine
 10
19.548173
 20
44.737333
 30
0.0
 11
19.484613
 21
44.337358
 31
0.0
  0
LINE
  5
201
100
AcDbEntity
  8
Export_Paths
 62
7
100
AcDbLine
 10
19.484613
 20
44.337358
 30
0.0
 11
19.688218
 21
44.082076
 31
0.0
  0
LINE
  5
202
100
AcDbEntity
  8
Export_Paths
 62
7
100
AcDbLine
 10
19.688218
 20
44.082076
 30
0.0
 11
20.052537
 21
44.069674
 31
0.0
  0
LINE
  5
203
100
AcDbEntity
  8
Export_Paths
 62
7
100
AcDbLine
 10
20.052537
 20
44.069674
 30
0.0
 11
20.479901
 21
44.379216
 31
0.0
  0
LINE
  5
204
100
AcDbEntity
  8
Export_Paths
 62
7
100
AcDbLine
 10
20.479901
 20
44.379216
 30
0.0
 11
20.591522
 21
44.968844
 31
0.0
  0
LINE
  5
205
100
AcDbEntity
  8
Export_Paths
 62
7
100
AcDbLine
 10
20.591522
 20
44.968844
 30
0.0
 11
20.570332
 21
45.279420
 31
0.0
  0
LINE
  5
206
100
AcDbEntity
  8
Export_Paths
 62
7
100
AcDbLine
 10
20.570332
 20
45.279420
 30
0.0
 11
20.948086
 21
45.671127
 31
0.0
  0
LINE
  5
207
100
AcDbEntity
  8
Export_Paths
 62
7
100
AcDbLine
 10
20.948086
 20
45.671127
 30
0.0
 11
21.077794
 21
46.244219
 31
0.0
  0
LINE
  5
208
100
AcDbEntity
  8
Export_Paths
 62
7
100
AcDbLine
 10
21.077794
 20
46.244219
 30
0.0
 11
20.906228
 21
46.196160
 31
0.0
  0
LINE
  5
209
100
AcDbEntity
  8
Export_Paths
 62
7
100
AcDbLine
 10
20.906228
 20
46.196160
 30
0.0
 11
20.817348
 21
45.762078
 31
0.0
  0
LINE
  5
20a
100
AcDbEntity
  8
Export_Paths
 62
7
100
AcDbLine
 10
20.817348
 20
45.762078
 30
0.0
 11
20.556382
 21
45.469072
 31
0.0
  0
LINE
  5
20b
100
AcDbEntity
  8
Export_Paths
 62
7
100
AcDbLine
 10
20.556382
 20
45.469072
 30
0.0
 11
20.429244
 21
47.473600
 31
0.0
  0
LINE
  5
20c
100
AcDbEntity
  8
Export_Paths
 62
7
100
AcDbLine
 10
29.980599
 20
47.166126
 30
0.0
 11
29.935119
 21
46.842631
 31
0.0
  0
LINE
  5
20d
100
AcDbEntity
  8
Export_Paths
 62
7
100
AcDbLine
 10
29.935119
 20
46.842631
 30
0.0
 11
29.892749
 21
46.491748
 31
0.0
  0
LINE
  5
20e
100
AcDbEntity
  8
Export_Paths
 62
7
100
AcDbLine
 10
29.892749
 20
46.491748
 30
0.0
 11
29.864849
 21
46.285559
 31
0.0
  0
LINE
  5
20f
100
AcDbEntity
  8
Export_Paths
 62
7
100
AcDbLine
 10
29.864849
 20
46.285559
 30
0.0
 11
29.843149
 21
46.169287
 31
0.0
  0
LINE
  5
210
100
AcDbEntity
  8
Export_Paths
 62
7
100
AcDbLine
 10
29.843149
 20
46.169287
 30
0.0
 11
29.685536
 21
45.904704
 31
0.0
  0
LINE
  5
211
100
AcDbEntity
  8
Export_Paths
 62
7
100
AcDbLine
 10
29.685536
 20
45.904704
 30
0.0
 11
29.398731
 21
45.863880
 31
0.0
  0
LINE
  5
212
100
AcDbEntity
  8
Export_Paths
 62
7
100
AcDbLine
 10
29.398731
 20
45.863880
 30
0.0
 11
29.218897
 21
45.972917
 31
0.0
  0
LINE
  5
213
100
AcDbEntity
  8
Export_Paths
 62
7
100
AcDbLine
 10
29.218897
 20
45.972917
 30
0.0
 11
29.210597
 21
46.209078
 31
0.0
  0
LINE
  5
214
100
AcDbEntity
  8
Export_Paths
 62
7
100
AcDbLine
 10
29.210597
 20
46.209078
 30
0.0
 11
29.242637
 21
46.158435
 31
0.0
  0
LINE
  5
215
100
AcDbEntity
  8
Export_Paths
 62
7
100
AcDbLine
 10
29.242637
 20
46.158435
 30
0.0
 11
29.310337
 21
46.130530
 31
0.0
  0
LINE
  5
216
100
AcDbEntity
  8
Export_Paths
 62
7
100
AcDbLine
 10
29.310337
 20
46.130530
 30
0.0
 11
29.451930
 21
46.164120
 31
0.0
  0
LINE
  5
217
100
AcDbEntity
  8
Export_Paths
 62
7
100
AcDbLine
 10
29.451930
 20
46.164120
 30
0.0
 11
29.536680
 21
46.292795
 31
0.0
  0
LINE
  5
218
100
AcDbEntity
  8
Export_Paths
 62
7
100
AcDbLine
 10
29.536680
 20
46.292795
 30
0.0
 11
29.530980
 21
46.385296
 31
0.0
  0
LINE
  5
219
100
AcDbEntity
  8
Export_Paths
 62
7
100
AcDbLine
 10
29.530980
 20
46.385296
 30
0.0
 11
29.473620
 21
46.458676
 31
0.0
  0
LINE
  5
21a
100
AcDbEntity
  8
Export_Paths
 62
7
100
AcDbLine
 10
29.473620
 20
46.458676
 30
0.0
 11
29.769726
 21
46.840048
 31
0.0
  0
LINE
  5
21b
100
AcDbEntity
  8
Export_Paths
 62
7
100
AcDbLine
 10
29.769726
 20
46.840048
 30
0.0
 11
29.980566
 21
47.166126
 31
0.0
  0
LINE
  5
21c
100
AcDbEntity
  8
Export_Paths
 62
7
100
AcDbLine
 10
29.980566
 20
47.166126
 30
0.0
 11
29.980599
 21
47.166126
 31
0.0
  0
LINE
  5
21d
100
AcDbEntity
  8
Export_Paths
 62
7
100
AcDbLine
 10
18.273820
 20
46.812659
 30
0.0
 11
18.154447
 21
46.791988
 31
0.0
  0
LINE
  5
21e
100
AcDbEntity
  8
Export_Paths
 62
7
100
AcDbLine
 10
18.154447
 20
46.791988
 30
0.0
 11
17.968412
 21
46.661763
 31
0.0
  0
LINE
  5
21f
100
AcDbEntity
  8
Export_Paths
 62
7
100
AcDbLine
 10
17.968412
 20
46.661763
 30
0.0
 11
17.769975
 21
46.363590
 31
0.0
  0
LINE
  5
220
100
AcDbEntity
  8
Export_Paths
 62
7
100
AcDbLine
 10
17.769975
 20
46.363590
 30
0.0
 11
17.727600
 21
46.628691
 31
0.0
  0
LINE
  5
221
100
AcDbEntity
  8
Export_Paths
 62
7
100
AcDbLine
 10
17.727600
 20
46.628691
 30
0.0
 11
17.158126
 21
46.410616
 31
0.0
  0
LINE
  5
222
100
AcDbEntity
  8
Export_Paths
 62
7
100
AcDbLine
 10
17.158126
 20
46.410616
 30
0.0
 11
17.495573
 21
44.273279
 31
0.0
  0
LINE
  5
223
100
AcDbEntity
  8
Export_Paths
 62
7
100
AcDbLine
 10
17.495573
 20
44.273279
 30
0.0
 11
18.064530
 21
44.491353
 31
0.0
  0
LINE
  5
224
100
AcDbEntity
  8
Export_Paths
 62
7
100
AcDbLine
 10
18.064530
 20
44.491353
 30
0.0
 11
17.806148
 21
46.114510
 31
0.0
  0
LINE
  5
225
100
AcDbEntity
  8
Export_Paths
 62
7
100
AcDbLine
 10
17.806148
 20
46.114510
 30
0.0
 11
17.921387
 21
46.299512
 31
0.0
  0
LINE
  5
226
100
AcDbEntity
  8
Export_Paths
 62
7
100
AcDbLine
 10
17.921387
 20
46.299512
 30
0.0
 11
18.037659
 21
46.375476
 31
0.0
  0
LINE
  5
227
100
AcDbEntity
  8
Export_Paths
 62
7
100
AcDbLine
 10
18.037659
 20
46.375476
 30
0.0
 11
18.088299
 21
46.372376
 31
0.0
  0
LINE
  5
228
100
AcDbEntity
  8
Export_Paths
 62
7
100
AcDbLine
 10
18.088299
 20
46.372376
 30
0.0
 11
18.146179
 21
46.303646
 31
0.0
  0
LINE
  5
229
100
AcDbEntity
  8
Export_Paths
 62
7
100
AcDbLine
 10
18.146179
 20
46.303646
 30
0.0
 11
18.247465
 21
46.193058
 31
0.0
  0
LINE
  5
22a
100
AcDbEntity
  8
Export_Paths
 62
7
100
AcDbLine
 10
18.247465
 20
46.193058
 30
0.0
 11
18.366321
 21
46.202358
 31
0.0
  0
LINE
  5
22b
100
AcDbEntity
  8
Export_Paths
 62
7
100
AcDbLine
 10
18.366321
 20
46.202358
 30
0.0
 11
18.540470
 21
46.364105
 31
0.0
  0
LINE
  5
22c
100
AcDbEntity
  8
Export_Paths
 62
7
100
AcDbLine
 10
18.540470
 20
46.364105
 30
0.0
 11
18.540987
 21
46.599750
 31
0.0
  0
LINE
  5
22d
100
AcDbEntity
  8
Export_Paths
 62
7
100
AcDbLine
 10
18.540987
 20
46.599750
 30
0.0
 11
18.385441
 21
46.780619
 31
0.0
  0
LINE
  5
22e
100
AcDbEntity
  8
Export_Paths
 62
7
100
AcDbLine
 10
18.385441
 20
46.780619
 30
0.0
 11
18.273820
 21
46.812659
 31
0.0
  0
LINE
  5
22f
100
AcDbEntity
  8
Export_Paths
 62
7
100
AcDbLine
 10
18.273820
 20
46.812659
 30
0.0
 11
18.273820
 21
46.812659
 31
0.0
  0
LINE
  5
230
100
AcDbEntity
  8
Export_Paths
 62
7
100
AcDbLine
 10
16.692521
 20
46.194609
 30
0.0
 11
16.575732
 21
46.164637
 31
0.0
  0
LINE
  5
231
100
AcDbEntity
  8
Export_Paths
 62
7
100
AcDbLine
 10
16.575732
 20
46.164637
 30
0.0
 11
16.400549
 21
46.020459
 31
0.0
  0
LINE
  5
232
100
AcDbEntity
  8
Export_Paths
 62
7
100
AcDbLine
 10
16.400549
 20
46.020459
 30
0.0
 11
16.225883
 21
45.707817
 31
0.0
  0
LINE
  5
233
100
AcDbEntity
  8
Export_Paths
 62
7
100
AcDbLine
 10
16.225883
 20
45.707817
 30
0.0
 11
16.162843
 21
45.968266
 31
0.0
  0
LINE
  5
234
100
AcDbEntity
  8
Export_Paths
 62
7
100
AcDbLine
 10
16.162843
 20
45.968266
 30
0.0
 11
15.611972
 21
45.706267
 31
0.0
  0
LINE
  5
235
100
AcDbEntity
  8
Export_Paths
 62
7
100
AcDbLine
 10
15.611972
 20
45.706267
 30
0.0
 11
15.934433
 21
44.359579
 31
0.0
  0
LINE
  5
236
100
AcDbEntity
  8
Export_Paths
 62
7
100
AcDbLine
 10
15.934433
 20
44.359579
 30
0.0
 11
15.877073
 21
44.326506
 31
0.0
  0
LINE
  5
237
100
AcDbEntity
  8
Export_Paths
 62
7
100
AcDbLine
 10
15.877073
 20
44.326506
 30
0.0
 11
15.712742
 21
43.840747
 31
0.0
  0
LINE
  5
238
100
AcDbEntity
  8
Export_Paths
 62
7
100
AcDbLine
 10
15.712742
 20
43.840747
 30
0.0
 11
15.441441
 21
43.581848
 31
0.0
  0
LINE
  5
239
100
AcDbEntity
  8
Export_Paths
 62
7
100
AcDbLine
 10
15.441441
 20
43.581848
 30
0.0
 11
15.192360
 21
43.530688
 31
0.0
  0
LINE
  5
23a
100
AcDbEntity
  8
Export_Paths
 62
7
100
AcDbLine
 10
15.192360
 20
43.530688
 30
0.0
 11
15.000124
 21
43.737394
 31
0.0
  0
LINE
  5
23b
100
AcDbEntity
  8
Export_Paths
 62
7
100
AcDbLine
 10
15.000124
 20
43.737394
 30
0.0
 11
14.970154
 21
43.789070
 31
0.0
  0
LINE
  5
23c
100
AcDbEntity
  8
Export_Paths
 62
7
100
AcDbLine
 10
14.970154
 20
43.789070
 30
0.0
 11
14.922614
 21
43.888289
 31
0.0
  0
LINE
  5
23d
100
AcDbEntity
  8
Export_Paths
 62
7
100
AcDbLine
 10
14.922614
 20
43.888289
 30
0.0
 11
15.376850
 21
44.473266
 31
0.0
  0
LINE
  5
23e
100
AcDbEntity
  8
Export_Paths
 62
7
100
AcDbLine
 10
15.376850
 20
44.473266
 30
0.0
 11
15.319490
 21
45.148677
 31
0.0
  0
LINE
  5
23f
100
AcDbEntity
  8
Export_Paths
 62
7
100
AcDbLine
 10
15.319490
 20
45.148677
 30
0.0
 11
15.064726
 21
45.353316
 31
0.0
  0
LINE
  5
240
100
AcDbEntity
  8
Export_Paths
 62
7
100
AcDbLine
 10
15.064726
 20
45.353316
 30
0.0
 11
14.713326
 21
45.268050
 31
0.0
  0
LINE
  5
241
100
AcDbEntity
  8
Export_Paths
 62
7
100
AcDbLine
 10
14.713326
 20
45.268050
 30
0.0
 11
14.353141
 21
44.908899
 31
0.0
  0
LINE
  5
242
100
AcDbEntity
  8
Export_Paths
 62
7
100
AcDbLine
 10
14.353141
 20
44.908899
 30
0.0
 11
14.220849
 21
44.392651
 31
0.0
  0
LINE
  5
243
100
AcDbEntity
  8
Export_Paths
 62
7
100
AcDbLine
 10
14.220849
 20
44.392651
 30
0.0
 11
14.286479
 21
43.873303
 31
0.0
  0
LINE
  5
244
100
AcDbEntity
  8
Export_Paths
 62
7
100
AcDbLine
 10
14.286479
 20
43.873303
 30
0.0
 11
14.476132
 21
43.391162
 31
0.0
  0
LINE
  5
245
100
AcDbEntity
  8
Export_Paths
 62
7
100
AcDbLine
 10
14.476132
 20
43.391162
 30
0.0
 11
14.870940
 21
43.037695
 31
0.0
  0
LINE
  5
246
100
AcDbEntity
  8
Export_Paths
 62
7
100
AcDbLine
 10
14.870940
 20
43.037695
 30
0.0
 11
15.384604
 21
43.138464
 31
0.0
  0
LINE
  5
247
100
AcDbEntity
  8
Export_Paths
 62
7
100
AcDbLine
 10
15.384604
 20
43.138464
 30
0.0
 11
15.835739
 21
43.618538
 31
0.0
  0
LINE
  5
248
100
AcDbEntity
  8
Export_Paths
 62
7
100
AcDbLine
 10
15.835739
 20
43.618538
 30
0.0
 11
15.983017
 21
44.155973
 31
0.0
  0
LINE
  5
249
100
AcDbEntity
  8
Export_Paths
 62
7
100
AcDbLine
 10
15.983017
 20
44.155973
 30
0.0
 11
16.115825
 21
43.602002
 31
0.0
  0
LINE
  5
24a
100
AcDbEntity
  8
Export_Paths
 62
7
100
AcDbLine
 10
16.115825
 20
43.602002
 30
0.0
 11
16.666696
 21
43.864001
 31
0.0
  0
LINE
  5
24b
100
AcDbEntity
  8
Export_Paths
 62
7
100
AcDbLine
 10
16.666696
 20
43.864001
 30
0.0
 11
16.281190
 21
45.462353
 31
0.0
  0
LINE
  5
24c
100
AcDbEntity
  8
Export_Paths
 62
7
100
AcDbLine
 10
16.281190
 20
45.462353
 30
0.0
 11
16.381959
 21
45.655106
 31
0.0
  0
LINE
  5
24d
100
AcDbEntity
  8
Export_Paths
 62
7
100
AcDbLine
 10
16.381959
 20
45.655106
 30
0.0
 11
16.491513
 21
45.740372
 31
0.0
  0
LINE
  5
24e
100
AcDbEntity
  8
Export_Paths
 62
7
100
AcDbLine
 10
16.491513
 20
45.740372
 30
0.0
 11
16.542673
 21
45.740889
 31
0.0
  0
LINE
  5
24f
100
AcDbEntity
  8
Export_Paths
 62
7
100
AcDbLine
 10
16.542673
 20
45.740889
 30
0.0
 11
16.605713
 21
45.677327
 31
0.0
  0
LINE
  5
250
100
AcDbEntity
  8
Export_Paths
 62
7
100
AcDbLine
 10
16.605713
 20
45.677327
 30
0.0
 11
16.715267
 21
45.575008
 31
0.0
  0
LINE
  5
251
100
AcDbEntity
  8
Export_Paths
 62
7
100
AcDbLine
 10
16.715267
 20
45.575008
 30
0.0
 11
16.833089
 21
45.593095
 31
0.0
  0
LINE
  5
252
100
AcDbEntity
  8
Export_Paths
 62
7
100
AcDbLine
 10
16.833089
 20
45.593095
 30
0.0
 11
16.993803
 21
45.768278
 31
0.0
  0
LINE
  5
253
100
AcDbEntity
  8
Export_Paths
 62
7
100
AcDbLine
 10
16.993803
 20
45.768278
 30
0.0
 11
16.975713
 21
46.003406
 31
0.0
  0
LINE
  5
254
100
AcDbEntity
  8
Export_Paths
 62
7
100
AcDbLine
 10
16.975713
 20
46.003406
 30
0.0
 11
16.806731
 21
46.171354
 31
0.0
  0
LINE
  5
255
100
AcDbEntity
  8
Export_Paths
 62
7
100
AcDbLine
 10
16.806731
 20
46.171354
 30
0.0
 11
16.692526
 21
46.194608
 31
0.0
  0
LINE
  5
256
100
AcDbEntity
  8
Export_Paths
 62
7
100
AcDbLine
 10
16.692526
 20
46.194608
 30
0.0
 11
16.692521
 21
46.194609
 31
0.0
  0
LINE
  5
257
100
AcDbEntity
  8
Export_Paths
 62
7
100
AcDbLine
 10
12.991972
 20
45.427730
 30
0.0
 11
12.506213
 21
45.059794
 31
0.0
  0
LINE
  5
258
100
AcDbEntity
  8
Export_Paths
 62
7
100
AcDbLine
 10
12.506213
 20
45.059794
 30
0.0
 11
13.110311
 21
42.718852
 31
0.0
  0
LINE
  5
259
100
AcDbEntity
  8
Export_Paths
 62
7
100
AcDbLine
 10
13.110311
 20
42.718852
 30
0.0
 11
11.841138
 21
44.555949
 31
0.0
  0
LINE
  5
25a
100
AcDbEntity
  8
Export_Paths
 62
7
100
AcDbLine
 10
11.841138
 20
44.555949
 30
0.0
 11
11.687142
 21
44.492904
 31
0.0
  0
LINE
  5
25b
100
AcDbEntity
  8
Export_Paths
 62
7
100
AcDbLine
 10
11.687142
 20
44.492904
 30
0.0
 11
11.548649
 21
44.409188
 31
0.0
  0
LINE
  5
25c
100
AcDbEntity
  8
Export_Paths
 62
7
100
AcDbLine
 10
11.548649
 20
44.409188
 30
0.0
 11
11.244792
 21
44.067607
 31
0.0
  0
LINE
  5
25d
100
AcDbEntity
  8
Export_Paths
 62
7
100
AcDbLine
 10
11.244792
 20
44.067607
 30
0.0
 11
11.049455
 21
43.616988
 31
0.0
  0
LINE
  5
25e
100
AcDbEntity
  8
Export_Paths
 62
7
100
AcDbLine
 10
11.049455
 20
43.616988
 30
0.0
 11
11.005535
 21
43.100224
 31
0.0
  0
LINE
  5
25f
100
AcDbEntity
  8
Export_Paths
 62
7
100
AcDbLine
 10
11.005535
 20
43.100224
 30
0.0
 11
11.155396
 21
42.698698
 31
0.0
  0
LINE
  5
260
100
AcDbEntity
  8
Export_Paths
 62
7
100
AcDbLine
 10
11.155396
 20
42.698698
 30
0.0
 11
11.419463
 21
42.532300
 31
0.0
  0
LINE
  5
261
100
AcDbEntity
  8
Export_Paths
 62
7
100
AcDbLine
 10
11.419463
 20
42.532300
 30
0.0
 11
11.749159
 21
42.665108
 31
0.0
  0
LINE
  5
262
100
AcDbEntity
  8
Export_Paths
 62
7
100
AcDbLine
 10
11.749159
 20
42.665108
 30
0.0
 11
11.740359
 21
42.669238
 31
0.0
  0
LINE
  5
263
100
AcDbEntity
  8
Export_Paths
 62
7
100
AcDbLine
 10
11.740359
 20
42.669238
 30
0.0
 11
11.718659
 21
42.684224
 31
0.0
  0
LINE
  5
264
100
AcDbEntity
  8
Export_Paths
 62
7
100
AcDbLine
 10
11.718659
 20
42.684224
 30
0.0
 11
11.621509
 21
42.749336
 31
0.0
  0
LINE
  5
265
100
AcDbEntity
  8
Export_Paths
 62
7
100
AcDbLine
 10
11.621509
 20
42.749336
 30
0.0
 11
11.525389
 21
42.861991
 31
0.0
  0
LINE
  5
266
100
AcDbEntity
  8
Export_Paths
 62
7
100
AcDbLine
 10
11.525389
 20
42.861991
 30
0.0
 11
11.303697
 21
43.442834
 31
0.0
  0
LINE
  5
267
100
AcDbEntity
  8
Export_Paths
 62
7
100
AcDbLine
 10
11.303697
 20
43.442834
 30
0.0
 11
11.487148
 21
44.027811
 31
0.0
  0
LINE
  5
268
100
AcDbEntity
  8
Export_Paths
 62
7
100
AcDbLine
 10
11.487148
 20
44.027811
 30
0.0
 11
12.385285
 21
41.060034
 31
0.0
  0
LINE
  5
269
100
AcDbEntity
  8
Export_Paths
 62
7
100
AcDbLine
 10
12.385285
 20
41.060034
 30
0.0
 11
12.655552
 21
41.264672
 31
0.0
  0
LINE
  5
26a
100
AcDbEntity
  8
Export_Paths
 62
7
100
AcDbLine
 10
12.655552
 20
41.264672
 30
0.0
 11
12.066441
 21
43.213391
 31
0.0
  0
LINE
  5
26b
100
AcDbEntity
  8
Export_Paths
 62
7
100
AcDbLine
 10
12.066441
 20
43.213391
 30
0.0
 11
13.151646
 21
41.640360
 31
0.0
  0
LINE
  5
26c
100
AcDbEntity
  8
Export_Paths
 62
7
100
AcDbLine
 10
13.151646
 20
41.640360
 30
0.0
 11
13.614150
 21
41.990210
 31
0.0
  0
LINE
  5
26d
100
AcDbEntity
  8
Export_Paths
 62
7
100
AcDbLine
 10
13.614150
 20
41.990210
 30
0.0
 11
13.101003
 21
43.985953
 31
0.0
  0
LINE
  5
26e
100
AcDbEntity
  8
Export_Paths
 62
7
100
AcDbLine
 10
13.101003
 20
43.985953
 30
0.0
 11
14.032212
 21
42.306986
 31
0.0
  0
LINE
  5
26f
100
AcDbEntity
  8
Export_Paths
 62
7
100
AcDbLine
 10
14.032212
 20
42.306986
 30
0.0
 11
14.518488
 21
42.675439
 31
0.0
  0
LINE
  5
270
100
AcDbEntity
  8
Export_Paths
 62
7
100
AcDbLine
 10
14.518488
 20
42.675439
 30
0.0
 11
12.991972
 21
45.427730
 31
0.0
  0
LINE
  5
271
100
AcDbEntity
  8
Export_Paths
 62
7
100
AcDbLine
 10
14.900899
 20
45.105269
 30
0.0
 11
14.945339
 21
45.093900
 31
0.0
  0
LINE
  5
272
100
AcDbEntity
  8
Export_Paths
 62
7
100
AcDbLine
 10
14.945339
 20
45.093900
 30
0.0
 11
15.033189
 21
44.993131
 31
0.0
  0
LINE
  5
273
100
AcDbEntity
  8
Export_Paths
 62
7
100
AcDbLine
 10
15.033189
 20
44.993131
 30
0.0
 11
15.108639
 21
44.489286
 31
0.0
  0
LINE
  5
274
100
AcDbEntity
  8
Export_Paths
 62
7
100
AcDbLine
 10
15.108639
 20
44.489286
 30
0.0
 11
14.850256
 21
44.081559
 31
0.0
  0
LINE
  5
275
100
AcDbEntity
  8
Export_Paths
 62
7
100
AcDbLine
 10
14.850256
 20
44.081559
 30
0.0
 11
14.730367
 21
44.720797
 31
0.0
  0
LINE
  5
276
100
AcDbEntity
  8
Export_Paths
 62
7
100
AcDbLine
 10
14.730367
 20
44.720797
 30
0.0
 11
14.854390
 21
45.090800
 31
0.0
  0
LINE
  5
277
100
AcDbEntity
  8
Export_Paths
 62
7
100
AcDbLine
 10
14.854390
 20
45.090800
 30
0.0
 11
14.900900
 21
45.105269
 31
0.0
  0
LINE
  5
278
100
AcDbEntity
  8
Export_Paths
 62
7
100
AcDbLine
 10
14.900900
 20
45.105269
 30
0.0
 11
14.900899
 21
45.105269
 31
0.0
  0
LINE
  5
279
100
AcDbEntity
  8
Export_Paths
 62
7
100
AcDbLine
 10
19.995162
 20
44.915617
 30
0.0
 11
20.003962
 21
44.790560
 31
0.0
  0
LINE
  5
27a
100
AcDbEntity
  8
Export_Paths
 62
7
100
AcDbLine
 10
20.003962
 20
44.790560
 30
0.0
 11
19.976572
 21
44.497038
 31
0.0
  0
LINE
  5
27b
100
AcDbEntity
  8
Export_Paths
 62
7
100
AcDbLine
 10
19.976572
 20
44.497038
 30
0.0
 11
19.869085
 21
44.361646
 31
0.0
  0
LINE
  5
27c
100
AcDbEntity
  8
Export_Paths
 62
7
100
AcDbLine
 10
19.869085
 20
44.361646
 30
0.0
 11
19.760048
 21
44.374565
 31
0.0
  0
LINE
  5
27d
100
AcDbEntity
  8
Export_Paths
 62
7
100
AcDbLine
 10
19.760048
 20
44.374565
 30
0.0
 11
19.692868
 21
44.457247
 31
0.0
  0
LINE
  5
27e
100
AcDbEntity
  8
Export_Paths
 62
7
100
AcDbLine
 10
19.692868
 20
44.457247
 30
0.0
 11
19.738338
 21
44.672220
 31
0.0
  0
LINE
  5
27f
100
AcDbEntity
  8
Export_Paths
 62
7
100
AcDbLine
 10
19.738338
 20
44.672220
 30
0.0
 11
19.995170
 21
44.915616
 31
0.0
  0
LINE
  5
280
100
AcDbEntity
  8
Export_Paths
 62
7
100
AcDbLine
 10
19.995170
 20
44.915616
 30
0.0
 11
19.995162
 21
44.915617
 31
0.0
  0
LINE
  5
281
100
AcDbEntity
  8
Export_Paths
 62
7
100
AcDbLine
 10
36.455656
 20
44.819499
 30
0.0
 11
36.565727
 21
44.783326
 31
0.0
  0
LINE
  5
282
100
AcDbEntity
  8
Export_Paths
 62
7
100
AcDbLine
 10
36.565727
 20
44.783326
 30
0.0
 11
36.649447
 21
44.675322
 31
0.0
  0
LINE
  5
283
100
AcDbEntity
  8
Export_Paths
 62
7
100
AcDbLine
 10
36.649447
 20
44.675322
 30
0.0
 11
36.633947
 21
44.556983
 31
0.0
  0
LINE
  5
284
100
AcDbEntity
  8
Export_Paths
 62
7
100
AcDbLine
 10
36.633947
 20
44.556983
 30
0.0
 11
35.974555
 21
43.834547
 31
0.0
  0
LINE
  5
285
100
AcDbEntity
  8
Export_Paths
 62
7
100
AcDbLine
 10
35.974555
 20
43.834547
 30
0.0
 11
35.719274
 21
43.674866
 31
0.0
  0
LINE
  5
286
100
AcDbEntity
  8
Export_Paths
 62
7
100
AcDbLine
 10
35.719274
 20
43.674866
 30
0.0
 11
35.483112
 21
43.690886
 31
0.0
  0
LINE
  5
287
100
AcDbEntity
  8
Export_Paths
 62
7
100
AcDbLine
 10
35.483112
 20
43.690886
 30
0.0
 11
35.381310
 21
43.843849
 31
0.0
  0
LINE
  5
288
100
AcDbEntity
  8
Export_Paths
 62
7
100
AcDbLine
 10
35.381310
 20
43.843849
 30
0.0
 11
35.467610
 21
44.082594
 31
0.0
  0
LINE
  5
289
100
AcDbEntity
  8
Export_Paths
 62
7
100
AcDbLine
 10
35.467610
 20
44.082594
 30
0.0
 11
36.010729
 21
44.657236
 31
0.0
  0
LINE
  5
28a
100
AcDbEntity
  8
Export_Paths
 62
7
100
AcDbLine
 10
36.010729
 20
44.657236
 30
0.0
 11
36.455663
 21
44.819500
 31
0.0
  0
LINE
  5
28b
100
AcDbEntity
  8
Export_Paths
 62
7
100
AcDbLine
 10
36.455663
 20
44.819500
 30
0.0
 11
36.455656
 21
44.819499
 31
0.0
  0
LINE
  5
28c
100
AcDbEntity
  8
Export_Paths
 62
7
100
AcDbLine
 10
38.034371
 20
43.628357
 30
0.0
 11
38.034888
 21
43.628357
 31
0.0
  0
LINE
  5
28d
100
AcDbEntity
  8
Export_Paths
 62
7
100
AcDbLine
 10
38.034888
 20
43.628357
 30
0.0
 11
37.863839
 21
43.349304
 31
0.0
  0
LINE
  5
28e
100
AcDbEntity
  8
Export_Paths
 62
7
100
AcDbLine
 10
37.863839
 20
43.349304
 30
0.0
 11
37.685038
 21
43.044930
 31
0.0
  0
LINE
  5
28f
100
AcDbEntity
  8
Export_Paths
 62
7
100
AcDbLine
 10
37.685038
 20
43.044930
 30
0.0
 11
37.577551
 21
42.867163
 31
0.0
  0
LINE
  5
290
100
AcDbEntity
  8
Export_Paths
 62
7
100
AcDbLine
 10
37.577551
 20
42.867163
 30
0.0
 11
37.511401
 21
42.768461
 31
0.0
  0
LINE
  5
291
100
AcDbEntity
  8
Export_Paths
 62
7
100
AcDbLine
 10
37.511401
 20
42.768461
 30
0.0
 11
37.260771
 21
42.589144
 31
0.0
  0
LINE
  5
292
100
AcDbEntity
  8
Export_Paths
 62
7
100
AcDbLine
 10
37.260771
 20
42.589144
 30
0.0
 11
36.981718
 21
42.666142
 31
0.0
  0
LINE
  5
293
100
AcDbEntity
  8
Export_Paths
 62
7
100
AcDbLine
 10
36.981718
 20
42.666142
 30
0.0
 11
36.860795
 21
42.837708
 31
0.0
  0
LINE
  5
294
100
AcDbEntity
  8
Export_Paths
 62
7
100
AcDbLine
 10
36.860795
 20
42.837708
 30
0.0
 11
36.946575
 21
43.057333
 31
0.0
  0
LINE
  5
295
100
AcDbEntity
  8
Export_Paths
 62
7
100
AcDbLine
 10
36.946575
 20
43.057333
 30
0.0
 11
36.955875
 21
42.998422
 31
0.0
  0
LINE
  5
296
100
AcDbEntity
  8
Export_Paths
 62
7
100
AcDbLine
 10
36.955875
 20
42.998422
 30
0.0
 11
37.007035
 21
42.945712
 31
0.0
  0
LINE
  5
297
100
AcDbEntity
  8
Export_Paths
 62
7
100
AcDbLine
 10
37.007035
 20
42.945712
 30
0.0
 11
37.150179
 21
42.920391
 31
0.0
  0
LINE
  5
298
100
AcDbEntity
  8
Export_Paths
 62
7
100
AcDbLine
 10
37.150179
 20
42.920391
 30
0.0
 11
37.279370
 21
43.004624
 31
0.0
  0
LINE
  5
299
100
AcDbEntity
  8
Export_Paths
 62
7
100
AcDbLine
 10
37.279370
 20
43.004624
 30
0.0
 11
37.310890
 21
43.091440
 31
0.0
  0
LINE
  5
29a
100
AcDbEntity
  8
Export_Paths
 62
7
100
AcDbLine
 10
37.310890
 20
43.091440
 30
0.0
 11
37.287640
 21
43.181357
 31
0.0
  0
LINE
  5
29b
100
AcDbEntity
  8
Export_Paths
 62
7
100
AcDbLine
 10
37.287640
 20
43.181357
 30
0.0
 11
37.711387
 21
43.412867
 31
0.0
  0
LINE
  5
29c
100
AcDbEntity
  8
Export_Paths
 62
7
100
AcDbLine
 10
37.711387
 20
43.412867
 30
0.0
 11
38.034365
 21
43.628358
 31
0.0
  0
LINE
  5
29d
100
AcDbEntity
  8
Export_Paths
 62
7
100
AcDbLine
 10
38.034365
 20
43.628358
 30
0.0
 11
38.034371
 21
43.628357
 31
0.0
  0
LINE
  5
29e
100
AcDbEntity
  8
Export_Paths
 62
7
100
AcDbLine
 10
40.270927
 20
43.481079
 30
0.0
 11
38.769210
 21
42.148344
 31
0.0
  0
LINE
  5
29f
100
AcDbEntity
  8
Export_Paths
 62
7
100
AcDbLine
 10
38.769210
 20
42.148344
 30
0.0
 11
39.045162
 21
41.918384
 31
0.0
  0
LINE
  5
2a0
100
AcDbEntity
  8
Export_Paths
 62
7
100
AcDbLine
 10
39.045162
 20
41.918384
 30
0.0
 11
40.739632
 21
43.090922
 31
0.0
  0
LINE
  5
2a1
100
AcDbEntity
  8
Export_Paths
 62
7
100
AcDbLine
 10
40.739632
 20
43.090922
 30
0.0
 11
40.270927
 21
43.481079
 31
0.0
  0
LINE
  5
2a2
100
AcDbEntity
  8
Export_Paths
 62
7
100
AcDbLine
 10
38.378019
 20
41.950940
 30
0.0
 11
38.151676
 21
41.831051
 31
0.0
  0
LINE
  5
2a3
100
AcDbEntity
  8
Export_Paths
 62
7
100
AcDbLine
 10
38.151676
 20
41.831051
 30
0.0
 11
38.072096
 21
41.583521
 31
0.0
  0
LINE
  5
2a4
100
AcDbEntity
  8
Export_Paths
 62
7
100
AcDbLine
 10
38.072096
 20
41.583521
 30
0.0
 11
38.195086
 21
41.354078
 31
0.0
  0
LINE
  5
2a5
100
AcDbEntity
  8
Export_Paths
 62
7
100
AcDbLine
 10
38.195086
 20
41.354078
 30
0.0
 11
38.439515
 21
41.277078
 31
0.0
  0
LINE
  5
2a6
100
AcDbEntity
  8
Export_Paths
 62
7
100
AcDbLine
 10
38.439515
 20
41.277078
 30
0.0
 11
38.668442
 21
41.400068
 31
0.0
  0
LINE
  5
2a7
100
AcDbEntity
  8
Export_Paths
 62
7
100
AcDbLine
 10
38.668442
 20
41.400068
 30
0.0
 11
38.745442
 21
41.644497
 31
0.0
  0
LINE
  5
2a8
100
AcDbEntity
  8
Export_Paths
 62
7
100
AcDbLine
 10
38.745442
 20
41.644497
 30
0.0
 11
38.626069
 21
41.870840
 31
0.0
  0
LINE
  5
2a9
100
AcDbEntity
  8
Export_Paths
 62
7
100
AcDbLine
 10
38.626069
 20
41.870840
 30
0.0
 11
38.378022
 21
41.950939
 31
0.0
  0
LINE
  5
2aa
100
AcDbEntity
  8
Export_Paths
 62
7
100
AcDbLine
 10
38.378022
 20
41.950939
 30
0.0
 11
38.378019
 21
41.950940
 31
0.0
  0
LINE
  5
2ab
100
AcDbEntity
  8
Export_Paths
 62
7
100
AcDbLine
 10
40.467297
 20
11.015878
 30
0.0
 11
40.035799
 21
10.553890
 31
0.0
  0
LINE
  5
2ac
100
AcDbEntity
  8
Export_Paths
 62
7
100
AcDbLine
 10
40.035799
 20
10.553890
 30
0.0
 11
40.789758
 21
9.087313
 31
0.0
  0
LINE
  5
2ad
100
AcDbEntity
  8
Export_Paths
 62
7
100
AcDbLine
 10
40.789758
 20
9.087313
 30
0.0
 11
40.278162
 21
8.669768
 31
0.0
  0
LINE
  5
2ae
100
AcDbEntity
  8
Export_Paths
 62
7
100
AcDbLine
 10
40.278162
 20
8.669768
 30
0.0
 11
40.234752
 21
9.044422
 31
0.0
  0
LINE
  5
2af
100
AcDbEntity
  8
Export_Paths
 62
7
100
AcDbLine
 10
40.234752
 20
9.044422
 30
0.0
 11
40.201162
 21
9.393754
 31
0.0
  0
LINE
  5
2b0
100
AcDbEntity
  8
Export_Paths
 62
7
100
AcDbLine
 10
40.201162
 20
9.393754
 30
0.0
 11
40.104012
 21
9.773576
 31
0.0
  0
LINE
  5
2b1
100
AcDbEntity
  8
Export_Paths
 62
7
100
AcDbLine
 10
40.104012
 20
9.773576
 30
0.0
 11
39.938131
 21
10.064515
 31
0.0
  0
LINE
  5
2b2
100
AcDbEntity
  8
Export_Paths
 62
7
100
AcDbLine
 10
39.938131
 20
10.064515
 30
0.0
 11
39.651326
 21
10.207658
 31
0.0
  0
LINE
  5
2b3
100
AcDbEntity
  8
Export_Paths
 62
7
100
AcDbLine
 10
39.651326
 20
10.207658
 30
0.0
 11
39.319564
 21
10.078467
 31
0.0
  0
LINE
  5
2b4
100
AcDbEntity
  8
Export_Paths
 62
7
100
AcDbLine
 10
39.319564
 20
10.078467
 30
0.0
 11
39.413614
 21
9.996817
 31
0.0
  0
LINE
  5
2b5
100
AcDbEntity
  8
Export_Paths
 62
7
100
AcDbLine
 10
39.413614
 20
9.996817
 30
0.0
 11
39.503014
 21
9.900697
 31
0.0
  0
LINE
  5
2b6
100
AcDbEntity
  8
Export_Paths
 62
7
100
AcDbLine
 10
39.503014
 20
9.900697
 30
0.0
 11
39.743310
 21
9.479018
 31
0.0
  0
LINE
  5
2b7
100
AcDbEntity
  8
Export_Paths
 62
7
100
AcDbLine
 10
39.743310
 20
9.479018
 30
0.0
 11
39.982571
 21
8.690952
 31
0.0
  0
LINE
  5
2b8
100
AcDbEntity
  8
Export_Paths
 62
7
100
AcDbLine
 10
39.982571
 20
8.690952
 30
0.0
 11
40.072491
 21
8.332834
 31
0.0
  0
LINE
  5
2b9
100
AcDbEntity
  8
Export_Paths
 62
7
100
AcDbLine
 10
40.072491
 20
8.332834
 30
0.0
 11
40.135541
 21
8.148866
 31
0.0
  0
LINE
  5
2ba
100
AcDbEntity
  8
Export_Paths
 62
7
100
AcDbLine
 10
40.135541
 20
8.148866
 30
0.0
 11
40.935492
 21
8.802056
 31
0.0
  0
LINE
  5
2bb
100
AcDbEntity
  8
Export_Paths
 62
7
100
AcDbLine
 10
40.935492
 20
8.802056
 30
0.0
 11
41.478094
 21
7.742173
 31
0.0
  0
LINE
  5
2bc
100
AcDbEntity
  8
Export_Paths
 62
7
100
AcDbLine
 10
41.478094
 20
7.742173
 30
0.0
 11
41.950417
 21
8.127679
 31
0.0
  0
LINE
  5
2bd
100
AcDbEntity
  8
Export_Paths
 62
7
100
AcDbLine
 10
41.950417
 20
8.127679
 30
0.0
 11
41.404714
 21
9.184979
 31
0.0
  0
LINE
  5
2be
100
AcDbEntity
  8
Export_Paths
 62
7
100
AcDbLine
 10
41.404714
 20
9.184979
 30
0.0
 11
41.601084
 21
9.345692
 31
0.0
  0
LINE
  5
2bf
100
AcDbEntity
  8
Export_Paths
 62
7
100
AcDbLine
 10
41.601084
 20
9.345692
 30
0.0
 11
41.468793
 21
9.641798
 31
0.0
  0
LINE
  5
2c0
100
AcDbEntity
  8
Export_Paths
 62
7
100
AcDbLine
 10
41.468793
 20
9.641798
 30
0.0
 11
41.258986
 21
9.470233
 31
0.0
  0
LINE
  5
2c1
100
AcDbEntity
  8
Export_Paths
 62
7
100
AcDbLine
 10
41.258986
 20
9.470233
 30
0.0
 11
40.467297
 21
11.015878
 31
0.0
  0
LINE
  5
2c2
100
AcDbEntity
  8
Export_Paths
 62
7
100
AcDbLine
 10
11.176579
 20
10.093453
 30
0.0
 11
10.739739
 21
9.991935
 31
0.0
  0
LINE
  5
2c3
100
AcDbEntity
  8
Export_Paths
 62
7
100
AcDbLine
 10
10.739739
 20
9.991935
 30
0.0
 11
10.387996
 21
9.692961
 31
0.0
  0
LINE
  5
2c4
100
AcDbEntity
  8
Export_Paths
 62
7
100
AcDbLine
 10
10.387996
 20
9.692961
 30
0.0
 11
10.279476
 21
9.380835
 31
0.0
  0
LINE
  5
2c5
100
AcDbEntity
  8
Export_Paths
 62
7
100
AcDbLine
 10
10.279476
 20
9.380835
 30
0.0
 11
10.493933
 21
9.090931
 31
0.0
  0
LINE
  5
2c6
100
AcDbEntity
  8
Export_Paths
 62
7
100
AcDbLine
 10
10.493933
 20
9.090931
 30
0.0
 11
10.495433
 21
9.100231
 31
0.0
  0
LINE
  5
2c7
100
AcDbEntity
  8
Export_Paths
 62
7
100
AcDbLine
 10
10.495433
 20
9.100231
 30
0.0
 11
10.504233
 21
9.125551
 31
0.0
  0
LINE
  5
2c8
100
AcDbEntity
  8
Export_Paths
 62
7
100
AcDbLine
 10
10.504233
 20
9.125551
 30
0.0
 11
10.544543
 21
9.239239
 31
0.0
  0
LINE
  5
2c9
100
AcDbEntity
  8
Export_Paths
 62
7
100
AcDbLine
 10
10.544543
 20
9.239239
 30
0.0
 11
10.623603
 21
9.354477
 31
0.0
  0
LINE
  5
2ca
100
AcDbEntity
  8
Export_Paths
 62
7
100
AcDbLine
 10
10.623603
 20
9.354477
 30
0.0
 11
11.123831
 21
9.791143
 31
0.0
  0
LINE
  5
2cb
100
AcDbEntity
  8
Export_Paths
 62
7
100
AcDbLine
 10
11.123831
 20
9.791143
 30
0.0
 11
11.595637
 21
9.708983
 31
0.0
  0
LINE
  5
2cc
100
AcDbEntity
  8
Export_Paths
 62
7
100
AcDbLine
 10
11.595637
 20
9.708983
 30
0.0
 11
9.379235
 21
7.850181
 31
0.0
  0
LINE
  5
2cd
100
AcDbEntity
  8
Export_Paths
 62
7
100
AcDbLine
 10
9.379235
 20
7.850181
 30
0.0
 11
9.860342
 21
7.476044
 31
0.0
  0
LINE
  5
2ce
100
AcDbEntity
  8
Export_Paths
 62
7
100
AcDbLine
 10
9.860342
 20
7.476044
 30
0.0
 11
11.107811
 21
8.522492
 31
0.0
  0
LINE
  5
2cf
100
AcDbEntity
  8
Export_Paths
 62
7
100
AcDbLine
 10
11.107811
 20
8.522492
 30
0.0
 11
11.596153
 21
8.143187
 31
0.0
  0
LINE
  5
2d0
100
AcDbEntity
  8
Export_Paths
 62
7
100
AcDbLine
 10
11.596153
 20
8.143187
 30
0.0
 11
11.841616
 21
8.348859
 31
0.0
  0
LINE
  5
2d1
100
AcDbEntity
  8
Export_Paths
 62
7
100
AcDbLine
 10
11.841616
 20
8.348859
 30
0.0
 11
11.353791
 21
8.728164
 31
0.0
  0
LINE
  5
2d2
100
AcDbEntity
  8
Export_Paths
 62
7
100
AcDbLine
 10
11.353791
 20
8.728164
 30
0.0
 11
12.011115
 21
9.284202
 31
0.0
  0
LINE
  5
2d3
100
AcDbEntity
  8
Export_Paths
 62
7
100
AcDbLine
 10
12.011115
 20
9.284202
 30
0.0
 11
12.239525
 21
9.026337
 31
0.0
  0
LINE
  5
2d4
100
AcDbEntity
  8
Export_Paths
 62
7
100
AcDbLine
 10
12.239525
 20
9.026337
 30
0.0
 11
12.429694
 21
8.856838
 31
0.0
  0
LINE
  5
2d5
100
AcDbEntity
  8
Export_Paths
 62
7
100
AcDbLine
 10
12.429694
 20
8.856838
 30
0.0
 11
12.599193
 21
8.805678
 31
0.0
  0
LINE
  5
2d6
100
AcDbEntity
  8
Export_Paths
 62
7
100
AcDbLine
 10
12.599193
 20
8.805678
 30
0.0
 11
12.765074
 21
8.826348
 31
0.0
  0
LINE
  5
2d7
100
AcDbEntity
  8
Export_Paths
 62
7
100
AcDbLine
 10
12.765074
 20
8.826348
 30
0.0
 11
12.948526
 21
8.931251
 31
0.0
  0
LINE
  5
2d8
100
AcDbEntity
  8
Export_Paths
 62
7
100
AcDbLine
 10
12.948526
 20
8.931251
 30
0.0
 11
13.059113
 21
9.011351
 31
0.0
  0
LINE
  5
2d9
100
AcDbEntity
  8
Export_Paths
 62
7
100
AcDbLine
 10
13.059113
 20
9.011351
 30
0.0
 11
12.898399
 21
9.087831
 31
0.0
  0
LINE
  5
2da
100
AcDbEntity
  8
Export_Paths
 62
7
100
AcDbLine
 10
12.898399
 20
9.087831
 30
0.0
 11
12.726834
 21
9.205136
 31
0.0
  0
LINE
  5
2db
100
AcDbEntity
  8
Export_Paths
 62
7
100
AcDbLine
 10
12.726834
 20
9.205136
 30
0.0
 11
12.596092
 21
9.312107
 31
0.0
  0
LINE
  5
2dc
100
AcDbEntity
  8
Export_Paths
 62
7
100
AcDbLine
 10
12.596092
 20
9.312107
 30
0.0
 11
12.407473
 21
9.490907
 31
0.0
  0
LINE
  5
2dd
100
AcDbEntity
  8
Export_Paths
 62
7
100
AcDbLine
 10
12.407473
 20
9.490907
 30
0.0
 11
12.274148
 21
9.615964
 31
0.0
  0
LINE
  5
2de
100
AcDbEntity
  8
Export_Paths
 62
7
100
AcDbLine
 10
12.274148
 20
9.615964
 30
0.0
 11
12.203348
 21
9.676424
 31
0.0
  0
LINE
  5
2df
100
AcDbEntity
  8
Export_Paths
 62
7
100
AcDbLine
 10
12.203348
 20
9.676424
 30
0.0
 11
11.675888
 21
9.991018
 31
0.0
  0
LINE
  5
2e0
100
AcDbEntity
  8
Export_Paths
 62
7
100
AcDbLine
 10
11.675888
 20
9.991018
 30
0.0
 11
11.176538
 21
10.093452
 31
0.0
  0
LINE
  5
2e1
100
AcDbEntity
  8
Export_Paths
 62
7
100
AcDbLine
 10
11.176538
 20
10.093452
 30
0.0
 11
11.176579
 21
10.093453
 31
0.0
  0
LINE
  5
2e2
100
AcDbEntity
  8
Export_Paths
 62
7
100
AcDbLine
 10
38.990385
 20
9.588575
 30
0.0
 11
38.397656
 21
9.388070
 31
0.0
  0
LINE
  5
2e3
100
AcDbEntity
  8
Export_Paths
 62
7
100
AcDbLine
 10
38.397656
 20
9.388070
 30
0.0
 11
37.971842
 21
8.880607
 31
0.0
  0
LINE
  5
2e4
100
AcDbEntity
  8
Export_Paths
 62
7
100
AcDbLine
 10
37.971842
 20
8.880607
 30
0.0
 11
38.036442
 21
8.379346
 31
0.0
  0
LINE
  5
2e5
100
AcDbEntity
  8
Export_Paths
 62
7
100
AcDbLine
 10
38.036442
 20
8.379346
 30
0.0
 11
38.262268
 21
8.195895
 31
0.0
  0
LINE
  5
2e6
100
AcDbEntity
  8
Export_Paths
 62
7
100
AcDbLine
 10
38.262268
 20
8.195895
 30
0.0
 11
38.504630
 21
8.240335
 31
0.0
  0
LINE
  5
2e7
100
AcDbEntity
  8
Export_Paths
 62
7
100
AcDbLine
 10
38.504630
 20
8.240335
 30
0.0
 11
38.617285
 21
8.359708
 31
0.0
  0
LINE
  5
2e8
100
AcDbEntity
  8
Export_Paths
 62
7
100
AcDbLine
 10
38.617285
 20
8.359708
 30
0.0
 11
38.686535
 21
8.542126
 31
0.0
  0
LINE
  5
2e9
100
AcDbEntity
  8
Export_Paths
 62
7
100
AcDbLine
 10
38.686535
 20
8.542126
 30
0.0
 11
38.530988
 21
8.557626
 31
0.0
  0
LINE
  5
2ea
100
AcDbEntity
  8
Export_Paths
 62
7
100
AcDbLine
 10
38.530988
 20
8.557626
 30
0.0
 11
38.389912
 21
8.686817
 31
0.0
  0
LINE
  5
2eb
100
AcDbEntity
  8
Export_Paths
 62
7
100
AcDbLine
 10
38.389912
 20
8.686817
 30
0.0
 11
38.304132
 21
8.951400
 31
0.0
  0
LINE
  5
2ec
100
AcDbEntity
  8
Export_Paths
 62
7
100
AcDbLine
 10
38.304132
 20
8.951400
 30
0.0
 11
38.476214
 21
9.163790
 31
0.0
  0
LINE
  5
2ed
100
AcDbEntity
  8
Export_Paths
 62
7
100
AcDbLine
 10
38.476214
 20
9.163790
 30
0.0
 11
38.679820
 21
9.181880
 31
0.0
  0
LINE
  5
2ee
100
AcDbEntity
  8
Export_Paths
 62
7
100
AcDbLine
 10
38.679820
 20
9.181880
 30
0.0
 11
38.886009
 21
9.026334
 31
0.0
  0
LINE
  5
2ef
100
AcDbEntity
  8
Export_Paths
 62
7
100
AcDbLine
 10
38.886009
 20
9.026334
 30
0.0
 11
39.054990
 21
8.679585
 31
0.0
  0
LINE
  5
2f0
100
AcDbEntity
  8
Export_Paths
 62
7
100
AcDbLine
 10
39.054990
 20
8.679585
 30
0.0
 11
39.124750
 21
8.274442
 31
0.0
  0
LINE
  5
2f1
100
AcDbEntity
  8
Export_Paths
 62
7
100
AcDbLine
 10
39.124750
 20
8.274442
 30
0.0
 11
39.119050
 21
7.971618
 31
0.0
  0
LINE
  5
2f2
100
AcDbEntity
  8
Export_Paths
 62
7
100
AcDbLine
 10
39.119050
 20
7.971618
 30
0.0
 11
39.049800
 21
7.485343
 31
0.0
  0
LINE
  5
2f3
100
AcDbEntity
  8
Export_Paths
 62
7
100
AcDbLine
 10
39.049800
 20
7.485343
 30
0.0
 11
38.988300
 21
6.653869
 31
0.0
  0
LINE
  5
2f4
100
AcDbEntity
  8
Export_Paths
 62
7
100
AcDbLine
 10
38.988300
 20
6.653869
 30
0.0
 11
39.150564
 21
6.204801
 31
0.0
  0
LINE
  5
2f5
100
AcDbEntity
  8
Export_Paths
 62
7
100
AcDbLine
 10
39.150564
 20
6.204801
 30
0.0
 11
39.204824
 21
6.134001
 31
0.0
  0
LINE
  5
2f6
100
AcDbEntity
  8
Export_Paths
 62
7
100
AcDbLine
 10
39.204824
 20
6.134001
 30
0.0
 11
39.237384
 21
6.094731
 31
0.0
  0
LINE
  5
2f7
100
AcDbEntity
  8
Export_Paths
 62
7
100
AcDbLine
 10
39.237384
 20
6.094731
 30
0.0
 11
39.258054
 21
6.124701
 31
0.0
  0
LINE
  5
2f8
100
AcDbEntity
  8
Export_Paths
 62
7
100
AcDbLine
 10
39.258054
 20
6.124701
 30
0.0
 11
39.292164
 21
6.179481
 31
0.0
  0
LINE
  5
2f9
100
AcDbEntity
  8
Export_Paths
 62
7
100
AcDbLine
 10
39.292164
 20
6.179481
 30
0.0
 11
39.384664
 21
6.320558
 31
0.0
  0
LINE
  5
2fa
100
AcDbEntity
  8
Export_Paths
 62
7
100
AcDbLine
 10
39.384664
 20
6.320558
 30
0.0
 11
39.444604
 21
6.383088
 31
0.0
  0
LINE
  5
2fb
100
AcDbEntity
  8
Export_Paths
 62
7
100
AcDbLine
 10
39.444604
 20
6.383088
 30
0.0
 11
39.634773
 21
6.494710
 31
0.0
  0
LINE
  5
2fc
100
AcDbEntity
  8
Export_Paths
 62
7
100
AcDbLine
 10
39.634773
 20
6.494710
 30
0.0
 11
39.905041
 21
6.610465
 31
0.0
  0
LINE
  5
2fd
100
AcDbEntity
  8
Export_Paths
 62
7
100
AcDbLine
 10
39.905041
 20
6.610465
 30
0.0
 11
40.189261
 21
6.735522
 31
0.0
  0
LINE
  5
2fe
100
AcDbEntity
  8
Export_Paths
 62
7
100
AcDbLine
 10
40.189261
 20
6.735522
 30
0.0
 11
40.393383
 21
6.856961
 31
0.0
  0
LINE
  5
2ff
100
AcDbEntity
  8
Export_Paths
 62
7
100
AcDbLine
 10
40.393383
 20
6.856961
 30
0.0
 11
40.636262
 21
7.190274
 31
0.0
  0
LINE
  5
300
100
AcDbEntity
  8
Export_Paths
 62
7
100
AcDbLine
 10
40.636262
 20
7.190274
 30
0.0
 11
40.445059
 21
7.665698
 31
0.0
  0
LINE
  5
301
100
AcDbEntity
  8
Export_Paths
 62
7
100
AcDbLine
 10
40.445059
 20
7.665698
 30
0.0
 11
40.382009
 21
7.756128
 31
0.0
  0
LINE
  5
302
100
AcDbEntity
  8
Export_Paths
 62
7
100
AcDbLine
 10
40.382009
 20
7.756128
 30
0.0
 11
40.334989
 21
7.816588
 31
0.0
  0
LINE
  5
303
100
AcDbEntity
  8
Export_Paths
 62
7
100
AcDbLine
 10
40.334989
 20
7.816588
 30
0.0
 11
40.287449
 21
7.603164
 31
0.0
  0
LINE
  5
304
100
AcDbEntity
  8
Export_Paths
 62
7
100
AcDbLine
 10
40.287449
 20
7.603164
 30
0.0
 11
40.256959
 21
7.499294
 31
0.0
  0
LINE
  5
305
100
AcDbEntity
  8
Export_Paths
 62
7
100
AcDbLine
 10
40.256959
 20
7.499294
 30
0.0
 11
40.172209
 21
7.368036
 31
0.0
  0
LINE
  5
306
100
AcDbEntity
  8
Export_Paths
 62
7
100
AcDbLine
 10
40.172209
 20
7.368036
 30
0.0
 11
40.035783
 21
7.252798
 31
0.0
  0
LINE
  5
307
100
AcDbEntity
  8
Export_Paths
 62
7
100
AcDbLine
 10
40.035783
 20
7.252798
 30
0.0
 11
39.878170
 21
7.153578
 31
0.0
  0
LINE
  5
308
100
AcDbEntity
  8
Export_Paths
 62
7
100
AcDbLine
 10
39.878170
 20
7.153578
 30
0.0
 11
39.639942
 21
7.029038
 31
0.0
  0
LINE
  5
309
100
AcDbEntity
  8
Export_Paths
 62
7
100
AcDbLine
 10
39.639942
 20
7.029038
 30
0.0
 11
39.444605
 21
6.924652
 31
0.0
  0
LINE
  5
30a
100
AcDbEntity
  8
Export_Paths
 62
7
100
AcDbLine
 10
39.444605
 20
6.924652
 30
0.0
 11
39.328333
 21
6.853852
 31
0.0
  0
LINE
  5
30b
100
AcDbEntity
  8
Export_Paths
 62
7
100
AcDbLine
 10
39.328333
 20
6.853852
 30
0.0
 11
39.311283
 21
6.841962
 31
0.0
  0
LINE
  5
30c
100
AcDbEntity
  8
Export_Paths
 62
7
100
AcDbLine
 10
39.311283
 20
6.841962
 30
0.0
 11
39.332473
 21
7.130317
 31
0.0
  0
LINE
  5
30d
100
AcDbEntity
  8
Export_Paths
 62
7
100
AcDbLine
 10
39.332473
 20
7.130317
 30
0.0
 11
39.466832
 21
7.656383
 31
0.0
  0
LINE
  5
30e
100
AcDbEntity
  8
Export_Paths
 62
7
100
AcDbLine
 10
39.466832
 20
7.656383
 30
0.0
 11
39.600157
 21
8.161778
 31
0.0
  0
LINE
  5
30f
100
AcDbEntity
  8
Export_Paths
 62
7
100
AcDbLine
 10
39.600157
 20
8.161778
 30
0.0
 11
39.645637
 21
8.482172
 31
0.0
  0
LINE
  5
310
100
AcDbEntity
  8
Export_Paths
 62
7
100
AcDbLine
 10
39.645637
 20
8.482172
 30
0.0
 11
39.611527
 21
8.916771
 31
0.0
  0
LINE
  5
311
100
AcDbEntity
  8
Export_Paths
 62
7
100
AcDbLine
 10
39.611527
 20
8.916771
 30
0.0
 11
39.447196
 21
9.287291
 31
0.0
  0
LINE
  5
312
100
AcDbEntity
  8
Export_Paths
 62
7
100
AcDbLine
 10
39.447196
 20
9.287291
 30
0.0
 11
38.990376
 21
9.588565
 31
0.0
  0
LINE
  5
313
100
AcDbEntity
  8
Export_Paths
 62
7
100
AcDbLine
 10
38.990376
 20
9.588565
 30
0.0
 11
38.990385
 21
9.588575
 31
0.0
  0
LINE
  5
314
100
AcDbEntity
  8
Export_Paths
 62
7
100
AcDbLine
 10
37.309867
 20
8.575717
 30
0.0
 11
36.987406
 21
8.469780
 31
0.0
  0
LINE
  5
315
100
AcDbEntity
  8
Export_Paths
 62
7
100
AcDbLine
 10
36.987406
 20
8.469780
 30
0.0
 11
36.548798
 21
8.046132
 31
0.0
  0
LINE
  5
316
100
AcDbEntity
  8
Export_Paths
 62
7
100
AcDbLine
 10
36.548798
 20
8.046132
 30
0.0
 11
36.362638
 21
7.425916
 31
0.0
  0
LINE
  5
317
100
AcDbEntity
  8
Export_Paths
 62
7
100
AcDbLine
 10
36.362638
 20
7.425916
 30
0.0
 11
36.434441
 21
6.690430
 31
0.0
  0
LINE
  5
318
100
AcDbEntity
  8
Export_Paths
 62
7
100
AcDbLine
 10
36.434441
 20
6.690430
 30
0.0
 11
36.762614
 21
5.916964
 31
0.0
  0
LINE
  5
319
100
AcDbEntity
  8
Export_Paths
 62
7
100
AcDbLine
 10
36.762614
 20
5.916964
 30
0.0
 11
37.373946
 21
5.262740
 31
0.0
  0
LINE
  5
31a
100
AcDbEntity
  8
Export_Paths
 62
7
100
AcDbLine
 10
37.373946
 20
5.262740
 30
0.0
 11
37.698195
 21
5.240751
 31
0.0
  0
LINE
  5
31b
100
AcDbEntity
  8
Export_Paths
 62
7
100
AcDbLine
 10
37.698195
 20
5.240751
 30
0.0
 11
38.077779
 21
5.389864
 31
0.0
  0
LINE
  5
31c
100
AcDbEntity
  8
Export_Paths
 62
7
100
AcDbLine
 10
38.077779
 20
5.389864
 30
0.0
 11
38.467936
 21
5.848751
 31
0.0
  0
LINE
  5
31d
100
AcDbEntity
  8
Export_Paths
 62
7
100
AcDbLine
 10
38.467936
 20
5.848751
 30
0.0
 11
38.573873
 21
6.589274
 31
0.0
  0
LINE
  5
31e
100
AcDbEntity
  8
Export_Paths
 62
7
100
AcDbLine
 10
38.573873
 20
6.589274
 30
0.0
 11
38.452433
 21
7.266752
 31
0.0
  0
LINE
  5
31f
100
AcDbEntity
  8
Export_Paths
 62
7
100
AcDbLine
 10
38.452433
 20
7.266752
 30
0.0
 11
38.191984
 21
7.888420
 31
0.0
  0
LINE
  5
320
100
AcDbEntity
  8
Export_Paths
 62
7
100
AcDbLine
 10
38.191984
 20
7.888420
 30
0.0
 11
37.616309
 21
8.514222
 31
0.0
  0
LINE
  5
321
100
AcDbEntity
  8
Export_Paths
 62
7
100
AcDbLine
 10
37.616309
 20
8.514222
 30
0.0
 11
37.309867
 21
8.575722
 31
0.0
  0
LINE
  5
322
100
AcDbEntity
  8
Export_Paths
 62
7
100
AcDbLine
 10
37.309867
 20
8.575722
 30
0.0
 11
37.309867
 21
8.575717
 31
0.0
  0
LINE
  5
323
100
AcDbEntity
  8
Export_Paths
 62
7
100
AcDbLine
 10
12.043193
 20
8.487347
 30
0.0
 11
10.490316
 21
6.980462
 31
0.0
  0
LINE
  5
324
100
AcDbEntity
  8
Export_Paths
 62
7
100
AcDbLine
 10
10.490316
 20
6.980462
 30
0.0
 11
10.996228
 21
6.640431
 31
0.0
  0
LINE
  5
325
100
AcDbEntity
  8
Export_Paths
 62
7
100
AcDbLine
 10
10.996228
 20
6.640431
 30
0.0
 11
12.174451
 21
7.787131
 31
0.0
  0
LINE
  5
326
100
AcDbEntity
  8
Export_Paths
 62
7
100
AcDbLine
 10
12.174451
 20
7.787131
 30
0.0
 11
12.391492
 21
7.799021
 31
0.0
  0
LINE
  5
327
100
AcDbEntity
  8
Export_Paths
 62
7
100
AcDbLine
 10
12.391492
 20
7.799021
 30
0.0
 11
12.520683
 21
7.747861
 31
0.0
  0
LINE
  5
328
100
AcDbEntity
  8
Export_Paths
 62
7
100
AcDbLine
 10
12.520683
 20
7.747861
 30
0.0
 11
12.547553
 21
7.704451
 31
0.0
  0
LINE
  5
329
100
AcDbEntity
  8
Export_Paths
 62
7
100
AcDbLine
 10
12.547553
 20
7.704451
 30
0.0
 11
12.524813
 21
7.617631
 31
0.0
  0
LINE
  5
32a
100
AcDbEntity
  8
Export_Paths
 62
7
100
AcDbLine
 10
12.524813
 20
7.617631
 30
0.0
 11
12.492773
 21
7.470870
 31
0.0
  0
LINE
  5
32b
100
AcDbEntity
  8
Export_Paths
 62
7
100
AcDbLine
 10
12.492773
 20
7.470870
 30
0.0
 11
12.568733
 21
7.379400
 31
0.0
  0
LINE
  5
32c
100
AcDbEntity
  8
Export_Paths
 62
7
100
AcDbLine
 10
12.568733
 20
7.379400
 30
0.0
 11
12.800760
 21
7.330310
 31
0.0
  0
LINE
  5
32d
100
AcDbEntity
  8
Export_Paths
 62
7
100
AcDbLine
 10
12.800760
 20
7.330310
 30
0.0
 11
12.994030
 21
7.465703
 31
0.0
  0
LINE
  5
32e
100
AcDbEntity
  8
Export_Paths
 62
7
100
AcDbLine
 10
12.994030
 20
7.465703
 30
0.0
 11
13.052420
 21
7.696696
 31
0.0
  0
LINE
  5
32f
100
AcDbEntity
  8
Export_Paths
 62
7
100
AcDbLine
 10
13.052420
 20
7.696696
 30
0.0
 11
12.928397
 21
7.892033
 31
0.0
  0
LINE
  5
330
100
AcDbEntity
  8
Export_Paths
 62
7
100
AcDbLine
 10
12.928397
 20
7.892033
 30
0.0
 11
12.714973
 21
7.969543
 31
0.0
  0
LINE
  5
331
100
AcDbEntity
  8
Export_Paths
 62
7
100
AcDbLine
 10
12.714973
 20
7.969543
 30
0.0
 11
12.356855
 21
7.960243
 31
0.0
  0
LINE
  5
332
100
AcDbEntity
  8
Export_Paths
 62
7
100
AcDbLine
 10
12.356855
 20
7.960243
 30
0.0
 11
12.549092
 21
8.147312
 31
0.0
  0
LINE
  5
333
100
AcDbEntity
  8
Export_Paths
 62
7
100
AcDbLine
 10
12.549092
 20
8.147312
 30
0.0
 11
12.043193
 21
8.487347
 31
0.0
  0
LINE
  5
334
100
AcDbEntity
  8
Export_Paths
 62
7
100
AcDbLine
 10
37.177576
 20
8.285809
 30
0.0
 11
37.289714
 21
8.233619
 31
0.0
  0
LINE
  5
335
100
AcDbEntity
  8
Export_Paths
 62
7
100
AcDbLine
 10
37.289714
 20
8.233619
 30
0.0
 11
37.576518
 21
7.846562
 31
0.0
  0
LINE
  5
336
100
AcDbEntity
  8
Export_Paths
 62
7
100
AcDbLine
 10
37.576518
 20
7.846562
 30
0.0
 11
38.097416
 21
6.500391
 31
0.0
  0
LINE
  5
337
100
AcDbEntity
  8
Export_Paths
 62
7
100
AcDbLine
 10
38.097416
 20
6.500391
 30
0.0
 11
38.106337
 21
5.988715
 31
0.0
  0
LINE
  5
338
100
AcDbEntity
  8
Export_Paths
 62
7
100
AcDbLine
 10
38.106337
 20
5.988715
 30
0.0
 11
37.918616
 21
5.708191
 31
0.0
  0
LINE
  5
339
100
AcDbEntity
  8
Export_Paths
 62
7
100
AcDbLine
 10
37.918616
 20
5.708191
 30
0.0
 11
37.676770
 21
5.754701
 31
0.0
  0
LINE
  5
33a
100
AcDbEntity
  8
Export_Paths
 62
7
100
AcDbLine
 10
37.676770
 20
5.754701
 30
0.0
 11
37.383248
 21
6.137623
 31
0.0
  0
LINE
  5
33b
100
AcDbEntity
  8
Export_Paths
 62
7
100
AcDbLine
 10
37.383248
 20
6.137623
 30
0.0
 11
37.315038
 21
6.264231
 31
0.0
  0
LINE
  5
33c
100
AcDbEntity
  8
Export_Paths
 62
7
100
AcDbLine
 10
37.315038
 20
6.264231
 30
0.0
 11
37.192048
 21
6.511244
 31
0.0
  0
LINE
  5
33d
100
AcDbEntity
  8
Export_Paths
 62
7
100
AcDbLine
 10
37.192048
 20
6.511244
 30
0.0
 11
37.016348
 21
6.952561
 31
0.0
  0
LINE
  5
33e
100
AcDbEntity
  8
Export_Paths
 62
7
100
AcDbLine
 10
37.016348
 20
6.952561
 30
0.0
 11
36.916608
 21
7.388193
 31
0.0
  0
LINE
  5
33f
100
AcDbEntity
  8
Export_Paths
 62
7
100
AcDbLine
 10
36.916608
 20
7.388193
 30
0.0
 11
36.913508
 21
7.953533
 31
0.0
  0
LINE
  5
340
100
AcDbEntity
  8
Export_Paths
 62
7
100
AcDbLine
 10
36.913508
 20
7.953533
 30
0.0
 11
37.071638
 21
8.264109
 31
0.0
  0
LINE
  5
341
100
AcDbEntity
  8
Export_Paths
 62
7
100
AcDbLine
 10
37.071638
 20
8.264109
 30
0.0
 11
37.177575
 21
8.285809
 31
0.0
  0
LINE
  5
342
100
AcDbEntity
  8
Export_Paths
 62
7
100
AcDbLine
 10
37.177575
 20
8.285809
 30
0.0
 11
37.177576
 21
8.285809
 31
0.0
  0
LINE
  5
343
100
AcDbEntity
  8
Export_Paths
 62
7
100
AcDbLine
 10
35.488790
 20
7.528232
 30
0.0
 11
35.004582
 21
7.410927
 31
0.0
  0
LINE
  5
344
100
AcDbEntity
  8
Export_Paths
 62
7
100
AcDbLine
 10
35.004582
 20
7.410927
 30
0.0
 11
34.497636
 21
6.984079
 31
0.0
  0
LINE
  5
345
100
AcDbEntity
  8
Export_Paths
 62
7
100
AcDbLine
 10
34.497636
 20
6.984079
 30
0.0
 11
34.475416
 21
6.479201
 31
0.0
  0
LINE
  5
346
100
AcDbEntity
  8
Export_Paths
 62
7
100
AcDbLine
 10
34.475416
 20
6.479201
 30
0.0
 11
34.666102
 21
6.259576
 31
0.0
  0
LINE
  5
347
100
AcDbEntity
  8
Export_Paths
 62
7
100
AcDbLine
 10
34.666102
 20
6.259576
 30
0.0
 11
34.912599
 21
6.261676
 31
0.0
  0
LINE
  5
348
100
AcDbEntity
  8
Export_Paths
 62
7
100
AcDbLine
 10
34.912599
 20
6.261676
 30
0.0
 11
35.044374
 21
6.360376
 31
0.0
  0
LINE
  5
349
100
AcDbEntity
  8
Export_Paths
 62
7
100
AcDbLine
 10
35.044374
 20
6.360376
 30
0.0
 11
35.143594
 21
6.527808
 31
0.0
  0
LINE
  5
34a
100
AcDbEntity
  8
Export_Paths
 62
7
100
AcDbLine
 10
35.143594
 20
6.527808
 30
0.0
 11
34.993216
 21
6.570178
 31
0.0
  0
LINE
  5
34b
100
AcDbEntity
  8
Export_Paths
 62
7
100
AcDbLine
 10
34.993216
 20
6.570178
 30
0.0
 11
34.876427
 21
6.721073
 31
0.0
  0
LINE
  5
34c
100
AcDbEntity
  8
Export_Paths
 62
7
100
AcDbLine
 10
34.876427
 20
6.721073
 30
0.0
 11
34.837157
 21
6.997026
 31
0.0
  0
LINE
  5
34d
100
AcDbEntity
  8
Export_Paths
 62
7
100
AcDbLine
 10
34.837157
 20
6.997026
 30
0.0
 11
35.043346
 21
7.176859
 31
0.0
  0
LINE
  5
34e
100
AcDbEntity
  8
Export_Paths
 62
7
100
AcDbLine
 10
35.043346
 20
7.176859
 30
0.0
 11
35.246951
 21
7.159289
 31
0.0
  0
LINE
  5
34f
100
AcDbEntity
  8
Export_Paths
 62
7
100
AcDbLine
 10
35.246951
 20
7.159289
 30
0.0
 11
35.423685
 21
6.970670
 31
0.0
  0
LINE
  5
350
100
AcDbEntity
  8
Export_Paths
 62
7
100
AcDbLine
 10
35.423685
 20
6.970670
 30
0.0
 11
35.530138
 21
6.600150
 31
0.0
  0
LINE
  5
351
100
AcDbEntity
  8
Export_Paths
 62
7
100
AcDbLine
 10
35.530138
 20
6.600150
 30
0.0
 11
35.529621
 21
6.189322
 31
0.0
  0
LINE
  5
352
100
AcDbEntity
  8
Export_Paths
 62
7
100
AcDbLine
 10
35.529621
 20
6.189322
 30
0.0
 11
35.471741
 21
5.891666
 31
0.0
  0
LINE
  5
353
100
AcDbEntity
  8
Export_Paths
 62
7
100
AcDbLine
 10
35.471741
 20
5.891666
 30
0.0
 11
35.320329
 21
5.424511
 31
0.0
  0
LINE
  5
354
100
AcDbEntity
  8
Export_Paths
 62
7
100
AcDbLine
 10
35.320329
 20
5.424511
 30
0.0
 11
35.116724
 21
4.615775
 31
0.0
  0
LINE
  5
355
100
AcDbEntity
  8
Export_Paths
 62
7
100
AcDbLine
 10
35.116724
 20
4.615775
 30
0.0
 11
35.199924
 21
4.145519
 31
0.0
  0
LINE
  5
356
100
AcDbEntity
  8
Export_Paths
 62
7
100
AcDbLine
 10
35.199924
 20
4.145519
 30
0.0
 11
35.241264
 21
4.066969
 31
0.0
  0
LINE
  5
357
100
AcDbEntity
  8
Export_Paths
 62
7
100
AcDbLine
 10
35.241264
 20
4.066969
 30
0.0
 11
35.266064
 21
4.022529
 31
0.0
  0
LINE
  5
358
100
AcDbEntity
  8
Export_Paths
 62
7
100
AcDbLine
 10
35.266064
 20
4.022529
 30
0.0
 11
35.291904
 21
4.048369
 31
0.0
  0
LINE
  5
359
100
AcDbEntity
  8
Export_Paths
 62
7
100
AcDbLine
 10
35.291904
 20
4.048369
 30
0.0
 11
35.334794
 21
4.096429
 31
0.0
  0
LINE
  5
35a
100
AcDbEntity
  8
Export_Paths
 62
7
100
AcDbLine
 10
35.334794
 20
4.096429
 30
0.0
 11
35.450033
 21
4.219936
 31
0.0
  0
LINE
  5
35b
100
AcDbEntity
  8
Export_Paths
 62
7
100
AcDbLine
 10
35.450033
 20
4.219936
 30
0.0
 11
35.519793
 21
4.270576
 31
0.0
  0
LINE
  5
35c
100
AcDbEntity
  8
Export_Paths
 62
7
100
AcDbLine
 10
35.519793
 20
4.270576
 30
0.0
 11
35.726498
 21
4.348086
 31
0.0
  0
LINE
  5
35d
100
AcDbEntity
  8
Export_Paths
 62
7
100
AcDbLine
 10
35.726498
 20
4.348086
 30
0.0
 11
36.012786
 21
4.415786
 31
0.0
  0
LINE
  5
35e
100
AcDbEntity
  8
Export_Paths
 62
7
100
AcDbLine
 10
36.012786
 20
4.415786
 30
0.0
 11
36.314059
 21
4.490196
 31
0.0
  0
LINE
  5
35f
100
AcDbEntity
  8
Export_Paths
 62
7
100
AcDbLine
 10
36.314059
 20
4.490196
 30
0.0
 11
36.536268
 21
4.574946
 31
0.0
  0
LINE
  5
360
100
AcDbEntity
  8
Export_Paths
 62
7
100
AcDbLine
 10
36.536268
 20
4.574946
 30
0.0
 11
36.832374
 21
4.861750
 31
0.0
  0
LINE
  5
361
100
AcDbEntity
  8
Export_Paths
 62
7
100
AcDbLine
 10
36.832374
 20
4.861750
 30
0.0
 11
36.725404
 21
5.363012
 31
0.0
  0
LINE
  5
362
100
AcDbEntity
  8
Export_Paths
 62
7
100
AcDbLine
 10
36.725404
 20
5.363012
 30
0.0
 11
36.679414
 21
5.462742
 31
0.0
  0
LINE
  5
363
100
AcDbEntity
  8
Export_Paths
 62
7
100
AcDbLine
 10
36.679414
 20
5.462742
 30
0.0
 11
36.643244
 21
5.529922
 31
0.0
  0
LINE
  5
364
100
AcDbEntity
  8
Export_Paths
 62
7
100
AcDbLine
 10
36.643244
 20
5.529922
 30
0.0
 11
36.560044
 21
5.327867
 31
0.0
  0
LINE
  5
365
100
AcDbEntity
  8
Export_Paths
 62
7
100
AcDbLine
 10
36.560044
 20
5.327867
 30
0.0
 11
36.511464
 21
5.230717
 31
0.0
  0
LINE
  5
366
100
AcDbEntity
  8
Export_Paths
 62
7
100
AcDbLine
 10
36.511464
 20
5.230717
 30
0.0
 11
36.406045
 21
5.116512
 31
0.0
  0
LINE
  5
367
100
AcDbEntity
  8
Export_Paths
 62
7
100
AcDbLine
 10
36.406045
 20
5.116512
 30
0.0
 11
36.252049
 21
5.026082
 31
0.0
  0
LINE
  5
368
100
AcDbEntity
  8
Export_Paths
 62
7
100
AcDbLine
 10
36.252049
 20
5.026082
 30
0.0
 11
36.079449
 21
4.955282
 31
0.0
  0
LINE
  5
369
100
AcDbEntity
  8
Export_Paths
 62
7
100
AcDbLine
 10
36.079449
 20
4.955282
 30
0.0
 11
35.823134
 21
4.873632
 31
0.0
  0
LINE
  5
36a
100
AcDbEntity
  8
Export_Paths
 62
7
100
AcDbLine
 10
35.823134
 20
4.873632
 30
0.0
 11
35.612811
 21
4.803872
 31
0.0
  0
LINE
  5
36b
100
AcDbEntity
  8
Export_Paths
 62
7
100
AcDbLine
 10
35.612811
 20
4.803872
 30
0.0
 11
35.486204
 21
4.754782
 31
0.0
  0
LINE
  5
36c
100
AcDbEntity
  8
Export_Paths
 62
7
100
AcDbLine
 10
35.486204
 20
4.754782
 30
0.0
 11
35.467084
 21
4.745982
 31
0.0
  0
LINE
  5
36d
100
AcDbEntity
  8
Export_Paths
 62
7
100
AcDbLine
 10
35.467084
 20
4.745982
 30
0.0
 11
35.537884
 21
5.026068
 31
0.0
  0
LINE
  5
36e
100
AcDbEntity
  8
Export_Paths
 62
7
100
AcDbLine
 10
35.537884
 20
5.026068
 30
0.0
 11
35.760610
 21
5.521645
 31
0.0
  0
LINE
  5
36f
100
AcDbEntity
  8
Export_Paths
 62
7
100
AcDbLine
 10
35.760610
 20
5.521645
 30
0.0
 11
35.978684
 21
5.996035
 31
0.0
  0
LINE
  5
370
100
AcDbEntity
  8
Export_Paths
 62
7
100
AcDbLine
 10
35.978684
 20
5.996035
 30
0.0
 11
36.078424
 21
6.304027
 31
0.0
  0
LINE
  5
371
100
AcDbEntity
  8
Export_Paths
 62
7
100
AcDbLine
 10
36.078424
 20
6.304027
 30
0.0
 11
36.119244
 21
6.738625
 31
0.0
  0
LINE
  5
372
100
AcDbEntity
  8
Export_Paths
 62
7
100
AcDbLine
 10
36.119244
 20
6.738625
 30
0.0
 11
36.021054
 21
7.131366
 31
0.0
  0
LINE
  5
373
100
AcDbEntity
  8
Export_Paths
 62
7
100
AcDbLine
 10
36.021054
 20
7.131366
 30
0.0
 11
35.622629
 21
7.506537
 31
0.0
  0
LINE
  5
374
100
AcDbEntity
  8
Export_Paths
 62
7
100
AcDbLine
 10
35.622629
 20
7.506537
 30
0.0
 11
35.488787
 21
7.528237
 31
0.0
  0
LINE
  5
375
100
AcDbEntity
  8
Export_Paths
 62
7
100
AcDbLine
 10
35.488787
 20
7.528237
 30
0.0
 11
35.488790
 21
7.528232
 31
0.0
  0
LINE
  5
376
100
AcDbEntity
  8
Export_Paths
 62
7
100
AcDbLine
 10
13.467395
 20
7.454852
 30
0.0
 11
12.952698
 21
7.315325
 31
0.0
  0
LINE
  5
377
100
AcDbEntity
  8
Export_Paths
 62
7
100
AcDbLine
 10
12.952698
 20
7.315325
 30
0.0
 11
12.525334
 21
7.004233
 31
0.0
  0
LINE
  5
378
100
AcDbEntity
  8
Export_Paths
 62
7
100
AcDbLine
 10
12.525334
 20
7.004233
 30
0.0
 11
12.204423
 21
6.598056
 31
0.0
  0
LINE
  5
379
100
AcDbEntity
  8
Export_Paths
 62
7
100
AcDbLine
 10
12.204423
 20
6.598056
 30
0.0
 11
12.106233
 21
6.078192
 31
0.0
  0
LINE
  5
37a
100
AcDbEntity
  8
Export_Paths
 62
7
100
AcDbLine
 10
12.106233
 20
6.078192
 30
0.0
 11
12.458666
 21
5.680800
 31
0.0
  0
LINE
  5
37b
100
AcDbEntity
  8
Export_Paths
 62
7
100
AcDbLine
 10
12.458666
 20
5.680800
 30
0.0
 11
12.824740
 21
5.572026
 31
0.0
  0
LINE
  5
37c
100
AcDbEntity
  8
Export_Paths
 62
7
100
AcDbLine
 10
12.824740
 20
5.572026
 30
0.0
 11
13.225028
 21
5.646180
 31
0.0
  0
LINE
  5
37d
100
AcDbEntity
  8
Export_Paths
 62
7
100
AcDbLine
 10
13.225028
 20
5.646180
 30
0.0
 11
13.970718
 21
6.282316
 31
0.0
  0
LINE
  5
37e
100
AcDbEntity
  8
Export_Paths
 62
7
100
AcDbLine
 10
13.970718
 20
6.282316
 30
0.0
 11
14.361392
 21
6.188786
 31
0.0
  0
LINE
  5
37f
100
AcDbEntity
  8
Export_Paths
 62
7
100
AcDbLine
 10
14.361392
 20
6.188786
 30
0.0
 11
13.524234
 21
5.035885
 31
0.0
  0
LINE
  5
380
100
AcDbEntity
  8
Export_Paths
 62
7
100
AcDbLine
 10
13.524234
 20
5.035885
 30
0.0
 11
14.081306
 21
4.787838
 31
0.0
  0
LINE
  5
381
100
AcDbEntity
  8
Export_Paths
 62
7
100
AcDbLine
 10
14.081306
 20
4.787838
 30
0.0
 11
14.897277
 21
5.911800
 31
0.0
  0
LINE
  5
382
100
AcDbEntity
  8
Export_Paths
 62
7
100
AcDbLine
 10
14.897277
 20
5.911800
 30
0.0
 11
15.145841
 21
6.116439
 31
0.0
  0
LINE
  5
383
100
AcDbEntity
  8
Export_Paths
 62
7
100
AcDbLine
 10
15.145841
 20
6.116439
 30
0.0
 11
15.370633
 21
6.131939
 31
0.0
  0
LINE
  5
384
100
AcDbEntity
  8
Export_Paths
 62
7
100
AcDbLine
 10
15.370633
 20
6.131939
 30
0.0
 11
15.434713
 21
6.047709
 31
0.0
  0
LINE
  5
385
100
AcDbEntity
  8
Export_Paths
 62
7
100
AcDbLine
 10
15.434713
 20
6.047709
 30
0.0
 11
15.410943
 21
5.910250
 31
0.0
  0
LINE
  5
386
100
AcDbEntity
  8
Export_Paths
 62
7
100
AcDbLine
 10
15.410943
 20
5.910250
 30
0.0
 11
15.384593
 21
5.861670
 31
0.0
  0
LINE
  5
387
100
AcDbEntity
  8
Export_Paths
 62
7
100
AcDbLine
 10
15.384593
 20
5.861670
 30
0.0
 11
15.356173
 21
5.818780
 31
0.0
  0
LINE
  5
388
100
AcDbEntity
  8
Export_Paths
 62
7
100
AcDbLine
 10
15.356173
 20
5.818780
 30
0.0
 11
14.479740
 21
4.610068
 31
0.0
  0
LINE
  5
389
100
AcDbEntity
  8
Export_Paths
 62
7
100
AcDbLine
 10
14.479740
 20
4.610068
 30
0.0
 11
15.036296
 21
4.362021
 31
0.0
  0
LINE
  5
38a
100
AcDbEntity
  8
Export_Paths
 62
7
100
AcDbLine
 10
15.036296
 20
4.362021
 30
0.0
 11
15.852266
 21
5.486500
 31
0.0
  0
LINE
  5
38b
100
AcDbEntity
  8
Export_Paths
 62
7
100
AcDbLine
 10
15.852266
 20
5.486500
 30
0.0
 11
16.095146
 21
5.688555
 31
0.0
  0
LINE
  5
38c
100
AcDbEntity
  8
Export_Paths
 62
7
100
AcDbLine
 10
16.095146
 20
5.688555
 30
0.0
 11
16.312187
 21
5.707675
 31
0.0
  0
LINE
  5
38d
100
AcDbEntity
  8
Export_Paths
 62
7
100
AcDbLine
 10
16.312187
 20
5.707675
 30
0.0
 11
16.394347
 21
5.611045
 31
0.0
  0
LINE
  5
38e
100
AcDbEntity
  8
Export_Paths
 62
7
100
AcDbLine
 10
16.394347
 20
5.611045
 30
0.0
 11
16.363857
 21
5.448781
 31
0.0
  0
LINE
  5
38f
100
AcDbEntity
  8
Export_Paths
 62
7
100
AcDbLine
 10
16.363857
 20
5.448781
 30
0.0
 11
16.276007
 21
5.293235
 31
0.0
  0
LINE
  5
390
100
AcDbEntity
  8
Export_Paths
 62
7
100
AcDbLine
 10
16.276007
 20
5.293235
 30
0.0
 11
16.065167
 21
5.006947
 31
0.0
  0
LINE
  5
391
100
AcDbEntity
  8
Export_Paths
 62
7
100
AcDbLine
 10
16.065167
 20
5.006947
 30
0.0
 11
15.843475
 21
4.707224
 31
0.0
  0
LINE
  5
392
100
AcDbEntity
  8
Export_Paths
 62
7
100
AcDbLine
 10
15.843475
 20
4.707224
 30
0.0
 11
15.750455
 21
4.540309
 31
0.0
  0
LINE
  5
393
100
AcDbEntity
  8
Export_Paths
 62
7
100
AcDbLine
 10
15.750455
 20
4.540309
 30
0.0
 11
15.727195
 21
4.165655
 31
0.0
  0
LINE
  5
394
100
AcDbEntity
  8
Export_Paths
 62
7
100
AcDbLine
 10
15.727195
 20
4.165655
 30
0.0
 11
16.012449
 21
3.900038
 31
0.0
  0
LINE
  5
395
100
AcDbEntity
  8
Export_Paths
 62
7
100
AcDbLine
 10
16.012449
 20
3.900038
 30
0.0
 11
16.509060
 21
3.891738
 31
0.0
  0
LINE
  5
396
100
AcDbEntity
  8
Export_Paths
 62
7
100
AcDbLine
 10
16.509060
 20
3.891738
 30
0.0
 11
17.050112
 21
4.294814
 31
0.0
  0
LINE
  5
397
100
AcDbEntity
  8
Export_Paths
 62
7
100
AcDbLine
 10
17.050112
 20
4.294814
 30
0.0
 11
16.887848
 21
4.367164
 31
0.0
  0
LINE
  5
398
100
AcDbEntity
  8
Export_Paths
 62
7
100
AcDbLine
 10
16.887848
 20
4.367164
 30
0.0
 11
16.606728
 21
4.163042
 31
0.0
  0
LINE
  5
399
100
AcDbEntity
  8
Export_Paths
 62
7
100
AcDbLine
 10
16.606728
 20
4.163042
 30
0.0
 11
16.411391
 21
4.171842
 31
0.0
  0
LINE
  5
39a
100
AcDbEntity
  8
Export_Paths
 62
7
100
AcDbLine
 10
16.411391
 20
4.171842
 30
0.0
 11
16.312691
 21
4.261762
 31
0.0
  0
LINE
  5
39b
100
AcDbEntity
  8
Export_Paths
 62
7
100
AcDbLine
 10
16.312691
 20
4.261762
 30
0.0
 11
16.328711
 21
4.402839
 31
0.0
  0
LINE
  5
39c
100
AcDbEntity
  8
Export_Paths
 62
7
100
AcDbLine
 10
16.328711
 20
4.402839
 30
0.0
 11
16.404671
 21
4.531513
 31
0.0
  0
LINE
  5
39d
100
AcDbEntity
  8
Export_Paths
 62
7
100
AcDbLine
 10
16.404671
 20
4.531513
 30
0.0
 11
16.594324
 21
4.780593
 31
0.0
  0
LINE
  5
39e
100
AcDbEntity
  8
Export_Paths
 62
7
100
AcDbLine
 10
16.594324
 20
4.780593
 30
0.0
 11
16.840821
 21
5.115457
 31
0.0
  0
LINE
  5
39f
100
AcDbEntity
  8
Export_Paths
 62
7
100
AcDbLine
 10
16.840821
 20
5.115457
 30
0.0
 11
16.959160
 21
5.318028
 31
0.0
  0
LINE
  5
3a0
100
AcDbEntity
  8
Export_Paths
 62
7
100
AcDbLine
 10
16.959160
 20
5.318028
 30
0.0
 11
16.991720
 21
5.692682
 31
0.0
  0
LINE
  5
3a1
100
AcDbEntity
  8
Export_Paths
 62
7
100
AcDbLine
 10
16.991720
 20
5.692682
 30
0.0
 11
16.724553
 21
5.945897
 31
0.0
  0
LINE
  5
3a2
100
AcDbEntity
  8
Export_Paths
 62
7
100
AcDbLine
 10
16.724553
 20
5.945897
 30
0.0
 11
16.390206
 21
5.997577
 31
0.0
  0
LINE
  5
3a3
100
AcDbEntity
  8
Export_Paths
 62
7
100
AcDbLine
 10
16.390206
 20
5.997577
 30
0.0
 11
16.040357
 21
5.857017
 31
0.0
  0
LINE
  5
3a4
100
AcDbEntity
  8
Export_Paths
 62
7
100
AcDbLine
 10
16.040357
 20
5.857017
 30
0.0
 11
16.019167
 21
6.162942
 31
0.0
  0
LINE
  5
3a5
100
AcDbEntity
  8
Export_Paths
 62
7
100
AcDbLine
 10
16.019167
 20
6.162942
 30
0.0
 11
15.790241
 21
6.367064
 31
0.0
  0
LINE
  5
3a6
100
AcDbEntity
  8
Export_Paths
 62
7
100
AcDbLine
 10
15.790241
 20
6.367064
 30
0.0
 11
15.507054
 21
6.428044
 31
0.0
  0
LINE
  5
3a7
100
AcDbEntity
  8
Export_Paths
 62
7
100
AcDbLine
 10
15.507054
 20
6.428044
 30
0.0
 11
15.220250
 21
6.356734
 31
0.0
  0
LINE
  5
3a8
100
AcDbEntity
  8
Export_Paths
 62
7
100
AcDbLine
 10
15.220250
 20
6.356734
 30
0.0
 11
15.352541
 21
6.538635
 31
0.0
  0
LINE
  5
3a9
100
AcDbEntity
  8
Export_Paths
 62
7
100
AcDbLine
 10
15.352541
 20
6.538635
 30
0.0
 11
14.795469
 21
6.786681
 31
0.0
  0
LINE
  5
3aa
100
AcDbEntity
  8
Export_Paths
 62
7
100
AcDbLine
 10
14.795469
 20
6.786681
 30
0.0
 11
14.470941
 21
6.339680
 31
0.0
  0
LINE
  5
3ab
100
AcDbEntity
  8
Export_Paths
 62
7
100
AcDbLine
 10
14.470941
 20
6.339680
 30
0.0
 11
14.434771
 21
6.342780
 31
0.0
  0
LINE
  5
3ac
100
AcDbEntity
  8
Export_Paths
 62
7
100
AcDbLine
 10
14.434771
 20
6.342780
 30
0.0
 11
14.127296
 21
6.436310
 31
0.0
  0
LINE
  5
3ad
100
AcDbEntity
  8
Export_Paths
 62
7
100
AcDbLine
 10
14.127296
 20
6.436310
 30
0.0
 11
14.101456
 21
6.451300
 31
0.0
  0
LINE
  5
3ae
100
AcDbEntity
  8
Export_Paths
 62
7
100
AcDbLine
 10
14.101456
 20
6.451300
 30
0.0
 11
14.091126
 21
6.466800
 31
0.0
  0
LINE
  5
3af
100
AcDbEntity
  8
Export_Paths
 62
7
100
AcDbLine
 10
14.091126
 20
6.466800
 30
0.0
 11
14.226518
 21
6.974780
 31
0.0
  0
LINE
  5
3b0
100
AcDbEntity
  8
Export_Paths
 62
7
100
AcDbLine
 10
14.226518
 20
6.974780
 30
0.0
 11
13.958317
 21
7.324112
 31
0.0
  0
LINE
  5
3b1
100
AcDbEntity
  8
Export_Paths
 62
7
100
AcDbLine
 10
13.958317
 20
7.324112
 30
0.0
 11
13.467391
 21
7.454854
 31
0.0
  0
LINE
  5
3b2
100
AcDbEntity
  8
Export_Paths
 62
7
100
AcDbLine
 10
13.467391
 20
7.454854
 30
0.0
 11
13.467395
 21
7.454852
 31
0.0
  0
LINE
  5
3b3
100
AcDbEntity
  8
Export_Paths
 62
7
100
AcDbLine
 10
13.759367
 20
7.110687
 30
0.0
 11
13.859107
 21
7.083297
 31
0.0
  0
LINE
  5
3b4
100
AcDbEntity
  8
Export_Paths
 62
7
100
AcDbLine
 10
13.859107
 20
7.083297
 30
0.0
 11
13.930937
 21
6.978394
 31
0.0
  0
LINE
  5
3b5
100
AcDbEntity
  8
Export_Paths
 62
7
100
AcDbLine
 10
13.930937
 20
6.978394
 30
0.0
 11
13.876677
 21
6.790292
 31
0.0
  0
LINE
  5
3b6
100
AcDbEntity
  8
Export_Paths
 62
7
100
AcDbLine
 10
13.876677
 20
6.790292
 30
0.0
 11
13.748003
 21
6.761352
 31
0.0
  0
LINE
  5
3b7
100
AcDbEntity
  8
Export_Paths
 62
7
100
AcDbLine
 10
13.748003
 20
6.761352
 30
0.0
 11
13.648783
 21
6.656966
 31
0.0
  0
LINE
  5
3b8
100
AcDbEntity
  8
Export_Paths
 62
7
100
AcDbLine
 10
13.648783
 20
6.656966
 30
0.0
 11
13.610023
 21
6.538110
 31
0.0
  0
LINE
  5
3b9
100
AcDbEntity
  8
Export_Paths
 62
7
100
AcDbLine
 10
13.610023
 20
6.538110
 30
0.0
 11
13.659633
 21
6.446130
 31
0.0
  0
LINE
  5
3ba
100
AcDbEntity
  8
Export_Paths
 62
7
100
AcDbLine
 10
13.659633
 20
6.446130
 30
0.0
 11
13.178526
 21
5.999645
 31
0.0
  0
LINE
  5
3bb
100
AcDbEntity
  8
Export_Paths
 62
7
100
AcDbLine
 10
13.178526
 20
5.999645
 30
0.0
 11
12.795087
 21
5.926785
 31
0.0
  0
LINE
  5
3bc
100
AcDbEntity
  8
Export_Paths
 62
7
100
AcDbLine
 10
12.795087
 20
5.926785
 30
0.0
 11
12.680365
 21
6.075613
 31
0.0
  0
LINE
  5
3bd
100
AcDbEntity
  8
Export_Paths
 62
7
100
AcDbLine
 10
12.680365
 20
6.075613
 30
0.0
 11
12.778555
 21
6.331928
 31
0.0
  0
LINE
  5
3be
100
AcDbEntity
  8
Export_Paths
 62
7
100
AcDbLine
 10
12.778555
 20
6.331928
 30
0.0
 11
13.320641
 21
6.918972
 31
0.0
  0
LINE
  5
3bf
100
AcDbEntity
  8
Export_Paths
 62
7
100
AcDbLine
 10
13.320641
 20
6.918972
 30
0.0
 11
13.759374
 21
7.110692
 31
0.0
  0
LINE
  5
3c0
100
AcDbEntity
  8
Export_Paths
 62
7
100
AcDbLine
 10
13.759374
 20
7.110692
 30
0.0
 11
13.759367
 21
7.110687
 31
0.0
  0
LINE
  5
3c1
100
AcDbEntity
  8
Export_Paths
 62
7
100
AcDbLine
 10
19.488216
 20
6.063205
 30
0.0
 11
19.149219
 21
6.001705
 31
0.0
  0
LINE
  5
3c2
100
AcDbEntity
  8
Export_Paths
 62
7
100
AcDbLine
 10
19.149219
 20
6.001705
 30
0.0
 11
18.516182
 21
5.575375
 31
0.0
  0
LINE
  5
3c3
100
AcDbEntity
  8
Export_Paths
 62
7
100
AcDbLine
 10
18.516182
 20
5.575375
 30
0.0
 11
18.092436
 21
4.987814
 31
0.0
  0
LINE
  5
3c4
100
AcDbEntity
  8
Export_Paths
 62
7
100
AcDbLine
 10
18.092436
 20
4.987814
 30
0.0
 11
17.805115
 21
4.308786
 31
0.0
  0
LINE
  5
3c5
100
AcDbEntity
  8
Export_Paths
 62
7
100
AcDbLine
 10
17.805115
 20
4.308786
 30
0.0
 11
17.793225
 21
3.484030
 31
0.0
  0
LINE
  5
3c6
100
AcDbEntity
  8
Export_Paths
 62
7
100
AcDbLine
 10
17.793225
 20
3.484030
 30
0.0
 11
18.019185
 21
3.227689
 31
0.0
  0
LINE
  5
3c7
100
AcDbEntity
  8
Export_Paths
 62
7
100
AcDbLine
 10
18.019185
 20
3.227689
 30
0.0
 11
18.409208
 21
3.052015
 31
0.0
  0
LINE
  5
3c8
100
AcDbEntity
  8
Export_Paths
 62
7
100
AcDbLine
 10
18.409208
 20
3.052015
 30
0.0
 11
19.159033
 21
3.057215
 31
0.0
  0
LINE
  5
3c9
100
AcDbEntity
  8
Export_Paths
 62
7
100
AcDbLine
 10
19.159033
 20
3.057215
 30
0.0
 11
19.477360
 21
3.198292
 31
0.0
  0
LINE
  5
3ca
100
AcDbEntity
  8
Export_Paths
 62
7
100
AcDbLine
 10
19.477360
 20
3.198292
 30
0.0
 11
19.325431
 21
2.845342
 31
0.0
  0
LINE
  5
3cb
100
AcDbEntity
  8
Export_Paths
 62
7
100
AcDbLine
 10
19.325431
 20
2.845342
 30
0.0
 11
19.923328
 21
2.726486
 31
0.0
  0
LINE
  5
3cc
100
AcDbEntity
  8
Export_Paths
 62
7
100
AcDbLine
 10
19.923328
 20
2.726486
 30
0.0
 11
20.477816
 21
4.018914
 31
0.0
  0
LINE
  5
3cd
100
AcDbEntity
  8
Export_Paths
 62
7
100
AcDbLine
 10
20.477816
 20
4.018914
 30
0.0
 11
20.646798
 21
4.240089
 31
0.0
  0
LINE
  5
3ce
100
AcDbEntity
  8
Export_Paths
 62
7
100
AcDbLine
 10
20.646798
 20
4.240089
 30
0.0
 11
20.865906
 21
4.321739
 31
0.0
  0
LINE
  5
3cf
100
AcDbEntity
  8
Export_Paths
 62
7
100
AcDbLine
 10
20.865906
 20
4.321739
 30
0.0
 11
20.967192
 21
4.245259
 31
0.0
  0
LINE
  5
3d0
100
AcDbEntity
  8
Export_Paths
 62
7
100
AcDbLine
 10
20.967192
 20
4.245259
 30
0.0
 11
20.977522
 21
4.079378
 31
0.0
  0
LINE
  5
3d1
100
AcDbEntity
  8
Export_Paths
 62
7
100
AcDbLine
 10
20.977522
 20
4.079378
 30
0.0
 11
20.926362
 21
3.908329
 31
0.0
  0
LINE
  5
3d2
100
AcDbEntity
  8
Export_Paths
 62
7
100
AcDbLine
 10
20.926362
 20
3.908329
 30
0.0
 11
20.783735
 21
3.582768
 31
0.0
  0
LINE
  5
3d3
100
AcDbEntity
  8
Export_Paths
 62
7
100
AcDbLine
 10
20.783735
 20
3.582768
 30
0.0
 11
20.633874
 21
3.241186
 31
0.0
  0
LINE
  5
3d4
100
AcDbEntity
  8
Export_Paths
 62
7
100
AcDbLine
 10
20.633874
 20
3.241186
 30
0.0
 11
20.580134
 21
3.057735
 31
0.0
  0
LINE
  5
3d5
100
AcDbEntity
  8
Export_Paths
 62
7
100
AcDbLine
 10
20.580134
 20
3.057735
 30
0.0
 11
20.640594
 21
2.687215
 31
0.0
  0
LINE
  5
3d6
100
AcDbEntity
  8
Export_Paths
 62
7
100
AcDbLine
 10
20.640594
 20
2.687215
 30
0.0
 11
20.977007
 21
2.491361
 31
0.0
  0
LINE
  5
3d7
100
AcDbEntity
  8
Export_Paths
 62
7
100
AcDbLine
 10
20.977007
 20
2.491361
 30
0.0
 11
21.463282
 21
2.593164
 31
0.0
  0
LINE
  5
3d8
100
AcDbEntity
  8
Export_Paths
 62
7
100
AcDbLine
 10
21.463282
 20
2.593164
 30
0.0
 11
21.486022
 21
2.611254
 31
0.0
  0
LINE
  5
3d9
100
AcDbEntity
  8
Export_Paths
 62
7
100
AcDbLine
 10
21.486022
 20
2.611254
 30
0.0
 11
21.422462
 21
2.425735
 31
0.0
  0
LINE
  5
3da
100
AcDbEntity
  8
Export_Paths
 62
7
100
AcDbLine
 10
21.422462
 20
2.425735
 30
0.0
 11
22.027593
 21
2.351325
 31
0.0
  0
LINE
  5
3db
100
AcDbEntity
  8
Export_Paths
 62
7
100
AcDbLine
 10
22.027593
 20
2.351325
 30
0.0
 11
22.559860
 21
3.906786
 31
0.0
  0
LINE
  5
3dc
100
AcDbEntity
  8
Export_Paths
 62
7
100
AcDbLine
 10
22.559860
 20
3.906786
 30
0.0
 11
22.747962
 21
4.015823
 31
0.0
  0
LINE
  5
3dd
100
AcDbEntity
  8
Export_Paths
 62
7
100
AcDbLine
 10
22.747962
 20
4.015823
 30
0.0
 11
22.886455
 21
4.028743
 31
0.0
  0
LINE
  5
3de
100
AcDbEntity
  8
Export_Paths
 62
7
100
AcDbLine
 10
22.886455
 20
4.028743
 30
0.0
 11
22.929865
 21
4.002383
 31
0.0
  0
LINE
  5
3df
100
AcDbEntity
  8
Export_Paths
 62
7
100
AcDbLine
 10
22.929865
 20
4.002383
 30
0.0
 11
22.948985
 21
3.914533
 31
0.0
  0
LINE
  5
3e0
100
AcDbEntity
  8
Export_Paths
 62
7
100
AcDbLine
 10
22.948985
 20
3.914533
 30
0.0
 11
22.986705
 21
3.769323
 31
0.0
  0
LINE
  5
3e1
100
AcDbEntity
  8
Export_Paths
 62
7
100
AcDbLine
 10
22.986705
 20
3.769323
 30
0.0
 11
23.095742
 21
3.721783
 31
0.0
  0
LINE
  5
3e2
100
AcDbEntity
  8
Export_Paths
 62
7
100
AcDbLine
 10
23.095742
 20
3.721783
 30
0.0
 11
23.325185
 21
3.783283
 31
0.0
  0
LINE
  5
3e3
100
AcDbEntity
  8
Export_Paths
 62
7
100
AcDbLine
 10
23.325185
 20
3.783283
 30
0.0
 11
23.436290
 21
3.991539
 31
0.0
  0
LINE
  5
3e4
100
AcDbEntity
  8
Export_Paths
 62
7
100
AcDbLine
 10
23.436290
 20
3.991539
 30
0.0
 11
23.383580
 21
4.224083
 31
0.0
  0
LINE
  5
3e5
100
AcDbEntity
  8
Export_Paths
 62
7
100
AcDbLine
 10
23.383580
 20
4.224083
 30
0.0
 11
23.184625
 21
4.341905
 31
0.0
  0
LINE
  5
3e6
100
AcDbEntity
  8
Export_Paths
 62
7
100
AcDbLine
 10
23.184625
 20
4.341905
 30
0.0
 11
22.959833
 21
4.314515
 31
0.0
  0
LINE
  5
3e7
100
AcDbEntity
  8
Export_Paths
 62
7
100
AcDbLine
 10
22.959833
 20
4.314515
 30
0.0
 11
22.644607
 21
4.143983
 31
0.0
  0
LINE
  5
3e8
100
AcDbEntity
  8
Export_Paths
 62
7
100
AcDbLine
 10
22.644607
 20
4.143983
 30
0.0
 11
22.730907
 21
4.397714
 31
0.0
  0
LINE
  5
3e9
100
AcDbEntity
  8
Export_Paths
 62
7
100
AcDbLine
 10
22.730907
 20
4.397714
 30
0.0
 11
22.125776
 21
4.472124
 31
0.0
  0
LINE
  5
3ea
100
AcDbEntity
  8
Export_Paths
 62
7
100
AcDbLine
 10
22.125776
 20
4.472124
 30
0.0
 11
21.618830
 21
2.996762
 31
0.0
  0
LINE
  5
3eb
100
AcDbEntity
  8
Export_Paths
 62
7
100
AcDbLine
 10
21.618830
 20
2.996762
 30
0.0
 11
21.498424
 21
2.879456
 31
0.0
  0
LINE
  5
3ec
100
AcDbEntity
  8
Export_Paths
 62
7
100
AcDbLine
 10
21.498424
 20
2.879456
 30
0.0
 11
21.306188
 21
2.844316
 31
0.0
  0
LINE
  5
3ed
100
AcDbEntity
  8
Export_Paths
 62
7
100
AcDbLine
 10
21.306188
 20
2.844316
 30
0.0
 11
21.189916
 21
2.910466
 31
0.0
  0
LINE
  5
3ee
100
AcDbEntity
  8
Export_Paths
 62
7
100
AcDbLine
 10
21.189916
 20
2.910466
 30
0.0
 11
21.174416
 21
3.051543
 31
0.0
  0
LINE
  5
3ef
100
AcDbEntity
  8
Export_Paths
 62
7
100
AcDbLine
 10
21.174416
 20
3.051543
 30
0.0
 11
21.220406
 21
3.193653
 31
0.0
  0
LINE
  5
3f0
100
AcDbEntity
  8
Export_Paths
 62
7
100
AcDbLine
 10
21.220406
 20
3.193653
 30
0.0
 11
21.350114
 21
3.478907
 31
0.0
  0
LINE
  5
3f1
100
AcDbEntity
  8
Export_Paths
 62
7
100
AcDbLine
 10
21.350114
 20
3.478907
 30
0.0
 11
21.516512
 21
3.860279
 31
0.0
  0
LINE
  5
3f2
100
AcDbEntity
  8
Export_Paths
 62
7
100
AcDbLine
 10
21.516512
 20
3.860279
 30
0.0
 11
21.586792
 21
4.083521
 31
0.0
  0
LINE
  5
3f3
100
AcDbEntity
  8
Export_Paths
 62
7
100
AcDbLine
 10
21.586792
 20
4.083521
 30
0.0
 11
21.535632
 21
4.456108
 31
0.0
  0
LINE
  5
3f4
100
AcDbEntity
  8
Export_Paths
 62
7
100
AcDbLine
 10
21.535632
 20
4.456108
 30
0.0
 11
21.219373
 21
4.644211
 31
0.0
  0
LINE
  5
3f5
100
AcDbEntity
  8
Export_Paths
 62
7
100
AcDbLine
 10
21.219373
 20
4.644211
 30
0.0
 11
20.946004
 21
4.638011
 31
0.0
  0
LINE
  5
3f6
100
AcDbEntity
  8
Export_Paths
 62
7
100
AcDbLine
 10
20.946004
 20
4.638011
 30
0.0
 11
20.687105
 21
4.508304
 31
0.0
  0
LINE
  5
3f7
100
AcDbEntity
  8
Export_Paths
 62
7
100
AcDbLine
 10
20.687105
 20
4.508304
 30
0.0
 11
21.119120
 21
5.509793
 31
0.0
  0
LINE
  5
3f8
100
AcDbEntity
  8
Export_Paths
 62
7
100
AcDbLine
 10
21.119120
 20
5.509793
 30
0.0
 11
20.488151
 21
5.549063
 31
0.0
  0
LINE
  5
3f9
100
AcDbEntity
  8
Export_Paths
 62
7
100
AcDbLine
 10
20.488151
 20
5.549063
 30
0.0
 11
19.598800
 21
3.480455
 31
0.0
  0
LINE
  5
3fa
100
AcDbEntity
  8
Export_Paths
 62
7
100
AcDbLine
 10
19.598800
 20
3.480455
 30
0.0
 11
19.263420
 21
3.344030
 31
0.0
  0
LINE
  5
3fb
100
AcDbEntity
  8
Export_Paths
 62
7
100
AcDbLine
 10
19.263420
 20
3.344030
 30
0.0
 11
18.793681
 21
3.364180
 31
0.0
  0
LINE
  5
3fc
100
AcDbEntity
  8
Export_Paths
 62
7
100
AcDbLine
 10
18.793681
 20
3.364180
 30
0.0
 11
18.465536
 21
3.616878
 31
0.0
  0
LINE
  5
3fd
100
AcDbEntity
  8
Export_Paths
 62
7
100
AcDbLine
 10
18.465536
 20
3.616878
 30
0.0
 11
18.487756
 21
4.139327
 31
0.0
  0
LINE
  5
3fe
100
AcDbEntity
  8
Export_Paths
 62
7
100
AcDbLine
 10
18.487756
 20
4.139327
 30
0.0
 11
18.487240
 21
4.139327
 31
0.0
  0
LINE
  5
3ff
100
AcDbEntity
  8
Export_Paths
 62
7
100
AcDbLine
 10
18.487240
 20
4.139327
 30
0.0
 11
18.690328
 21
4.662292
 31
0.0
  0
LINE
  5
400
100
AcDbEntity
  8
Export_Paths
 62
7
100
AcDbLine
 10
18.690328
 20
4.662292
 30
0.0
 11
18.984884
 21
5.168205
 31
0.0
  0
LINE
  5
401
100
AcDbEntity
  8
Export_Paths
 62
7
100
AcDbLine
 10
18.984884
 20
5.168205
 30
0.0
 11
19.461857
 21
5.678768
 31
0.0
  0
LINE
  5
402
100
AcDbEntity
  8
Export_Paths
 62
7
100
AcDbLine
 10
19.461857
 20
5.678768
 30
0.0
 11
19.878886
 21
5.797107
 31
0.0
  0
LINE
  5
403
100
AcDbEntity
  8
Export_Paths
 62
7
100
AcDbLine
 10
19.878886
 20
5.797107
 30
0.0
 11
20.043217
 21
5.679284
 31
0.0
  0
LINE
  5
404
100
AcDbEntity
  8
Export_Paths
 62
7
100
AcDbLine
 10
20.043217
 20
5.679284
 30
0.0
 11
20.056137
 21
5.477230
 31
0.0
  0
LINE
  5
405
100
AcDbEntity
  8
Export_Paths
 62
7
100
AcDbLine
 10
20.056137
 20
5.477230
 30
0.0
 11
19.933664
 21
5.265873
 31
0.0
  0
LINE
  5
406
100
AcDbEntity
  8
Export_Paths
 62
7
100
AcDbLine
 10
19.933664
 20
5.265873
 30
0.0
 11
19.761581
 21
5.156836
 31
0.0
  0
LINE
  5
407
100
AcDbEntity
  8
Export_Paths
 62
7
100
AcDbLine
 10
19.761581
 20
5.156836
 30
0.0
 11
19.839611
 21
5.046248
 31
0.0
  0
LINE
  5
408
100
AcDbEntity
  8
Export_Paths
 62
7
100
AcDbLine
 10
19.839611
 20
5.046248
 30
0.0
 11
19.963118
 21
4.984238
 31
0.0
  0
LINE
  5
409
100
AcDbEntity
  8
Export_Paths
 62
7
100
AcDbLine
 10
19.963118
 20
4.984238
 30
0.0
 11
20.201346
 21
5.017308
 31
0.0
  0
LINE
  5
40a
100
AcDbEntity
  8
Export_Paths
 62
7
100
AcDbLine
 10
20.201346
 20
5.017308
 30
0.0
 11
20.355342
 21
5.277241
 31
0.0
  0
LINE
  5
40b
100
AcDbEntity
  8
Export_Paths
 62
7
100
AcDbLine
 10
20.355342
 20
5.277241
 30
0.0
 11
20.291782
 21
5.731477
 31
0.0
  0
LINE
  5
40c
100
AcDbEntity
  8
Export_Paths
 62
7
100
AcDbLine
 10
20.291782
 20
5.731477
 30
0.0
 11
19.831861
 21
6.017247
 31
0.0
  0
LINE
  5
40d
100
AcDbEntity
  8
Export_Paths
 62
7
100
AcDbLine
 10
19.831861
 20
6.017247
 30
0.0
 11
19.488213
 21
6.063237
 31
0.0
  0
LINE
  5
40e
100
AcDbEntity
  8
Export_Paths
 62
7
100
AcDbLine
 10
19.488213
 20
6.063237
 30
0.0
 11
19.488216
 21
6.063205
 31
0.0
  0
LINE
  5
40f
100
AcDbEntity
  8
Export_Paths
 62
7
100
AcDbLine
 10
33.276005
 20
5.555743
 30
0.0
 11
33.037777
 21
5.521123
 31
0.0
  0
LINE
  5
410
100
AcDbEntity
  8
Export_Paths
 62
7
100
AcDbLine
 10
33.037777
 20
5.521123
 30
0.0
 11
32.613513
 21
5.241553
 31
0.0
  0
LINE
  5
411
100
AcDbEntity
  8
Export_Paths
 62
7
100
AcDbLine
 10
32.613513
 20
5.241553
 30
0.0
 11
32.374768
 21
4.765096
 31
0.0
  0
LINE
  5
412
100
AcDbEntity
  8
Export_Paths
 62
7
100
AcDbLine
 10
32.374768
 20
4.765096
 30
0.0
 11
32.322578
 21
4.239030
 31
0.0
  0
LINE
  5
413
100
AcDbEntity
  8
Export_Paths
 62
7
100
AcDbLine
 10
32.322578
 20
4.239030
 30
0.0
 11
32.411978
 21
3.728984
 31
0.0
  0
LINE
  5
414
100
AcDbEntity
  8
Export_Paths
 62
7
100
AcDbLine
 10
32.411978
 20
3.728984
 30
0.0
 11
32.734439
 21
3.309888
 31
0.0
  0
LINE
  5
415
100
AcDbEntity
  8
Export_Paths
 62
7
100
AcDbLine
 10
32.734439
 20
3.309888
 30
0.0
 11
33.266190
 21
3.308288
 31
0.0
  0
LINE
  5
416
100
AcDbEntity
  8
Export_Paths
 62
7
100
AcDbLine
 10
33.266190
 20
3.308288
 30
0.0
 11
33.590743
 21
3.508784
 31
0.0
  0
LINE
  5
417
100
AcDbEntity
  8
Export_Paths
 62
7
100
AcDbLine
 10
33.590743
 20
3.508784
 30
0.0
 11
33.801557
 21
3.856575
 31
0.0
  0
LINE
  5
418
100
AcDbEntity
  8
Export_Paths
 62
7
100
AcDbLine
 10
33.801557
 20
3.856575
 30
0.0
 11
33.823257
 21
4.836877
 31
0.0
  0
LINE
  5
419
100
AcDbEntity
  8
Export_Paths
 62
7
100
AcDbLine
 10
33.823257
 20
4.836877
 30
0.0
 11
34.191710
 21
5.097843
 31
0.0
  0
LINE
  5
41a
100
AcDbEntity
  8
Export_Paths
 62
7
100
AcDbLine
 10
34.191710
 20
5.097843
 30
0.0
 11
34.423221
 21
5.406868
 31
0.0
  0
LINE
  5
41b
100
AcDbEntity
  8
Export_Paths
 62
7
100
AcDbLine
 10
34.423221
 20
5.406868
 30
0.0
 11
34.351391
 21
5.502988
 31
0.0
  0
LINE
  5
41c
100
AcDbEntity
  8
Export_Paths
 62
7
100
AcDbLine
 10
34.351391
 20
5.502988
 30
0.0
 11
34.087324
 21
5.223418
 31
0.0
  0
LINE
  5
41d
100
AcDbEntity
  8
Export_Paths
 62
7
100
AcDbLine
 10
34.087324
 20
5.223418
 30
0.0
 11
33.812922
 21
5.056503
 31
0.0
  0
LINE
  5
41e
100
AcDbEntity
  8
Export_Paths
 62
7
100
AcDbLine
 10
33.812922
 20
5.056503
 30
0.0
 11
33.784502
 21
5.046703
 31
0.0
  0
LINE
  5
41f
100
AcDbEntity
  8
Export_Paths
 62
7
100
AcDbLine
 10
33.784502
 20
5.046703
 30
0.0
 11
33.765902
 21
5.049803
 31
0.0
  0
LINE
  5
420
100
AcDbEntity
  8
Export_Paths
 62
7
100
AcDbLine
 10
33.765902
 20
5.049803
 30
0.0
 11
33.477030
 21
5.489052
 31
0.0
  0
LINE
  5
421
100
AcDbEntity
  8
Export_Paths
 62
7
100
AcDbLine
 10
33.477030
 20
5.489052
 30
0.0
 11
33.276009
 21
5.555712
 31
0.0
  0
LINE
  5
422
100
AcDbEntity
  8
Export_Paths
 62
7
100
AcDbLine
 10
33.276009
 20
5.555712
 30
0.0
 11
33.276005
 21
5.555743
 31
0.0
  0
LINE
  5
423
100
AcDbEntity
  8
Export_Paths
 62
7
100
AcDbLine
 10
28.284578
 20
5.450323
 30
0.0
 11
28.088208
 21
5.441023
 31
0.0
  0
LINE
  5
424
100
AcDbEntity
  8
Export_Paths
 62
7
100
AcDbLine
 10
28.088208
 20
5.441023
 30
0.0
 11
27.578162
 21
5.309765
 31
0.0
  0
LINE
  5
425
100
AcDbEntity
  8
Export_Paths
 62
7
100
AcDbLine
 10
27.578162
 20
5.309765
 30
0.0
 11
27.137878
 21
5.049833
 31
0.0
  0
LINE
  5
426
100
AcDbEntity
  8
Export_Paths
 62
7
100
AcDbLine
 10
27.137878
 20
5.049833
 30
0.0
 11
26.774593
 21
4.624019
 31
0.0
  0
LINE
  5
427
100
AcDbEntity
  8
Export_Paths
 62
7
100
AcDbLine
 10
26.774593
 20
4.624019
 30
0.0
 11
26.678993
 21
4.162548
 31
0.0
  0
LINE
  5
428
100
AcDbEntity
  8
Export_Paths
 62
7
100
AcDbLine
 10
26.678993
 20
4.162548
 30
0.0
 11
26.819553
 21
3.883495
 31
0.0
  0
LINE
  5
429
100
AcDbEntity
  8
Export_Paths
 62
7
100
AcDbLine
 10
26.819553
 20
3.883495
 30
0.0
 11
27.170952
 21
3.823035
 31
0.0
  0
LINE
  5
42a
100
AcDbEntity
  8
Export_Paths
 62
7
100
AcDbLine
 10
27.170952
 20
3.823035
 30
0.0
 11
27.165752
 21
3.831335
 31
0.0
  0
LINE
  5
42b
100
AcDbEntity
  8
Export_Paths
 62
7
100
AcDbLine
 10
27.165752
 20
3.831335
 30
0.0
 11
27.154382
 21
3.855625
 31
0.0
  0
LINE
  5
42c
100
AcDbEntity
  8
Export_Paths
 62
7
100
AcDbLine
 10
27.154382
 20
3.855625
 30
0.0
 11
27.104772
 21
3.965179
 31
0.0
  0
LINE
  5
42d
100
AcDbEntity
  8
Export_Paths
 62
7
100
AcDbLine
 10
27.104772
 20
3.965179
 30
0.0
 11
27.081522
 21
4.103155
 31
0.0
  0
LINE
  5
42e
100
AcDbEntity
  8
Export_Paths
 62
7
100
AcDbLine
 10
27.081522
 20
4.103155
 30
0.0
 11
27.112912
 21
4.525800
 31
0.0
  0
LINE
  5
42f
100
AcDbEntity
  8
Export_Paths
 62
7
100
AcDbLine
 10
27.112912
 20
4.525800
 30
0.0
 11
27.305281
 21
4.876235
 31
0.0
  0
LINE
  5
430
100
AcDbEntity
  8
Export_Paths
 62
7
100
AcDbLine
 10
27.305281
 20
4.876235
 30
0.0
 11
27.623744
 21
5.124269
 31
0.0
  0
LINE
  5
431
100
AcDbEntity
  8
Export_Paths
 62
7
100
AcDbLine
 10
27.623744
 20
5.124269
 30
0.0
 11
28.024617
 21
5.238487
 31
0.0
  0
LINE
  5
432
100
AcDbEntity
  8
Export_Paths
 62
7
100
AcDbLine
 10
28.024617
 20
5.238487
 30
0.0
 11
28.445780
 21
5.159937
 31
0.0
  0
LINE
  5
433
100
AcDbEntity
  8
Export_Paths
 62
7
100
AcDbLine
 10
28.445780
 20
5.159937
 30
0.0
 11
28.628714
 21
4.843161
 31
0.0
  0
LINE
  5
434
100
AcDbEntity
  8
Export_Paths
 62
7
100
AcDbLine
 10
28.628714
 20
4.843161
 30
0.0
 11
28.493322
 21
4.356369
 31
0.0
  0
LINE
  5
435
100
AcDbEntity
  8
Export_Paths
 62
7
100
AcDbLine
 10
28.493322
 20
4.356369
 30
0.0
 11
28.095414
 21
4.096436
 31
0.0
  0
LINE
  5
436
100
AcDbEntity
  8
Export_Paths
 62
7
100
AcDbLine
 10
28.095414
 20
4.096436
 30
0.0
 11
28.070094
 21
4.093836
 31
0.0
  0
LINE
  5
437
100
AcDbEntity
  8
Export_Paths
 62
7
100
AcDbLine
 10
28.070094
 20
4.093836
 30
0.0
 11
28.168284
 21
5.049333
 31
0.0
  0
LINE
  5
438
100
AcDbEntity
  8
Export_Paths
 62
7
100
AcDbLine
 10
28.168284
 20
5.049333
 30
0.0
 11
27.553852
 21
4.898954
 31
0.0
  0
LINE
  5
439
100
AcDbEntity
  8
Export_Paths
 62
7
100
AcDbLine
 10
27.553852
 20
4.898954
 30
0.0
 11
27.267564
 21
2.160620
 31
0.0
  0
LINE
  5
43a
100
AcDbEntity
  8
Export_Paths
 62
7
100
AcDbLine
 10
27.267564
 20
2.160620
 30
0.0
 11
27.873729
 21
2.225220
 31
0.0
  0
LINE
  5
43b
100
AcDbEntity
  8
Export_Paths
 62
7
100
AcDbLine
 10
27.873729
 20
2.225220
 30
0.0
 11
28.046845
 21
3.874215
 31
0.0
  0
LINE
  5
43c
100
AcDbEntity
  8
Export_Paths
 62
7
100
AcDbLine
 10
28.046845
 20
3.874215
 30
0.0
 11
28.151231
 21
3.893855
 31
0.0
  0
LINE
  5
43d
100
AcDbEntity
  8
Export_Paths
 62
7
100
AcDbLine
 10
28.151231
 20
3.893855
 30
0.0
 11
28.239081
 21
3.907295
 31
0.0
  0
LINE
  5
43e
100
AcDbEntity
  8
Export_Paths
 62
7
100
AcDbLine
 10
28.239081
 20
3.907295
 30
0.0
 11
28.552240
 21
3.804459
 31
0.0
  0
LINE
  5
43f
100
AcDbEntity
  8
Export_Paths
 62
7
100
AcDbLine
 10
28.552240
 20
3.804459
 30
0.0
 11
28.695901
 21
3.415852
 31
0.0
  0
LINE
  5
440
100
AcDbEntity
  8
Export_Paths
 62
7
100
AcDbLine
 10
28.695901
 20
3.415852
 30
0.0
 11
28.640091
 21
2.864464
 31
0.0
  0
LINE
  5
441
100
AcDbEntity
  8
Export_Paths
 62
7
100
AcDbLine
 10
28.640091
 20
2.864464
 30
0.0
 11
28.360005
 21
2.613317
 31
0.0
  0
LINE
  5
442
100
AcDbEntity
  8
Export_Paths
 62
7
100
AcDbLine
 10
28.360005
 20
2.613317
 30
0.0
 11
28.217895
 21
2.632437
 31
0.0
  0
LINE
  5
443
100
AcDbEntity
  8
Export_Paths
 62
7
100
AcDbLine
 10
28.217895
 20
2.632437
 30
0.0
 11
28.061832
 21
2.734756
 31
0.0
  0
LINE
  5
444
100
AcDbEntity
  8
Export_Paths
 62
7
100
AcDbLine
 10
28.061832
 20
2.734756
 30
0.0
 11
28.034442
 21
2.595747
 31
0.0
  0
LINE
  5
445
100
AcDbEntity
  8
Export_Paths
 62
7
100
AcDbLine
 10
28.034442
 20
2.595747
 30
0.0
 11
28.033442
 21
2.484642
 31
0.0
  0
LINE
  5
446
100
AcDbEntity
  8
Export_Paths
 62
7
100
AcDbLine
 10
28.033442
 20
2.484642
 30
0.0
 11
28.167284
 21
2.265018
 31
0.0
  0
LINE
  5
447
100
AcDbEntity
  8
Export_Paths
 62
7
100
AcDbLine
 10
28.167284
 20
2.265018
 30
0.0
 11
28.483544
 21
2.217988
 31
0.0
  0
LINE
  5
448
100
AcDbEntity
  8
Export_Paths
 62
7
100
AcDbLine
 10
28.483544
 20
2.217988
 30
0.0
 11
28.868016
 21
2.361132
 31
0.0
  0
LINE
  5
449
100
AcDbEntity
  8
Export_Paths
 62
7
100
AcDbLine
 10
28.868016
 20
2.361132
 30
0.0
 11
29.138284
 21
2.700646
 31
0.0
  0
LINE
  5
44a
100
AcDbEntity
  8
Export_Paths
 62
7
100
AcDbLine
 10
29.138284
 20
2.700646
 30
0.0
 11
29.261274
 21
3.105789
 31
0.0
  0
LINE
  5
44b
100
AcDbEntity
  8
Export_Paths
 62
7
100
AcDbLine
 10
29.261274
 20
3.105789
 30
0.0
 11
29.275744
 21
3.528502
 31
0.0
  0
LINE
  5
44c
100
AcDbEntity
  8
Export_Paths
 62
7
100
AcDbLine
 10
29.275744
 20
3.528502
 30
0.0
 11
29.096944
 21
3.965168
 31
0.0
  0
LINE
  5
44d
100
AcDbEntity
  8
Export_Paths
 62
7
100
AcDbLine
 10
29.096944
 20
3.965168
 30
0.0
 11
28.706787
 21
4.153270
 31
0.0
  0
LINE
  5
44e
100
AcDbEntity
  8
Export_Paths
 62
7
100
AcDbLine
 10
28.706787
 20
4.153270
 30
0.0
 11
28.982739
 21
4.476765
 31
0.0
  0
LINE
  5
44f
100
AcDbEntity
  8
Export_Paths
 62
7
100
AcDbLine
 10
28.982739
 20
4.476765
 30
0.0
 11
29.056119
 21
4.867439
 31
0.0
  0
LINE
  5
450
100
AcDbEntity
  8
Export_Paths
 62
7
100
AcDbLine
 10
29.056119
 20
4.867439
 30
0.0
 11
28.760013
 21
5.325292
 31
0.0
  0
LINE
  5
451
100
AcDbEntity
  8
Export_Paths
 62
7
100
AcDbLine
 10
28.760013
 20
5.325292
 30
0.0
 11
28.284589
 21
5.450349
 31
0.0
  0
LINE
  5
452
100
AcDbEntity
  8
Export_Paths
 62
7
100
AcDbLine
 10
28.284589
 20
5.450349
 30
0.0
 11
28.284578
 21
5.450323
 31
0.0
  0
LINE
  5
453
100
AcDbEntity
  8
Export_Paths
 62
7
100
AcDbLine
 10
33.221228
 20
5.295294
 30
0.0
 11
33.277558
 21
5.270494
 31
0.0
  0
LINE
  5
454
100
AcDbEntity
  8
Export_Paths
 62
7
100
AcDbLine
 10
33.277558
 20
5.270494
 30
0.0
 11
33.381945
 21
5.104613
 31
0.0
  0
LINE
  5
455
100
AcDbEntity
  8
Export_Paths
 62
7
100
AcDbLine
 10
33.381945
 20
5.104613
 30
0.0
 11
33.317345
 21
4.989374
 31
0.0
  0
LINE
  5
456
100
AcDbEntity
  8
Export_Paths
 62
7
100
AcDbLine
 10
33.317345
 20
4.989374
 30
0.0
 11
33.329745
 21
4.846230
 31
0.0
  0
LINE
  5
457
100
AcDbEntity
  8
Export_Paths
 62
7
100
AcDbLine
 10
33.329745
 20
4.846230
 30
0.0
 11
33.392275
 21
4.737710
 31
0.0
  0
LINE
  5
458
100
AcDbEntity
  8
Export_Paths
 62
7
100
AcDbLine
 10
33.392275
 20
4.737710
 30
0.0
 11
33.494078
 21
4.713940
 31
0.0
  0
LINE
  5
459
100
AcDbEntity
  8
Export_Paths
 62
7
100
AcDbLine
 10
33.494078
 20
4.713940
 30
0.0
 11
33.507518
 21
4.057649
 31
0.0
  0
LINE
  5
45a
100
AcDbEntity
  8
Export_Paths
 62
7
100
AcDbLine
 10
33.507518
 20
4.057649
 30
0.0
 11
33.306497
 21
3.723303
 31
0.0
  0
LINE
  5
45b
100
AcDbEntity
  8
Export_Paths
 62
7
100
AcDbLine
 10
33.306497
 20
3.723303
 30
0.0
 11
33.118912
 21
3.736743
 31
0.0
  0
LINE
  5
45c
100
AcDbEntity
  8
Export_Paths
 62
7
100
AcDbLine
 10
33.118912
 20
3.736743
 30
0.0
 11
32.993338
 21
3.980139
 31
0.0
  0
LINE
  5
45d
100
AcDbEntity
  8
Export_Paths
 62
7
100
AcDbLine
 10
32.993338
 20
3.980139
 30
0.0
 11
32.915818
 21
4.775440
 31
0.0
  0
LINE
  5
45e
100
AcDbEntity
  8
Export_Paths
 62
7
100
AcDbLine
 10
32.915818
 20
4.775440
 30
0.0
 11
33.151463
 21
5.287036
 31
0.0
  0
LINE
  5
45f
100
AcDbEntity
  8
Export_Paths
 62
7
100
AcDbLine
 10
33.151463
 20
5.287036
 30
0.0
 11
33.221223
 21
5.295336
 31
0.0
  0
LINE
  5
460
100
AcDbEntity
  8
Export_Paths
 62
7
100
AcDbLine
 10
33.221223
 20
5.295336
 30
0.0
 11
33.221228
 21
5.295294
 31
0.0
  0
LINE
  5
461
100
AcDbEntity
  8
Export_Paths
 62
7
100
AcDbLine
 10
24.115841
 20
5.177471
 30
0.0
 11
23.872445
 21
5.092201
 31
0.0
  0
LINE
  5
462
100
AcDbEntity
  8
Export_Paths
 62
7
100
AcDbLine
 10
23.872445
 20
5.092201
 30
0.0
 11
23.758757
 21
4.862241
 31
0.0
  0
LINE
  5
463
100
AcDbEntity
  8
Export_Paths
 62
7
100
AcDbLine
 10
23.758757
 20
4.862241
 30
0.0
 11
23.839887
 21
4.618845
 31
0.0
  0
LINE
  5
464
100
AcDbEntity
  8
Export_Paths
 62
7
100
AcDbLine
 10
23.839887
 20
4.618845
 30
0.0
 11
24.069847
 21
4.505674
 31
0.0
  0
LINE
  5
465
100
AcDbEntity
  8
Export_Paths
 62
7
100
AcDbLine
 10
24.069847
 20
4.505674
 30
0.0
 11
24.313243
 21
4.586804
 31
0.0
  0
LINE
  5
466
100
AcDbEntity
  8
Export_Paths
 62
7
100
AcDbLine
 10
24.313243
 20
4.586804
 30
0.0
 11
24.430548
 21
4.816247
 31
0.0
  0
LINE
  5
467
100
AcDbEntity
  8
Export_Paths
 62
7
100
AcDbLine
 10
24.430548
 20
4.816247
 30
0.0
 11
24.345278
 21
5.059643
 31
0.0
  0
LINE
  5
468
100
AcDbEntity
  8
Export_Paths
 62
7
100
AcDbLine
 10
24.345278
 20
5.059643
 30
0.0
 11
24.115835
 21
5.177465
 31
0.0
  0
LINE
  5
469
100
AcDbEntity
  8
Export_Paths
 62
7
100
AcDbLine
 10
24.115835
 20
5.177465
 30
0.0
 11
24.115841
 21
5.177471
 31
0.0
  0
LINE
  5
46a
100
AcDbEntity
  8
Export_Paths
 62
7
100
AcDbLine
 10
32.043522
 20
5.133031
 30
0.0
 11
31.923116
 21
5.125831
 31
0.0
  0
LINE
  5
46b
100
AcDbEntity
  8
Export_Paths
 62
7
100
AcDbLine
 10
31.923116
 20
5.125831
 30
0.0
 11
31.723645
 21
5.017310
 31
0.0
  0
LINE
  5
46c
100
AcDbEntity
  8
Export_Paths
 62
7
100
AcDbLine
 10
31.723645
 20
5.017310
 30
0.0
 11
31.493168
 21
4.742909
 31
0.0
  0
LINE
  5
46d
100
AcDbEntity
  8
Export_Paths
 62
7
100
AcDbLine
 10
31.493168
 20
4.742909
 30
0.0
 11
31.480768
 21
5.010592
 31
0.0
  0
LINE
  5
46e
100
AcDbEntity
  8
Export_Paths
 62
7
100
AcDbLine
 10
31.480768
 20
5.010592
 30
0.0
 11
30.890623
 21
4.857630
 31
0.0
  0
LINE
  5
46f
100
AcDbEntity
  8
Export_Paths
 62
7
100
AcDbLine
 10
30.890623
 20
4.857630
 30
0.0
 11
30.955733
 21
3.419475
 31
0.0
  0
LINE
  5
470
100
AcDbEntity
  8
Export_Paths
 62
7
100
AcDbLine
 10
30.955733
 20
3.419475
 30
0.0
 11
30.681331
 21
3.073243
 31
0.0
  0
LINE
  5
471
100
AcDbEntity
  8
Export_Paths
 62
7
100
AcDbLine
 10
30.681331
 20
3.073243
 30
0.0
 11
30.340784
 21
2.916663
 31
0.0
  0
LINE
  5
472
100
AcDbEntity
  8
Export_Paths
 62
7
100
AcDbLine
 10
30.340784
 20
2.916663
 30
0.0
 11
30.088603
 21
2.949733
 31
0.0
  0
LINE
  5
473
100
AcDbEntity
  8
Export_Paths
 62
7
100
AcDbLine
 10
30.088603
 20
2.949733
 30
0.0
 11
29.973881
 21
3.208115
 31
0.0
  0
LINE
  5
474
100
AcDbEntity
  8
Export_Paths
 62
7
100
AcDbLine
 10
29.973881
 20
3.208115
 30
0.0
 11
29.962511
 21
3.265995
 31
0.0
  0
LINE
  5
475
100
AcDbEntity
  8
Export_Paths
 62
7
100
AcDbLine
 10
29.962511
 20
3.265995
 30
0.0
 11
29.950111
 21
3.375549
 31
0.0
  0
LINE
  5
476
100
AcDbEntity
  8
Export_Paths
 62
7
100
AcDbLine
 10
29.950111
 20
3.375549
 30
0.0
 11
30.570228
 21
3.780176
 31
0.0
  0
LINE
  5
477
100
AcDbEntity
  8
Export_Paths
 62
7
100
AcDbLine
 10
30.570228
 20
3.780176
 30
0.0
 11
30.736626
 21
4.437500
 31
0.0
  0
LINE
  5
478
100
AcDbEntity
  8
Export_Paths
 62
7
100
AcDbLine
 10
30.736626
 20
4.437500
 30
0.0
 11
30.561960
 21
4.714485
 31
0.0
  0
LINE
  5
479
100
AcDbEntity
  8
Export_Paths
 62
7
100
AcDbLine
 10
30.561960
 20
4.714485
 30
0.0
 11
30.201775
 21
4.748075
 31
0.0
  0
LINE
  5
47a
100
AcDbEntity
  8
Export_Paths
 62
7
100
AcDbLine
 10
30.201775
 20
4.748075
 30
0.0
 11
29.744955
 21
4.525867
 31
0.0
  0
LINE
  5
47b
100
AcDbEntity
  8
Export_Paths
 62
7
100
AcDbLine
 10
29.744955
 20
4.525867
 30
0.0
 11
29.451433
 21
4.081449
 31
0.0
  0
LINE
  5
47c
100
AcDbEntity
  8
Export_Paths
 62
7
100
AcDbLine
 10
29.451433
 20
4.081449
 30
0.0
 11
29.343430
 21
3.568819
 31
0.0
  0
LINE
  5
47d
100
AcDbEntity
  8
Export_Paths
 62
7
100
AcDbLine
 10
29.343430
 20
3.568819
 30
0.0
 11
29.366170
 21
3.051538
 31
0.0
  0
LINE
  5
47e
100
AcDbEntity
  8
Export_Paths
 62
7
100
AcDbLine
 10
29.366170
 20
3.051538
 30
0.0
 11
29.624036
 21
2.588000
 31
0.0
  0
LINE
  5
47f
100
AcDbEntity
  8
Export_Paths
 62
7
100
AcDbLine
 10
29.624036
 20
2.588000
 30
0.0
 11
30.142350
 21
2.516170
 31
0.0
  0
LINE
  5
480
100
AcDbEntity
  8
Export_Paths
 62
7
100
AcDbLine
 10
30.142350
 20
2.516170
 30
0.0
 11
30.725260
 21
2.823128
 31
0.0
  0
LINE
  5
481
100
AcDbEntity
  8
Export_Paths
 62
7
100
AcDbLine
 10
30.725260
 20
2.823128
 30
0.0
 11
30.967623
 21
3.148173
 31
0.0
  0
LINE
  5
482
100
AcDbEntity
  8
Export_Paths
 62
7
100
AcDbLine
 10
30.967623
 20
3.148173
 30
0.0
 11
30.988293
 21
2.696004
 31
0.0
  0
LINE
  5
483
100
AcDbEntity
  8
Export_Paths
 62
7
100
AcDbLine
 10
30.988293
 20
2.696004
 30
0.0
 11
31.577921
 21
2.849483
 31
0.0
  0
LINE
  5
484
100
AcDbEntity
  8
Export_Paths
 62
7
100
AcDbLine
 10
31.577921
 20
2.849483
 30
0.0
 11
31.501961
 21
4.491243
 31
0.0
  0
LINE
  5
485
100
AcDbEntity
  8
Export_Paths
 62
7
100
AcDbLine
 10
31.501961
 20
4.491243
 30
0.0
 11
31.636837
 21
4.662292
 31
0.0
  0
LINE
  5
486
100
AcDbEntity
  8
Export_Paths
 62
7
100
AcDbLine
 10
31.636837
 20
4.662292
 30
0.0
 11
31.760343
 21
4.724822
 31
0.0
  0
LINE
  5
487
100
AcDbEntity
  8
Export_Paths
 62
7
100
AcDbLine
 10
31.760343
 20
4.724822
 30
0.0
 11
31.810983
 21
4.716022
 31
0.0
  0
LINE
  5
488
100
AcDbEntity
  8
Export_Paths
 62
7
100
AcDbLine
 10
31.810983
 20
4.716022
 30
0.0
 11
31.860593
 21
4.641612
 31
0.0
  0
LINE
  5
489
100
AcDbEntity
  8
Export_Paths
 62
7
100
AcDbLine
 10
31.860593
 20
4.641612
 30
0.0
 11
31.948963
 21
4.520172
 31
0.0
  0
LINE
  5
48a
100
AcDbEntity
  8
Export_Paths
 62
7
100
AcDbLine
 10
31.948963
 20
4.520172
 30
0.0
 11
32.068336
 21
4.516072
 31
0.0
  0
LINE
  5
48b
100
AcDbEntity
  8
Export_Paths
 62
7
100
AcDbLine
 10
32.068336
 20
4.516072
 30
0.0
 11
32.259022
 21
4.657665
 31
0.0
  0
LINE
  5
48c
100
AcDbEntity
  8
Export_Paths
 62
7
100
AcDbLine
 10
32.259022
 20
4.657665
 30
0.0
 11
32.285372
 21
4.891760
 31
0.0
  0
LINE
  5
48d
100
AcDbEntity
  8
Export_Paths
 62
7
100
AcDbLine
 10
32.285372
 20
4.891760
 30
0.0
 11
32.151530
 21
5.088647
 31
0.0
  0
LINE
  5
48e
100
AcDbEntity
  8
Export_Paths
 62
7
100
AcDbLine
 10
32.151530
 20
5.088647
 30
0.0
 11
32.043526
 21
5.133087
 31
0.0
  0
LINE
  5
48f
100
AcDbEntity
  8
Export_Paths
 62
7
100
AcDbLine
 10
32.043526
 20
5.133087
 30
0.0
 11
32.043522
 21
5.133031
 31
0.0
  0
LINE
  5
490
100
AcDbEntity
  8
Export_Paths
 62
7
100
AcDbLine
 10
30.277738
 20
4.534101
 30
0.0
 11
30.365068
 21
4.508261
 31
0.0
  0
LINE
  5
491
100
AcDbEntity
  8
Export_Paths
 62
7
100
AcDbLine
 10
30.365068
 20
4.508261
 30
0.0
 11
30.414678
 21
4.384237
 31
0.0
  0
LINE
  5
492
100
AcDbEntity
  8
Export_Paths
 62
7
100
AcDbLine
 10
30.414678
 20
4.384237
 30
0.0
 11
30.322178
 21
3.882976
 31
0.0
  0
LINE
  5
493
100
AcDbEntity
  8
Export_Paths
 62
7
100
AcDbLine
 10
30.322178
 20
3.882976
 30
0.0
 11
29.944940
 21
3.581702
 31
0.0
  0
LINE
  5
494
100
AcDbEntity
  8
Export_Paths
 62
7
100
AcDbLine
 10
29.944940
 20
3.581702
 30
0.0
 11
30.040020
 21
4.225074
 31
0.0
  0
LINE
  5
495
100
AcDbEntity
  8
Export_Paths
 62
7
100
AcDbLine
 10
30.040020
 20
4.225074
 30
0.0
 11
30.277731
 21
4.534099
 31
0.0
  0
LINE
  5
496
100
AcDbEntity
  8
Export_Paths
 62
7
100
AcDbLine
 10
30.277731
 20
4.534099
 30
0.0
 11
30.277738
 21
4.534101
 31
0.0
  0
LINE
  5
497
100
AcDbEntity
  8
Export_Paths
 62
7
100
AcDbLine
 10
25.601021
 20
4.360985
 30
0.0
 11
24.973153
 21
4.285015
 31
0.0
  0
LINE
  5
498
100
AcDbEntity
  8
Export_Paths
 62
7
100
AcDbLine
 10
24.973153
 20
4.285015
 30
0.0
 11
24.709603
 21
3.585833
 31
0.0
  0
LINE
  5
499
100
AcDbEntity
  8
Export_Paths
 62
7
100
AcDbLine
 10
24.709603
 20
3.585833
 30
0.0
 11
24.435201
 21
3.039613
 31
0.0
  0
LINE
  5
49a
100
AcDbEntity
  8
Export_Paths
 62
7
100
AcDbLine
 10
24.435201
 20
3.039613
 30
0.0
 11
24.271903
 21
2.885101
 31
0.0
  0
LINE
  5
49b
100
AcDbEntity
  8
Export_Paths
 62
7
100
AcDbLine
 10
24.271903
 20
2.885101
 30
0.0
 11
24.205243
 21
2.648939
 31
0.0
  0
LINE
  5
49c
100
AcDbEntity
  8
Export_Paths
 62
7
100
AcDbLine
 10
24.205243
 20
2.648939
 30
0.0
 11
24.206743
 21
2.631369
 31
0.0
  0
LINE
  5
49d
100
AcDbEntity
  8
Export_Paths
 62
7
100
AcDbLine
 10
24.206743
 20
2.631369
 30
0.0
 11
23.979367
 21
2.547139
 31
0.0
  0
LINE
  5
49e
100
AcDbEntity
  8
Export_Paths
 62
7
100
AcDbLine
 10
23.979367
 20
2.547139
 30
0.0
 11
23.846042
 21
2.590549
 31
0.0
  0
LINE
  5
49f
100
AcDbEntity
  8
Export_Paths
 62
7
100
AcDbLine
 10
23.846042
 20
2.590549
 30
0.0
 11
23.816582
 21
2.715606
 31
0.0
  0
LINE
  5
4a0
100
AcDbEntity
  8
Export_Paths
 62
7
100
AcDbLine
 10
23.816582
 20
2.715606
 30
0.0
 11
23.824882
 21
2.778656
 31
0.0
  0
LINE
  5
4a1
100
AcDbEntity
  8
Export_Paths
 62
7
100
AcDbLine
 10
23.824882
 20
2.778656
 30
0.0
 11
23.842452
 21
2.849456
 31
0.0
  0
LINE
  5
4a2
100
AcDbEntity
  8
Export_Paths
 62
7
100
AcDbLine
 10
23.842452
 20
2.849456
 30
0.0
 11
24.244495
 21
4.264874
 31
0.0
  0
LINE
  5
4a3
100
AcDbEntity
  8
Export_Paths
 62
7
100
AcDbLine
 10
24.244495
 20
4.264874
 30
0.0
 11
23.636263
 21
4.306214
 31
0.0
  0
LINE
  5
4a4
100
AcDbEntity
  8
Export_Paths
 62
7
100
AcDbLine
 10
23.636263
 20
4.306214
 30
0.0
 11
23.256958
 21
2.969861
 31
0.0
  0
LINE
  5
4a5
100
AcDbEntity
  8
Export_Paths
 62
7
100
AcDbLine
 10
23.256958
 20
2.969861
 30
0.0
 11
23.221298
 21
2.819483
 31
0.0
  0
LINE
  5
4a6
100
AcDbEntity
  8
Export_Paths
 62
7
100
AcDbLine
 10
23.221298
 20
2.819483
 30
0.0
 11
23.204248
 21
2.697526
 31
0.0
  0
LINE
  5
4a7
100
AcDbEntity
  8
Export_Paths
 62
7
100
AcDbLine
 10
23.204248
 20
2.697526
 30
0.0
 11
23.297268
 21
2.313570
 31
0.0
  0
LINE
  5
4a8
100
AcDbEntity
  8
Export_Paths
 62
7
100
AcDbLine
 10
23.297268
 20
2.313570
 30
0.0
 11
23.621796
 21
2.160091
 31
0.0
  0
LINE
  5
4a9
100
AcDbEntity
  8
Export_Paths
 62
7
100
AcDbLine
 10
23.621796
 20
2.160091
 30
0.0
 11
24.159231
 21
2.322872
 31
0.0
  0
LINE
  5
4aa
100
AcDbEntity
  8
Export_Paths
 62
7
100
AcDbLine
 10
24.159231
 20
2.322872
 30
0.0
 11
24.256901
 21
2.409692
 31
0.0
  0
LINE
  5
4ab
100
AcDbEntity
  8
Export_Paths
 62
7
100
AcDbLine
 10
24.256901
 20
2.409692
 30
0.0
 11
24.364905
 21
2.257246
 31
0.0
  0
LINE
  5
4ac
100
AcDbEntity
  8
Export_Paths
 62
7
100
AcDbLine
 10
24.364905
 20
2.257246
 30
0.0
 11
24.815524
 21
2.098599
 31
0.0
  0
LINE
  5
4ad
100
AcDbEntity
  8
Export_Paths
 62
7
100
AcDbLine
 10
24.815524
 20
2.098599
 30
0.0
 11
25.189144
 21
2.156479
 31
0.0
  0
LINE
  5
4ae
100
AcDbEntity
  8
Export_Paths
 62
7
100
AcDbLine
 10
25.189144
 20
2.156479
 30
0.0
 11
25.483700
 21
2.343031
 31
0.0
  0
LINE
  5
4af
100
AcDbEntity
  8
Export_Paths
 62
7
100
AcDbLine
 10
25.483700
 20
2.343031
 30
0.0
 11
25.842851
 21
2.583326
 31
0.0
  0
LINE
  5
4b0
100
AcDbEntity
  8
Export_Paths
 62
7
100
AcDbLine
 10
25.842851
 20
2.583326
 30
0.0
 11
26.138957
 21
2.862896
 31
0.0
  0
LINE
  5
4b1
100
AcDbEntity
  8
Export_Paths
 62
7
100
AcDbLine
 10
26.138957
 20
2.862896
 30
0.0
 11
25.961190
 21
2.865496
 31
0.0
  0
LINE
  5
4b2
100
AcDbEntity
  8
Export_Paths
 62
7
100
AcDbLine
 10
25.961190
 20
2.865496
 30
0.0
 11
25.819597
 21
2.761626
 31
0.0
  0
LINE
  5
4b3
100
AcDbEntity
  8
Export_Paths
 62
7
100
AcDbLine
 10
25.819597
 20
2.761626
 30
0.0
 11
25.653199
 21
2.658273
 31
0.0
  0
LINE
  5
4b4
100
AcDbEntity
  8
Export_Paths
 62
7
100
AcDbLine
 10
25.653199
 20
2.658273
 30
0.0
 11
25.667149
 21
2.730103
 31
0.0
  0
LINE
  5
4b5
100
AcDbEntity
  8
Export_Paths
 62
7
100
AcDbLine
 10
25.667149
 20
2.730103
 30
0.0
 11
25.672349
 21
2.818983
 31
0.0
  0
LINE
  5
4b6
100
AcDbEntity
  8
Export_Paths
 62
7
100
AcDbLine
 10
25.672349
 20
2.818983
 30
0.0
 11
25.670249
 21
2.958509
 31
0.0
  0
LINE
  5
4b7
100
AcDbEntity
  8
Export_Paths
 62
7
100
AcDbLine
 10
25.670249
 20
2.958509
 30
0.0
 11
25.656809
 21
3.208623
 31
0.0
  0
LINE
  5
4b8
100
AcDbEntity
  8
Export_Paths
 62
7
100
AcDbLine
 10
25.656809
 20
3.208623
 30
0.0
 11
25.622189
 21
3.780681
 31
0.0
  0
LINE
  5
4b9
100
AcDbEntity
  8
Export_Paths
 62
7
100
AcDbLine
 10
25.622189
 20
3.780681
 30
0.0
 11
25.600999
 21
4.361008
 31
0.0
  0
LINE
  5
4ba
100
AcDbEntity
  8
Export_Paths
 62
7
100
AcDbLine
 10
25.600999
 20
4.361008
 30
0.0
 11
25.601021
 21
4.360985
 31
0.0
  0
LINE
  5
4bb
100
AcDbEntity
  8
Export_Paths
 62
7
100
AcDbLine
 10
24.992273
 20
3.827684
 30
0.0
 11
25.012943
 21
3.501089
 31
0.0
  0
LINE
  5
4bc
100
AcDbEntity
  8
Export_Paths
 62
7
100
AcDbLine
 10
25.012943
 20
3.501089
 30
0.0
 11
25.041883
 21
3.149172
 31
0.0
  0
LINE
  5
4bd
100
AcDbEntity
  8
Export_Paths
 62
7
100
AcDbLine
 10
25.041883
 20
3.149172
 30
0.0
 11
25.055833
 21
2.941950
 31
0.0
  0
LINE
  5
4be
100
AcDbEntity
  8
Export_Paths
 62
7
100
AcDbLine
 10
25.055833
 20
2.941950
 30
0.0
 11
25.058433
 21
2.823094
 31
0.0
  0
LINE
  5
4bf
100
AcDbEntity
  8
Export_Paths
 62
7
100
AcDbLine
 10
25.058433
 20
2.823094
 30
0.0
 11
24.957147
 21
2.532673
 31
0.0
  0
LINE
  5
4c0
100
AcDbEntity
  8
Export_Paths
 62
7
100
AcDbLine
 10
24.957147
 20
2.532673
 30
0.0
 11
24.684812
 21
2.434483
 31
0.0
  0
LINE
  5
4c1
100
AcDbEntity
  8
Export_Paths
 62
7
100
AcDbLine
 10
24.684812
 20
2.434483
 30
0.0
 11
24.486891
 21
2.505283
 31
0.0
  0
LINE
  5
4c2
100
AcDbEntity
  8
Export_Paths
 62
7
100
AcDbLine
 10
24.486891
 20
2.505283
 30
0.0
 11
24.438831
 21
2.645843
 31
0.0
  0
LINE
  5
4c3
100
AcDbEntity
  8
Export_Paths
 62
7
100
AcDbLine
 10
24.438831
 20
2.645843
 30
0.0
 11
24.469841
 21
2.694423
 31
0.0
  0
LINE
  5
4c4
100
AcDbEntity
  8
Export_Paths
 62
7
100
AcDbLine
 10
24.469841
 20
2.694423
 30
0.0
 11
24.472441
 21
2.691823
 31
0.0
  0
LINE
  5
4c5
100
AcDbEntity
  8
Export_Paths
 62
7
100
AcDbLine
 10
24.472441
 20
2.691823
 30
0.0
 11
24.544271
 21
2.677873
 31
0.0
  0
LINE
  5
4c6
100
AcDbEntity
  8
Export_Paths
 62
7
100
AcDbLine
 10
24.544271
 20
2.677873
 30
0.0
 11
24.676563
 21
2.739373
 31
0.0
  0
LINE
  5
4c7
100
AcDbEntity
  8
Export_Paths
 62
7
100
AcDbLine
 10
24.676563
 20
2.739373
 30
0.0
 11
24.733403
 21
2.882517
 31
0.0
  0
LINE
  5
4c8
100
AcDbEntity
  8
Export_Paths
 62
7
100
AcDbLine
 10
24.733403
 20
2.882517
 30
0.0
 11
24.709113
 21
2.971917
 31
0.0
  0
LINE
  5
4c9
100
AcDbEntity
  8
Export_Paths
 62
7
100
AcDbLine
 10
24.709113
 20
2.971917
 30
0.0
 11
24.638313
 21
3.032377
 31
0.0
  0
LINE
  5
4ca
100
AcDbEntity
  8
Export_Paths
 62
7
100
AcDbLine
 10
24.638313
 20
3.032377
 30
0.0
 11
24.851737
 21
3.465425
 31
0.0
  0
LINE
  5
4cb
100
AcDbEntity
  8
Export_Paths
 62
7
100
AcDbLine
 10
24.851737
 20
3.465425
 30
0.0
 11
24.992297
 21
3.827677
 31
0.0
  0
LINE
  5
4cc
100
AcDbEntity
  8
Export_Paths
 62
7
100
AcDbLine
 10
24.992297
 20
3.827677
 30
0.0
 11
24.992273
 21
3.827684
 31
0.0
  0
ENDSEC
  0
SECTION
  2
OBJECTS
  0
DICTIONARY
  5
C
330
0
100
AcDbDictionary
  3
ACAD_GROUP
350
D
  3
ACAD_MLINESTYLE
350
17
  0
DICTIONARY
  5
D
330
C
100
AcDbDictionary
  0
DICTIONARY
  5
1A
330
C
100
AcDbDictionary
  0
DICTIONARY
  5
17
330
C
100
AcDbDictionary
  3
STANDARD
350
18
  0
DICTIONARY
  5
19
330
C
100
AcDbDictionary
  0
ENDSEC
  0
EOF
